<svg width="180" height="180" viewBox="0 0 180 180" fill="none" xmlns="http://www.w3.org/2000/svg">
<path d="M22.5 172.389V139.17C27.3209 163.77 48.356 176.187 77.2657 176.187C108.439 176.187 127.195 161.228 127.195 134.612C127.195 122.211 123.909 114.073 113.756 107.997C109.266 105.25 104.515 102.955 99.5719 101.145C92.9215 98.6897 86.1488 96.5788 79.2809 94.8209L67.1124 91.2711C64.8338 90.496 61.284 89.4884 56.4631 87.7213C52.7361 86.3744 49.11 84.7634 45.6123 82.9004C41.3029 80.1102 32.9478 74.5298 29.6461 69.2129C25.8176 62.3047 23.7968 54.5412 23.7711 46.6431C23.7711 19.268 42.7756 0 78.3043 0C95.7897 0 109.989 4.30934 121.398 12.68L132.295 5.31691V7.85911V40.8147C129.505 25.856 117.522 15.2067 108.144 10.4013C100.22 5.85739 91.2024 3.57339 82.0711 3.79779C54.696 3.79779 36.4511 19.268 36.4511 42.5973C36.3902 50.3405 39.1949 57.8327 44.3257 63.6324C47.3919 66.3976 50.9033 68.625 54.7115 70.2205C58.5673 72.1043 62.5505 73.7153 66.6319 75.0413L81.5906 79.5987C88.4318 81.6655 94.007 83.443 98.3163 84.9311C103.573 86.6256 108.66 88.8105 113.508 91.4571C118.602 93.9691 123.302 97.2121 127.459 101.083C134.295 107.423 139.86 118.832 139.86 132.086C139.86 160.468 119.32 180 79.7769 180C61.2685 180 46.0618 175.675 33.6454 167.32L22.5 174.916V172.389Z" fill="#222222"/>
<path d="M148.525 141.785H100.692V28.3814L111.804 23.4291L111.601 22.4724H69.825L69.6214 23.4291L80.7338 28.3814V141.239L69.6516 145.335L69.825 146.304H159.856H160.356V145.804V124.397V122.636L159.431 124.134L148.525 141.785Z" fill="#FECA13" stroke="white"/>
</svg>
