<svg width="76" height="76" viewBox="0 0 76 76" fill="none" xmlns="http://www.w3.org/2000/svg">
<path d="M40.375 42.75C50.2126 42.75 58.1875 34.7751 58.1875 24.9375C58.1875 15.0999 50.2126 7.125 40.375 7.125C30.5374 7.125 22.5625 15.0999 22.5625 24.9375C22.5625 34.7751 30.5374 42.75 40.375 42.75Z" fill="#AAE1F9"/>
<path d="M45.1234 32.0623C35.2861 32.0623 27.3109 24.0871 27.3109 14.2498C27.3109 13.7511 27.3109 13.2642 27.3821 12.7773C20.6431 19.9451 20.991 31.218 28.1588 37.9559C35.3265 44.6938 46.5995 44.347 53.3373 37.1793C56.1054 34.2355 57.7905 30.4378 58.1146 26.4098C54.7516 30.0091 50.0491 32.0552 45.1234 32.0623Z" fill="#57B7EB"/>
<path d="M48.6875 9.17969L42.75 14.2503L46.3125 17.8128L40.375 20.1878L38 24.9378L43.9375 27.3128L39.1875 34.4378L53.4375 37.0266C60.1195 29.8066 59.6826 18.5372 52.4626 11.8551C51.3261 10.803 50.0567 9.90287 48.6875 9.17969Z" fill="#A1D51C"/>
<path d="M33.2531 29.6871V24.9371L28.5031 20.1871L32.0656 16.6246V13.0621L28.3962 11.7559C21.118 18.3738 20.5813 29.6396 27.1992 36.9178C27.9794 37.7763 28.8415 38.5553 29.7737 39.2465L29.6906 33.2496L33.2531 29.6871Z" fill="#A1D51C"/>
<path d="M34.4373 36.8125L33.8555 41.5625C35.5037 42.2144 37.241 42.6146 39.0092 42.75L39.1874 39.1875L34.4373 36.8125Z" fill="#7AB92D"/>
<path d="M44.58 7.62376C43.2025 7.29483 41.7917 7.12739 40.3762 7.12501C38.4252 7.12264 36.4872 7.44326 34.6406 8.07501C35.7806 9.96314 36.8137 11.875 36.8137 11.875L44.58 7.62376Z" fill="#A1D51C"/>
<path d="M45.125 32.0627C43.7653 32.0567 42.4116 31.8976 41.0875 31.5877L39.1875 34.4377L53.4375 37.0264C56.1355 34.1099 57.7754 30.3705 58.0925 26.4102C54.7354 30.0035 50.0424 32.0496 45.125 32.0627Z" fill="#7AB92D"/>
<path d="M27.3114 14.25C27.3114 13.7513 27.3114 13.2644 27.3826 12.7656C20.6554 19.9429 21.02 31.2158 28.1973 37.943C28.6924 38.4073 29.2138 38.8419 29.7576 39.2469L29.6864 33.25L33.2489 29.6875V27.5025C29.4774 24.1288 27.3185 19.3099 27.3114 14.25Z" fill="#7AB92D"/>
<path d="M59.375 14.25H65.3125C65.3125 19.4964 61.0589 23.75 55.8125 23.75H51.0625V22.5625C51.0625 17.9716 54.7841 14.25 59.375 14.25Z" fill="#C4F236"/>
<path d="M24.9375 14.25H20.1875C14.9411 14.25 10.6875 9.99638 10.6875 4.75H16.625C21.2159 4.75 24.9375 8.47163 24.9375 13.0625V14.25Z" fill="#A1D51C"/>
<path d="M10.6875 72.4374H3.5625V59.3749L12.7894 52.2499C16.8162 49.1624 21.7514 47.4928 26.8256 47.4999C28.1675 47.5011 29.5058 47.6163 30.8275 47.8443L40.5412 49.5662C42.4781 49.9093 43.6953 51.7238 43.3936 53.6785C43.3841 53.739 43.3176 53.9801 43.3117 54.0312L47.0381 54.3518C47.6995 54.4076 48.3538 54.1832 48.8431 53.7343L55.8125 47.2862C57.2624 45.9562 59.5163 46.0535 60.8463 47.5047C60.8879 47.5498 60.9282 47.5961 60.9663 47.6424C62.1514 49.1838 61.9388 51.3807 60.4794 52.6655L50.0175 62.2487C48.7089 63.4504 46.9977 64.1202 45.22 64.1249H28.7256C24.9126 64.138 21.1897 65.2922 18.0381 67.438L10.6875 72.4374Z" fill="#F9E109"/>
<path d="M39.1049 54.1739L33.5118 53.1882C32.4383 52.9721 31.3921 53.6668 31.176 54.7403C31.1487 54.8745 31.1356 55.011 31.1368 55.1476L39.0455 56.537C40.9396 56.9158 42.8075 55.7805 43.3443 53.9245C43.5082 53.2429 43.4666 52.528 43.2255 51.8701C42.5748 53.5207 40.8517 54.4838 39.1049 54.1739Z" fill="#FCBC04"/>
<path d="M61.5363 48.6875C61.3296 49.3086 60.9698 49.8679 60.4912 50.3144L50.0294 59.8975C48.7136 61.0933 46.9977 61.7548 45.22 61.75H28.7256C27.3481 61.7512 25.9742 61.902 24.6287 62.2013C24.2369 62.2844 23.845 62.3913 23.4412 62.4981C19.6044 63.7011 15.4613 63.4742 11.78 61.8569C9.49881 60.8428 7.372 59.5116 5.4625 57.9025L3.5625 59.375V72.4375H10.6875L18.0025 67.4381C18.4276 67.146 18.8682 66.8776 19.3206 66.6306L19.8906 66.3219L20.4487 66.0487C21.0746 65.7447 21.717 65.4752 22.3725 65.2412C23.1099 64.9717 23.8628 64.7496 24.6287 64.5763C25.9742 64.277 27.3481 64.1262 28.7256 64.125H45.22C47.0013 64.1226 48.7172 63.4529 50.0294 62.2487L60.4912 52.6656C61.5944 51.6622 62.0041 50.103 61.5363 48.6875Z" fill="#FCBC04"/>
<path d="M49.875 28.5C49.2195 28.5 48.6875 27.968 48.6875 27.3125C48.6875 22.0661 52.9411 17.8125 58.1875 17.8125C58.843 17.8125 59.375 18.3445 59.375 19C59.375 19.6555 58.843 20.1875 58.1875 20.1875C54.2521 20.1875 51.0625 23.3771 51.0625 27.3125C51.0625 27.968 50.5305 28.5 49.875 28.5Z" fill="#7AB92D"/>
<path d="M26.125 18.4899C25.4956 18.4911 24.9755 18.0018 24.9375 17.3736C24.7047 13.6116 21.5816 10.6809 17.8125 10.688C17.157 10.688 16.625 10.156 16.625 9.50051C16.625 8.84501 17.157 8.31301 17.8125 8.31301C22.8404 8.30351 27.0049 12.2128 27.3125 17.2311C27.3517 17.8854 26.8529 18.4483 26.1986 18.4875C26.1737 18.4887 26.1499 18.4899 26.125 18.4899Z" fill="#7AB92D"/>
<path d="M21.3753 40.4344C21.0036 40.4367 20.6521 40.2657 20.4253 39.9712C17.1621 35.6404 15.4105 30.3596 15.4378 24.9375C15.4378 24.282 15.9698 23.75 16.6253 23.75C17.2808 23.75 17.8128 24.282 17.8128 24.9375C17.7998 29.8478 19.4017 34.6251 22.3728 38.5344C22.7659 39.0592 22.6602 39.8038 22.1353 40.1969C21.9168 40.3607 21.6484 40.4451 21.3753 40.4344Z" fill="#7AB92D"/>
<path d="M58.7457 41.1706C58.4726 41.1682 58.2078 41.0721 57.9976 40.8975C57.4811 40.4926 57.392 39.7468 57.7957 39.2302C57.8076 39.216 57.8183 39.2017 57.8314 39.1875C59.9131 36.6593 61.4129 33.7036 62.2251 30.5306C62.389 29.8941 63.0374 29.5117 63.6739 29.6756C64.3104 29.8395 64.6927 30.4879 64.5289 31.1244C63.6216 34.6073 61.9639 37.8504 59.672 40.6244C59.4677 40.9438 59.1246 41.1469 58.7457 41.1706Z" fill="#7AB92D"/>
<path d="M57.9485 10.1533C57.6136 10.1521 57.2942 10.0096 57.0698 9.76138C55.855 8.41475 54.4834 7.21894 52.9848 6.19887C52.4409 5.83194 52.2972 5.09212 52.6641 4.54825C53.0311 4.00437 53.7709 3.86069 54.3148 4.22762C55.9725 5.3415 57.4878 6.6525 58.8273 8.1345C59.2667 8.62138 59.2286 9.37188 58.7418 9.81125C58.5233 10.0084 58.2418 10.1164 57.9485 10.1176V10.1533Z" fill="#7AB92D"/>
</svg>
