<svg width="130" height="130" viewBox="0 0 130 130" fill="none" xmlns="http://www.w3.org/2000/svg">
<circle cx="65" cy="65" r="65" fill="#F2F2F2"/>
<mask id="path-2-inside-1" fill="white">
<path d="M65 0C56.4641 -1.0179e-07 48.0117 1.68127 40.1256 4.94783C32.2394 8.21439 25.0739 13.0023 19.0381 19.0381C13.0023 25.0739 8.21439 32.2394 4.94783 40.1256C1.68127 48.0117 -2.71327e-07 56.4641 0 65C2.71327e-07 73.5359 1.68128 81.9883 4.94783 89.8744C8.21439 97.7606 13.0023 104.926 19.0381 110.962C25.0739 116.998 32.2394 121.786 40.1256 125.052C48.0117 128.319 56.4641 130 65 130L65 113.837C58.5866 113.837 52.2359 112.574 46.3107 110.12C40.3855 107.666 35.0017 104.068 30.4667 99.5333C25.9317 94.9983 22.3344 89.6145 19.88 83.6893C17.4257 77.7641 16.1625 71.4134 16.1625 65C16.1625 58.5866 17.4257 52.2359 19.88 46.3107C22.3344 40.3855 25.9317 35.0017 30.4667 30.4667C35.0017 25.9317 40.3855 22.3344 46.3107 19.88C52.2359 17.4257 58.5866 16.1625 65 16.1625V0Z"/>
</mask>
<path d="M65 0C56.4641 -1.0179e-07 48.0117 1.68127 40.1256 4.94783C32.2394 8.21439 25.0739 13.0023 19.0381 19.0381C13.0023 25.0739 8.21439 32.2394 4.94783 40.1256C1.68127 48.0117 -2.71327e-07 56.4641 0 65C2.71327e-07 73.5359 1.68128 81.9883 4.94783 89.8744C8.21439 97.7606 13.0023 104.926 19.0381 110.962C25.0739 116.998 32.2394 121.786 40.1256 125.052C48.0117 128.319 56.4641 130 65 130L65 113.837C58.5866 113.837 52.2359 112.574 46.3107 110.12C40.3855 107.666 35.0017 104.068 30.4667 99.5333C25.9317 94.9983 22.3344 89.6145 19.88 83.6893C17.4257 77.7641 16.1625 71.4134 16.1625 65C16.1625 58.5866 17.4257 52.2359 19.88 46.3107C22.3344 40.3855 25.9317 35.0017 30.4667 30.4667C35.0017 25.9317 40.3855 22.3344 46.3107 19.88C52.2359 17.4257 58.5866 16.1625 65 16.1625V0Z" fill="white" stroke="#F2F2F2" stroke-width="6" mask="url(#path-2-inside-1)"/>
<g clip-path="url(#clip0)">
<path d="M90.3876 69.2559H81.5424C80.0971 69.2559 78.9261 70.4274 78.9261 71.8721V82.4556C78.9261 81.0109 77.7547 79.8394 76.3099 79.8394H67.4641C66.0188 79.8394 64.8479 81.0103 64.8479 82.4556V89.4332C64.8479 87.9885 63.6764 86.817 62.2317 86.817H53.3859C51.9406 86.817 50.7697 87.9885 50.7697 89.4332V95.9286C50.7697 94.4839 49.5982 93.3124 48.1528 93.3124H39.3076C37.8629 93.3124 36.6914 94.4833 36.6914 95.9286V100.895H93.0044V71.8721C93.0044 70.4274 91.8329 69.2559 90.3876 69.2559Z" fill="#A7C7D3"/>
<path d="M82.7461 70.3606C82.1352 70.3606 81.6406 69.8661 81.6406 69.2558V29.1049C81.6406 28.4946 82.1352 28 82.7461 28C83.3564 28 83.8509 28.4946 83.8509 29.1049V69.2558C83.8509 69.8661 83.3558 70.3606 82.7461 70.3606Z" fill="#A7C7D3"/>
<path d="M50.7697 100.895H36.6914V95.9287C36.6914 94.484 37.8629 93.3125 39.3076 93.3125H48.1534C49.5982 93.3125 50.7697 94.4834 50.7697 95.9287V100.895Z" fill="#A7C7D3"/>
<path d="M64.8478 100.895H50.7695V89.4331C50.7695 87.9884 51.941 86.8169 53.3858 86.8169H62.2315C63.6763 86.8169 64.8478 87.9884 64.8478 89.4331V100.895Z" fill="#89B4C9"/>
<path d="M78.9259 100.895H64.8477V82.4556C64.8477 81.0108 66.0186 79.8394 67.4639 79.8394H76.3097C77.7544 79.8394 78.9259 81.0103 78.9259 82.4556V100.895Z" fill="#6C96B3"/>
<path d="M93.004 100.895H78.9258V71.8721C78.9258 70.4274 80.0967 69.2559 81.542 69.2559H90.3872C91.8325 69.2559 93.004 70.4274 93.004 71.8721V100.895Z" fill="#618AAA"/>
<path d="M96.9075 102H33.0072C32.3969 102 31.9023 101.505 31.9023 100.895C31.9023 100.285 32.3969 99.79 33.0072 99.79H96.9075C97.5178 99.79 98.0124 100.285 98.0124 100.895C98.0124 101.505 97.5178 102 96.9075 102Z" fill="#2F5066"/>
<path d="M82.75 39.6097H96.9101C97.3488 39.6097 97.5537 39.0666 97.2246 38.777L93.5464 35.5374C93.3307 35.3483 93.3307 35.013 93.5464 34.8233L97.2246 31.5843C97.5537 31.2941 97.3488 30.751 96.9101 30.751H82.75V39.6097Z" fill="#FDB659"/>
<path d="M83.876 43.7554L68.5365 52.0868C67.168 52.8304 66.7937 54.1368 66.316 55.8198L63.2656 66.6082L67.2944 67.992L70.7412 63.5443L73.6425 54.7725L81.362 50.082C83.5192 48.7716 84.545 46.1893 83.876 43.7554Z" fill="#83D9FF"/>
<path d="M83.876 43.7554L82.1061 44.7168C81.808 46.2401 80.8877 47.6159 79.496 48.4617L72.462 52.7355C72.0194 53.0042 71.6868 53.4226 71.5237 53.9143L70.5193 56.9512C69.4754 60.1072 67.1042 62.6494 64.0284 63.9101L63.2656 66.6082L70.7412 63.5449L73.6425 54.7731L81.362 50.082C83.5192 48.7716 84.545 46.1893 83.876 43.7554Z" fill="#5FC9ED"/>
<path d="M70.7412 63.5444L75.1584 68.7656C75.8907 69.735 76.5275 70.4164 76.3954 71.4829L75.3622 79.8347H72.6664L71.9618 72.655C71.9189 72.2203 71.6439 71.8437 71.2431 71.6709L63.2656 66.6084L70.7412 63.5444Z" fill="#38627C"/>
<path d="M63.2654 66.6084L62.8346 74.5243C62.8064 75.1809 62.8984 75.6246 62.6415 76.113L57.5547 86.8168H60.4143L68.0626 76.6556C68.5097 76.135 68.5616 75.4282 68.7124 74.7778L70.7403 63.5444L63.2654 66.6084Z" fill="#4F7693"/>
<path d="M70.1924 45.4642L71.4469 47.9133C72.0363 49.0639 71.5813 50.4753 70.4301 51.0647L69.4607 51.561C68.3096 52.1504 66.8987 51.6954 66.3093 50.5442L65.0548 48.0951C64.4654 46.9439 64.9204 45.533 66.0716 44.9436L67.041 44.4474C68.1916 43.8579 69.6024 44.313 70.1924 45.4642Z" fill="#FECBAA"/>
</g>
<defs>
<clipPath id="clip0">
<rect width="74" height="74" fill="white" transform="translate(28 28)"/>
</clipPath>
</defs>
</svg>
