<svg width="76" height="76" viewBox="0 0 76 76" fill="none" xmlns="http://www.w3.org/2000/svg">
<g clip-path="url(#clip0)">
<path d="M1.21582 47.9117L6.81059 48.79C6.89119 48.8026 6.95264 48.864 6.96526 48.9446L7.79829 54.2508C7.81091 54.3314 7.87236 54.3929 7.95296 54.4055L13.2592 55.2385C13.3398 55.2512 13.4012 55.3126 13.4138 55.3932L14.3091 61.0957C14.3217 61.1763 14.3831 61.2378 14.4637 61.2504L20.1663 62.1456C20.2469 62.1583 20.3083 62.2197 20.3209 62.3003L21.2135 67.9852C21.2261 68.0658 21.2876 68.1273 21.3682 68.1399L27.0531 69.0324C27.1337 69.045 27.1951 69.1065 27.2077 69.1871L28.086 74.7819C28.1107 74.9388 28.3032 74.9931 28.4202 74.8761L74.8747 28.4216C74.9916 28.3047 74.9375 28.1121 74.7804 28.0875L69.1856 27.2092C69.105 27.1966 69.0436 27.1351 69.031 27.0545L68.1384 21.3696C68.1258 21.289 68.0643 21.2276 67.9837 21.215L62.2989 20.3224C62.2183 20.3098 62.1568 20.2483 62.1442 20.1677L61.249 14.4652C61.2364 14.3846 61.1749 14.3232 61.0943 14.3105L55.3918 13.4153C55.3112 13.4027 55.2497 13.3412 55.2371 13.2606L54.4041 7.95443C54.3914 7.87383 54.33 7.81237 54.2494 7.79976L48.9432 6.96672C48.8626 6.95411 48.8011 6.89265 48.7885 6.81205L47.9102 1.21728C47.8856 1.06038 47.693 1.00606 47.5761 1.12302L1.12156 47.5775C1.00459 47.6945 1.05892 47.887 1.21582 47.9117Z" fill="#FFB125"/>
<path d="M62.3036 20.3229C62.2239 20.3104 62.1614 20.2479 62.149 20.1682L61.2537 14.4657C61.2413 14.386 61.1788 14.3235 61.0991 14.311L55.3964 13.4158C55.3167 13.4033 55.2542 13.3408 55.2417 13.2611L54.4087 7.95492C54.3962 7.8752 54.3337 7.81271 54.254 7.80024L48.9478 6.96721C48.8681 6.95474 48.8056 6.89225 48.7931 6.81254L47.9148 1.21777C47.8902 1.06087 47.6976 1.00654 47.5807 1.12351L43.0511 5.65309C43.1681 5.53612 43.3606 5.5903 43.3852 5.74735L44.2637 11.3421C44.2762 11.4218 44.3387 11.4843 44.4184 11.4968L49.7246 12.3298C49.8043 12.3423 49.8668 12.4048 49.8792 12.4845L50.7123 17.7907C50.7247 17.8704 50.7872 17.9329 50.8669 17.9454L56.5695 18.8406C56.6492 18.8531 56.7117 18.9156 56.7241 18.9953L57.6194 24.6978C57.6318 24.7775 57.6943 24.84 57.7741 24.8525L63.4589 25.745C63.5395 25.7577 63.601 25.8191 63.6136 25.8997L64.4633 30.9821C64.5393 31.4367 64.391 31.9 64.065 32.226L27.1797 69.1113C27.1954 69.1338 27.2079 69.1589 27.2125 69.1877L28.0908 74.7825C28.1154 74.9394 28.308 74.9937 28.4249 74.8768L70.3498 32.9518L74.8794 28.4223C74.9964 28.3053 74.9421 28.1128 74.7852 28.0881L69.1904 27.2098C69.1747 27.2073 69.1604 27.2017 69.1463 27.1956C69.135 27.1902 69.1242 27.1841 69.1141 27.1772C69.0736 27.1491 69.0439 27.107 69.0357 27.0551L68.1432 21.3703C68.1307 21.2906 68.0682 21.2281 67.9885 21.2156L62.3036 20.3229Z" fill="#FF901D"/>
<path d="M1.1216 47.5779C1.00463 47.6948 1.05881 47.8874 1.21586 47.912L6.81062 48.7903C6.89123 48.8029 6.95268 48.8644 6.9653 48.945L7.79833 54.2512C7.81095 54.3318 7.8724 54.3933 7.953 54.4059L13.2592 55.2389C13.3398 55.2515 13.4013 55.313 13.4139 55.3936L14.3091 61.0961C14.3217 61.1767 14.3832 61.2382 14.4638 61.2508L20.1663 62.146C20.2469 62.1586 20.3084 62.2201 20.321 62.3007L21.2135 67.9856C21.2262 68.0662 21.2876 68.1276 21.3682 68.1402L27.0531 69.0328C27.1337 69.0454 27.1951 69.1069 27.2078 69.1875L28.0861 74.7822C28.1107 74.9391 28.3032 74.9935 28.4202 74.8765L37.6327 65.664L10.3341 38.3652L1.1216 47.5779Z" fill="#61AFF6"/>
<path d="M27.1758 69.1114C27.1829 69.1217 27.1893 69.1321 27.1943 69.1438C27.2009 69.1576 27.2061 69.1721 27.2086 69.188L28.0869 74.7828C28.093 74.822 28.1098 74.8548 28.1331 74.8802C28.1564 74.9056 28.1863 74.9234 28.2193 74.9326C28.2358 74.9372 28.253 74.9397 28.2704 74.94C28.3052 74.9404 28.341 74.9318 28.3741 74.913C28.3906 74.9036 28.4065 74.8916 28.421 74.8771L37.6335 65.6645L34.1282 62.1592L27.1758 69.1114Z" fill="#55A2F0"/>
<path d="M58.7211 33.8595C60.3949 32.1856 60.9676 30.1591 58.9855 28.1772L55.726 24.9176C53.7439 22.9355 51.7175 23.5082 50.0436 25.182C48.3479 26.8779 47.7973 28.8821 49.7794 30.8642L53.0391 34.1239C55.021 36.1058 57.0252 35.5553 58.7211 33.8595ZM51.4532 26.5915C52.312 25.7325 53.2371 25.6004 54.1401 26.5034L57.3996 29.7629C58.3025 30.6659 58.1704 31.5911 57.3114 32.4498C56.4524 33.3088 55.5495 33.4191 54.6464 32.516L51.3868 29.2564C50.4839 28.3535 50.5942 27.4504 51.4532 26.5915Z" fill="black"/>
<path d="M42.5993 17.6058C42.0926 17.0992 41.2778 17.2536 40.8374 17.694C40.5732 17.9582 40.4188 18.3326 40.5732 18.7512L48.6782 43.0218C48.7221 43.198 48.8103 43.3301 48.9204 43.4404C49.3167 43.8369 50.0876 43.9028 50.5941 43.3963C50.9025 43.0879 51.0564 42.6253 50.9245 42.229L42.8855 18.0241C42.8195 17.8701 42.7315 17.738 42.5993 17.6058Z" fill="black"/>
<path d="M32.8212 27.428C31.1253 29.1239 30.5745 31.1282 32.5569 33.1104L35.8164 36.3699C37.7985 38.3522 39.8028 37.8016 41.4987 36.1057C43.1725 34.4319 43.7452 32.4056 41.763 30.4234L38.5034 27.1638C36.5212 25.1816 34.495 25.7543 32.8212 27.428ZM40.0892 34.6959C39.2302 35.555 38.3274 35.665 37.4243 34.7619L34.1647 31.5024C33.2618 30.5996 33.3718 29.6965 34.2306 28.8375C35.0896 27.9784 36.0147 27.8463 36.9175 28.7493L40.1771 32.0088C41.0802 32.9119 40.948 33.8371 40.0892 34.6959Z" fill="black"/>
<path d="M28.7237 31.9475C28.3098 31.5338 27.6387 31.5338 27.2249 31.9475L19.4315 39.7409C19.0176 40.1549 19.0176 40.8258 19.4315 41.2397C19.6384 41.4465 19.9096 41.5501 20.1808 41.5501C20.452 41.5501 20.7232 41.4466 20.9301 41.2397L28.7235 33.4463C29.1375 33.0324 29.1375 32.3615 28.7237 31.9475Z" fill="black"/>
<path d="M25.6263 46.9947C25.8975 46.9947 26.1686 46.8913 26.3756 46.6844L34.169 38.8911C34.5828 38.4771 34.5828 37.8061 34.169 37.3923C33.7552 36.9786 33.0841 36.9786 32.6702 37.3923L24.8768 45.1857C24.4629 45.5997 24.4629 46.2707 24.8768 46.6845C25.0837 46.8913 25.3549 46.9947 25.6263 46.9947Z" fill="black"/>
<path d="M36.5128 57.8826C36.784 57.8826 37.0552 57.7791 37.2621 57.5722L45.0557 49.7788C45.4696 49.3648 45.4696 48.6938 45.0557 48.28C44.6419 47.8665 43.9709 47.8662 43.5569 48.28L35.7635 56.0734C35.3497 56.4874 35.3497 57.1584 35.7635 57.5722C35.9704 57.7791 36.2416 57.8826 36.5128 57.8826Z" fill="black"/>
<path d="M31.0714 52.4387C31.3426 52.4387 31.6138 52.3353 31.8207 52.1284L39.6143 44.3349C40.0281 43.9209 40.0281 43.25 39.6143 42.8362C39.2004 42.4226 38.5295 42.4223 38.1155 42.8362L30.3221 50.6296C29.9083 51.0436 29.9083 51.7145 30.3221 52.1284C30.529 52.3353 30.8002 52.4387 31.0714 52.4387Z" fill="black"/>
<path d="M75.9377 27.8846C75.7918 27.4372 75.4121 27.114 74.9469 27.0412L69.9811 26.2616L69.1874 21.2053C69.1031 20.6696 68.6864 20.2529 68.1501 20.1685L63.0945 19.3749L62.2979 14.3025C62.2145 13.7659 61.7977 13.3487 61.2605 13.264L56.187 12.4675L55.4527 7.78981C55.3683 7.25321 54.951 6.8364 54.4156 6.75312L49.7385 6.01895L48.959 1.05356C48.886 0.587908 48.5628 0.208204 48.1154 0.0624379C47.6617 -0.0855545 47.1686 0.0339379 46.8283 0.374157L39.6855 7.51683C39.2717 7.93083 39.2717 8.60177 39.6855 9.01561C40.0995 9.42931 40.7705 9.42931 41.1843 9.01561L47.1298 3.06994L47.743 6.97548C47.8266 7.51208 48.2433 7.92949 48.7805 8.0141L53.4576 8.74827L54.1919 13.426C54.2762 13.9617 54.6927 14.3782 55.229 14.4627L60.3025 15.2592L61.099 20.3315C61.1826 20.8681 61.5992 21.2855 62.1364 21.3701L67.1921 22.1638L67.9859 27.22C68.0704 27.7566 68.4878 28.1733 69.0232 28.2567L72.9299 28.8701L37.6348 64.1653L34.1565 60.687C33.7428 60.2734 33.0717 60.2731 32.6577 60.687C32.2439 61.1009 32.2439 61.7719 32.6577 62.1857L36.1359 65.6639L28.87 72.9298L28.2566 69.0226C28.1722 68.4868 27.7556 68.0703 27.2193 67.9858L22.1636 67.1922L21.3699 62.1367C21.3383 61.9353 21.2599 61.7508 21.1459 61.5945C20.9561 61.3338 20.6674 61.1514 20.3327 61.0993L15.2591 60.3026L14.4624 55.2286C14.3781 54.6929 13.9614 54.2764 13.4251 54.1919L8.74798 53.4577L8.01381 48.7809C7.92964 48.2439 7.51223 47.8269 6.97652 47.7433L3.06964 47.13L10.3357 39.864L27.2078 56.7363C27.6217 57.15 28.2928 57.15 28.7066 56.7363C29.1205 56.3223 29.1205 55.6513 28.7066 55.2375L11.8347 38.365L35.8668 14.3328C36.2807 13.9188 36.2807 13.2479 35.8668 12.834C35.453 12.4203 34.7819 12.4203 34.368 12.834L0.374012 46.8282C0.373715 46.8285 0.374309 46.8279 0.374012 46.8282C0.0339413 47.1684 -0.0855511 47.6615 0.0624413 48.1153C0.098957 48.2271 0.15002 48.3313 0.213402 48.4255C0.403551 48.7086 0.704435 48.9041 1.05326 48.9586L6.01895 49.7382L6.75327 54.4159C6.76381 54.4828 6.77955 54.548 6.80003 54.6108C6.94357 55.0506 7.3212 55.3788 7.79056 55.4526L12.4677 56.1868L13.2642 61.2599C13.2747 61.3269 13.2905 61.392 13.3108 61.455C13.4459 61.8699 13.7901 62.1816 14.2209 62.2782C14.2479 62.2843 14.2737 62.2932 14.3015 62.2975L19.3749 63.094L20.1686 68.1494C20.2526 68.6855 20.6693 69.1025 21.2059 69.1871L26.2617 69.9806L27.0413 74.9465C27.1143 75.412 27.4376 75.7917 27.885 75.9373C28.0136 75.9793 28.1454 75.9996 28.276 75.9996C28.606 75.9996 28.9281 75.8693 29.1718 75.6257C29.172 75.6256 29.1717 75.6259 29.1718 75.6257L75.6263 29.1714C75.9661 28.8315 76.0854 28.3382 75.9377 27.8846Z" fill="black"/>
</g>
<defs>
<clipPath id="clip0">
<rect width="76" height="76" fill="white"/>
</clipPath>
</defs>
</svg>
