<svg width="76" height="76" viewBox="0 0 76 76" fill="none" xmlns="http://www.w3.org/2000/svg">
<path d="M11.9448 75.9997H64.2178C65.2563 75.9997 66.0753 75.1125 65.9967 74.0721L62.1889 23.2741C62.0836 21.8712 60.9204 20.7866 59.5202 20.7866H16.6424C15.2422 20.7866 14.079 21.8712 13.9738 23.2741L10.1653 74.0721C10.0874 75.1125 10.9063 75.9997 11.9448 75.9997Z" fill="#FFEACF"/>
<path d="M18.6369 74.0721L22.4454 23.2741C22.5506 21.8712 23.7138 20.7866 25.1141 20.7866H16.6424C15.2422 20.7866 14.079 21.8712 13.9738 23.2741L10.1653 74.0721C10.0874 75.1125 10.9063 75.9997 11.9448 75.9997H20.4165C19.378 75.9997 18.559 75.1125 18.6369 74.0721Z" fill="#FFD59A"/>
<path d="M27.9314 25.8885C27.9314 23.707 26.1714 21.9385 24.0009 21.9385C21.8297 21.9385 20.0703 23.707 20.0703 25.8885C20.0703 28.0707 21.8297 29.8392 24.0009 29.8392C26.1714 29.8392 27.9314 28.0707 27.9314 25.8885Z" fill="#F9BB32"/>
<path d="M56.0955 25.8885C56.0955 23.707 54.3355 21.9385 52.165 21.9385C49.9938 21.9385 48.2344 23.707 48.2344 25.8885C48.2344 28.0707 49.9938 29.8392 52.165 29.8392C54.3355 29.8392 56.0955 28.0707 56.0955 25.8885Z" fill="#F9BB32"/>
<path d="M49.8557 50.6577C49.8557 44.1221 44.5833 38.8237 38.0802 38.8237C31.5771 38.8237 26.3047 44.1221 26.3047 50.6577C26.3047 57.1939 31.5771 62.4922 38.0802 62.4922C44.5833 62.4922 49.8557 57.1939 49.8557 50.6577Z" fill="#FF9079"/>
<path d="M23.9861 27.2438C25.2337 27.2438 26.2449 26.2326 26.2449 24.9856V12.714C26.2449 8.20016 29.8858 4.54107 34.3775 4.54107H41.7405C46.2322 4.54107 49.8731 8.20016 49.8731 12.714V24.9856C49.8731 26.2326 50.8844 27.2438 52.1313 27.2438H52.1326C53.3803 27.2438 54.3915 26.2326 54.3915 24.9856V12.714C54.3915 5.69257 48.7275 0 41.7405 0H34.3775C27.3906 0 21.7266 5.69257 21.7266 12.714V24.9856C21.7266 26.2326 22.7378 27.2438 23.9854 27.2438H23.9861Z" fill="#DB9C2E"/>
<path d="M39.8935 56.8914C53.3556 55.6776 52.2346 45.3283 51.5462 42.0947C51.4299 41.5491 50.7227 41.3218 49.9862 41.5933C45.5373 43.2332 31.7193 49.0926 38.5146 56.4647C38.8115 56.7869 39.318 56.9427 39.8935 56.8914Z" fill="#CCC033"/>
<path d="M51.7065 42.9591C51.6551 42.6343 51.5993 42.3434 51.5467 42.0953C51.4304 41.5491 50.7232 41.3218 49.9867 41.5933C47.9662 42.3382 44.0116 43.9541 40.9344 46.1869C40.8785 46.2272 40.8233 46.2681 40.7681 46.309C40.7603 46.3142 40.7532 46.3201 40.7461 46.3259C40.698 46.3616 40.6499 46.3974 40.6025 46.4331C40.5921 46.4409 40.5817 46.4487 40.572 46.4565C40.5272 46.4902 40.483 46.524 40.4389 46.5578C40.4272 46.5675 40.4148 46.5766 40.4025 46.5864C40.3603 46.6188 40.3187 46.6519 40.2771 46.6844C40.2641 46.6948 40.2518 46.7046 40.2388 46.7149C40.1979 46.7481 40.1563 46.7812 40.1154 46.8143C40.1031 46.8241 40.0907 46.8338 40.0791 46.8435C40.0368 46.878 39.9953 46.9117 39.9537 46.9462C39.9433 46.9552 39.9323 46.9643 39.9219 46.9728C39.8784 47.0092 39.8349 47.0462 39.792 47.0825C39.7842 47.0897 39.7757 47.0962 39.7673 47.1033C39.7179 47.1455 39.6686 47.1884 39.6199 47.2313C39.6186 47.2319 39.6173 47.2332 39.6166 47.2339C39.4627 47.369 39.3133 47.5053 39.1685 47.6437C39.1627 47.6489 39.1568 47.6547 39.151 47.6606C39.11 47.6995 39.0691 47.7392 39.0289 47.7781C39.0185 47.7885 39.0087 47.7989 38.9983 47.8086C38.9626 47.8444 38.9269 47.8794 38.8918 47.9145C38.8801 47.9268 38.8678 47.9398 38.8555 47.9515C38.823 47.9853 38.7905 48.0184 38.7587 48.0522C38.745 48.0658 38.7321 48.0795 38.7191 48.0931C38.6885 48.1256 38.6574 48.1587 38.6275 48.1912C38.6139 48.2055 38.6009 48.2198 38.5872 48.234C38.5573 48.2672 38.5281 48.2996 38.4982 48.3328C38.4859 48.3464 38.4729 48.3607 38.4606 48.375C38.4307 48.4088 38.4015 48.4425 38.3723 48.4763C38.3606 48.4899 38.3489 48.5036 38.3372 48.5172C38.3067 48.5523 38.2768 48.588 38.2469 48.6237C38.2372 48.6354 38.2274 48.6478 38.2177 48.6594C38.1833 48.7004 38.1501 48.7419 38.117 48.7835C38.1118 48.79 38.1073 48.7958 38.1021 48.8017C38.0241 48.8997 37.9488 48.9985 37.8767 49.0985C37.8754 49.0998 37.8748 49.1011 37.8735 49.103C37.8397 49.1498 37.8059 49.1966 37.7734 49.244C37.765 49.255 37.7579 49.2667 37.7494 49.2784C37.7241 49.3154 37.6988 49.3531 37.6734 49.3907C37.6637 49.4057 37.6539 49.4206 37.6442 49.4356C37.6221 49.47 37.6 49.5044 37.578 49.5388C37.5676 49.5551 37.5572 49.5719 37.5468 49.5888C37.526 49.622 37.5059 49.6544 37.4864 49.6876C37.476 49.7051 37.4649 49.7233 37.4546 49.7415C37.4357 49.7733 37.4169 49.8058 37.3987 49.8382C37.3883 49.8564 37.3786 49.8746 37.3682 49.8934C37.35 49.9253 37.3325 49.9577 37.3156 49.9902C37.3058 50.0084 37.2961 50.0266 37.2863 50.0448C37.2688 50.0785 37.2519 50.1117 37.2357 50.1448C37.2266 50.1623 37.2181 50.1798 37.2091 50.1974C37.1922 50.2325 37.1759 50.2675 37.1597 50.3026C37.1519 50.3188 37.1441 50.3351 37.137 50.3513C37.1194 50.3903 37.1025 50.4299 37.085 50.4689C37.0805 50.4812 37.0746 50.4929 37.0694 50.5052C37.0259 50.6091 36.9856 50.7137 36.9486 50.8196C36.9454 50.8293 36.9421 50.8391 36.9382 50.8494C36.9239 50.8917 36.9097 50.9332 36.8967 50.9754C36.8915 50.9923 36.8863 51.0086 36.8811 51.0255C36.87 51.0612 36.8596 51.0969 36.8493 51.1333C36.8441 51.1521 36.8389 51.1716 36.8337 51.1904C36.8246 51.2242 36.8155 51.2573 36.8077 51.2911C36.8025 51.3119 36.7979 51.3326 36.7927 51.3534C36.785 51.3859 36.7778 51.4184 36.7707 51.4509C36.7661 51.4723 36.7622 51.4937 36.7577 51.5151C36.7512 51.547 36.7453 51.5794 36.7395 51.6113C36.7356 51.6334 36.7317 51.6548 36.7285 51.6769C36.7233 51.7093 36.7187 51.7412 36.7142 51.7736C36.7109 51.7951 36.7077 51.8172 36.7051 51.8386C36.7005 51.8717 36.6973 51.9048 36.6934 51.9373C36.6914 51.9587 36.6888 51.9802 36.6869 52.0016C36.6836 52.036 36.6817 52.0704 36.6791 52.1049C36.6778 52.125 36.6758 52.1445 36.6752 52.1646C36.6726 52.2029 36.6719 52.2419 36.6706 52.2802C36.67 52.2958 36.6693 52.312 36.6687 52.3283C36.6668 52.438 36.6687 52.5485 36.6745 52.6595C36.6752 52.6751 36.6771 52.6907 36.6778 52.7063C36.6804 52.7459 36.683 52.7855 36.6869 52.8258C36.6888 52.8459 36.6914 52.8667 36.6934 52.8868C36.6973 52.9219 36.7012 52.9576 36.7051 52.9927C36.7083 53.0148 36.7116 53.0375 36.7148 53.0602C36.72 53.0934 36.7246 53.1271 36.7304 53.1602C36.7343 53.1836 36.7382 53.207 36.7427 53.231C36.7486 53.2635 36.7551 53.2966 36.7616 53.3291C36.7661 53.3531 36.7713 53.3772 36.7765 53.4012C36.7837 53.4337 36.7914 53.4668 36.7992 53.4993C36.8051 53.5233 36.8109 53.5473 36.8174 53.572C36.8259 53.6045 36.835 53.6376 36.8441 53.6707C36.8506 53.6941 36.8577 53.7188 36.8648 53.7428C36.8746 53.7759 36.885 53.8097 36.896 53.8428C36.9032 53.8669 36.911 53.8902 36.9187 53.9143C36.9304 53.9487 36.9428 53.9838 36.9551 54.0188C36.9636 54.0409 36.9714 54.0637 36.9791 54.0864C36.9941 54.1247 37.009 54.1637 37.0246 54.2026C37.0324 54.2208 37.0395 54.2397 37.0473 54.2585C37.0701 54.3143 37.0941 54.3709 37.1194 54.4267C37.1201 54.4287 37.1207 54.43 37.122 54.4319C37.148 54.4897 37.1753 54.5475 37.2039 54.606C37.213 54.6241 37.2233 54.643 37.2324 54.6618C37.2526 54.7014 37.2721 54.741 37.2935 54.7807C37.3052 54.8027 37.3182 54.8261 37.3305 54.8489C37.35 54.8846 37.3695 54.9203 37.3903 54.956C37.4039 54.9801 37.4188 55.0047 37.4331 55.0288C37.4533 55.0632 37.4734 55.0976 37.4942 55.132C37.5098 55.1574 37.526 55.1827 37.5422 55.208C37.563 55.2418 37.5844 55.2756 37.6065 55.3093C37.6234 55.3347 37.6403 55.3606 37.6578 55.386C37.6806 55.4197 37.7033 55.4535 37.7267 55.4873C37.7442 55.5133 37.7624 55.5386 37.7812 55.5646C37.8053 55.599 37.8299 55.6328 37.8553 55.6672C37.8741 55.6925 37.8929 55.7178 37.9118 55.7438C37.9378 55.7782 37.965 55.8127 37.9917 55.8477C38.0111 55.8731 38.0306 55.8977 38.0508 55.9231C38.0793 55.9588 38.1092 55.9952 38.1391 56.0315C38.1586 56.0549 38.1774 56.0789 38.1969 56.1023C38.2307 56.1426 38.2657 56.1829 38.3002 56.2231C38.3177 56.2433 38.3339 56.2627 38.3515 56.2829C38.4047 56.3433 38.4586 56.403 38.5145 56.4634C38.5405 56.492 38.569 56.5186 38.5989 56.5446C38.6119 56.5563 38.6262 56.5673 38.6405 56.5777C38.6561 56.5901 38.6717 56.6018 38.6879 56.6135C38.7067 56.6277 38.7262 56.6407 38.747 56.6537C38.7554 56.6596 38.7652 56.6641 38.7743 56.67C38.8366 56.707 38.9029 56.7414 38.973 56.77C39.2789 56.8012 39.59 56.8284 39.9089 56.8505C40.0511 56.8603 40.1888 56.857 40.3226 56.846C40.3661 56.8414 40.4109 56.8375 40.4538 56.833C40.9065 56.7719 41.2903 56.5914 41.5404 56.3089C44.3915 53.0856 44.059 50.1617 42.2184 47.6534C45.2949 45.4219 49.2469 43.8066 51.2668 43.0617C51.4168 43.0078 51.5642 42.9747 51.7065 42.9591Z" fill="#99AF17"/>
<path d="M37.4985 57.2903C21.619 54.6294 23.8883 42.4396 24.9988 38.661C25.1865 38.0225 26.0471 37.8173 26.8972 38.2063C32.0326 40.5574 47.914 48.7686 39.1754 56.9091C38.7929 57.265 38.1772 57.4046 37.4985 57.2903Z" fill="#EACF32"/>
<path d="M27.9279 38.6908C27.5512 38.5096 27.2044 38.3473 26.8972 38.2063C26.0471 37.8173 25.1865 38.0225 24.9988 38.661C23.8883 42.4396 21.619 54.6294 37.4985 57.2903C38.1772 57.4046 38.7929 57.265 39.1754 56.9091C39.5397 56.5694 39.8606 56.2291 40.1424 55.8894C26.4394 53.2993 26.9018 43.354 27.9279 38.6908Z" fill="#CCC033"/>
<path d="M38.8451 55.349C38.5594 55.349 38.2769 55.2269 38.0794 54.9911L33.904 49.9974C33.5507 49.5746 33.6072 48.9459 34.0293 48.5919C34.4528 48.2386 35.0815 48.2951 35.4348 48.7179L39.6096 53.7117C39.9629 54.1338 39.907 54.7632 39.4842 55.1165C39.2978 55.273 39.0705 55.349 38.8451 55.349Z" fill="#FCDA4F"/>
<path d="M26.5397 65.5518C26.5397 66.9553 25.4019 68.0931 23.9984 68.0931C22.5949 68.0931 21.457 66.9553 21.457 65.5518C21.457 64.1476 22.5949 63.0098 23.9984 63.0098C25.4019 63.0098 26.5397 64.1476 26.5397 65.5518Z" fill="#FFD59A"/>
<path d="M33.0085 70.6346C33.0085 72.0381 31.8706 73.176 30.4671 73.176C29.0636 73.176 27.9258 72.0381 27.9258 70.6346C27.9258 69.2311 29.0636 68.0933 30.4671 68.0933C31.8706 68.0933 33.0085 69.2311 33.0085 70.6346Z" fill="#FFD59A"/>
<path d="M24.2679 26.8489V14.5779C24.2679 7.55589 29.9319 1.86397 36.9189 1.86397H44.2819C46.5005 1.86397 48.5846 2.4394 50.3979 3.44802C48.1345 1.31127 45.0905 0 41.7405 0H34.3775C27.3906 0 21.7266 5.69192 21.7266 12.714V24.9856C21.7266 26.2326 22.7378 27.2438 23.9854 27.2438H23.9861C24.0932 27.2438 24.1978 27.2341 24.301 27.2198C24.2809 27.099 24.2679 26.9756 24.2679 26.8489Z" fill="#BF6C0D"/>
<path d="M62.0225 67.9297C61.5159 67.9297 61.082 67.5452 61.0314 67.0302L59.0362 46.9565C58.9817 46.4083 59.3817 45.9193 59.9299 45.8647C60.478 45.8108 60.9664 46.2109 61.021 46.759L63.0162 66.8334C63.0707 67.3815 62.6706 67.8699 62.1225 67.9245C62.0887 67.9278 62.0556 67.9297 62.0225 67.9297Z" fill="#FCF9DE"/>
</svg>
