<svg width="76" height="76" viewBox="0 0 76 76" fill="none" xmlns="http://www.w3.org/2000/svg">
<g clip-path="url(#clip0)">
<path d="M59.1711 55.0234V64.7302C59.1711 66.5376 57.7069 67.9985 55.9028 67.9985H15.8269C14.0228 67.9985 12.5586 66.5376 12.5586 64.7302V55.0234C12.5586 47.8037 18.4121 41.9502 25.6318 41.9502H46.0979C53.3176 41.9502 59.1711 47.8037 59.1711 55.0234Z" fill="#58595B"/>
<path d="M50.3225 55.4815H44.2513C43.8902 55.4815 43.5977 55.189 43.5977 54.8278V54.6209C43.5977 54.2598 43.8902 53.9673 44.2513 53.9673H50.3225C50.6837 53.9673 50.9762 54.2598 50.9762 54.6209V54.8278C50.9762 55.189 50.6833 55.4815 50.3225 55.4815Z" fill="#808285"/>
<path d="M48.4386 42.1606C51.0183 44.5488 52.6332 47.9638 52.6332 51.7561V61.4629C52.6332 63.268 51.17 64.7312 49.3649 64.7312H12.5586C12.5586 66.5363 14.0218 67.9995 15.8269 67.9995H55.9015C57.7066 67.9995 59.1698 66.5363 59.1698 64.7312V55.0244C59.1698 48.6041 54.5412 43.2647 48.4386 42.1606Z" fill="#414042"/>
<path d="M44.2962 41.9502L39.6157 39.8389H32.0799L27.4023 41.9502L35.8476 64.8731H35.848L44.2962 41.9502Z" fill="#414042"/>
<path d="M20.7689 15.248C20.3532 16.2508 19.1004 16.9848 18.8847 18.0748C18.6755 19.1327 19.6573 20.3332 19.6573 21.4523C19.6573 22.5717 18.6755 23.7721 18.8847 24.8297C19.1004 25.9197 20.4711 26.6538 20.8869 27.6565C21.3101 28.6768 20.864 30.1639 21.4712 31.0709C22.0831 31.9847 23.6299 32.1389 24.4045 32.9139C25.1794 33.6888 25.3334 35.2353 26.2475 35.8472C27.1545 36.4544 28.6416 36.0083 29.6619 36.4315C30.6646 36.8473 31.3987 38.218 32.4887 38.4337C33.5466 38.6429 34.7471 37.6611 35.8661 37.6611C36.9855 37.6611 38.186 38.6429 39.2436 38.4337C40.3336 38.218 41.0676 36.8473 42.0703 36.4315C43.0907 36.0083 44.5778 36.4544 45.4847 35.8472C46.3986 35.2353 46.5528 33.6884 47.3277 32.9139C48.1026 32.1389 49.6492 31.985 50.261 31.0709C50.8683 30.1639 50.4222 28.6768 50.8454 27.6565C51.2611 26.6538 52.6319 25.9197 52.8476 24.8297C53.0567 23.7718 52.0749 22.5713 52.0749 21.4523C52.0749 20.3329 53.0567 19.1324 52.8476 18.0748C52.6319 16.9848 51.4111 16.2508 50.9954 15.248H20.7689Z" fill="#6D2E03"/>
<path d="M32.0977 34.9443V44.239C32.0977 44.9587 32.3049 45.6634 32.6944 46.2687C34.1792 48.5754 37.5521 48.5754 39.0372 46.2687C39.4268 45.6634 39.634 44.9587 39.634 44.239V34.9443H32.0977Z" fill="#FCC4AE"/>
<path d="M32.1094 37.8512C33.2899 38.246 34.5518 38.463 35.8653 38.463C37.1788 38.463 38.4411 38.246 39.6216 37.8508V34.9443H32.1094V37.8512Z" fill="#F2AD97"/>
<path d="M47.7068 18.8466V24.991C47.7068 29.5993 45.0726 33.5931 41.2258 35.5509C40.7159 35.809 40.1865 36.0313 39.6406 36.2176C39.1962 36.3647 38.7386 36.4889 38.2745 36.5836C37.4966 36.7438 36.6926 36.8288 35.869 36.8288C35.0454 36.8288 34.2414 36.7438 33.4636 36.5836C32.9995 36.4889 32.5419 36.3647 32.0974 36.2176C31.5516 36.0313 31.0221 35.809 30.5123 35.5509C26.6655 33.5931 24.0312 29.5993 24.0312 24.991V18.8466C24.0312 12.31 29.3324 7.00879 35.869 7.00879C39.1373 7.00879 42.0984 8.33245 44.2391 10.4765C46.3799 12.6205 47.7068 15.5783 47.7068 18.8466Z" fill="#FFD2C0"/>
<path d="M37.9703 29.3789C38.2958 29.3789 38.5426 29.6829 38.4674 29.9999C38.1873 31.1775 37.1287 32.0534 35.8655 32.0534C34.6023 32.0534 33.5437 31.1775 33.2636 29.9999C33.1884 29.6832 33.4349 29.3789 33.7607 29.3789H37.9703Z" fill="#E59076"/>
<path d="M24.0312 18.8461V22.0053C28.6441 18.9259 31.5951 13.6721 31.5768 7.9117C31.5768 7.87804 31.5764 7.8447 31.5761 7.81104C27.1606 9.53016 24.0312 13.8227 24.0312 18.8461Z" fill="#F2AD97"/>
<path d="M43.3753 9.69922C45.0559 11.7432 46.0655 14.3598 46.0655 17.2124V23.3571C46.0655 29.8947 40.7656 35.1946 34.228 35.1946C31.3754 35.1946 28.7585 34.185 26.7148 32.5044C28.886 35.1446 32.1771 36.8287 35.8622 36.8287C42.3997 36.8287 47.6996 31.5289 47.6996 24.9913V18.8465C47.6996 15.1615 46.0154 11.8704 43.3753 9.69922Z" fill="#FCC4AE"/>
<path d="M24.0241 24.9914V21.292C21.9183 21.292 20.2109 22.999 20.2109 25.1051C20.2109 27.2109 21.918 28.9182 24.0241 28.9182C24.246 28.9182 24.4623 28.8954 24.6738 28.8591C24.2548 27.6462 24.0241 26.3461 24.0241 24.9914Z" fill="#FFD2C0"/>
<path d="M47.7005 21.292V24.9914C47.7005 26.3461 47.4698 27.6465 47.0508 28.8588C47.2622 28.895 47.4786 28.9179 47.7005 28.9179C49.8063 28.9179 51.5136 27.2109 51.5136 25.1048C51.5136 22.999 49.8063 21.292 47.7005 21.292Z" fill="#FFD2C0"/>
<path d="M50.0501 22.1016C50.5573 22.749 50.86 23.5648 50.86 24.4511C50.86 26.4922 49.2562 28.1584 47.2403 28.2594C47.1822 28.4614 47.1191 28.661 47.0508 28.8584C47.2622 28.8947 47.4786 28.9179 47.7005 28.9179C49.8063 28.9179 51.5136 27.2109 51.5136 25.1048C51.5136 23.8851 50.941 22.7993 50.0501 22.1016Z" fill="#FCC4AE"/>
<path d="M30.3052 24.8741C31.0973 24.8741 31.7394 24.232 31.7394 23.44C31.7394 22.6479 31.0973 22.0059 30.3052 22.0059C29.5132 22.0059 28.8711 22.6479 28.8711 23.44C28.8711 24.232 29.5132 24.8741 30.3052 24.8741Z" fill="#995222"/>
<path d="M41.4263 24.8741C42.2184 24.8741 42.8605 24.232 42.8605 23.44C42.8605 22.6479 42.2184 22.0059 41.4263 22.0059C40.6343 22.0059 39.9922 22.6479 39.9922 23.44C39.9922 24.232 40.6343 24.8741 41.4263 24.8741Z" fill="#995222"/>
<path d="M24.0387 24.9924V22.915C22.8285 22.915 21.8477 23.8962 21.8477 25.1061C21.8477 26.316 22.8288 27.2972 24.0387 27.2972C24.1159 27.2972 24.1884 27.2821 24.2636 27.2746C24.1191 26.5353 24.0387 25.7735 24.0387 24.9924Z" fill="#F2AD97"/>
<path d="M47.7131 24.9924V22.915C48.9231 22.915 49.9042 23.8962 49.9042 25.1061C49.9042 26.316 48.9231 27.2972 47.7131 27.2972C47.636 27.2972 47.5635 27.2821 47.4883 27.2746C47.6327 26.5353 47.7131 25.7735 47.7131 24.9924Z" fill="#F2AD97"/>
<path d="M50.0689 20.7644H21.6635C19.5021 20.7644 17.75 19.0123 17.75 16.851C17.75 14.6896 19.5021 12.9375 21.6635 12.9375H50.0689C52.2303 12.9375 53.9824 14.6896 53.9824 16.851C53.9824 19.0123 52.2303 20.7644 50.0689 20.7644Z" fill="#E63950"/>
<path d="M50.6616 12.9844C50.6917 13.1798 50.7074 13.3802 50.7074 13.5838C50.7074 15.7451 48.9552 17.4972 46.7939 17.4972H18.3885C18.1845 17.4972 17.9845 17.4816 17.7891 17.4515C18.0777 19.3282 19.6994 20.7656 21.6568 20.7656H50.0622C52.2235 20.7656 53.9757 19.0134 53.9757 16.8521C53.9757 14.8947 52.5386 13.2726 50.6616 12.9844Z" fill="#D10028"/>
<path d="M51.8934 13.3896C52.182 13.9351 52.3454 14.5568 52.3454 15.217C52.3454 17.3783 50.5933 19.1304 48.432 19.1304H20.0265C19.3667 19.1304 18.7447 18.9667 18.1992 18.6784C18.8555 19.9191 20.1592 20.7646 21.6607 20.7646H50.0661C52.2274 20.7646 53.9796 19.0124 53.9796 16.8511C53.9796 15.3496 53.1341 14.0459 51.8934 13.3896Z" fill="#B7022D"/>
<path d="M45.834 15.3296L43.657 15.7421C38.5427 16.7111 33.1732 16.7111 28.059 15.7421L25.882 15.3296C24.2671 15.0237 23.2193 13.8889 23.4393 12.6849L25.2858 2.58486C25.6405 0.645126 28.427 -0.521658 30.9086 0.230705L33.4102 0.988951C34.9767 1.46384 36.7386 1.46384 38.3051 0.988951L40.8067 0.230705C43.2886 -0.521331 46.0748 0.645126 46.4298 2.58486L48.2764 12.6849C48.4967 13.8889 47.4488 15.0234 45.834 15.3296Z" fill="#E63950"/>
<path d="M26.4476 9.76456C26.4084 9.76456 26.3725 9.76129 26.3329 9.75476C25.9767 9.69266 25.7384 9.35275 25.8038 8.99651C25.8655 8.6468 26.2025 8.40495 26.5587 8.46705C26.732 8.49646 26.8823 8.59124 26.9804 8.73505C27.0817 8.87558 27.1176 9.0488 27.0915 9.21875V9.22202C27.0359 9.53578 26.7646 9.76456 26.4476 9.76456ZM26.9049 7.17934C26.866 7.17934 26.8267 7.17607 26.7905 7.16953C26.6172 7.13685 26.4669 7.04207 26.3689 6.89826C26.2675 6.75446 26.2283 6.58124 26.261 6.41129C26.4375 5.42099 26.5682 4.70197 26.6728 4.14635V4.13001C26.7843 3.54172 26.8624 3.11684 26.9147 2.89787C26.9572 2.52855 27.2023 2.29323 27.3036 2.20825C27.5128 2.03177 27.7415 1.93699 27.918 1.87489C28.3168 1.73435 28.7969 1.66245 29.3071 1.65918C29.7614 1.66245 30.1173 1.71474 30.4346 1.82259L32.9283 2.58084C33.8402 2.85865 34.8501 3.00572 35.8499 3.00572H35.863C36.8634 3.00572 37.873 2.85865 38.7848 2.58084C39.1247 2.47625 39.4973 2.67562 39.6019 3.01552C39.7065 3.35869 39.5104 3.72474 39.1672 3.82933C38.1148 4.14962 37.0003 4.31304 35.8564 4.31304C34.7092 4.31304 33.5947 4.14962 32.5456 3.82933L30.0127 3.06128C29.8885 3.01226 29.6303 2.9665 29.326 2.9665H29.3064C28.8488 2.95016 28.3455 3.09396 28.1919 3.1724C28.1788 3.21489 28.0775 3.71821 27.9566 4.38494C27.8226 5.10397 27.6592 6.01582 27.5481 6.64007C27.4935 6.95382 27.2222 7.17934 26.9049 7.17934Z" fill="#E8566F"/>
<path d="M47.8251 10.2144C47.3927 10.7337 46.6956 11.1341 45.834 11.2971L43.657 11.7096C38.5431 12.6787 33.1733 12.6787 28.0591 11.7096L25.8821 11.2971C25.0205 11.1341 24.3234 10.7337 23.891 10.2144L23.4393 12.6849C23.219 13.8889 24.2672 15.0233 25.8821 15.3296L28.0591 15.742C33.173 16.7111 38.5428 16.7111 43.657 15.742L45.834 15.3296C47.4489 15.0237 48.4967 13.8889 48.2768 12.6849L47.8251 10.2144Z" fill="#B7022D"/>
<path d="M19.9411 52.3862C21.0715 52.3862 21.9878 51.4699 21.9878 50.3396C21.9878 49.2093 21.0715 48.293 19.9411 48.293C18.8108 48.293 17.8945 49.2093 17.8945 50.3396C17.8945 51.4699 18.8108 52.3862 19.9411 52.3862Z" fill="#FFA91A"/>
<path d="M20.3227 48.3286C20.3456 48.4508 20.3577 48.577 20.3577 48.7061C20.3577 49.8363 19.4416 50.7524 18.3111 50.7524C18.182 50.7524 18.0558 50.7403 17.9336 50.7174C18.1107 51.6672 18.9438 52.3865 19.9452 52.3865C21.0754 52.3865 21.9918 51.4704 21.9918 50.3403C21.9918 49.3388 21.2728 48.5054 20.3227 48.3286Z" fill="#F79219"/>
<path d="M19.9411 61.1557C21.0715 61.1557 21.9878 60.2394 21.9878 59.1091C21.9878 57.9788 21.0715 57.0625 19.9411 57.0625C18.8108 57.0625 17.8945 57.9788 17.8945 59.1091C17.8945 60.2394 18.8108 61.1557 19.9411 61.1557Z" fill="#E8566F"/>
<path d="M20.3227 57.0972C20.3456 57.2194 20.3577 57.3456 20.3577 57.4747C20.3577 58.6048 19.4416 59.5209 18.3111 59.5209C18.182 59.5209 18.0558 59.5088 17.9336 59.486C18.1107 60.4357 18.9438 61.1551 19.9452 61.1551C21.0754 61.1551 21.9918 60.239 21.9918 59.1088C21.9918 58.1077 21.2728 57.2743 20.3227 57.0972Z" fill="#E63950"/>
<path d="M25.2146 56.7714C26.3449 56.7714 27.2612 55.8551 27.2612 54.7248C27.2612 53.5945 26.3449 52.6782 25.2146 52.6782C24.0843 52.6782 23.168 53.5945 23.168 54.7248C23.168 55.8551 24.0843 56.7714 25.2146 56.7714Z" fill="#91B56B"/>
<path d="M25.5923 52.7124C25.6151 52.835 25.6272 52.9608 25.6272 53.0899C25.6272 54.2201 24.7111 55.1362 23.5806 55.1362C23.4515 55.1362 23.3254 55.1241 23.2031 55.1012C23.3803 56.051 24.2134 56.7703 25.2148 56.7703C26.3449 56.7703 27.2614 55.8542 27.2614 54.724C27.261 53.7226 26.542 52.8895 25.5923 52.7124Z" fill="#76A34F"/>
<path d="M61.5215 76.1543C69.5436 76.1543 76.0469 69.6511 76.0469 61.6289C76.0469 53.6068 69.5436 47.1035 61.5215 47.1035C53.4993 47.1035 46.9961 53.6068 46.9961 61.6289C46.9961 69.6511 53.4993 76.1543 61.5215 76.1543Z" fill="#FFA91A"/>
<path d="M67.9942 71.4993L66.1805 68.1211C66.0724 67.9195 66.0156 67.6941 66.0156 67.4655V52.7925C66.0156 52.18 66.512 51.6836 67.1246 51.6836H69.3568C69.9694 51.6836 70.4657 52.18 70.4657 52.7925V67.3957C70.4657 67.621 70.4107 67.843 70.3058 68.0423L68.4839 71.4976C68.3801 71.6939 68.0993 71.6949 67.9942 71.4993Z" fill="#F1F2F2"/>
<path d="M69.3592 51.6831H68.799V65.7261C68.799 65.9515 68.744 66.1735 68.6391 66.3727L66.957 69.5627L67.9965 71.4992C68.1017 71.6948 68.3824 71.6938 68.4859 71.4975L70.3079 68.0422C70.413 67.8429 70.4678 67.6209 70.4678 67.3956V52.7924C70.4681 52.1795 69.9714 51.6831 69.3592 51.6831Z" fill="#E6E7E8"/>
<path d="M66.0156 55.686H70.4657V57.2386H66.0156V55.686Z" fill="#D1D3D4"/>
<path d="M67.9945 71.4992C68.0996 71.6948 68.3804 71.6938 68.4839 71.4975L70.3058 68.0422C70.4 67.8636 70.4541 67.6666 70.4641 67.4653H66.0156C66.0156 67.6943 66.0724 67.9193 66.1805 68.1209L67.9945 71.4992Z" fill="#E6E7E8"/>
<path d="M67.5 70.5757L67.9957 71.499C68.1009 71.6946 68.3816 71.6936 68.4851 71.4974L68.9711 70.5757H67.5Z" fill="#808285"/>
<path d="M57.5352 51.2891H58.6745V52.9181H57.5352V51.2891Z" fill="#D1D3D4"/>
<path d="M57.5352 71.646V68.1296H58.6741V71.646H57.5352Z" fill="#D1D3D4"/>
<path d="M62.5062 70.5059H53.7101C53.3957 70.5059 53.1406 70.7609 53.1406 71.0754C53.1406 71.3898 53.3957 71.6448 53.7101 71.6448H62.5062C62.8207 71.6448 63.0757 71.3898 63.0757 71.0754C63.0757 70.7609 62.821 70.5059 62.5062 70.5059Z" fill="#E6E7E8"/>
<path d="M58.0667 51.6324C58.7098 51.6324 59.2311 51.1111 59.2311 50.4681C59.2311 49.825 58.7098 49.3037 58.0667 49.3037C57.4236 49.3037 56.9023 49.825 56.9023 50.4681C56.9023 51.1111 57.4236 51.6324 58.0667 51.6324Z" fill="#F1F2F2"/>
<path d="M61.5566 54.4427V55.9262H54.6562V54.4427C54.6562 53.7747 55.0852 53.2062 55.6844 53.0009C55.84 52.9472 56.0079 52.9175 56.1818 52.9175H60.0317C60.2016 52.9175 60.3662 52.9449 60.5187 52.9969C61.1223 53.2002 61.5566 53.7707 61.5566 54.4427Z" fill="#F1F2F2"/>
<path d="M63.9675 66.8777C60.3242 68.9043 56.4125 68.7588 52.2829 66.8544C51.9871 66.7182 51.8599 66.3663 52.0061 66.0756L55.2622 59.5862C55.5276 59.0584 55.5489 58.4422 55.3233 57.896L54.7488 56.513C54.6523 56.28 54.6206 56.031 54.6513 55.79C54.686 55.5176 54.7999 55.2562 54.9868 55.0396L55.6791 54.2394V53.0009C55.8347 52.9472 56.0026 52.9175 56.1765 52.9175H56.4195V53.8846C56.4195 54.3472 56.6078 54.7662 56.9106 55.0703C57.2137 55.3734 57.6326 55.5613 58.0963 55.5613C59.0216 55.5613 59.7731 54.8099 59.7731 53.8846V52.9175H60.0261C60.196 52.9175 60.3606 52.9449 60.5131 52.9969V54.2394L61.2055 55.0396C61.4191 55.2866 61.537 55.5927 61.5513 55.9058V55.9262C61.5573 56.1245 61.5219 56.3238 61.4435 56.513L60.869 57.896C60.6433 58.4422 60.6647 59.0584 60.9301 59.5862L64.2075 66.1173C64.3457 66.3937 64.2379 66.7272 63.9675 66.8777Z" fill="#E63950"/>
<path d="M64.207 66.1173L60.9296 59.5861C60.6642 59.0584 60.6428 58.4422 60.8685 57.896L61.443 56.513C61.5215 56.3238 61.5568 56.1245 61.5508 55.9262V55.9058C61.5365 55.5927 61.4186 55.2866 61.205 55.0396L60.5127 54.2394V52.9969C60.3601 52.9452 60.1955 52.9175 60.0256 52.9175H59.7726V53.7564C59.8363 53.9099 59.8744 54.0722 59.8821 54.2371V54.2574C59.8881 54.4557 59.8527 54.655 59.7743 54.8443L59.1998 56.2273C58.9741 56.7734 58.9955 57.3896 59.2608 57.9174L62.5383 64.4485C62.6765 64.7253 62.5686 65.0587 62.2982 65.2093C59.1063 66.9845 55.7087 67.0927 52.1389 65.8118L52.0063 66.0762C51.8598 66.367 51.987 66.7188 52.2831 66.855C56.4124 68.7594 60.3244 68.905 63.9677 66.8784C64.2374 66.7272 64.3452 66.3937 64.207 66.1173Z" fill="#D10028"/>
</g>
<defs>
<clipPath id="clip0">
<rect width="76" height="76" fill="white"/>
</clipPath>
</defs>
</svg>
