<svg width="76" height="76" viewBox="0 0 76 76" fill="none" xmlns="http://www.w3.org/2000/svg">
<path d="M71.8938 56.4562H6.25856C5.3908 56.4562 4.6875 55.7527 4.6875 54.8851V48.1499H74.8447V53.5052C74.8447 55.1349 73.5235 56.4562 71.8938 56.4562Z" fill="#45748C"/>
<path d="M74.9176 52.6525H51.8438V28.7676H66.1818C66.7887 28.7676 67.3703 29.0106 67.7968 29.4424L74.2626 35.988C74.6823 36.413 74.9176 36.9861 74.9176 37.5834V52.6525Z" fill="#3C6A7C"/>
<path d="M54.5326 52.6524H3.31171C2.08027 52.6524 1.08203 51.6541 1.08203 50.4227V16.2936C1.08203 15.0622 2.08027 14.064 3.31171 14.064H52.3029C53.5344 14.064 54.5326 15.0622 54.5326 16.2936V52.6524Z" fill="#FFB125"/>
<path d="M52.3029 14.064H45.7653C46.9967 14.064 47.995 15.0622 47.995 16.2936V45.8758C47.995 47.6272 46.5752 49.047 44.8237 49.047H3.31171C2.08027 49.047 1.08203 48.0487 1.08203 46.8173V50.4225C1.08203 51.654 2.08027 52.6522 3.31171 52.6522H54.5326V16.2936C54.5326 15.0622 53.5344 14.064 52.3029 14.064Z" fill="#FF901D"/>
<path d="M74.2625 35.988L67.7967 29.4424C67.3702 29.0106 66.7885 28.7676 66.1815 28.7676H59.5654C60.1723 28.7676 60.7539 29.0106 61.1804 29.4424L67.6461 35.988C68.0659 36.4129 68.3012 36.9861 68.3012 37.5833V46.9881C68.3012 48.0118 67.4713 48.8417 66.4477 48.8417H54.5312V52.6524H74.9174V37.5833C74.9175 36.9861 74.6822 36.4129 74.2625 35.988Z" fill="#305B68"/>
<path d="M58.4258 42.4923V33.8892C58.4258 33.3714 58.8456 32.9517 59.3633 32.9517H65.1122C65.3629 32.9517 65.603 33.052 65.7792 33.2303L70.754 38.2665C70.9273 38.4419 71.0246 38.6787 71.0246 38.9254V42.4923C71.0246 43.0101 70.6048 43.4299 70.087 43.4299H59.3635C58.8456 43.4297 58.4258 43.0101 58.4258 42.4923Z" fill="#21D8DE"/>
<path d="M16.9929 61.9359C20.3911 61.9359 23.1459 59.1811 23.1459 55.7829C23.1459 52.3847 20.3911 49.6299 16.9929 49.6299C13.5947 49.6299 10.8398 52.3847 10.8398 55.7829C10.8398 59.1811 13.5947 61.9359 16.9929 61.9359Z" fill="#1D4859"/>
<path d="M64.2585 61.9359C67.6567 61.9359 70.4115 59.1811 70.4115 55.7829C70.4115 52.3847 67.6567 49.6299 64.2585 49.6299C60.8603 49.6299 58.1055 52.3847 58.1055 55.7829C58.1055 59.1811 60.8603 61.9359 64.2585 61.9359Z" fill="#1D4859"/>
<path d="M21.3462 60.1338C23.7491 57.7309 23.7491 53.835 21.3462 51.4321L12.6445 60.1338C15.0473 62.5367 18.9433 62.5367 21.3462 60.1338Z" fill="#193D4B"/>
<path d="M16.9912 58.1607C18.3046 58.1607 19.3692 57.0961 19.3692 55.7828C19.3692 54.4694 18.3046 53.4048 16.9912 53.4048C15.6779 53.4048 14.6133 54.4694 14.6133 55.7828C14.6133 57.0961 15.6779 58.1607 16.9912 58.1607Z" fill="white"/>
<path d="M68.6119 60.1338C71.0148 57.7309 71.0148 53.835 68.6119 51.4321L59.9102 60.1338C62.3131 62.5367 66.209 62.5367 68.6119 60.1338Z" fill="#193D4B"/>
<path d="M64.2647 58.1607C65.578 58.1607 66.6427 57.0961 66.6427 55.7828C66.6427 54.4694 65.578 53.4048 64.2647 53.4048C62.9514 53.4048 61.8867 54.4694 61.8867 55.7828C61.8867 57.0961 62.9514 58.1607 64.2647 58.1607Z" fill="white"/>
<path d="M66.5482 32.4704C66.1715 32.0889 65.6479 31.8701 65.1118 31.8701H59.3628C58.2495 31.8701 57.3438 32.7759 57.3438 33.8892V42.4923C57.3438 43.6056 58.2495 44.5115 59.3628 44.5115H70.0865C71.1998 44.5115 72.1056 43.6057 72.1056 42.4923V38.9253C72.1056 38.3907 71.8986 37.8866 71.5229 37.5064L66.5482 32.4704ZM69.9424 42.3485H59.5068V34.0334H65.0514L69.9424 38.9847V42.3485Z" fill="black"/>
<path d="M32.1156 35.4634C32.3159 35.8104 32.6795 36.0045 33.0533 36.0045C33.2368 36.0045 33.4229 35.9577 33.5932 35.8593L38.6513 32.9389C38.6567 32.9358 38.6613 32.932 38.6666 32.9287C38.6966 32.9106 38.7257 32.8911 38.7538 32.8704C38.7628 32.8637 38.7719 32.8571 38.7806 32.8503C38.814 32.8239 38.8462 32.7961 38.8764 32.766C38.8764 32.766 38.8789 32.763 38.8804 32.7615C38.9087 32.7327 38.935 32.702 38.9601 32.6703C38.9672 32.6612 38.974 32.6519 38.9809 32.6425C39.0008 32.6155 39.0193 32.5876 39.0367 32.5588C39.0416 32.5506 39.0468 32.5428 39.0514 32.5346C39.0935 32.4604 39.1268 32.3807 39.1505 32.2968C39.1535 32.2865 39.1559 32.2762 39.1585 32.2658C39.1667 32.2334 39.1732 32.2006 39.1783 32.1672C39.1801 32.1559 39.1821 32.1446 39.1835 32.1332C39.1887 32.0902 39.1922 32.0467 39.1922 32.0021C39.1922 31.9578 39.1888 31.9141 39.1835 31.8711C39.1821 31.8596 39.1801 31.8484 39.1783 31.8371C39.1732 31.8037 39.1666 31.7709 39.1585 31.7385C39.1559 31.7281 39.1535 31.7177 39.1505 31.7075C39.1268 31.6236 39.0935 31.5439 39.0514 31.4697C39.0468 31.4614 39.0416 31.4537 39.0367 31.4455C39.0193 31.4167 39.0008 31.3888 38.9809 31.3618C38.974 31.3524 38.9672 31.3431 38.9601 31.334C38.9351 31.3023 38.9089 31.2717 38.8805 31.243C38.879 31.2416 38.8778 31.2399 38.8764 31.2384C38.8464 31.2083 38.814 31.1805 38.7806 31.1541C38.7719 31.1471 38.7628 31.1408 38.7538 31.1341C38.7257 31.1133 38.6966 31.0939 38.6666 31.0757C38.6613 31.0726 38.6567 31.0686 38.6513 31.0655L33.5932 28.1451C33.0756 27.8463 32.4143 28.0237 32.1156 28.541C31.817 29.0583 31.9942 29.7199 32.5115 30.0184L34.0738 30.9205H13.6442C13.0469 30.9205 12.5625 31.4047 12.5625 32.0021C12.5625 32.5995 13.0467 33.0837 13.6442 33.0837H34.0738L32.5115 33.9857C31.9942 34.2845 31.817 34.9459 32.1156 35.4634Z" fill="black"/>
<path d="M1.08166 41.1316C1.67898 41.1316 2.16333 40.6474 2.16333 40.05V16.2934C2.16333 15.6603 2.67841 15.1453 3.31149 15.1453H38.2164C38.8139 15.1453 39.2981 14.6611 39.2981 14.0636C39.2981 13.4661 38.8139 12.9819 38.2164 12.9819H3.31134C1.48541 12.9821 0 14.4675 0 16.2934V40.0501C0 40.6474 0.484203 41.1316 1.08166 41.1316Z" fill="black"/>
<path d="M75.0328 35.2279L68.5668 28.6821C67.9413 28.049 67.0722 27.6859 66.1823 27.6859H55.6137V16.2938C55.6137 14.4678 54.1283 12.9824 52.3025 12.9824H45.8369C45.2394 12.9824 44.7552 13.4666 44.7552 14.0641C44.7552 14.6615 45.2394 15.1457 45.8369 15.1457H52.3025C52.9356 15.1457 53.4506 15.6608 53.4506 16.2939V51.571H22.8759C22.8664 51.5578 22.8563 51.5452 22.8466 51.5319C22.8258 51.5034 22.8043 51.4754 22.7831 51.4472C22.7371 51.3859 22.6903 51.3252 22.6424 51.2653C22.617 51.2337 22.5914 51.2023 22.5655 51.1709C22.5162 51.1116 22.4657 51.0531 22.4147 50.9952C22.3908 50.9682 22.3673 50.9409 22.3428 50.914C22.2667 50.8304 22.189 50.7479 22.1089 50.6677C21.945 50.504 21.7747 50.3507 21.5997 50.2059C21.5589 50.1721 21.5174 50.1396 21.4759 50.1068C21.3128 49.9778 21.1463 49.8552 20.9751 49.7422C20.9546 49.7287 20.9335 49.7167 20.9129 49.7033C20.7915 49.6251 20.6681 49.5515 20.5433 49.4811C19.9994 49.175 19.4247 48.9447 18.8335 48.7901C18.7812 48.7765 18.7291 48.7624 18.6767 48.7499C18.4647 48.6996 18.251 48.658 18.036 48.627C18.0349 48.6269 18.0337 48.6266 18.0323 48.6264C18 48.6218 17.9673 48.619 17.935 48.6147C17.803 48.5975 17.6707 48.5843 17.5383 48.5745C17.3734 48.5621 17.2081 48.5543 17.0427 48.5532C17.0262 48.5531 17.0096 48.5521 16.9931 48.5521C16.8276 48.5521 16.6623 48.5596 16.4972 48.5709C16.3157 48.5832 16.1344 48.6004 15.9539 48.6264C15.8035 48.6481 15.6541 48.6761 15.505 48.7073C15.0851 48.7949 14.6713 48.9184 14.2694 49.0809C14.2271 49.098 14.1856 49.1176 14.1436 49.1356C13.7529 49.3026 13.3732 49.5034 13.0113 49.7421C12.9985 49.7505 12.9862 49.7599 12.9734 49.7684C12.5866 50.0271 12.2188 50.3262 11.8775 50.6676C11.7996 50.7455 11.724 50.8254 11.65 50.9066C11.6218 50.9373 11.5948 50.9689 11.5673 51.0001C11.5236 51.0495 11.4802 51.0992 11.438 51.1499C11.4036 51.1911 11.3699 51.2327 11.3363 51.2746C11.3046 51.3143 11.2732 51.3546 11.2422 51.3949C11.2041 51.4448 11.1664 51.4947 11.1295 51.5453C11.1233 51.5539 11.1166 51.5621 11.1105 51.5707H3.31134C2.67826 51.5707 2.16318 51.0556 2.16318 50.4225V47.6215C2.16318 47.0242 1.67898 46.5398 1.08152 46.5398C0.484055 46.5398 0 47.0243 0 47.6216V50.4227C0 52.2486 1.48541 53.734 3.31134 53.734H3.6054V54.8851C3.6054 56.3478 4.79542 57.5379 6.25812 57.5379H9.97174C10.2845 58.7993 10.9348 59.9564 11.8775 60.8989C13.2439 62.2655 15.0606 63.018 16.9931 63.018C18.9256 63.018 20.7424 62.2655 22.1087 60.8989C23.0702 59.9375 23.7032 58.7703 24.0093 57.5379H57.2458C57.5519 58.7703 58.185 59.9375 59.1464 60.8989C60.5129 62.2655 62.3297 63.018 64.2622 63.018C66.1947 63.018 68.0114 62.2655 69.3779 60.8989C70.3393 59.9375 70.9724 58.7703 71.2785 57.5379H71.8932C74.1166 57.5379 75.9256 55.7289 75.9256 53.5053V53.0442C75.973 52.9225 76 52.7907 76 52.6522V37.5833C76 36.6958 75.6565 35.8592 75.0328 35.2279ZM9.7706 55.3747H6.25798C5.98812 55.3747 5.76843 55.155 5.76843 54.8851V53.734H10.0523C9.89692 54.2635 9.80177 54.8129 9.7706 55.3747ZM22.0617 55.8016C22.0614 55.8725 22.0597 55.9437 22.0566 56.0145C22.0563 56.0228 22.0559 56.0311 22.0554 56.0394C22.0517 56.1139 22.0464 56.1884 22.0394 56.2628C22.0391 56.2663 22.0388 56.2701 22.0385 56.2736C21.9296 57.4044 21.4433 58.5052 20.5791 59.3694C19.6212 60.3273 18.3476 60.8548 16.993 60.8548C15.6383 60.8548 14.3647 60.3273 13.4069 59.3694C12.5844 58.5469 12.0803 57.4914 11.954 56.352C11.9535 56.3475 11.9537 56.3431 11.9532 56.3386C11.8342 55.2504 12.0727 54.137 12.6249 53.2036C12.6249 53.2035 12.6251 53.2033 12.6252 53.2033C12.6779 53.1143 12.7336 53.027 12.7917 52.9414C12.7978 52.9324 12.8042 52.9238 12.8103 52.9151C12.8593 52.844 12.9102 52.7742 12.9629 52.7055C12.9785 52.6851 12.9944 52.665 13.0103 52.6449C13.0567 52.5861 13.1047 52.5285 13.1536 52.4717C13.1709 52.4518 13.1875 52.4318 13.205 52.4122C13.2703 52.3388 13.3373 52.2668 13.4069 52.1974C14.3956 51.2088 15.6943 50.7143 16.993 50.7143C17.9608 50.7143 18.9288 50.9894 19.7685 51.5386C20.0552 51.7262 20.3273 51.9456 20.5791 52.1974C20.6485 52.2668 20.7153 52.3387 20.7807 52.4119C20.8016 52.4353 20.8215 52.4594 20.8418 52.4831C20.885 52.5334 20.9275 52.5845 20.9687 52.6363C20.992 52.6657 21.015 52.6954 21.0376 52.7252C21.0738 52.7729 21.1089 52.8214 21.1431 52.8703C21.166 52.9028 21.1893 52.9351 21.2113 52.9681C21.2448 53.0182 21.2766 53.0695 21.3084 53.1208C21.4117 53.2882 21.5053 53.4598 21.5874 53.6357C21.5913 53.6441 21.5951 53.6525 21.599 53.6608C21.6279 53.7238 21.6553 53.7872 21.6815 53.851C21.6866 53.8633 21.6918 53.8755 21.6967 53.8879C21.7226 53.9525 21.747 54.0177 21.7701 54.0831C21.7733 54.0922 21.7768 54.1011 21.7799 54.11C21.805 54.1823 21.8285 54.255 21.8501 54.3282C21.8567 54.35 21.8622 54.372 21.8684 54.394C21.8825 54.4437 21.8962 54.4936 21.9088 54.5437C21.9166 54.5754 21.9239 54.6071 21.9312 54.6389C21.9407 54.6803 21.9499 54.7219 21.9584 54.7634C21.9652 54.7967 21.9716 54.8301 21.9778 54.8635C21.9857 54.9064 21.9928 54.9494 21.9995 54.9925C22.0042 55.023 22.0093 55.0535 22.0134 55.084C22.0213 55.141 22.028 55.1982 22.0339 55.2553C22.0355 55.2717 22.0379 55.2878 22.0394 55.3042C22.0468 55.3823 22.0525 55.4605 22.0562 55.5389C22.0563 55.5409 22.0563 55.543 22.0563 55.5449C22.0599 55.6212 22.0617 55.6977 22.0618 55.774C22.062 55.7832 22.0618 55.7924 22.0617 55.8016ZM57.2264 54.1109C57.2185 54.144 57.212 54.1775 57.2045 54.2108C57.1842 54.303 57.1651 54.3953 57.1484 54.4881C57.1401 54.5339 57.1327 54.5798 57.1253 54.6258C57.1125 54.7049 57.1012 54.7841 57.091 54.8635C57.084 54.9182 57.0772 54.9729 57.0714 55.0278C57.0644 55.0952 57.0591 55.1626 57.054 55.23C57.0503 55.2782 57.0444 55.3263 57.0416 55.3747H24.2137C24.211 55.3282 24.2053 55.2819 24.2017 55.2356C24.1965 55.1657 24.1909 55.0958 24.1836 55.026C24.1779 54.9724 24.1713 54.9191 24.1644 54.8658C24.1542 54.7851 24.1426 54.7045 24.1297 54.624C24.1224 54.5791 24.1152 54.5342 24.107 54.4894C24.0901 54.3956 24.0708 54.3021 24.0501 54.2089C24.043 54.1765 24.0365 54.144 24.0289 54.1116C23.9991 53.9852 23.9666 53.8591 23.9299 53.734H57.3252C57.2886 53.8588 57.2562 53.9846 57.2264 54.1109ZM69.331 55.7952C69.3308 55.87 69.3291 55.9448 69.3257 56.0195C69.3254 56.0244 69.3252 56.0294 69.3249 56.0343C69.2654 57.2481 68.7732 58.4445 67.8481 59.3694C66.8902 60.3273 65.6168 60.8548 64.2622 60.8548C62.9075 60.8548 61.6339 60.3273 60.6762 59.3694C59.7511 58.4444 59.2591 57.2481 59.1994 56.0343C59.1991 56.0294 59.199 56.0244 59.1987 56.0195C59.1952 55.9448 59.1935 55.8702 59.1933 55.7955C59.1933 55.7893 59.1932 55.7832 59.1932 55.7771C59.1933 55.6189 59.2009 55.4605 59.2157 55.3028C59.2171 55.2896 59.2188 55.2764 59.2202 55.2631C59.2264 55.2028 59.2335 55.1427 59.2419 55.0827C59.2459 55.0536 59.2506 55.0247 59.2552 54.9957C59.2622 54.951 59.2696 54.9065 59.2778 54.862C59.2837 54.8296 59.2899 54.7974 59.2965 54.7652C59.3052 54.7225 59.3146 54.6798 59.3244 54.6374C59.3315 54.6065 59.3385 54.5755 59.3462 54.5446C59.3591 54.4928 59.3732 54.4413 59.3879 54.3898C59.3936 54.3698 59.3988 54.3494 59.4047 54.3294C59.4267 54.2556 59.4501 54.1823 59.4755 54.1094C59.4782 54.1017 59.4811 54.0943 59.4838 54.0865C59.5076 54.0195 59.5325 53.9528 59.5592 53.8865C59.5637 53.8755 59.5683 53.8646 59.5727 53.8537C59.5996 53.788 59.6276 53.7229 59.6575 53.6583C59.6606 53.6515 59.6637 53.6446 59.667 53.6377C59.75 53.4595 59.845 53.2857 59.9498 53.1162C59.9805 53.0668 60.0111 53.0172 60.0434 52.9688C60.0658 52.9351 60.0896 52.9022 60.1129 52.8689C60.1469 52.8205 60.1816 52.7727 60.2172 52.7255C60.2401 52.6954 60.2633 52.6654 60.2869 52.6356C60.3278 52.5839 60.37 52.5333 60.413 52.4833C60.4337 52.4592 60.4537 52.435 60.4748 52.4113C60.5399 52.3382 60.6067 52.2664 60.6761 52.1971C62.1264 50.7467 64.2438 50.3617 66.0498 51.0391C66.398 51.1698 66.7353 51.3385 67.0532 51.5484C67.3342 51.7338 67.6008 51.9501 67.848 52.1972C67.9173 52.2666 67.9839 52.3382 68.0489 52.4111C68.0706 52.4355 68.0912 52.4603 68.1123 52.4849C68.1545 52.534 68.196 52.5839 68.2363 52.6345C68.2606 52.6653 68.2845 52.6961 68.308 52.7272C68.3427 52.7729 68.3763 52.8195 68.4094 52.8664C68.4335 52.9008 68.4582 52.9351 68.4815 52.97C68.5131 53.0174 68.5431 53.0659 68.5731 53.1143C68.6786 53.2848 68.7745 53.4597 68.8579 53.6392C68.8606 53.6449 68.8633 53.6507 68.8659 53.6565C68.8964 53.7226 68.9252 53.7892 68.9526 53.8563C68.9565 53.8658 68.9605 53.8752 68.9644 53.8848C68.992 53.9534 69.0179 54.0226 69.0424 54.0922C69.0444 54.0975 69.0464 54.1027 69.0482 54.1081C69.0739 54.1818 69.0978 54.2561 69.1199 54.3307C69.125 54.3478 69.1293 54.3652 69.1342 54.3822C69.1498 54.4367 69.1646 54.4915 69.1784 54.5464C69.1857 54.5755 69.1922 54.6047 69.199 54.634C69.2093 54.6782 69.2191 54.7226 69.2281 54.7671C69.2344 54.798 69.2405 54.829 69.2461 54.8601C69.2546 54.9059 69.2621 54.9521 69.2694 54.9981C69.2737 55.0259 69.2783 55.0536 69.2822 55.0815C69.2908 55.1433 69.298 55.2052 69.3044 55.2671C69.3056 55.2788 69.3073 55.2905 69.3084 55.3021C69.3234 55.46 69.3308 55.6187 69.3311 55.7773C69.3311 55.7832 69.331 55.7891 69.331 55.7952ZM71.8932 55.3747H71.4827C71.4801 55.3288 71.4744 55.2833 71.471 55.2375C71.4657 55.1669 71.4602 55.0962 71.4528 55.0257C71.4471 54.9721 71.4404 54.9187 71.4336 54.8653C71.4234 54.7849 71.4119 54.7048 71.399 54.6248C71.3916 54.5792 71.3843 54.5338 71.376 54.4885C71.3593 54.3956 71.3402 54.303 71.3198 54.2106C71.3123 54.1774 71.3058 54.1441 71.2979 54.111C71.2681 53.9847 71.2357 53.859 71.1991 53.7342H73.7485C73.6354 54.6573 72.8464 55.3747 71.8932 55.3747ZM73.8368 51.5708H70.1449C70.1357 51.5579 70.1256 51.5454 70.1162 51.5327C70.095 51.5036 70.073 51.4749 70.0514 51.446C70.0056 51.3851 69.9592 51.3249 69.9115 51.2653C69.886 51.2334 69.8602 51.2018 69.8341 51.1703C69.7854 51.1116 69.7355 51.0537 69.6849 50.9964C69.6604 50.9686 69.6362 50.9406 69.6111 50.9131C69.5351 50.8297 69.4576 50.7476 69.3778 50.6676C69.2905 50.5805 69.2014 50.4958 69.1107 50.4138C69.0965 50.4008 69.0816 50.389 69.0674 50.3764C68.9893 50.3069 68.9106 50.2385 68.83 50.1727C68.8263 50.1697 68.8225 50.1669 68.8187 50.1639C67.5336 49.1179 65.9417 48.5488 64.262 48.5488C62.5823 48.5488 60.9904 49.1179 59.7053 50.1639C59.7016 50.1669 59.6977 50.1697 59.694 50.1727C59.6135 50.2385 59.5347 50.3069 59.4566 50.3764C59.4422 50.3891 59.4275 50.401 59.4133 50.4138C59.3225 50.4958 59.2334 50.5805 59.1463 50.6676C59.0665 50.7473 58.9892 50.8294 58.9134 50.9125C58.8877 50.9407 58.8629 50.9695 58.8377 50.998C58.7881 51.0541 58.7392 51.1108 58.6913 51.1684C58.6641 51.2011 58.6374 51.2339 58.611 51.267C58.5644 51.3253 58.5188 51.3844 58.474 51.4441C58.4519 51.4736 58.4293 51.5028 58.4076 51.5327C58.3983 51.5454 58.3885 51.5578 58.3793 51.5707H55.6136V29.8491H66.1822C66.4976 29.8491 66.8059 29.9779 67.0277 30.2024L73.4935 36.748H73.4936C73.7148 36.9719 73.8365 37.2684 73.8365 37.5833V51.5708H73.8368Z" fill="black"/>
<path d="M16.9901 52.3242C15.0829 52.3242 13.5312 53.8758 13.5312 55.7831C13.5312 57.6904 15.0829 59.242 16.9901 59.242C18.8974 59.242 20.449 57.6904 20.449 55.7831C20.4489 53.8758 18.8973 52.3242 16.9901 52.3242ZM16.9901 57.0787C16.2757 57.0787 15.6944 56.4974 15.6944 55.783C15.6944 55.0685 16.2757 54.4872 16.9901 54.4872C17.7046 54.4872 18.2858 55.0685 18.2858 55.783C18.2857 56.4975 17.7046 57.0787 16.9901 57.0787Z" fill="black"/>
<path d="M64.2636 52.3242C62.3565 52.3242 60.8047 53.8758 60.8047 55.7831C60.8047 57.6904 62.3563 59.242 64.2636 59.242C66.1709 59.242 67.7225 57.6904 67.7225 55.7831C67.7225 53.8758 66.1707 52.3242 64.2636 52.3242ZM64.2636 57.0787C63.5491 57.0787 62.9679 56.4974 62.9679 55.783C62.9679 55.0685 63.5491 54.4872 64.2636 54.4872C64.978 54.4872 65.5593 55.0685 65.5593 55.783C65.5593 56.4975 64.978 57.0787 64.2636 57.0787Z" fill="black"/>
</svg>
