<svg width="76" height="76" viewBox="0 0 76 76" fill="none" xmlns="http://www.w3.org/2000/svg">
<path d="M74.8125 75.8515H1.1875C0.531703 75.8515 0 75.3198 0 74.664V28.9453C0 28.5715 0.176047 28.2196 0.475 27.9953L37.2875 0.3859C37.7097 0.0692832 38.2903 0.0692832 38.7125 0.3859L75.525 27.9953C75.824 28.2196 76 28.5715 76 28.9453V74.664C76 75.3198 75.4683 75.8515 74.8125 75.8515Z" fill="#4F6AF1"/>
<path d="M66.5 4.60156H9.5C8.8442 4.60156 8.3125 5.13327 8.3125 5.78906V63.9766C8.3125 64.6324 8.8442 65.1641 9.5 65.1641H66.5C67.1558 65.1641 67.6875 64.6324 67.6875 63.9766V5.78906C67.6875 5.13327 67.1558 4.60156 66.5 4.60156Z" fill="#FFC67C"/>
<path d="M38 47.9004L8.3125 29.3457V63.9765C8.3125 64.6323 8.8442 65.164 9.5 65.164H66.5C67.1558 65.164 67.6875 64.6323 67.6875 63.9765V29.3459L38 47.9004Z" fill="#FFB75C"/>
<path d="M0.433594 75.5812C0.638734 75.7503 0.901469 75.8518 1.1881 75.8518H74.8131C75.4689 75.8518 76.0006 75.3201 76.0006 74.6643V28.9455C76.0006 28.7633 75.9582 28.5865 75.8805 28.4268L0.433594 75.5812Z" fill="#7288F4"/>
<path d="M41.3614 50.001L0.433594 75.5809C0.638734 75.75 0.901469 75.8515 1.1881 75.8515H74.8131C75.4689 75.8515 76.0006 75.3198 76.0006 74.664V71.6504L41.3614 50.001Z" fill="#4F6AF1"/>
<path d="M0.120086 28.4268C0.0424531 28.5865 0 28.7633 0 28.9455V74.6643C0 75.3201 0.531703 75.8518 1.1875 75.8518H74.8125C75.0991 75.8518 75.3619 75.7503 75.567 75.5812L0.120086 28.4268Z" fill="#7288F4"/>
<path d="M47.5 36.6641H28.5C27.8442 36.6641 27.3125 36.1324 27.3125 35.4766V18.8516C27.3125 18.1958 27.8442 17.6641 28.5 17.6641H47.5C48.1558 17.6641 48.6875 18.1958 48.6875 18.8516V35.4766C48.6875 36.1324 48.1558 36.6641 47.5 36.6641Z" fill="#FB8BA4"/>
<path d="M48.6875 23.6016H27.3125V18.8516C27.3125 18.1958 27.8442 17.6641 28.5 17.6641H47.5C48.1558 17.6641 48.6875 18.1958 48.6875 18.8516V23.6016Z" fill="#F96485"/>
<path d="M39.1886 18.8499C41.2688 18.8245 45.1057 18.6395 46.5731 17.6613C47.6288 16.9576 48.3472 15.8847 48.596 14.6406C48.845 13.3964 48.5944 12.1298 47.8905 11.0743C46.4376 8.89504 43.4828 8.30381 41.3034 9.75687C40.1513 10.5247 38.8891 12.8289 38.0011 14.7084C37.1132 12.8289 35.851 10.5247 34.6989 9.75687C32.5196 8.30411 29.5647 8.89504 28.1118 11.0743C27.4079 12.1298 27.1573 13.3966 27.4063 14.6406C27.6551 15.8847 28.3735 16.9574 29.4292 17.6613C30.8966 18.6397 34.7334 18.8245 36.8136 18.8499V22.4138H27.3136V24.7888H36.8136V36.6638H39.1886V24.7888H48.6886V22.4138H39.1886V18.8499ZM42.6208 11.7329C43.0249 11.4636 43.4821 11.3346 43.9346 11.3346C44.7027 11.3346 45.4573 11.706 45.9143 12.3915C46.2663 12.9193 46.3914 13.5526 46.267 14.1747C46.1426 14.7968 45.7834 15.3332 45.2554 15.6852C44.6014 16.1213 42.1958 16.3931 39.809 16.4615C40.7898 14.2851 41.9658 12.1696 42.6208 11.7329ZM30.7466 15.6852C30.2187 15.3332 29.8595 14.7969 29.7351 14.1747C29.6107 13.5527 29.736 12.9193 30.0878 12.3915C30.545 11.7059 31.2995 11.3346 32.0675 11.3346C32.5201 11.3346 32.9773 11.4635 33.3813 11.7329C34.0353 12.169 35.2114 14.2848 36.1927 16.4618C33.8069 16.3935 31.4018 16.1217 30.7466 15.6852Z" fill="white"/>
</svg>
