<svg width="76" height="76" viewBox="0 0 76 76" fill="none" xmlns="http://www.w3.org/2000/svg">
<g clip-path="url(#clip0)">
<path d="M71.0284 4.71387H13.6685C13.285 4.71387 12.9407 4.94899 12.8012 5.30628L9.78125 13.0369V62.7981C9.78125 64.1775 10.8994 65.2957 12.2789 65.2957H72.4182C73.7976 65.2957 74.9158 64.1775 74.9158 62.7981V13.0369L71.8958 5.30613C71.7563 4.94899 71.4119 4.71387 71.0284 4.71387Z" fill="#927266"/>
<path d="M72.418 65.2959H12.2789C10.8994 65.2959 9.78125 64.1777 9.78125 62.7983V13.0371H74.9156V62.7983C74.9156 64.1776 73.7975 65.2959 72.418 65.2959Z" fill="#82635A"/>
<path d="M68.3561 13.0371V58.0075C68.3561 60.248 66.5398 62.0643 64.2993 62.0643H12.2789C10.8994 62.0643 9.78125 60.9461 9.78125 59.5667V62.7983C9.78125 64.1777 10.8994 65.2959 12.2789 65.2959H72.4182C73.7976 65.2959 74.9158 64.1777 74.9158 62.7983V13.0371H68.3561Z" fill="#72544E"/>
<path d="M46.6322 36.6984C47.0353 38.0102 46.2982 39.3881 45.0001 39.7898L34.2411 43.1198L34.8755 43.3786L42.0553 46.306L53.9394 51.1518C55.3814 51.7397 56.0737 53.3851 55.4857 54.8271C54.8977 56.269 53.2523 56.9613 51.8104 56.3733L54.5664 57.4972C56.0084 58.0851 56.7007 59.7305 56.1127 61.1725C55.5247 62.6144 53.8793 63.3067 52.4374 62.7187L49.6814 61.5949C51.1064 62.176 51.7993 63.79 51.2477 65.2196C50.6787 66.6943 48.9571 67.3895 47.4934 66.7926L45.1951 65.8555C46.6371 66.4435 47.3294 68.0889 46.7414 69.5308C46.1535 70.9727 44.508 71.665 43.0661 71.0771L22.2508 62.5899C20.2054 61.756 18.4068 60.4139 17.025 58.6907C15.6432 56.9677 13.8446 55.6255 11.7993 54.7916L3.16797 51.2721L9.20075 36.4768L16.6726 39.5235C19.1738 40.5434 43.7038 35.0189 43.7038 35.0189C44.9649 34.7541 46.2537 35.4668 46.6322 36.6984Z" fill="#FED9A8"/>
<path d="M46.6322 36.6984C47.0353 38.0102 46.2982 39.3881 45.0001 39.7898L34.2411 43.1198L34.8755 43.3786L42.0553 46.306L53.9394 51.1518C55.3814 51.7397 56.0737 53.3851 55.4857 54.8271C54.8977 56.269 53.2523 56.9613 51.8104 56.3733L54.5664 57.4972C56.0084 58.0851 56.7007 59.7305 56.1127 61.1725C55.5247 62.6144 53.8793 63.3067 52.4374 62.7187L49.6814 61.5949C51.1064 62.176 51.7993 63.79 51.2477 65.2196C50.6787 66.6943 48.9571 67.3895 47.4934 66.7926L45.1951 65.8555C46.6371 66.4435 47.3294 68.0889 46.7414 69.5308C46.1535 70.9727 44.508 71.665 43.0661 71.0771L22.2508 62.5899C20.2054 61.756 18.4068 60.4139 17.025 58.6907C15.6432 56.9677 13.8446 55.6255 11.7993 54.7916L3.16797 51.2721L9.20075 36.4768L16.6726 39.5235C19.1738 40.5434 43.7038 35.0189 43.7038 35.0189C44.9649 34.7541 46.2537 35.4668 46.6322 36.6984Z" fill="#FED9A8"/>
<path d="M45.7069 66.1268C45.5101 66.0051 45.3162 65.9042 45.1324 65.8292L34.5821 61.5273C34.0243 62.8953 34.6773 64.4569 36.0429 65.0205L44.4107 68.4744C45.2156 68.8026 45.8492 69.6702 46.1071 70.4796C46.374 70.218 46.5929 69.8989 46.743 69.5309C47.2566 68.2713 46.7933 66.8565 45.7069 66.1268Z" fill="#F4C892"/>
<path d="M51.2497 65.2188C51.7925 63.8117 51.1299 62.2261 49.7503 61.6224C49.741 61.6184 49.7318 61.6144 49.7224 61.6104C49.7206 61.6097 49.7189 61.6089 49.7171 61.6081C49.7107 61.6054 49.7043 61.6027 49.6979 61.6C49.693 61.5981 49.6883 61.596 49.6834 61.5939L49.6841 61.5942C49.6838 61.5941 49.6837 61.5941 49.6834 61.5939L36.7118 56.3047C36.1596 57.6589 36.8133 59.2041 38.1697 59.7508L49.6834 64.3914C50.2114 64.6066 50.7314 65.1373 51.0563 65.6194C51.1304 65.4935 51.1954 65.3598 51.2497 65.2188Z" fill="#F4C892"/>
<path d="M55.1646 55.4099C55.2919 55.2327 55.4007 55.0376 55.4868 54.8265C56.0748 53.3846 55.3825 51.7392 53.9405 51.1512L42.0564 46.3053L34.8766 43.3779L34.2422 43.1191C35.8443 45.8945 38.3245 48.0576 41.2918 49.2676L53.9405 54.4252C54.5563 54.7427 54.9091 55.0896 55.1646 55.4099Z" fill="#F4C892"/>
<path d="M54.5686 57.4959L38.841 51.083C38.267 52.4908 38.9443 54.0973 40.3531 54.6691L54.5686 60.4381C54.9787 60.6053 55.4548 61.2177 55.8052 61.7369C55.9273 61.5645 56.0316 61.3755 56.1147 61.1714C56.7028 59.7293 56.0105 58.0839 54.5686 57.4959Z" fill="#F4C892"/>
<path d="M8.29314 34.3003C8.51728 33.7505 9.14473 33.4866 9.69454 33.7107L15.5235 36.0875C16.0733 36.3116 16.3373 36.9391 16.1131 37.4889L8.98575 54.969C8.76161 55.5188 8.13417 55.7827 7.58435 55.5586L1.75537 53.1818C1.20556 52.9577 0.94164 52.3302 1.16578 51.7803L8.29314 34.3003Z" fill="#2D5872"/>
<path d="M15.5238 36.0879L13.0091 35.0625L6.35722 51.376C6.13308 51.9259 5.50564 52.1898 4.95568 51.9656L1.64137 50.6143L1.16578 51.7807C0.94164 52.3305 1.20556 52.9579 1.75537 53.1822L7.58435 55.559C8.13417 55.7832 8.76161 55.5192 8.9859 54.9694L16.1134 37.4893C16.3375 36.9395 16.0736 36.312 15.5238 36.0879Z" fill="#1D4859"/>
<path d="M47.8139 4.71387H36.8789L34.9531 13.0369V30.6176C34.9531 31.0977 35.5199 31.3527 35.8792 31.0345L41.9772 25.6322C42.1879 25.4455 42.5049 25.4455 42.7156 25.6322L48.8136 31.0345C49.1729 31.3529 49.7397 31.0977 49.7397 30.6176V13.0369L47.8139 4.71387Z" fill="#FFB125"/>
<path d="M48.8175 31.0347L42.7196 25.6325C42.5088 25.4457 42.1919 25.4457 41.9811 25.6325L35.8831 31.0347C35.5238 31.3529 34.957 31.0979 34.957 30.6179V13.0371H49.7438V30.6179C49.7435 31.0979 49.1767 31.3529 48.8175 31.0347Z" fill="#FF901D"/>
<path d="M57.5716 3.62891H13.6676C12.831 3.62891 12.0938 4.13241 11.7894 4.9117L8.76944 12.6423C8.76721 12.6481 8.76602 12.654 8.7638 12.6597C8.75251 12.6898 8.74272 12.7205 8.73411 12.752C8.73099 12.7634 8.72802 12.7747 8.72535 12.7861C8.71852 12.8151 8.71303 12.8445 8.70858 12.8742C8.7068 12.886 8.70457 12.8979 8.70308 12.9098C8.69937 12.9422 8.6973 12.9748 8.6964 13.0079C8.69626 13.0162 8.69522 13.0245 8.69507 13.033C8.69507 13.0343 8.69492 13.0357 8.69492 13.037V28.9806C8.69492 29.58 9.18076 30.0659 9.78015 30.0659C10.3795 30.0659 10.8654 29.58 10.8654 28.9806V14.1224H33.869V30.6179C33.869 31.263 34.249 31.8508 34.8372 32.1155C35.0526 32.2124 35.282 32.2598 35.5098 32.2598C35.9041 32.2598 36.294 32.1182 36.5998 31.8471L42.3474 26.7551L48.0951 31.847C48.5776 32.2749 49.2696 32.3802 49.8579 32.1155C50.446 31.8507 50.826 31.263 50.826 30.6179V14.1224H73.8295V62.7984C73.8295 63.5771 73.1958 64.2107 72.4171 64.2107H52.5186C52.5186 64.1984 52.5172 64.1861 52.517 64.1738C52.5158 64.0764 52.5123 63.9792 52.5039 63.8827C54.3723 64.378 56.3686 63.4178 57.1174 61.5816C57.5112 60.6157 57.5054 59.5544 57.1009 58.5931C57.0627 58.5026 57.0207 58.4147 56.9765 58.3282C56.9683 58.3123 56.9605 58.2963 56.9523 58.2805C56.9088 58.198 56.8625 58.1174 56.8137 58.0389C56.8042 58.0236 56.7944 58.0087 56.7847 57.9936C56.7331 57.913 56.6795 57.8339 56.6223 57.7577C56.6213 57.7562 56.6201 57.7549 56.6191 57.7536C56.5624 57.6783 56.5024 57.6059 56.4405 57.5351C56.4292 57.5222 56.4181 57.5091 56.4067 57.4962C56.3453 57.4279 56.2817 57.3618 56.2158 57.2982C56.2028 57.2857 56.1898 57.2737 56.1767 57.2615C56.1077 57.1966 56.037 57.1335 55.9634 57.074C55.9609 57.0721 55.9584 57.0702 55.9558 57.0682C55.8834 57.0099 55.8082 56.9547 55.7314 56.9015C55.7176 56.8919 55.704 56.8821 55.6898 56.8726C55.6131 56.8209 55.5344 56.7721 55.4537 56.7256C55.447 56.7218 55.4409 56.7173 55.4341 56.7135C55.8928 56.3165 56.2548 55.8142 56.4905 55.2362C56.8843 54.2703 56.8785 53.209 56.474 52.2476C56.1202 51.4064 55.4981 50.7298 54.7013 50.31C54.5874 50.2501 54.47 50.1953 54.3493 50.1462L37.4591 43.2591L45.3212 40.8256C47.1917 40.2466 48.2451 38.2516 47.6695 36.3788C47.4547 35.6796 47.0288 35.09 46.4787 34.6591C45.6601 34.0177 44.566 33.7281 43.4809 33.956C43.4757 33.9572 43.4706 33.958 43.4655 33.9594C43.4053 33.9729 37.3782 35.3281 31.0834 36.5555C30.8042 36.61 30.5321 36.6626 30.2639 36.7142C30.0492 36.7555 29.8376 36.7962 29.6299 36.8356C29.5702 36.8471 29.5104 36.8584 29.4512 36.8696C29.0846 36.9393 28.7293 37.0059 28.3841 37.07C28.2451 37.0959 28.1074 37.1214 27.9719 37.1463C20.0665 38.6026 17.8458 38.6288 17.2295 38.5453C17.2271 38.5451 17.225 38.5448 17.2226 38.5443C17.2133 38.543 17.2041 38.5416 17.1955 38.5403C17.1892 38.5393 17.1835 38.5382 17.1777 38.5373C17.1735 38.5366 17.1691 38.5359 17.165 38.5353C17.1266 38.5283 17.0966 38.521 17.0735 38.514L16.8956 38.4416L17.1172 37.8982C17.3352 37.3638 17.3319 36.7766 17.1082 36.2447C17.0522 36.1117 16.9841 35.9861 16.9051 35.8692C16.6682 35.5184 16.3332 35.2453 15.9324 35.0819L10.1036 32.7052C9.56936 32.4872 8.982 32.4906 8.45015 32.7143C7.91815 32.938 7.50535 33.3555 7.28744 33.8898L0.159929 51.3702C-0.289836 52.4732 0.241718 53.7364 1.34475 54.1863L7.17374 56.5631C7.43988 56.6716 7.71524 56.723 7.98643 56.723C8.83891 56.723 9.64848 56.215 9.98974 55.3783L10.0433 55.2469L11.3873 55.7948C11.388 55.7951 11.3888 55.7955 11.3897 55.7958C12.6751 56.32 13.8595 57.0678 14.8846 57.9958C15.071 58.1646 15.2521 58.3393 15.4277 58.5196C15.6033 58.7 15.7731 58.8861 15.9372 59.0776C16.0191 59.1734 16.0997 59.2706 16.1785 59.369C17.6723 61.2316 19.6304 62.6927 21.8411 63.5941L23.3531 64.2106H12.2779C11.4992 64.2106 10.8655 63.5769 10.8655 62.7982V60.0523C10.8655 59.4529 10.3797 58.967 9.78029 58.967C9.1809 58.967 8.69507 59.4529 8.69507 60.0523V62.7982C8.69507 64.7738 10.3022 66.381 12.2779 66.381H28.6762L42.6562 72.0813C43.1374 72.2776 43.6353 72.3706 44.1255 72.3705C45.6662 72.3705 47.1295 71.4524 47.7462 69.94C47.9992 69.3196 48.0804 68.6713 48.0122 68.048C48.7394 68.1523 49.4933 68.0566 50.1767 67.7615C50.8713 67.4615 51.4469 66.9837 51.8557 66.3809H72.4172C74.3928 66.3809 76.0001 64.7738 76.0001 62.7981V13.0372C76.0001 13.0358 75.9999 13.0345 75.9999 13.0331C75.9999 13.0248 75.9989 13.0165 75.9986 13.0081C75.9977 12.975 75.9958 12.9423 75.9919 12.9099C75.9904 12.8981 75.9882 12.8862 75.9864 12.8743C75.982 12.8445 75.9765 12.8151 75.9696 12.7863C75.967 12.7749 75.964 12.7636 75.9609 12.7522C75.9523 12.7208 75.9425 12.6901 75.9312 12.6598C75.9291 12.654 75.9278 12.6481 75.9256 12.6425L72.9056 4.91155C72.6012 4.13255 71.8639 3.62905 71.0274 3.62905H65.5287C64.9293 3.62905 64.4435 4.11489 64.4435 4.71428C64.4435 5.31367 64.9293 5.7995 65.5287 5.7995H70.9223L73.3257 11.9521H50.6036L49.18 5.7995H57.5716C58.171 5.7995 58.6568 5.31367 58.6568 4.71428C58.6568 4.11489 58.171 3.62891 57.5716 3.62891ZM37.7429 5.79936H46.9522L48.3759 11.9519H36.3192L37.7429 5.79936ZM34.0913 11.9519H11.3693L13.7727 5.79936H35.515L34.0913 11.9519ZM48.6557 29.4439L43.4364 24.8201C43.126 24.5452 42.7368 24.4077 42.3477 24.4077C41.9585 24.4077 41.5692 24.5452 41.2588 24.8201L36.0396 29.4439V14.1224H48.6559V29.4439H48.6557ZM7.98376 54.5494L2.17348 52.1803L9.29342 34.7189L15.1035 37.0881L7.98376 54.5494ZM51.3396 61.0987L50.0941 60.5908C50.0935 60.5905 50.0929 60.5904 50.0923 60.5901C50.0918 60.5899 50.0914 60.5896 50.0909 60.5895C50.0908 60.5895 50.0906 60.5893 50.0905 60.5893L37.1192 55.3003C36.5643 55.0741 35.9309 55.3404 35.7046 55.8956C35.4782 56.4506 35.7446 57.084 36.2998 57.3103L49.2714 62.5994C49.3256 62.6216 49.378 62.6461 49.4286 62.6729C49.4429 62.6805 49.4561 62.6897 49.47 62.6976C49.5057 62.7178 49.5414 62.7379 49.5751 62.7604C49.5913 62.7712 49.6062 62.7837 49.6219 62.7949C49.6517 62.8163 49.6821 62.8374 49.7104 62.8605C49.7274 62.8745 49.7429 62.8901 49.7593 62.9046C49.7846 62.9271 49.8104 62.9487 49.8341 62.9725C49.8506 62.9888 49.8653 63.0068 49.8811 63.0237C49.9029 63.0471 49.9253 63.0701 49.9458 63.0948C49.9614 63.1136 49.975 63.1337 49.9899 63.1531C50.0084 63.1775 50.0277 63.2014 50.0448 63.2266C50.0592 63.2477 50.0715 63.2699 50.0849 63.2915C50.1003 63.3164 50.1166 63.3409 50.1307 63.3666C50.1435 63.3897 50.1542 63.4139 50.1659 63.4375C50.1784 63.4629 50.1919 63.4878 50.2032 63.5138C50.214 63.5388 50.2228 63.5646 50.2324 63.59C50.2422 63.6156 50.2529 63.6409 50.2615 63.667C50.2701 63.6933 50.2766 63.7201 50.2839 63.7467C50.2912 63.773 50.2994 63.7988 50.3054 63.8254C50.3115 63.8523 50.3154 63.8796 50.3203 63.9066C50.3252 63.9336 50.3308 63.9603 50.3344 63.9876C50.3379 64.0149 50.3393 64.0426 50.3415 64.07C50.3437 64.0976 50.347 64.1251 50.3479 64.1527C50.3488 64.1799 50.3474 64.2073 50.3471 64.2346C50.3469 64.2628 50.3473 64.291 50.3455 64.3194C50.3439 64.3463 50.3399 64.3731 50.3369 64.4C50.3338 64.4289 50.3314 64.4579 50.3267 64.4867C50.3224 64.5131 50.3157 64.5394 50.3102 64.5658C50.304 64.595 50.2988 64.6243 50.2909 64.6534C50.2841 64.6791 50.2749 64.7046 50.2667 64.7301C50.2575 64.7592 50.249 64.7883 50.2382 64.817C50.229 64.8367 50.2199 64.8566 50.2115 64.8766C50.2095 64.8812 50.2085 64.886 50.2067 64.8904C50.0371 65.2813 49.724 65.5922 49.3155 65.7687C48.8657 65.9627 48.3508 65.9696 47.9025 65.7867L45.6043 64.8496C45.5936 64.8453 45.5828 64.8423 45.5721 64.8383C45.5612 64.8334 45.551 64.8278 45.54 64.8233L34.9897 60.5215C34.4344 60.2953 33.8013 60.5616 33.5751 61.1167C33.3487 61.6717 33.6152 62.3051 34.1702 62.5315L44.7205 66.8333C44.7318 66.8379 44.7432 66.8412 44.7546 66.8453C44.7649 66.8498 44.7744 66.8553 44.7849 66.8594C45.6703 67.2206 46.0971 68.2347 45.7361 69.1201C45.3749 70.0059 44.3613 70.4328 43.4754 70.0713L29.3004 64.2915C29.2998 64.2912 29.2992 64.2909 29.2986 64.2906L22.6605 61.5838C21.492 61.1074 20.4069 60.4461 19.449 59.6325C18.8743 59.1443 18.3454 58.6014 17.8716 58.0107C17.4048 57.4286 16.8927 56.8858 16.3417 56.3869C15.1294 55.2895 13.7289 54.4053 12.209 53.7854C12.2089 53.7854 12.2087 53.7852 12.2086 53.7852L10.8628 53.2366L13.5432 46.6631L16.0761 40.4511L16.263 40.5273C16.4389 40.599 16.6897 40.7008 17.3648 40.7263C18.2083 40.7645 19.6036 40.6765 22.1033 40.3233C23.8036 40.0832 25.8893 39.7358 28.3241 39.2878C28.3841 39.2768 28.4436 39.2659 28.5042 39.2547C28.618 39.2337 28.7331 39.2123 28.8485 39.1909C28.9383 39.1743 29.0286 39.1574 29.1196 39.1403C29.2232 39.1208 29.3272 39.1014 29.432 39.0817C29.5432 39.0607 29.6557 39.0395 29.7688 39.018C29.8594 39.0008 29.9498 38.9837 30.0412 38.9663C30.1791 38.94 30.3194 38.9132 30.4601 38.8862C30.5326 38.8722 30.6043 38.8586 30.6773 38.8446C30.8928 38.803 31.1112 38.7609 31.3335 38.7177C37.6066 37.4975 43.6614 36.1395 43.9335 36.0783C43.9606 36.0727 43.9878 36.0694 44.015 36.0654C44.712 35.9622 45.395 36.3654 45.5949 37.0159C45.6651 37.2444 45.6733 37.4776 45.6291 37.697C45.5318 38.1799 45.1809 38.5966 44.6794 38.7517L33.9203 42.0817C33.4823 42.2174 33.1768 42.6133 33.1571 43.0713C33.1372 43.5293 33.407 43.9504 33.8316 44.1235L53.5298 52.1556C53.9588 52.3304 54.2939 52.6619 54.4736 53.0889C54.6532 53.516 54.6558 53.9874 54.4808 54.4163C54.3058 54.8452 53.9745 55.1804 53.5475 55.36C53.334 55.4497 53.1094 55.4951 52.8845 55.4964C52.8813 55.4964 52.878 55.496 52.8747 55.496C52.8219 55.496 52.7692 55.4939 52.7165 55.489C52.7009 55.4875 52.6855 55.4843 52.6699 55.4825C52.6297 55.4776 52.5894 55.473 52.5495 55.4653C52.5243 55.4604 52.4993 55.4529 52.4743 55.447C52.4443 55.4399 52.4141 55.4338 52.3844 55.425C52.3537 55.416 52.3236 55.404 52.2933 55.3931C52.2693 55.3845 52.2448 55.3774 52.221 55.3677L39.2482 50.078C38.6932 49.8517 38.06 50.1181 37.8336 50.6733C37.6072 51.2283 37.8737 51.8616 38.4288 52.088L54.1565 58.5009C54.2638 58.5446 54.3652 58.5982 54.4597 58.6605C54.7434 58.8475 54.9656 59.114 55.1003 59.4343C55.2575 59.8079 55.2791 60.2155 55.1648 60.599C55.1485 60.6537 55.1293 60.7081 55.1075 60.7616C55.085 60.817 55.0599 60.8706 55.0324 60.9223C54.9684 61.0425 54.8905 61.1511 54.8035 61.2502C54.7495 61.3116 54.6918 61.3689 54.6303 61.4215C54.6205 61.4298 54.6116 61.4393 54.6017 61.4473C54.2056 61.7712 53.6761 61.9104 53.1588 61.8059C53.0539 61.7847 52.9495 61.7545 52.8468 61.7127L51.3396 61.0987Z" fill="black"/>
</g>
<defs>
<clipPath id="clip0">
<rect width="76" height="76" fill="white"/>
</clipPath>
</defs>
</svg>
