<svg width="130" height="130" viewBox="0 0 130 130" fill="none" xmlns="http://www.w3.org/2000/svg">
<circle cx="65" cy="65" r="65" fill="#F2F2F2"/>
<path d="M64.794 97.1752C64.1916 97.1752 63.6953 96.6959 63.6778 96.0901C63.6603 95.4736 64.1459 94.9598 64.7624 94.9423C65.38 94.9141 65.8989 95.3923 65.926 96.0088C65.9536 96.6248 65.4749 97.1464 64.8584 97.1735L64.8262 97.1747C64.8155 97.1752 64.8047 97.1752 64.794 97.1752ZM60.3034 97.007C60.2593 97.007 60.2159 97.0047 60.1713 96.9997L60.1684 96.9991C59.5548 96.9376 59.1104 96.391 59.172 95.7768C59.2335 95.1631 59.7845 94.7165 60.3977 94.7775L60.4321 94.7809C61.0447 94.8531 61.4828 95.4081 61.4105 96.0207C61.3439 96.5892 60.8617 97.007 60.3034 97.007ZM69.2745 96.6626C68.7517 96.6626 68.2848 96.2939 68.1803 95.7615C68.0606 95.1563 68.4547 94.5692 69.0599 94.45L69.0808 94.4461C69.6866 94.3303 70.2715 94.7278 70.3873 95.3336C70.503 95.9388 70.1061 96.5243 69.5003 96.64L69.4918 96.6417C69.4184 96.6558 69.3462 96.6626 69.2745 96.6626ZM55.8726 96.1562C55.7755 96.1562 55.6767 96.1432 55.5779 96.1167L55.5717 96.115C54.976 95.9563 54.6204 95.3449 54.7784 94.7493C54.9365 94.1531 55.5474 93.798 56.143 93.9555L56.1662 93.9617C56.7612 94.1243 57.1118 94.738 56.9492 95.333C56.8137 95.8299 56.3638 96.1562 55.8726 96.1562ZM73.6262 95.4697C73.1695 95.4697 72.7415 95.1885 72.5761 94.7346C72.3655 94.1548 72.6647 93.514 73.244 93.3034L73.2626 93.2972C73.8425 93.0888 74.4821 93.3898 74.691 93.9701C74.8999 94.5505 74.5979 95.1902 74.0175 95.3991L74.0079 95.4025C73.8814 95.4482 73.7527 95.4697 73.6262 95.4697ZM51.6191 94.633C51.4666 94.633 51.312 94.6013 51.1635 94.5342L51.1482 94.5274C50.5865 94.2728 50.3375 93.6111 50.5921 93.0493C50.8467 92.4876 51.5079 92.2386 52.0702 92.4932C52.6325 92.7473 52.8882 93.4112 52.6348 93.9735C52.4479 94.3874 52.0436 94.633 51.6191 94.633ZM77.7397 93.6241C77.34 93.6241 76.9544 93.4095 76.7534 93.033C76.4626 92.4887 76.6687 91.8118 77.213 91.5216C77.7533 91.2246 78.4324 91.4217 78.73 91.962C79.0269 92.5023 78.8305 93.1814 78.2896 93.4784L78.2642 93.4925C78.0965 93.5817 77.917 93.6241 77.7397 93.6241ZM87.8823 83.6412L87.8896 83.6463L87.7717 83.5622L87.8823 83.6412ZM36.3321 78.7735C35.8911 78.7735 35.4734 78.5104 35.2966 78.0768L35.2938 78.0689C35.0584 77.4987 35.33 76.8455 35.8996 76.6106C36.4698 76.3752 37.123 76.6467 37.3579 77.2164L37.3658 77.2361C37.5984 77.8075 37.3229 78.459 36.7516 78.691C36.6144 78.7469 36.4715 78.7735 36.3321 78.7735ZM91.7643 76.6303C91.6475 76.6303 91.5283 76.6117 91.4109 76.5728C90.83 76.3791 90.5138 75.7536 90.7007 75.1715C90.883 74.5849 91.5052 74.2535 92.0929 74.4319C92.6829 74.6114 93.016 75.233 92.8376 75.8224L92.8235 75.8665C92.6676 76.3345 92.2318 76.6303 91.7643 76.6303ZM34.9664 74.4742C34.4611 74.4742 34.0032 74.1293 33.8807 73.6166L33.8773 73.602C33.7345 73.0018 34.1043 72.3994 34.7044 72.256C35.3046 72.1126 35.907 72.483 36.0498 73.0831L36.0532 73.0978C36.1966 73.6974 35.8262 74.2998 35.2266 74.4432C35.1391 74.4641 35.0522 74.4742 34.9664 74.4742ZM92.7913 72.238C92.7269 72.238 92.662 72.2323 92.5959 72.2205C91.993 72.1143 91.5887 71.5418 91.6881 70.9394C91.7818 70.3325 92.3481 69.9136 92.9556 70.0028C93.5653 70.0931 93.9871 70.6583 93.8973 71.2686L93.89 71.3149C93.7945 71.8563 93.3231 72.238 92.7913 72.238ZM34.277 70.0141C33.704 70.0141 33.2168 69.5771 33.1659 68.9962L33.1626 68.9499C33.1264 68.3339 33.5961 67.806 34.2121 67.7693C34.8224 67.7321 35.3492 68.1967 35.3915 68.8065C35.4406 69.4185 34.9867 69.9576 34.3741 70.0101C34.3414 70.013 34.3092 70.0141 34.277 70.0141ZM93.1334 67.74C92.5163 67.74 92.0167 67.2403 92.0167 66.6233V66.6086C92.0167 66.6007 92.0167 66.5928 92.0167 66.5854C92.0167 66.5758 92.0167 66.5657 92.0167 66.5561V66.5414C92.0167 65.9243 92.5163 65.4241 93.1334 65.4241C93.7499 65.4241 94.2502 65.9243 94.2502 66.5414V66.5561C94.2502 66.564 94.2502 66.5719 94.2496 66.5792C94.2502 66.5888 94.2502 66.5984 94.2502 66.6086V66.6233C94.2502 67.2403 93.7505 67.74 93.1334 67.74ZM34.2742 65.5054C34.242 65.5054 34.2093 65.5037 34.1765 65.5009C33.5628 65.4478 33.1084 64.9081 33.1603 64.2949C33.2032 63.6852 33.7249 63.2206 34.3397 63.2589C34.9556 63.2951 35.4254 63.8235 35.3892 64.4389L35.3853 64.4852C35.335 65.0667 34.8472 65.5054 34.2742 65.5054ZM92.7828 63.176C92.251 63.176 91.7801 62.7949 91.6847 62.2529L91.6768 62.2066C91.5876 61.5963 92.0094 61.0289 92.6197 60.9391C93.2266 60.8493 93.7951 61.27 93.886 61.8786C93.9848 62.4804 93.5811 63.0518 92.9782 63.1585C92.9127 63.1703 92.8472 63.176 92.7828 63.176ZM92.9703 62.0163L92.7817 62.044L92.9703 62.0163ZM34.9517 61.0464C34.8659 61.0464 34.7784 61.0362 34.6914 61.0153C34.0924 60.8725 33.722 60.2712 33.8638 59.6722C33.9959 59.0766 34.5836 58.6961 35.1826 58.8214C35.7861 58.9479 36.1734 59.5395 36.047 60.1431L36.0368 60.1888C35.9149 60.7014 35.457 61.0464 34.9517 61.0464ZM91.7581 58.7903C91.2884 58.7903 90.8497 58.49 90.6933 58.0208L90.6809 57.9819C90.4991 57.3924 90.83 56.7675 91.4199 56.5862C92.0099 56.4044 92.6338 56.7353 92.8156 57.3253L92.8161 57.327C93.0109 57.9124 92.6931 58.5385 92.1076 58.7333C91.9924 58.7723 91.8744 58.7903 91.7581 58.7903ZM36.3055 56.7404C36.1655 56.7404 36.0233 56.7138 35.8855 56.6579C35.3141 56.4259 35.0392 55.7744 35.2712 55.203L35.2769 55.1895C35.5089 54.6181 36.1599 54.3426 36.7318 54.5747C37.3031 54.8067 37.5781 55.4582 37.3461 56.0296L37.3404 56.0437C37.1643 56.4773 36.7465 56.7404 36.3055 56.7404ZM90.0644 54.6074C89.6579 54.6074 89.265 54.3844 89.0662 53.9994L89.0493 53.9666C88.7772 53.4128 89.0052 52.7437 89.5591 52.4716C90.1124 52.1995 90.7814 52.4276 91.0541 52.9809L91.0547 52.9831C91.3381 53.5308 91.1207 54.2003 90.5725 54.4832C90.4099 54.5673 90.236 54.6074 90.0644 54.6074ZM38.3053 52.6946C38.1071 52.6946 37.9061 52.6421 37.7249 52.5309C37.1993 52.2108 37.0327 51.5259 37.3506 51.0003C37.6583 50.4747 38.3329 50.2918 38.8648 50.5933C39.4011 50.8976 39.5897 51.579 39.2859 52.1154C39.2775 52.13 39.2684 52.1447 39.2594 52.1594C39.0494 52.5044 38.6818 52.6946 38.3053 52.6946ZM87.7457 50.7333C87.3883 50.7333 87.0366 50.5617 86.8209 50.2438C86.4624 49.7419 86.5815 49.0492 87.084 48.6907C87.5853 48.3321 88.2865 48.4535 88.6451 48.9554L88.6688 48.9893C89.0148 49.4997 88.8822 50.1941 88.3718 50.5408C88.1798 50.6712 87.9619 50.7333 87.7457 50.7333ZM40.9001 49.0029C40.6483 49.0029 40.3959 48.9182 40.187 48.7454C39.7128 48.3513 39.6473 47.6473 40.0413 47.1725L40.0509 47.1612C40.445 46.6864 41.1485 46.6215 41.6233 47.015C42.0981 47.4091 42.1636 48.1131 41.7695 48.5879L41.7599 48.5992C41.5392 48.8657 41.2207 49.0029 40.9001 49.0029ZM84.8686 47.2589C84.575 47.2589 84.282 47.1443 84.063 46.9156C83.6311 46.4753 83.6373 45.7667 84.0782 45.3348C84.518 44.9035 85.2243 44.9097 85.6556 45.3501L85.6743 45.3687C86.1016 45.8136 86.087 46.521 85.6421 46.9478C85.4253 47.1561 85.1469 47.2589 84.8686 47.2589ZM44.0255 45.7487C43.7162 45.7487 43.409 45.6216 43.1883 45.3721C42.7795 44.9103 42.823 44.2045 43.2848 43.7958L43.2893 43.7918C43.7483 43.3814 44.4546 43.4186 44.8662 43.8776C45.2772 44.3361 45.2411 45.0401 44.7832 45.4522L44.7651 45.4686C44.5523 45.6566 44.2881 45.7487 44.0255 45.7487ZM81.4964 44.261C81.2672 44.261 81.0368 44.191 80.8375 44.0453L80.7997 44.0165C80.313 43.6377 80.225 42.9365 80.6038 42.4493C80.9821 41.9632 81.6816 41.8751 82.1682 42.2517C82.656 42.6181 82.7599 43.3103 82.3986 43.8037C82.1795 44.1029 81.8402 44.261 81.4964 44.261ZM81.5969 42.9918L81.4851 43.1352L81.5969 42.9918ZM47.6072 43.0071C47.2385 43.0071 46.8778 42.8247 46.6649 42.4911C46.3335 41.9716 46.4854 41.2829 47.0031 40.9503C47.5124 40.6138 48.1994 40.7488 48.5427 41.2552C48.8894 41.7656 48.7561 42.46 48.2457 42.8061L48.2068 42.8321C48.021 42.9506 47.8133 43.0071 47.6072 43.0071ZM77.7053 41.8096C77.5291 41.8096 77.3502 41.7678 77.1836 41.6792L77.1571 41.6645C76.6168 41.3675 76.4197 40.6884 76.7167 40.1481C77.0137 39.6078 77.6929 39.4107 78.2332 39.7077L78.2365 39.7094C78.7757 40.0035 78.9795 40.6805 78.6882 41.2213C78.4861 41.5962 78.1022 41.8096 77.7053 41.8096ZM51.5643 40.8436C51.1386 40.8436 50.7316 40.5992 50.5453 40.1865C50.2912 39.6247 50.5407 38.9636 51.1025 38.7095L51.1285 38.6982C51.693 38.4504 52.3513 38.7084 52.5992 39.2735C52.8459 39.8387 52.5885 40.497 52.0233 40.7443C51.8743 40.8114 51.7179 40.8436 51.5643 40.8436Z" fill="#A7C7D3"/>
<path d="M72.302 88.2875L55.4884 71.4739C54.4344 70.4204 54.4332 68.7154 55.4856 67.6635C55.9011 67.248 56.4205 66.9962 56.9603 66.911C57.784 66.7783 58.6585 67.0295 59.2959 67.6669L54.9662 63.3372C54.44 62.811 54.1758 62.1211 54.1758 61.4329C54.1758 61.2895 54.1871 61.1455 54.2102 61.0021C54.2966 60.4613 54.5473 59.943 54.9634 59.5269C55.3749 59.1153 55.8853 58.8658 56.4183 58.7771C57.1438 58.6563 57.9082 58.833 58.5174 59.3078L56.8699 57.6604C56.3432 57.1337 56.079 56.4421 56.079 55.7533C56.0778 55.607 56.0908 55.4597 56.1151 55.3157C56.2015 54.7782 56.4516 54.2628 56.8654 53.849C57.2815 53.4329 57.8004 53.1811 58.3429 53.0958C59.1661 52.9631 60.0412 53.2149 60.678 53.8518L62.5648 55.7386C61.9291 55.1029 61.6762 54.2267 61.8088 53.4035C61.8941 52.8632 62.1448 52.3449 62.562 51.9283C63.6127 50.8776 65.3194 50.8787 66.3723 51.9317L77.2991 62.8584L77.3296 62.815C77.8834 62.2611 78.5361 61.8676 79.2322 61.6328C80.9502 61.0535 82.9279 61.4493 84.2987 62.8206L89.3934 67.9153C90.373 68.8943 90.9223 70.2211 90.9245 71.6043L90.9274 74.7919C90.9285 76.2812 91.5213 77.7102 92.5765 78.7654L93.7124 79.9013L80.7176 92.8961L79.2655 91.444C78.3001 90.4786 77.0157 89.8971 75.6545 89.8079C74.3898 89.7249 73.1991 89.1846 72.302 88.2875Z" fill="#FECBAA"/>
<path d="M79.872 93.7402L94.6221 78.9901C95.1082 78.504 95.8957 78.504 96.3818 78.9901L101.635 84.2429C102.121 84.729 102.121 85.5171 101.635 86.0027L86.8851 100.753C86.399 101.239 85.6109 101.239 85.1253 100.753L79.872 95.4999C79.3864 95.0138 79.3864 94.2257 79.872 93.7402Z" fill="#FDD559"/>
<path d="M95.0147 85.6111C95.4512 86.0475 96.1574 86.048 96.5927 85.6128C97.028 85.1775 97.0274 84.4706 96.5916 84.0348C96.1552 83.5984 95.4489 83.5978 95.0136 84.0331C94.5783 84.4689 94.5789 85.1752 95.0147 85.6111Z" fill="#FF8812"/>
<path d="M81.0592 66.6203L77.2969 62.8585L77.3274 62.815C77.8812 62.2612 78.5339 61.8677 79.23 61.6328L82.6383 65.0412C83.0742 65.477 83.0742 66.1844 82.6383 66.6203C82.2013 67.0573 81.4951 67.0561 81.0592 66.6203Z" fill="#FFAE85"/>
<path d="M57.6994 88.2895L74.5131 71.4759C75.5671 70.4218 75.5683 68.7174 74.5164 67.6656C74.1004 67.2495 73.5815 66.9977 73.0412 66.9124C72.2175 66.7798 71.343 67.0316 70.7056 67.6684L75.0353 63.3392C75.5615 62.8131 75.8257 62.1231 75.8257 61.4344C75.8257 61.2915 75.8144 61.147 75.7913 61.0042C75.7049 60.4627 75.4542 59.945 75.0381 59.5289C74.6265 59.1173 74.1162 58.8678 73.5832 58.7792C72.8577 58.6583 72.0933 58.8351 71.4841 59.3099L73.1315 57.6619C73.6583 57.1357 73.9225 56.4441 73.9225 55.7553C73.9236 55.6085 73.9107 55.4612 73.8864 55.3172C73.8006 54.7803 73.5499 54.2643 73.1361 53.8504C72.72 53.4349 72.2011 53.1831 71.6586 53.0978C70.8354 52.9652 69.9603 53.2164 69.3235 53.8538L67.4367 55.7406C68.0724 55.1043 68.3253 54.2287 68.1926 53.405C68.1074 52.8652 67.8567 52.347 67.4395 51.9297C66.3888 50.8791 64.6821 50.8802 63.6292 51.9331L52.7024 62.8599L52.6719 62.817C52.1181 62.2632 51.4654 61.8696 50.7693 61.6348C49.0507 61.0555 47.0736 61.4513 45.7028 62.8221L40.6081 67.9174C39.6285 68.8964 39.0792 70.2231 39.0769 71.6063L39.0735 74.7933C39.073 76.2833 38.4802 77.7122 37.425 78.7674L36.2891 79.9033L49.2839 92.8981L50.736 91.446C51.7014 90.4806 52.9858 89.8991 54.347 89.8099C55.6116 89.7269 56.8023 89.1866 57.6994 88.2895Z" fill="#FECBAA"/>
<path d="M50.1273 93.7415L35.3772 78.992C34.8911 78.5059 34.1035 78.5059 33.6174 78.992L28.3646 84.2448C27.8785 84.7309 27.8785 85.5185 28.3646 86.0046L43.1141 100.755C43.6002 101.241 44.3883 101.241 44.8744 100.755L50.1273 95.5019C50.6134 95.0158 50.6134 94.2276 50.1273 93.7415Z" fill="#FF84A7"/>
<path d="M45.0954 95.7195C45.5319 95.283 45.5324 94.5768 45.0971 94.1415C44.6618 93.7056 43.955 93.7062 43.5191 94.1426C43.0827 94.5785 43.0822 95.2853 43.5174 95.7206C43.9533 96.1559 44.6596 96.1553 45.0954 95.7195Z" fill="#EF6085"/>
<path d="M48.9378 66.6222L52.6996 62.8599L52.6691 62.817C52.1152 62.2631 51.4626 61.8696 50.7665 61.6348L47.3581 65.0425C46.9223 65.4784 46.9223 66.1864 47.3581 66.6222C47.7951 67.0592 48.5014 67.0581 48.9378 66.6222Z" fill="#FFAE85"/>
<path d="M75.7527 47.994V71.7722C75.7527 73.2627 74.5485 74.4686 73.0608 74.4686C72.4725 74.4686 71.9277 74.2795 71.4851 73.9577C70.8093 73.4693 70.3684 72.6727 70.3684 71.7722V77.8951C70.3684 78.6392 70.0674 79.3138 69.5808 79.8005C69.4797 79.9021 69.3691 79.9958 69.2516 80.0805C68.8079 80.4023 68.2648 80.5915 67.6765 80.5915C67.0944 80.5915 66.5564 80.4068 66.1171 80.0929C65.5187 79.6656 65.1031 78.9999 65.0083 78.2327V80.5632C65.0083 81.3079 64.7057 81.9837 64.219 82.4704C64.1163 82.5748 64.0028 82.6702 63.8842 82.7549C63.4433 83.0739 62.9013 83.2613 62.3158 83.2613C61.7281 83.2613 61.1827 83.0722 60.739 82.7493C60.0632 82.2609 59.6222 81.4643 59.6222 80.5632V77.8951C59.6222 78.7944 59.1819 79.5922 58.5055 80.0805C58.0634 80.4023 57.5198 80.5915 56.9303 80.5915C55.4438 80.5915 54.2379 79.3838 54.2379 77.8951V62.4421L54.1859 62.4511C53.4029 62.4511 52.6627 62.2676 52.0044 61.9418C50.3801 61.1362 49.2617 59.4583 49.2617 57.5195V50.3139C49.2617 48.9295 49.8111 47.6028 50.7878 46.6227L53.0393 44.3672C54.0922 43.3126 54.6833 41.8836 54.6833 40.3914V38.7847H73.0603V40.838C73.0603 42.2032 73.5576 43.5226 74.457 44.5484C75.2926 45.5014 75.7527 46.7254 75.7527 47.994Z" fill="#FEDFC5"/>
<path d="M74.5145 67.6656C74.0984 67.2495 73.5796 66.9983 73.0393 66.9124C72.2155 66.7798 71.341 67.0316 70.7036 67.669L75.0333 63.3392C75.5595 62.8131 75.8243 62.1231 75.8243 61.4349C75.8243 61.2915 75.8125 61.147 75.7893 61.0042C75.7029 60.4627 75.4528 59.945 75.0367 59.5289C74.6252 59.1173 74.1142 58.8678 73.5818 58.7792C72.8563 58.6583 72.0919 58.8351 71.4822 59.3099L73.1302 57.6619C73.6563 57.1357 73.9206 56.4441 73.9206 55.7553C73.9217 55.6091 73.9093 55.4617 73.885 55.3172C73.7986 54.7803 73.5479 54.2643 73.1341 53.8504C72.7186 53.4349 72.1992 53.1831 71.6572 53.0978C70.834 52.9652 69.9584 53.217 69.3215 53.8538L67.4347 55.7406C68.0704 55.1043 68.3234 54.2287 68.1907 53.405C68.1054 52.8652 67.8548 52.347 67.4381 51.9297C66.3869 50.8791 64.6802 50.8802 63.6272 51.9331L52.7004 62.8599L52.67 62.817C52.1161 62.2632 51.4635 61.8696 50.7673 61.6348C49.9431 61.357 49.0595 61.3056 48.2109 61.4767C48.8941 62.5093 49.8493 63.3658 51.0135 63.9433C51.3364 64.1031 51.6673 64.2375 52.0049 64.3459V77.8951C52.0049 80.6135 54.2146 82.825 56.9302 82.825C57.2571 82.825 57.5789 82.7934 57.8923 82.7313C58.2429 83.4477 58.7657 84.0783 59.4245 84.5543C59.8333 84.8524 60.2793 85.0805 60.7485 85.2385L74.5111 71.4759C75.5652 70.4218 75.5663 68.7174 74.5145 67.6656Z" fill="#FFAE85"/>
<path d="M77.9873 71.772V62.2623C77.7564 62.4243 77.5362 62.6089 77.3296 62.815L77.2991 62.8584L66.3723 51.9317C65.3194 50.8787 63.6127 50.8776 62.562 51.9283C62.1448 52.3449 61.8941 52.8632 61.8089 53.4035C61.6762 54.2267 61.9291 55.1029 62.5648 55.7386L60.678 53.8518C60.0412 53.2149 59.1661 52.9631 58.3429 53.0958C57.8004 53.1811 57.2815 53.4329 56.8654 53.849C56.4516 54.2628 56.2009 54.7782 56.1146 55.3157C56.0908 55.4597 56.0779 55.607 56.079 55.7533C56.079 56.4421 56.3432 57.1337 56.87 57.6604L58.5174 59.3078C57.9076 58.833 57.1438 58.6563 56.4183 58.7771C55.8853 58.8658 55.375 59.1153 54.9634 59.5269C54.5473 59.943 54.2966 60.4613 54.2102 61.0021C54.1871 61.1455 54.1752 61.2895 54.1758 61.4329C54.1752 62.1217 54.44 62.811 54.9662 63.3372L59.2959 67.6669C58.6591 67.0301 57.784 66.7783 56.9609 66.911C56.4206 66.9962 55.9011 67.248 55.4856 67.6635C54.4338 68.7159 54.4349 70.4204 55.4884 71.4744L66.7523 82.7377C67.0549 82.7953 67.3643 82.8246 67.6776 82.8246C68.7215 82.8246 69.7197 82.5011 70.5598 81.892C70.7738 81.7373 70.9764 81.5651 71.1616 81.3799C72.0915 80.45 72.6035 79.2125 72.6035 77.8948V76.6809C72.7549 76.6951 72.9084 76.7018 73.062 76.7018C75.7776 76.7018 77.9873 74.4904 77.9873 71.772Z" fill="#FFAE85"/>
<path d="M75.7527 47.994V71.7722C75.7527 73.2627 74.5485 74.4686 73.0608 74.4686C73.0207 74.4686 72.9773 74.4686 72.9344 74.4658C72.3963 74.4404 71.8978 74.2575 71.4885 73.9594C71.4868 73.9594 71.4868 73.9577 71.4851 73.9577C70.8093 73.4693 70.3684 72.6727 70.3684 71.7722V77.8951C70.3684 78.6392 70.0674 79.3138 69.5808 79.8005C69.4797 79.9021 69.3691 79.9958 69.2516 80.0805C68.8079 80.4023 68.2648 80.5915 67.6765 80.5915C67.0944 80.5915 66.5564 80.4068 66.1171 80.0929C65.5187 79.6656 65.1031 78.9999 65.0083 78.2327V80.5632C65.0083 81.3079 64.7057 81.9837 64.219 82.4704C64.1163 82.5748 64.0028 82.6702 63.8842 82.7549C63.4433 83.0739 62.9013 83.2613 62.3158 83.2613C61.7281 83.2613 61.1827 83.0722 60.739 82.7493C60.0632 82.2609 59.6222 81.4643 59.6222 80.5632V77.8951C59.6222 78.7944 59.1819 79.5922 58.5055 80.0805C58.0634 80.4023 57.5198 80.5915 56.9303 80.5915C55.4438 80.5915 54.2379 79.3838 54.2379 77.8951V62.4421L54.1859 62.4511C53.4029 62.4511 52.6627 62.2676 52.0044 61.9418C50.3801 61.1362 49.2617 59.4583 49.2617 57.5195V50.3139C49.2617 48.9295 49.8111 47.6028 50.7878 46.6227L53.0393 44.3672C53.6902 43.7151 54.1651 42.9196 54.4315 42.053C54.5986 41.5172 54.6833 40.9526 54.6833 40.3914V38.7847H73.0603V40.838C73.0603 41.2982 73.1099 41.7837 73.2375 42.2269C73.4521 43.0805 73.8693 43.8771 74.457 44.5484C75.2852 45.4941 75.7527 46.7345 75.7527 47.994Z" fill="#FEDFC5"/>
<path d="M75.7548 47.994V71.7722C75.7548 73.2627 74.5505 74.4686 73.0629 74.4686C73.0228 74.4686 72.9793 74.4686 72.9364 74.4658C72.3984 74.4404 71.8999 74.2575 71.4905 73.9594L71.5363 51.0467C71.5363 50.9084 71.5052 50.6893 71.4471 50.411C70.4195 45.406 66.1954 42.053 61.0865 42.053H54.4336C54.6007 41.5166 54.6854 40.9526 54.6854 40.3914V38.7847H73.0623V40.838C73.0623 41.2982 73.112 41.7837 73.2396 42.2269C73.4541 43.0805 73.8714 43.8771 74.4591 44.5484C75.2873 45.4941 75.7548 46.7345 75.7548 47.994Z" fill="#FECBAA"/>
<path d="M74.2566 38.7851H53.3967C52.7096 38.7851 52.1523 38.2278 52.1523 37.5408V30.1115C52.1523 29.4244 52.7096 28.8672 53.3967 28.8672H74.2566C74.9437 28.8672 75.5009 29.4244 75.5009 30.1115V37.5408C75.5009 38.2278 74.9437 38.7851 74.2566 38.7851Z" fill="#83D9FF"/>
<path d="M58.0465 33.8267C58.0465 33.2096 57.5474 32.71 56.9314 32.71C56.3155 32.71 55.8164 33.2096 55.8164 33.8267C55.8164 34.4432 56.3155 34.9434 56.9314 34.9434C57.5474 34.9434 58.0465 34.4432 58.0465 33.8267Z" fill="#5186FF"/>
<path d="M71.484 59.3286V73.9579C70.8077 73.4696 70.3667 72.6729 70.3667 71.7719V77.8947C70.3667 78.6394 70.0664 79.314 69.5791 79.8007C69.4781 79.9023 69.368 79.996 69.25 80.0807V59.3286C69.25 58.7121 69.7508 58.2119 70.3667 58.2119C70.9832 58.2119 71.484 58.7121 71.484 59.3286Z" fill="#FECBAA"/>
<path d="M66.1163 59.3286V80.0926C65.5173 79.6652 65.1023 78.9996 65.0069 78.2329V80.5634C65.0069 81.3076 64.7048 81.9839 64.2176 82.4706C64.1149 82.575 64.0019 82.6699 63.8828 82.7551V59.3286C63.8828 58.7121 64.383 58.2119 64.9995 58.2119C65.6161 58.2119 66.1163 58.7121 66.1163 59.3286Z" fill="#FECBAA"/>
<path d="M60.7374 59.3286V82.7489C60.0616 82.2606 59.6206 81.4639 59.6206 80.5634V77.8947C59.6206 78.7941 59.1803 79.5924 58.5039 80.0807V59.3286C58.5039 58.7121 59.0047 58.2119 59.6206 58.2119C60.2388 58.2119 60.7374 58.7121 60.7374 59.3286Z" fill="#FECBAA"/>
<path d="M54.2374 57.1216V62.4422L54.1849 62.4506C53.4018 62.4506 52.6616 62.2677 52.0039 61.942V57.1216C52.0039 56.5051 52.5041 56.0049 53.1206 56.0049C53.7383 56.0049 54.2374 56.5051 54.2374 57.1216Z" fill="#FECBAA"/>
<mask id="path-22-inside-1" fill="white">
<path d="M65 0C56.4641 -1.0179e-07 48.0117 1.68127 40.1256 4.94783C32.2394 8.21439 25.0739 13.0023 19.0381 19.0381C13.0023 25.0739 8.21439 32.2394 4.94783 40.1256C1.68127 48.0117 -2.71327e-07 56.4641 0 65C2.71327e-07 73.5359 1.68128 81.9883 4.94783 89.8744C8.21439 97.7606 13.0023 104.926 19.0381 110.962C25.0739 116.998 32.2394 121.786 40.1256 125.052C48.0117 128.319 56.4641 130 65 130L65 113.837C58.5866 113.837 52.2359 112.574 46.3107 110.12C40.3855 107.666 35.0017 104.068 30.4667 99.5333C25.9317 94.9983 22.3344 89.6145 19.88 83.6893C17.4257 77.7641 16.1625 71.4134 16.1625 65C16.1625 58.5866 17.4257 52.2359 19.88 46.3107C22.3344 40.3855 25.9317 35.0017 30.4667 30.4667C35.0017 25.9317 40.3855 22.3344 46.3107 19.88C52.2359 17.4257 58.5866 16.1625 65 16.1625V0Z"/>
</mask>
<path d="M65 0C56.4641 -1.0179e-07 48.0117 1.68127 40.1256 4.94783C32.2394 8.21439 25.0739 13.0023 19.0381 19.0381C13.0023 25.0739 8.21439 32.2394 4.94783 40.1256C1.68127 48.0117 -2.71327e-07 56.4641 0 65C2.71327e-07 73.5359 1.68128 81.9883 4.94783 89.8744C8.21439 97.7606 13.0023 104.926 19.0381 110.962C25.0739 116.998 32.2394 121.786 40.1256 125.052C48.0117 128.319 56.4641 130 65 130L65 113.837C58.5866 113.837 52.2359 112.574 46.3107 110.12C40.3855 107.666 35.0017 104.068 30.4667 99.5333C25.9317 94.9983 22.3344 89.6145 19.88 83.6893C17.4257 77.7641 16.1625 71.4134 16.1625 65C16.1625 58.5866 17.4257 52.2359 19.88 46.3107C22.3344 40.3855 25.9317 35.0017 30.4667 30.4667C35.0017 25.9317 40.3855 22.3344 46.3107 19.88C52.2359 17.4257 58.5866 16.1625 65 16.1625V0Z" fill="white" stroke="#F2F2F2" stroke-width="6" mask="url(#path-22-inside-1)"/>
</svg>
