<svg width="76" height="76" viewBox="0 0 76 76" fill="none" xmlns="http://www.w3.org/2000/svg">
<path d="M72.3211 27.2251V66.1935C72.3211 66.8677 71.7694 67.4193 71.0952 67.4193H35.5469V62.5161H57.6114H67.4178V52.7096V50.258V32.4715C69.4036 31.0864 71.0707 29.2967 72.3211 27.2251Z" fill="#CCD1D9"/>
<path d="M4.90549 13.4839H41.1648C40.699 15.0407 40.4539 16.6832 40.4539 18.3871H18.3894H8.58291V28.1936V45.3549H3.67969V14.7097C3.67969 14.0355 4.2313 13.4839 4.90549 13.4839Z" fill="#CCD1D9"/>
<path d="M57.6143 35.5485C52.9317 35.5485 48.6904 33.673 45.6014 30.6453H19.6143C18.9401 30.6453 18.3885 30.0937 18.3885 29.4195V24.5162C18.3885 23.842 18.9401 23.2904 19.6143 23.2904H41.164C40.6982 21.7459 40.453 20.0911 40.453 18.3872H18.3885L8.58203 28.1937V45.3549H13.4853H23.2917H34.324C34.9982 45.3549 35.5498 45.9066 35.5498 46.5808V50.2582V62.5162H57.6143L67.4207 52.7098V50.2582V32.4717C64.6382 34.4085 61.2549 35.5485 57.6143 35.5485Z" fill="#E6E9ED"/>
<path d="M67.4197 52.7095V62.5159H57.6133L67.4197 52.7095Z" fill="#FCD770"/>
<path d="M18.3885 18.3872L8.58203 28.1937V18.3872H18.3885Z" fill="#FCD770"/>
<path d="M62.5159 41.677V44.1286C62.5159 44.8028 61.9643 45.3544 61.2901 45.3544H51.4836C50.8094 45.3544 50.2578 44.8028 50.2578 44.1286V41.677C50.2578 41.0028 50.8094 40.4512 51.4836 40.4512H61.2901C61.9643 40.4512 62.5159 41.0028 62.5159 41.677Z" fill="#FF826E"/>
<path d="M41.1622 23.29C42.008 26.1217 43.5525 28.6346 45.5996 30.6449H19.6125C18.9383 30.6449 18.3867 30.0933 18.3867 29.4191V24.5158C18.3867 23.8417 18.9383 23.29 19.6125 23.29H41.1622Z" fill="#FF826E"/>
<path d="M34.3233 45.3545H2.45237C1.77818 45.3545 1.22656 45.9061 1.22656 46.5803V73.548C1.22656 74.2222 1.77818 74.7738 2.45237 74.7738H34.3233C34.9975 74.7738 35.5491 74.2222 35.5491 73.548V46.5803C35.5491 45.9061 34.9975 45.3545 34.3233 45.3545Z" fill="#D3A06C"/>
<path d="M23.2908 45.3545V56.3868L18.3876 53.9351L13.4844 56.3868V45.3545H23.2908Z" fill="#B27946"/>
<path d="M72.3241 27.2249C71.0738 29.2966 69.4067 31.0862 67.4209 32.4714C64.6383 34.4082 61.2551 35.5482 57.6144 35.5482C52.9318 35.5482 48.6905 33.6727 45.6015 30.6449C43.5544 28.6346 42.0099 26.1217 41.1641 23.2901C40.6983 21.7456 40.4531 20.0907 40.4531 18.3869C40.4531 16.683 40.6983 15.0404 41.1641 13.4836C43.2725 6.39849 49.8428 1.22559 57.6144 1.22559C67.0899 1.22559 74.7757 8.91139 74.7757 18.3869C74.7757 21.6107 73.8809 24.6385 72.3241 27.2249Z" fill="#69D6F4"/>
<path d="M76 18.3871C76 8.24845 67.7515 0 57.6129 0C49.6255 0 42.8309 5.12877 40.2984 12.2581H4.90323C3.55116 12.2581 2.45161 13.3576 2.45161 14.7097V44.129C1.09955 44.129 0 45.2286 0 46.5806V73.5484C0 74.9005 1.09955 76 2.45161 76H34.3226C35.6746 76 36.7742 74.9005 36.7742 73.5484V68.6452H71.0968C72.4488 68.6452 73.5484 67.5456 73.5484 66.1936V27.5206C75.099 24.8263 76 21.7127 76 18.3871ZM66.1936 52.2022L57.1054 61.2903H36.7742V46.5806C36.7742 45.2286 35.6746 44.129 34.3226 44.129H9.80645V28.701L18.8946 19.6129H39.2883C39.3435 20.444 39.4342 21.2665 39.5972 22.0645H19.6129C18.2608 22.0645 17.1613 23.1641 17.1613 24.5161V29.4194C17.1613 30.7714 18.2608 31.871 19.6129 31.871H45.155C48.4353 34.9036 52.8041 36.7742 57.6129 36.7742C60.7117 36.7742 63.6292 35.9958 66.1936 34.6364V52.2022ZM66.1936 55.6688V61.2903H60.572L66.1936 55.6688ZM14.7097 46.5806H22.0645V54.4037L18.3871 52.565L14.7097 54.4037V46.5806ZM9.80645 25.2345V19.6129H15.428L9.80645 25.2345ZM51.4839 18.3871C51.4839 16.3069 51.8161 14.239 52.4265 12.2581H62.7981C63.4097 14.239 63.7419 16.3069 63.7419 18.3871C63.7419 20.4673 63.4097 22.5352 62.7993 24.5161H52.4277C51.8161 22.5352 51.4839 20.4673 51.4839 18.3871ZM57.6129 3.26923L59.5742 5.88387C60.4874 7.1011 61.2486 8.42252 61.8726 9.80645H53.3545C53.9784 8.42374 54.7396 7.1011 55.6528 5.88387L57.6129 3.26923ZM61.8726 26.9677C61.2486 28.3505 60.4874 29.6731 59.5742 30.8903L57.6129 33.505L55.6516 30.8903C54.7384 29.6731 53.9772 28.3517 53.3532 26.9677H61.8726ZM53.6903 32.3613L54.9848 34.0872C50.4652 33.3321 46.5905 30.6795 44.2063 26.9677H50.6957C51.4545 28.8837 52.4498 30.7077 53.6903 32.3613ZM42.9388 29.4194H19.6129V24.5161H40.2984C40.9297 26.2923 41.8233 27.941 42.9388 29.4194ZM60.241 34.0872L61.5355 32.3613C62.776 30.7077 63.7714 28.8849 64.5301 26.9677H71.0195C68.6354 30.6795 64.7594 33.3321 60.241 34.0872ZM72.3189 24.5161H65.3477C65.8932 22.523 66.1936 20.4612 66.1936 18.3871C66.1936 16.313 65.8945 14.2512 65.3477 12.2581H72.3189C73.1083 14.1458 73.5484 16.2162 73.5484 18.3871C73.5484 20.558 73.1083 22.6284 72.3189 24.5161ZM71.0195 9.80645H64.5301C63.7714 7.89052 62.776 6.06652 61.5355 4.4129L60.241 2.68697C64.7594 3.44206 68.6354 6.09471 71.0195 9.80645ZM54.9848 2.68697L53.6903 4.4129C52.4498 6.06652 51.4545 7.88929 50.6957 9.80645H44.2063C46.5905 6.09471 50.4664 3.44206 54.9848 2.68697ZM42.9069 12.2581H49.8781C49.3314 14.2512 49.0323 16.313 49.0323 18.3871C49.0323 20.4612 49.3314 22.523 49.8781 24.5161H42.9069C42.1175 22.6284 41.6774 20.558 41.6774 18.3871C41.6774 16.2162 42.1175 14.1458 42.9069 12.2581ZM4.90323 14.7097H39.596C39.433 15.5077 39.3423 16.3302 39.2871 17.1613H7.35484V44.129H4.90323V14.7097ZM2.45161 73.5484V46.5806H12.2581V58.3705L18.3871 55.3059L24.5161 58.3705V46.5806H34.3226L34.3238 73.5484H2.45161ZM71.0968 66.1936H36.7742V63.7419H68.6452V33.0612C69.5277 32.3956 70.3478 31.6552 71.0968 30.845V66.1936Z" fill="black"/>
<path d="M4.90234 68.645H7.35396V71.0966H4.90234V68.645Z" fill="black"/>
<path d="M9.80469 68.645H12.2563V71.0966H9.80469V68.645Z" fill="black"/>
<path d="M14.707 68.645H17.1586V71.0966H14.707V68.645Z" fill="black"/>
<path d="M17.1602 34.3228H36.7731V36.7744H17.1602V34.3228Z" fill="black"/>
<path d="M39.2266 34.3228H46.5814V36.7744H39.2266V34.3228Z" fill="black"/>
<path d="M49.0312 41.6777V44.1293C49.0312 45.4814 50.1308 46.5809 51.4829 46.5809H61.2893C62.6414 46.5809 63.7409 45.4814 63.7409 44.1293V41.6777C63.7409 40.3256 62.6414 39.2261 61.2893 39.2261H51.4829C50.1308 39.2261 49.0312 40.3256 49.0312 41.6777ZM61.2905 44.1293H51.4829V41.6777H61.2893L61.2905 44.1293Z" fill="black"/>
<path d="M17.1602 39.2261H46.5795V41.6777H17.1602V39.2261Z" fill="black"/>
<path d="M39.2266 49.0322H49.033V51.4839H39.2266V49.0322Z" fill="black"/>
<path d="M51.4844 49.0322H53.936V51.4839H51.4844V49.0322Z" fill="black"/>
<path d="M56.3867 49.0322H58.8383V51.4839H56.3867V49.0322Z" fill="black"/>
<path d="M61.293 49.0322H63.7446V51.4839H61.293V49.0322Z" fill="black"/>
</svg>
