<svg width="130" height="130" viewBox="0 0 130 130" fill="none" xmlns="http://www.w3.org/2000/svg">
<circle cx="65" cy="65" r="65" fill="#F2F2F2"/>
<path d="M45.4718 50.5011C45.2658 50.5011 45.0591 50.4824 44.8548 50.4435C43.4727 50.1815 42.3633 49.0569 42.0951 47.6455C41.9766 47.0205 42.387 46.4181 43.012 46.2989C43.6364 46.1804 44.2394 46.5908 44.3585 47.2158C44.4511 47.7053 44.8231 48.0926 45.2844 48.1801C45.7468 48.2682 46.1956 48.0271 46.3994 47.7437C46.71 47.3118 46.5818 46.5411 46.3915 46.1318C46.0172 45.3256 44.8429 45.1833 42.9578 45.0179C40.8553 44.8333 38.2391 44.6035 36.2563 42.6772C33.6959 40.1908 33.0185 35.7662 34.7122 32.6052C35.9853 30.2306 38.4389 28.6464 40.9643 28.5679C43.0922 28.5018 45.7259 29.3837 46.4853 31.476C46.9234 32.6825 46.8178 34.4626 45.5515 35.5178C44.3404 36.5267 42.8471 36.2659 42.4181 36.162C41.7998 36.0124 41.4205 35.3897 41.5701 34.7714C41.7197 34.1532 42.3424 33.7733 42.9606 33.9235C42.9894 33.9302 43.6669 34.0894 44.0768 33.7484C44.4912 33.4029 44.4686 32.6712 44.3201 32.2619C43.9543 31.2541 42.1454 30.8341 41.036 30.8702C39.0831 30.9306 37.4724 32.3319 36.743 33.6931C35.5494 35.9192 36.0615 39.2768 37.8614 41.0247C39.2564 42.3802 41.2404 42.5547 43.1593 42.7229C45.3064 42.9115 47.5263 43.1063 48.4805 45.1613C48.9536 46.1793 49.1822 47.8193 48.2699 49.0885C47.633 49.9749 46.5609 50.5011 45.4718 50.5011Z" fill="#FF7E09"/>
<path d="M73.3175 50.5011C72.2284 50.5011 71.1563 49.9749 70.5195 49.0885C69.6071 47.8193 69.8358 46.1798 70.3083 45.1613C71.263 43.1063 73.4829 42.9115 75.6306 42.7229C77.549 42.5547 79.5329 42.3802 80.9285 41.0247C82.7279 39.2768 83.2399 35.9192 82.0464 33.6931C81.317 32.3319 79.7068 30.9306 77.7534 30.8702C76.6468 30.8347 74.8356 31.2547 74.4698 32.2619C74.3213 32.6712 74.2987 33.4029 74.7131 33.7484C75.1225 34.09 75.8005 33.9302 75.8287 33.9235C76.4481 33.7738 77.0697 34.1532 77.2193 34.7714C77.3695 35.3897 76.9895 36.0124 76.3713 36.162C75.9422 36.2659 74.4489 36.5267 73.2385 35.5184C71.9716 34.4626 71.8665 32.6831 72.3047 31.476C73.0634 29.3837 75.6966 28.5018 77.8251 28.5679C80.3504 28.6464 82.8046 30.2311 84.0766 32.6046C85.7715 35.7662 85.0934 40.1902 82.5336 42.6772C80.5508 44.6035 77.934 44.8333 75.8316 45.0179C73.9464 45.1833 72.7721 45.3256 72.3978 46.1313C72.2081 46.5411 72.0794 47.3118 72.3899 47.7437C72.5937 48.0271 73.0414 48.2682 73.5049 48.1801C73.9662 48.0926 74.3383 47.7053 74.4314 47.2158C74.55 46.5908 75.1524 46.1804 75.7774 46.2989C76.4023 46.4181 76.8128 47.0205 76.6942 47.6455C76.4261 49.0569 75.3172 50.1815 73.9346 50.4435C73.7296 50.4819 73.5236 50.5011 73.3175 50.5011Z" fill="#FF7E09"/>
<path d="M72.4329 28H46.4212C45.9752 28 45.6133 28.3619 45.6133 28.8079V35.8945C45.6133 45.1456 50.2806 53.3054 57.3881 58.1506C58.5195 58.9218 60.0032 58.9308 61.1459 58.1754C68.4328 53.359 73.2408 45.0931 73.2408 35.7042V28.8079C73.2402 28.3619 72.8789 28 72.4329 28V28Z" fill="#FDD559"/>
<path d="M72.4333 28H65.6839C66.1299 28 66.4912 28.3619 66.4912 28.8079V35.7042C66.4912 44.4173 62.3495 52.1604 55.9297 57.0801C56.4039 57.4522 56.8895 57.8107 57.3885 58.1506C58.52 58.9218 60.0037 58.9308 61.1458 58.1754C68.4333 53.359 73.2407 45.0931 73.2407 35.7042V28.8079C73.2407 28.3619 72.8794 28 72.4333 28V28Z" fill="#FDC259"/>
<path d="M57.0742 57.8701H61.7839V70.1197H57.0742V57.8701Z" fill="#FF7E09"/>
<path d="M62.5042 59.3159H56.3509C54.1485 59.3159 52.3633 57.5302 52.3633 55.3283C52.3633 54.9805 52.6456 54.6982 52.9933 54.6982H65.8617C66.2101 54.6982 66.4918 54.9805 66.4918 55.3283C66.4912 57.5302 64.706 59.3159 62.5042 59.3159Z" fill="#FDB659"/>
<path d="M65.8624 54.6982H61.4474C61.7952 54.6982 62.0769 54.9805 62.0769 55.3283C62.0769 57.5307 60.2917 59.3159 58.0898 59.3159H62.5048C64.7072 59.3159 66.4919 57.5302 66.4919 55.3283C66.4919 54.9805 66.2101 54.6982 65.8624 54.6982Z" fill="#FD9E28"/>
<path d="M66.4912 73.5884H52.3633V73.27C52.3633 70.7316 54.4212 68.6743 56.9595 68.6743H61.8956C64.4339 68.6743 66.4912 70.7316 66.4912 73.27V73.5884Z" fill="#FDB659"/>
<path d="M61.8963 68.6743H57.6953C60.2331 68.6743 62.291 70.7316 62.291 73.27V73.5884H66.492V73.27C66.492 70.7316 64.4346 68.6743 61.8963 68.6743Z" fill="#FD9E28"/>
<path d="M69.4093 81.6624H49.4453V76.3967C49.4453 74.8452 50.7032 73.5879 52.2541 73.5879H66.5999C68.1514 73.5879 69.4087 74.8458 69.4087 76.3967V81.6624H69.4093Z" fill="#38627C"/>
<path d="M66.5993 73.5879H62.5039C64.0554 73.5879 65.3132 74.8452 65.3132 76.3967V80.2166H69.4081V76.3967C69.4087 74.8452 68.1508 73.5879 66.5993 73.5879Z" fill="#2F5066"/>
<path d="M78.5945 95.0454C78.0051 95.0454 77.4157 94.8207 76.9657 94.3707L73.6895 90.2177C72.7235 88.9937 71.2505 88.2795 69.6911 88.2795H49.6978C48.3169 88.2795 47.0178 87.6263 46.1947 86.518L37.3935 74.6727C36.4676 73.7473 36.4947 72.2298 37.4742 71.3383C38.3917 70.5039 39.82 70.5846 40.6974 71.4614L49.4528 80.2168H69.1396C72.2233 80.2168 75.1833 81.4267 77.3846 83.5868L80.2233 86.3718C81.1232 87.2717 81.1232 88.73 80.2233 89.6294C79.7739 90.0794 79.1845 95.0454 78.5945 95.0454Z" fill="#FEDFC5"/>
<path d="M49.0795 80.2169H49.4521L40.6995 71.4649C39.8261 70.5915 38.3328 70.5226 37.4368 71.3723C37.2104 71.5868 37.0377 71.8364 36.918 72.1034L42.1702 77.3551C44.0028 79.1877 46.4881 80.2169 49.0795 80.2169Z" fill="#FECBAA"/>
<path d="M80.222 86.3718L77.3833 83.5867C75.182 81.4267 72.222 80.2168 69.1382 80.2168H64.7188C67.8019 80.2168 70.7625 81.4267 72.9638 83.5867L75.8025 86.3718C76.7024 87.2717 76.7024 88.73 75.8025 89.6294C75.6038 89.8281 75.3779 90.9093 75.1363 92.0537L76.9644 94.3707C77.4144 94.8207 78.0038 95.0454 78.5937 95.0454C79.1832 95.0454 79.7726 90.0794 80.2225 89.6294C81.1219 88.73 81.1219 87.2717 80.222 86.3718Z" fill="#FECBAA"/>
<path d="M72.4404 91.6861L81.5736 84.617C81.9417 84.3319 82.4712 84.3991 82.7564 84.7672L86.941 90.1736L76.4743 98.2752L72.2897 92.8694C72.0046 92.5008 72.0723 91.9712 72.4404 91.6861Z" fill="#83D9FF"/>
<path d="M82.757 84.7672C82.4719 84.3991 81.9424 84.3319 81.5743 84.617L79.6485 86.1075C81.3863 88.3528 80.9753 91.5828 78.7299 93.3205L74.9219 96.2682L76.475 98.2752L86.9417 90.1736L82.757 84.7672Z" fill="#5FC9ED"/>
<path d="M86.9432 90.1738L76.4766 98.2755L78.95 101.472C79.2085 101.805 79.6066 102 80.0283 102H95.8641C96.1752 102 96.3462 101.639 96.1492 101.398L86.9432 90.1738Z" fill="#4F7693"/>
<mask id="path-19-inside-1" fill="white">
<path d="M65 130C82.2391 130 98.7721 123.152 110.962 110.962C123.152 98.7721 130 82.2391 130 65C130 47.7609 123.152 31.2279 110.962 19.0381C98.7721 6.8482 82.2391 3.35657e-06 65 0L65 16.1625C77.9525 16.1625 90.3745 21.3079 99.5333 30.4667C108.692 39.6255 113.837 52.0475 113.837 65C113.837 77.9525 108.692 90.3745 99.5333 99.5333C90.3745 108.692 77.9525 113.837 65 113.837V130Z"/>
</mask>
<path d="M65 130C82.2391 130 98.7721 123.152 110.962 110.962C123.152 98.7721 130 82.2391 130 65C130 47.7609 123.152 31.2279 110.962 19.0381C98.7721 6.8482 82.2391 3.35657e-06 65 0L65 16.1625C77.9525 16.1625 90.3745 21.3079 99.5333 30.4667C108.692 39.6255 113.837 52.0475 113.837 65C113.837 77.9525 108.692 90.3745 99.5333 99.5333C90.3745 108.692 77.9525 113.837 65 113.837V130Z" fill="white" stroke="#F2F2F2" stroke-width="6" mask="url(#path-19-inside-1)"/>
</svg>
