<svg width="76" height="76" viewBox="0 0 76 76" fill="none" xmlns="http://www.w3.org/2000/svg">
<path d="M56.1796 74.9185H19.8144C17.4899 74.9185 15.6055 73.0341 15.6055 70.7096V5.2905C15.6055 2.96596 17.4899 1.08154 19.8144 1.08154H56.1798C58.5043 1.08154 60.3887 2.96596 60.3887 5.2905V70.7096C60.3886 73.0342 58.5041 74.9185 56.1796 74.9185Z" fill="#21D8DE"/>
<path d="M56.182 1.08154H53.8858C54.0752 1.5604 54.1803 2.08172 54.1803 2.62782V68.0469C54.1803 70.3714 52.2959 72.2558 49.9713 72.2558H15.9023C16.5188 73.8149 18.0384 74.9184 19.8168 74.9184H56.182C58.5065 74.9184 60.3909 73.034 60.3909 70.7094V5.29035C60.3909 2.96596 58.5065 1.08154 56.182 1.08154Z" fill="#10C4C4"/>
<path d="M20.4912 64.68H55.6453C56.0914 64.68 56.453 64.3185 56.453 63.8724V9.43314C56.453 8.98708 56.0914 8.62549 55.6453 8.62549H20.4912C20.0452 8.62549 19.6836 8.98708 19.6836 9.43314V63.8722C19.6836 64.3185 20.0452 64.68 20.4912 64.68Z" fill="white"/>
<path d="M55.6453 8.62549H49.9153V61.2405C49.9153 61.6865 49.5537 62.0481 49.1077 62.0481H19.6836V63.8723C19.6836 64.3183 20.0452 64.6799 20.4912 64.6799H55.6453C56.0914 64.6799 56.453 64.3183 56.453 63.8723V9.43314C56.4531 8.98708 56.0915 8.62549 55.6453 8.62549Z" fill="#E1EFFB"/>
<path d="M37.9998 72.3096C39.2466 72.3096 40.2574 71.2989 40.2574 70.052C40.2574 68.8052 39.2466 67.7944 37.9998 67.7944C36.7529 67.7944 35.7422 68.8052 35.7422 70.052C35.7422 71.2989 36.7529 72.3096 37.9998 72.3096Z" fill="#0FB0C0"/>
<path d="M30.6864 40.3347C31.6652 40.3347 32.4588 39.5412 32.4588 38.5624C32.4588 37.5835 31.6652 36.79 30.6864 36.79C29.7076 36.79 28.9141 37.5835 28.9141 38.5624C28.9141 39.5412 29.7076 40.3347 30.6864 40.3347Z" fill="#CCCCCC"/>
<path d="M44.4716 40.3347C45.4504 40.3347 46.2439 39.5412 46.2439 38.5624C46.2439 37.5835 45.4504 36.79 44.4716 36.79C43.4927 36.79 42.6992 37.5835 42.6992 38.5624C42.6992 39.5412 43.4927 40.3347 44.4716 40.3347Z" fill="#CCCCCC"/>
<path d="M26.8555 22.6475L29.6324 33.5358H46.2144C46.5527 33.5358 46.8478 33.3065 46.9315 32.9787L49.331 23.5704C49.4504 23.1026 49.0968 22.6476 48.6139 22.6476L26.8555 22.6475Z" fill="#FF4C4C"/>
<path d="M43.1462 5.92163C43.7435 5.92163 44.2279 5.43743 44.2279 4.83997C44.2279 4.2425 43.7437 3.7583 43.1462 3.7583H32.859C32.2617 3.7583 31.7773 4.2425 31.7773 4.83997C31.7773 5.43743 32.2615 5.92163 32.859 5.92163H43.1462Z" fill="black"/>
<path d="M60.392 12.2942C60.9893 12.2942 61.4736 11.81 61.4736 11.2125V5.29047C61.4736 2.37337 59.1002 0 56.183 0H19.8178C16.9006 0 14.5273 2.37337 14.5273 5.29047V70.7095C14.5273 73.6268 16.9007 76 19.8178 76H56.1831C59.1004 76 61.4736 73.6266 61.4736 70.7095V19.0361C61.4736 18.4388 60.9894 17.9544 60.392 17.9544C59.7945 17.9544 59.3103 18.4386 59.3103 19.0361V70.7095C59.3103 72.4339 57.9074 73.8368 56.183 73.8368H19.8178C18.0934 73.8368 16.6905 72.4339 16.6905 70.7095V5.29047C16.6905 3.56607 18.0934 2.16318 19.8178 2.16318H56.1831C57.9076 2.16318 59.3104 3.56607 59.3104 5.29047V11.2125C59.3104 11.8099 59.7946 12.2942 60.392 12.2942Z" fill="black"/>
<path d="M57.5343 63.8724V9.43326C57.5343 8.39153 56.6867 7.54395 55.645 7.54395H20.4909C19.4491 7.54395 18.6016 8.39153 18.6016 9.43326V63.8724C18.6016 64.9141 19.4491 65.7617 20.4909 65.7617H55.645C56.6867 65.7617 57.5343 64.9143 57.5343 63.8724ZM55.3711 63.5985H20.7647V9.70728H55.3711V63.5985Z" fill="black"/>
<path d="M34.0469 49.4679C34.0469 50.0652 34.5311 50.5496 35.1285 50.5496H52.1972C52.7946 50.5496 53.2789 50.0654 53.2789 49.4679C53.2789 48.8704 52.7947 48.3862 52.1972 48.3862H35.1284C34.5311 48.3864 34.0469 48.8706 34.0469 49.4679Z" fill="black"/>
<path d="M23.8043 50.5496H27.5601C28.1574 50.5496 28.6418 50.0654 28.6418 49.4679C28.6418 48.8704 28.1576 48.3862 27.5601 48.3862H23.8043C23.207 48.3862 22.7227 48.8704 22.7227 49.4679C22.7227 50.0654 23.207 50.5496 23.8043 50.5496Z" fill="black"/>
<path d="M52.1999 53.9355H23.8043C23.207 53.9355 22.7227 54.4197 22.7227 55.0172C22.7227 55.6145 23.2069 56.0989 23.8043 56.0989H52.1999C52.7972 56.0989 53.2815 55.6147 53.2815 55.0172C53.2815 54.4197 52.7972 53.9355 52.1999 53.9355Z" fill="black"/>
<path d="M32.722 31.8778C32.8105 31.8778 32.9004 31.8668 32.9901 31.844C33.5688 31.6963 33.9184 31.1074 33.7709 30.5287L32.3916 25.1206C32.2439 24.5419 31.6549 24.1926 31.0763 24.3398C30.4975 24.4875 30.1479 25.0764 30.2955 25.6551L31.6748 31.0632C31.7995 31.5524 32.2394 31.8778 32.722 31.8778Z" fill="black"/>
<path d="M38.1051 31.8775C38.7024 31.8775 39.1866 31.3933 39.1866 30.7959V25.3878C39.1866 24.7905 38.7024 24.3062 38.1051 24.3062C37.5078 24.3062 37.0234 24.7904 37.0234 25.3878V30.7959C37.0236 31.3932 37.5078 31.8775 38.1051 31.8775Z" fill="black"/>
<path d="M43.2246 31.8443C43.3143 31.8672 43.4042 31.8782 43.4927 31.8782C43.9753 31.8782 44.4153 31.5527 44.5401 31.0636L45.9194 25.6555C46.0669 25.0768 45.7173 24.4878 45.1386 24.3402C44.56 24.1933 43.971 24.5422 43.8233 25.121L42.444 30.529C42.2963 31.1078 42.6457 31.6967 43.2246 31.8443Z" fill="black"/>
<path d="M22.4251 17.3378L24.6257 18.556C24.6784 18.5851 24.7173 18.6354 24.7321 18.6939C24.7324 18.6951 24.7321 18.6939 24.7324 18.6951L29.1847 36.1401C29.1848 36.1408 29.1847 36.1401 29.1848 36.1408L29.1847 36.1401C28.3748 36.6442 27.8329 37.54 27.8329 38.5622C27.8329 40.1359 29.1131 41.4162 30.6869 41.4162C31.8778 41.4162 32.8993 40.6824 33.3265 39.6438H41.8326C42.2598 40.6824 43.2815 41.4162 44.4723 41.4162C45.6632 41.4162 46.6849 40.6824 47.1121 39.6438H47.6956C48.2929 39.6438 48.7773 39.1596 48.7773 38.5622C48.7773 37.9648 48.2931 37.4805 47.6956 37.4805H47.1136C47.1114 37.475 47.1085 37.4698 47.1063 37.4645C47.099 37.4471 47.0906 37.4305 47.083 37.4132C47.0564 37.3533 47.0282 37.2942 46.9977 37.2365C46.9853 37.2132 46.9727 37.1901 46.9598 37.1673C46.9291 37.1125 46.8964 37.0592 46.8621 37.0068C46.8504 36.9889 46.8394 36.9706 46.8274 36.9529C46.7808 36.8848 46.7315 36.8188 46.6794 36.7551C46.6699 36.7435 46.6595 36.7327 46.6497 36.7211C46.6058 36.6691 46.5601 36.619 46.5126 36.5703C46.4948 36.552 46.4765 36.5342 46.4581 36.5164C46.4137 36.4733 46.368 36.4318 46.3209 36.3917C46.3039 36.3772 46.2874 36.3623 46.2702 36.3482C46.2062 36.2961 46.1403 36.2464 46.0719 36.1999C46.0624 36.1934 46.0523 36.1879 46.0426 36.1815C45.9829 36.142 45.9218 36.1049 45.859 36.0699C45.8367 36.0574 45.8142 36.0458 45.7916 36.034C45.7371 36.0055 45.6816 35.9787 45.6251 35.9537C45.6032 35.944 45.5816 35.9338 45.5595 35.9246C45.4821 35.8925 45.4034 35.8631 45.323 35.8379C45.3163 35.8358 45.3095 35.8343 45.3028 35.8324C45.2287 35.8098 45.1532 35.7907 45.0766 35.7741C45.0512 35.7686 45.0255 35.764 44.9998 35.7592C44.9381 35.7476 44.8757 35.7381 44.8128 35.7306C44.787 35.7274 44.7614 35.724 44.7353 35.7217C44.6485 35.7136 44.5611 35.7083 44.4723 35.7083C44.3835 35.7083 44.2959 35.7136 44.2093 35.7217C44.1833 35.724 44.1576 35.7274 44.1318 35.7306C44.0688 35.7381 44.0065 35.7476 43.9447 35.7592C43.9191 35.764 43.8934 35.7686 43.868 35.7741C43.7916 35.7907 43.716 35.8097 43.6419 35.8322C43.6353 35.8343 43.6283 35.8358 43.6214 35.8379C43.5408 35.8631 43.4623 35.8927 43.385 35.9246C43.3627 35.9338 43.3412 35.944 43.3192 35.9537C43.2628 35.9787 43.2073 36.0053 43.1528 36.034C43.1301 36.0458 43.1076 36.0576 43.0853 36.07C43.0228 36.1049 42.9616 36.142 42.9021 36.1815C42.8925 36.1879 42.8822 36.1935 42.8726 36.2001C42.8041 36.2465 42.7384 36.2963 42.6744 36.3484C42.657 36.3625 42.6404 36.3775 42.6234 36.392C42.5763 36.4321 42.5306 36.4735 42.4863 36.5165C42.4679 36.5343 42.4497 36.5522 42.4319 36.5706C42.3845 36.6191 42.3389 36.6693 42.295 36.7211C42.2852 36.7327 42.2747 36.7436 42.265 36.7554C42.2128 36.8191 42.1636 36.8851 42.117 36.9531C42.1049 36.9708 42.0939 36.9892 42.082 37.0073C42.0479 37.0597 42.0152 37.113 41.9845 37.1676C41.9716 37.1904 41.9589 37.2135 41.9466 37.2368C41.9162 37.2945 41.8878 37.3536 41.8613 37.4135C41.8537 37.4308 41.8452 37.4474 41.838 37.4648C41.8357 37.4702 41.8329 37.4753 41.8307 37.4808H33.3274C33.3249 37.4749 33.3221 37.4691 33.3196 37.4631C33.3147 37.4517 33.3093 37.4406 33.3044 37.4291C33.2746 37.3604 33.2421 37.293 33.207 37.2273C33.201 37.2158 33.1953 37.2041 33.1889 37.1927C33.1503 37.1223 33.1083 37.054 33.0641 36.9875C33.0546 36.9733 33.045 36.9595 33.0353 36.9454C32.989 36.8783 32.9407 36.8127 32.8891 36.7499C32.8869 36.7472 32.8845 36.7447 32.8823 36.7422C32.8318 36.6813 32.7781 36.6231 32.7228 36.5667C32.7116 36.5551 32.7004 36.5436 32.689 36.5323C32.6324 36.4765 32.5737 36.423 32.5127 36.372C32.5012 36.3623 32.4893 36.3533 32.4778 36.3439C32.419 36.2964 32.3586 36.2508 32.2962 36.2079C32.2893 36.2032 32.2824 36.1978 32.2755 36.1931C32.2087 36.1481 32.1393 36.1067 32.0687 36.0674C32.0534 36.0589 32.0379 36.0504 32.0225 36.0423C31.9513 36.0043 31.8785 35.9687 31.8039 35.9367C31.7945 35.9327 31.785 35.9295 31.7757 35.9255C31.7054 35.8964 31.6338 35.8702 31.561 35.8468C31.5474 35.8423 31.5339 35.8376 31.5201 35.8333C31.4559 35.8137 31.3911 35.7956 31.325 35.7804L31.0286 34.618H46.2184C47.0517 34.618 47.7776 34.0541 47.9834 33.2466L50.3829 23.8383C50.5231 23.2894 50.404 22.7179 50.0564 22.2705C49.7087 21.8231 49.1845 21.5666 48.6179 21.5666H27.6997L26.8281 18.1582C26.666 17.5248 26.2452 16.98 25.6734 16.6637L23.4729 15.4456C22.9504 15.1562 22.2923 15.3454 22.0028 15.8681C21.7134 16.3903 21.9025 17.0485 22.4251 17.3378ZM44.4723 37.8713C44.8532 37.8713 45.1631 38.1813 45.1631 38.5622C45.1631 38.9431 44.8532 39.253 44.4723 39.253C44.0914 39.253 43.7815 38.9431 43.7815 38.5622C43.7816 38.1813 44.0914 37.8713 44.4723 37.8713ZM31.3777 38.5622C31.3777 38.9431 31.0678 39.253 30.6869 39.253C30.306 39.253 29.996 38.9431 29.996 38.5622C29.996 38.1813 30.306 37.8713 30.6869 37.8713C31.0678 37.8713 31.3777 38.1813 31.3777 38.5622ZM48.1785 23.7295L45.9533 32.4545H30.4773L28.252 23.7295H48.1785Z" fill="black"/>
<path d="M34.6602 70.0515C34.6602 71.8927 36.1582 73.3908 37.9994 73.3908C39.8406 73.3908 41.3387 71.8927 41.3387 70.0515C41.3387 68.2103 39.8406 66.7124 37.9994 66.7124C36.1582 66.7124 34.6602 68.2103 34.6602 70.0515ZM39.1755 70.0515C39.1755 70.7 38.6479 71.2276 37.9994 71.2276C37.3509 71.2276 36.8233 70.7 36.8233 70.0515C36.8233 69.4031 37.3509 68.8756 37.9994 68.8756C38.6479 68.8756 39.1755 69.403 39.1755 70.0515Z" fill="black"/>
</svg>
