<svg width="76" height="76" viewBox="0 0 76 76" fill="none" xmlns="http://www.w3.org/2000/svg">
<g clip-path="url(#clip0)">
<path d="M63.4769 60.5264C63.4769 63.8265 64.6569 66.8205 66.5703 69.0122H19.9423C19.4651 69.0122 19.0149 68.7851 18.7383 68.3962C17.9538 67.2931 16.5117 64.6983 16.5117 60.5264C16.5117 56.3545 17.9538 53.7596 18.7383 52.6566C19.0149 52.2676 19.4652 52.0405 19.9423 52.0405H66.5703C64.657 54.2324 63.4769 57.2263 63.4769 60.5264Z" fill="#FB3A82"/>
<path d="M30.7367 52.041L17.5879 66.2838C17.0134 64.9018 16.5117 62.9899 16.5117 60.5273C16.5117 56.3547 17.9531 53.7599 18.7383 52.657C19.0144 52.2681 19.4642 52.041 19.9422 52.041H30.7367Z" fill="#FB1466"/>
<path d="M68.6059 60.5264C68.6059 63.8265 69.7858 66.8205 71.6992 69.0122H24.3617C24.3617 69.0122 21.6406 66.257 21.6406 60.5264C21.6406 54.7957 24.3617 52.0405 24.3617 52.0405H71.6992C69.7859 54.2324 68.6059 57.2263 68.6059 60.5264Z" fill="#E0D3CE"/>
<path d="M30.7354 52.041L21.6896 61.8394C21.6584 61.4208 21.6406 60.9829 21.6406 60.5272C21.6406 54.796 24.3615 52.041 24.3615 52.041H30.7354Z" fill="#CDBFBB"/>
<path d="M68.6052 60.5274C68.6052 63.8278 69.7851 66.8208 71.6987 69.0128H66.0896C64.1762 66.8208 62.9961 63.8278 62.9961 60.5274C62.9961 57.227 64.176 54.2319 66.0896 52.042H71.6987C69.7851 54.2321 68.6052 57.2271 68.6052 60.5274Z" fill="#CDBFBB"/>
<path d="M74.8864 50.4573C74.8864 51.1371 74.6103 51.7531 74.165 52.1985C73.7197 52.6438 73.1037 52.9199 72.4238 52.9199H25.3611C24.0013 52.9199 22.8984 51.817 22.8984 50.4573C22.8984 49.7774 23.1745 49.1599 23.6199 48.7146C24.0652 48.2693 24.6812 47.9932 25.3611 47.9932H72.4238C73.7835 47.9932 74.8864 49.0961 74.8864 50.4573Z" fill="#FB3A82"/>
<path d="M34.4723 47.9932L29.9256 52.9199H25.3611C24.0013 52.9199 22.8984 51.817 22.8984 50.4573C22.8984 49.7774 23.1745 49.1599 23.6199 48.7146C24.0652 48.2693 24.6812 47.9932 25.3611 47.9932H34.4723Z" fill="#FB1466"/>
<path d="M74.8864 50.4561C74.8864 51.1362 74.6098 51.7528 74.1652 52.1974C73.7186 52.644 73.102 52.9206 72.4218 52.9206H67.6445C68.3247 52.9206 68.9413 52.644 69.3859 52.1974C69.8304 51.7528 70.107 51.1362 70.107 50.4561C70.107 49.0958 69.0048 47.9937 67.6445 47.9937H72.4218C73.7821 47.9937 74.8864 49.0958 74.8864 50.4561Z" fill="#FB1466"/>
<path d="M72.4243 73.0597H25.3616C24.0012 73.0597 22.8984 71.9569 22.8984 70.5965C22.8984 69.2361 24.0012 68.1333 25.3616 68.1333H72.4243C73.7847 68.1333 74.8875 69.2361 74.8875 70.5965C74.8875 71.9568 73.7846 73.0597 72.4243 73.0597Z" fill="#FB3A82"/>
<path d="M74.8864 70.5962C74.8864 71.2764 74.6098 71.893 74.1652 72.3375C73.7186 72.7821 73.102 73.0586 72.4218 73.0586H67.6445C68.3247 73.0586 68.9413 72.7821 69.3859 72.3375C69.8304 71.893 70.107 71.2764 70.107 70.5962C70.107 69.2359 69.0048 68.1338 67.6445 68.1338H72.4218C73.7821 68.1338 74.8864 69.2359 74.8864 70.5962Z" fill="#FB1466"/>
<path d="M33.5388 44.6274L29.5623 40.6509L2.49226 65.6402C0.703411 67.2916 0.6473 70.0995 2.36875 71.821C4.09021 73.5424 6.89809 73.4863 8.54948 71.6975L33.5388 44.6274Z" fill="#873F30"/>
<path d="M8.43032 71.8221C6.76586 73.4866 4.04957 73.5007 2.36968 71.8208C1.8727 71.3238 1.52461 70.7369 1.32422 70.1127C2.80891 70.5956 4.5029 70.2424 5.67409 69.0711C5.71521 69.03 5.75633 68.9863 5.79611 68.944L30.7861 41.8735L33.5396 44.6271L8.54981 71.6974C8.51003 71.7399 8.4701 71.7822 8.43032 71.8221Z" fill="#6C3328"/>
<path d="M37.4576 31.229L28.3008 42.1518L32.0415 45.8923L42.9641 36.7355L37.4576 31.229Z" fill="#873F30"/>
<path d="M37.4568 31.229L34.498 34.7584L35.3858 35.6463C36.0392 36.2997 36.0392 37.3593 35.3858 38.0127L29.7734 43.625L32.0407 45.8922L42.9633 36.7354L37.4568 31.229Z" fill="#6C3328"/>
<path d="M29.6879 48.1354L26.0568 44.5043C25.0071 43.4546 25.0071 41.7526 26.0568 40.7028C27.1066 39.6531 28.8086 39.6531 29.8583 40.7028L33.4894 44.3339C34.5392 45.3837 34.5392 47.0857 33.4894 48.1354C32.4397 49.1852 30.7377 49.1852 29.6879 48.1354Z" fill="#BA5D4F"/>
<path d="M33.4871 48.1352C32.9618 48.6605 32.2735 48.9225 31.5877 48.9225C30.8994 48.9225 30.2109 48.6605 29.6858 48.1352L26.9336 45.383C27.4589 45.9084 28.1472 46.1703 28.8343 46.169C29.5215 46.1703 30.2098 45.9084 30.7351 45.383C31.7856 44.3325 31.7844 42.6308 30.7351 41.5815L33.4873 44.3337C34.5376 45.3844 34.5376 47.0847 33.4871 48.1352Z" fill="#A34F41"/>
<path d="M42.1992 6.26416L50.2618 14.3267L37.6039 26.9845L29.5414 18.922L42.1992 6.26416Z" fill="#BA5D4F"/>
<path d="M55.2656 44.6562L47.2031 36.5937L59.8609 23.9359L67.9234 31.9984L55.2656 44.6562Z" fill="#A34F41"/>
<path d="M27.272 21.7007L26.9919 21.4206C25.9298 20.3585 25.9298 18.6367 26.9919 17.5747L40.8466 3.7199C41.9087 2.65782 43.6305 2.65782 44.6926 3.7199L44.9727 4.00001C46.0347 5.06209 46.0347 6.78384 44.9727 7.84593L31.1179 21.7007C30.056 22.7626 28.3341 22.7626 27.272 21.7007Z" fill="#873F30"/>
<path d="M52.4879 46.9172L52.768 47.1973C53.83 48.2594 55.5518 48.2594 56.6139 47.1973L70.4686 33.3425C71.5307 32.2804 71.5307 30.5587 70.4686 29.4966L70.1885 29.2165C69.1264 28.1544 67.4047 28.1544 66.3426 29.2165L52.4879 43.0712C51.4259 44.1332 51.4259 45.8551 52.4879 46.9172Z" fill="#6C3328"/>
<path d="M53.7578 11.3652L62.812 20.4194L43.6949 39.5365L34.6407 30.4823L53.7578 11.3652Z" fill="#FCC16D"/>
<path d="M39.1094 34.9644L58.2265 15.8473L62.8091 20.4299L43.692 39.547L39.1094 34.9644Z" fill="#FCA62F"/>
<path d="M53.8053 10.9843L51.587 10.0775C50.8265 9.76667 49.9539 9.94227 49.3729 10.5233L33.7967 26.0995C33.2158 26.6803 33.0401 27.5531 33.3509 28.3136L34.2577 30.5319C34.6254 31.4314 35.7907 31.666 36.4778 30.9788L54.2522 13.2045C54.9394 12.5174 54.7047 11.3522 53.8053 10.9843Z" fill="#873F30"/>
<path d="M63.2057 20.3855L64.1125 22.6038C64.4233 23.3642 64.2477 24.2369 63.6667 24.8179L48.0905 40.3941C47.5097 40.975 46.6368 41.1507 45.8764 40.8399L43.6581 39.9331C42.7586 39.5654 42.524 38.4001 43.2112 37.713L60.9855 19.9387C61.6727 19.2516 62.8378 19.4861 63.2057 20.3855Z" fill="#6C3328"/>
<path d="M72.4237 67.0198H71.5956C71.2261 66.4463 70.9022 65.8338 70.6365 65.192C70.4012 64.6237 69.75 64.354 69.182 64.5891C68.6139 64.8244 68.344 65.4756 68.5791 66.0437C68.7168 66.3762 68.8707 66.7006 69.0328 67.0198H25.3611C25.0248 67.0198 24.6997 67.0675 24.3908 67.1548C23.6947 65.9747 22.7545 63.7803 22.7545 60.5267C22.7545 60.0413 22.7761 59.5627 22.8179 59.0938H44.1479C44.7629 59.0938 45.2612 58.5953 45.2612 57.9805C45.2612 57.3656 44.7629 56.8672 44.1479 56.8672H23.7556L26.3716 54.0335H69.027C68.5689 54.9327 68.2098 55.8818 67.9553 56.8672H53.3215C52.7065 56.8672 52.2082 57.3656 52.2082 57.9805C52.2082 58.5953 52.7065 59.0938 53.3215 59.0938H67.5656C67.522 59.5462 67.4967 60.003 67.4948 60.4637C67.4921 61.0786 67.9885 61.5791 68.6035 61.5818H68.6082C69.2209 61.5818 69.7187 61.0864 69.7214 60.4732C69.7312 58.1354 70.3791 55.9142 71.5935 54.0335H72.4239C74.3959 54.0335 76.0004 52.429 76.0004 50.457C76.0004 48.4849 74.3959 46.8805 72.4239 46.8805H58.5069L71.2576 34.1297C71.9817 33.4057 72.3802 32.4432 72.3802 31.4194C72.3802 30.3957 71.9815 29.4332 71.2577 28.7095L70.9775 28.4291C70.2535 27.7053 69.2911 27.3065 68.2673 27.3065C67.3336 27.3065 66.4514 27.6391 65.7542 28.2467L63.7835 26.276L64.4545 25.6051C65.355 24.7046 65.6256 23.3611 65.1437 22.1823L64.2368 19.9641C63.9241 19.199 63.2549 18.6443 62.4458 18.4779L60.8974 16.9295C60.4625 16.4947 59.7577 16.4947 59.3229 16.9295C58.8881 17.3643 58.8881 18.0692 59.3229 18.5039L60.0847 19.2657L42.5391 36.8111L37.3792 31.6513L54.9249 14.1058L55.6079 14.7887C55.8252 15.0062 56.1102 15.1148 56.3951 15.1148C56.6799 15.1148 56.9649 15.0062 57.1824 14.7887C57.6172 14.3539 57.6172 13.649 57.1823 13.2144L55.7127 11.7448C55.5463 10.9357 54.9916 10.2665 54.2265 9.9536C54.2264 9.9536 54.2264 9.9536 54.2264 9.9536L52.0083 9.04678C50.8299 8.5651 49.4861 8.83526 48.5855 9.73584L47.9146 10.4068L45.9436 8.4361C46.5512 7.73888 46.8837 6.85671 46.8837 5.92302C46.8837 4.89923 46.485 3.93675 45.7612 3.21311L45.4809 2.93271C44.757 2.20892 43.7945 1.81006 42.7707 1.81006C41.7469 1.81006 40.7844 2.20877 40.0605 2.93271L26.2059 16.7873C25.482 17.5113 25.0832 18.4737 25.0832 19.4975C25.0832 20.5213 25.482 21.4838 26.2059 22.2076L26.4859 22.4877C27.2098 23.2116 28.1723 23.6103 29.1961 23.6103C30.1299 23.6103 31.0119 23.2777 31.7093 22.6701L33.6801 24.6411L33.009 25.3122C32.1086 26.2126 31.8381 27.5562 32.32 28.7348L33.2268 30.9529C33.5363 31.7099 34.1948 32.2605 34.9925 32.4331L29.4103 39.092C28.0324 38.5233 26.3857 38.7975 25.2678 39.9155C24.5498 40.6335 24.1543 41.5881 24.1543 42.6035C24.1543 43.058 24.2342 43.5 24.386 43.9143L21.8544 46.2514C21.4027 46.6685 21.3745 47.3727 21.7916 47.8245C22.011 48.0623 22.31 48.1827 22.6099 48.1827C22.88 48.1827 23.1507 48.085 23.3648 47.8875L25.7042 45.728L28.4622 48.486L7.73155 70.9427C7.14032 71.583 6.33474 71.9454 5.46325 71.9629C4.59043 71.9797 3.77237 71.6506 3.15605 71.0341C2.53973 70.4176 2.2099 69.5984 2.22727 68.7269C2.24464 67.8554 2.60698 67.0498 3.24749 66.4586L19.5087 51.4472C19.9605 51.0301 19.9887 50.3257 19.5715 49.874C19.1547 49.4223 18.4504 49.394 17.9984 49.8113L1.73712 64.8226C0.647277 65.8288 0.0308079 67.1995 0.00111998 68.6824C-0.0285679 70.1653 0.53283 71.5597 1.58156 72.6085C2.60401 73.6311 3.95481 74.1901 5.39601 74.1901C5.43312 74.1901 5.47038 74.1898 5.50763 74.189C6.99054 74.1593 8.36138 73.5429 9.36736 72.453L16.0397 65.2251C16.5837 67.0902 17.3513 68.3693 17.8296 69.0417C18.3123 69.7206 19.1016 70.1258 19.9409 70.1258H21.8164C21.7961 70.2799 21.7845 70.4368 21.7845 70.5963C21.7845 72.5684 23.389 74.1729 25.361 74.1729H72.4237C74.3958 74.1729 76.0002 72.5684 76.0002 70.5963C76.0001 68.6243 74.3958 67.0198 72.4237 67.0198ZM73.7735 50.457C73.7735 51.2012 73.168 51.8069 72.4236 51.8069H28.427L30.2776 49.8022C30.6995 49.9563 31.1431 50.0342 31.587 50.0342C32.4754 50.0342 33.3633 49.7244 34.0751 49.1071H72.4237C73.168 49.1071 73.7735 49.7127 73.7735 50.457ZM40.1873 37.6085L33.741 43.0127L31.1779 40.4498L36.5821 34.0033L40.1873 37.6085ZM35.3306 46.8805C35.4509 46.1776 35.3738 45.4474 35.0985 44.78L41.7572 39.1978C41.9299 39.9954 42.4805 40.654 43.2374 40.9635L45.4557 41.8703C45.8436 42.0289 46.2492 42.1059 46.6512 42.1059C47.4706 42.1059 48.2743 41.7853 48.8783 41.1813L49.5493 40.5102L51.5202 42.481C50.4415 43.7211 50.2938 45.494 51.0771 46.8803H35.3306V46.8805ZM68.2674 29.5332C68.6966 29.5332 69.0997 29.7004 69.403 30.0035L69.6832 30.2839C69.9866 30.5871 70.1536 30.9906 70.1536 31.4194C70.1536 31.8484 69.9867 32.2517 69.6831 32.5552L55.8283 46.4099C55.5251 46.7132 55.1216 46.8803 54.6928 46.8803C54.2639 46.8803 53.8605 46.7133 53.5572 46.4099L53.2771 46.1298C52.6508 45.5035 52.6508 44.4846 53.2771 43.8584L67.1319 30.0036C67.435 29.7002 67.8384 29.5332 68.2674 29.5332ZM64.1724 29.8139L53.0873 40.8991L51.1238 38.9358L62.209 27.8505L64.1724 29.8139ZM43.999 38.5002L61.7733 20.7259C61.8298 20.6694 61.8912 20.6531 61.9435 20.6531C61.9626 20.6531 61.9804 20.6553 61.9962 20.6585C62.0551 20.6703 62.1343 20.7057 62.1756 20.8069L63.0824 23.0252C63.224 23.3715 63.1446 23.766 62.88 24.0306L47.3038 39.6071C47.0395 39.8714 46.6447 39.951 46.2984 39.8094L44.0802 38.9026C43.979 38.8613 43.9437 38.7822 43.9318 38.7231C43.9199 38.664 43.9219 38.5773 43.999 38.5002ZM29.1964 21.384C28.7674 21.384 28.3641 21.217 28.0608 20.9136L27.7807 20.6335C27.4773 20.3303 27.3103 19.927 27.3103 19.498C27.3103 19.0688 27.4773 18.6657 27.7807 18.3623L41.6354 4.5075C41.9387 4.20409 42.3422 4.0371 42.771 4.0371C43.2001 4.0371 43.6033 4.20424 43.9066 4.50735L44.1868 4.78776C44.4902 5.09102 44.6572 5.49448 44.6572 5.92347C44.6572 6.35246 44.4902 6.75577 44.1867 7.05918L30.3321 20.9139C30.0287 21.2169 29.6253 21.384 29.1964 21.384ZM33.2912 21.1033L44.3765 10.018L46.3399 11.9814L35.2546 23.0667L33.2912 21.1033ZM34.5835 26.8865L50.1599 11.3102C50.3373 11.1328 50.5733 11.0385 50.8141 11.0385C50.9322 11.0385 51.0514 11.0613 51.1654 11.1079L53.3835 12.0147C53.4846 12.056 53.52 12.1351 53.5318 12.1941C53.5437 12.2532 53.5416 12.3398 53.4644 12.417L35.6903 30.1913C35.6131 30.2684 35.5266 30.2704 35.4673 30.2586C35.4084 30.2468 35.3293 30.2114 35.288 30.1102L34.3811 27.8919C34.2396 27.5458 34.319 27.1512 34.5835 26.8865ZM26.3811 42.6035C26.3811 42.1829 26.5449 41.7873 26.8423 41.49C27.4563 40.8761 28.4552 40.8761 29.0693 41.49L32.7003 45.121C33.3144 45.7351 33.3144 46.7341 32.7003 47.348C32.0862 47.962 31.0872 47.962 30.4732 47.348L26.8424 43.7171C26.5449 43.4196 26.3811 43.0242 26.3811 42.6035ZM19.6443 67.7512C19.1503 67.0567 18.278 65.5625 17.8612 63.2522L20.5299 60.3614C20.5294 60.4165 20.5281 60.4714 20.5281 60.5267C20.5281 63.9595 21.4595 66.4222 22.2549 67.8992H19.9412C19.8211 67.8992 19.7102 67.844 19.6443 67.7512ZM72.4237 71.9463H25.3611C24.6168 71.9463 24.0112 71.3406 24.0112 70.5963C24.0112 69.8519 24.6168 69.2464 25.3611 69.2464H72.4237C73.1682 69.2464 73.7736 69.8521 73.7736 70.5963C73.7735 71.3408 73.168 71.9463 72.4237 71.9463Z" fill="black"/>
<path d="M31.1445 61.9243C30.5297 61.9243 30.0312 62.4228 30.0312 63.0376C30.0312 63.6524 30.5297 64.1509 31.1445 64.1509H57.0809C57.6959 64.1509 58.1942 63.6524 58.1942 63.0376C58.1942 62.4228 57.6959 61.9243 57.0809 61.9243H31.1445Z" fill="black"/>
</g>
<defs>
<clipPath id="clip0">
<rect width="76" height="76" fill="white"/>
</clipPath>
</defs>
</svg>
