<svg width="76" height="76" viewBox="0 0 76 76" fill="none" xmlns="http://www.w3.org/2000/svg">
<g clip-path="url(#clip0)">
<path d="M58.1133 11.0507V64.9498C58.1133 65.8063 57.4186 66.4995 56.5636 66.4995H2.66297C1.80797 66.4995 1.11328 65.8063 1.11328 64.9498V11.0507C1.11328 10.1942 1.80797 9.49951 2.66297 9.49951H56.5636C57.4186 9.49951 58.1133 10.1942 58.1133 11.0507Z" fill="#FCB982"/>
<path d="M58.1158 11.0496C58.1158 10.1936 57.4219 9.49951 56.5657 9.49951H51.3978C52.2534 9.49951 52.948 10.1939 52.948 11.0496V20.742C52.4798 20.3819 51.8005 20.3087 51.2434 20.7012L40.9923 27.942C40.1848 28.5135 40.1848 29.7128 40.9923 30.2843L51.2434 37.5236C51.2491 37.5276 51.2546 37.5315 51.2602 37.5353C52.2929 38.2443 52.948 39.3813 52.948 40.634V64.9495C52.948 65.8051 52.2536 66.4997 51.3978 66.4997H56.5658C57.4219 66.4997 58.116 65.8057 58.116 64.9495V11.0496H58.1158Z" fill="#F5A871"/>
<path d="M34.8792 25.2326H24.347C23.491 25.2326 22.7969 24.5386 22.7969 23.6825V9.5H36.4294V23.6826C36.4294 24.5386 35.7354 25.2326 34.8792 25.2326Z" fill="#D9ECFD"/>
<path d="M36.4305 9.5V23.6834C36.4305 24.5389 35.7376 25.2335 34.8804 25.2335H30.3867C31.2423 25.2335 31.9369 24.5391 31.9369 23.6834V9.5H36.4305Z" fill="#B5DBFD"/>
<path d="M45.6385 51.3302C49.2271 51.3302 52.1363 48.421 52.1363 44.8323C52.1363 41.2437 49.2271 38.3345 45.6385 38.3345C42.0498 38.3345 39.1406 41.2437 39.1406 44.8323C39.1406 48.421 42.0498 51.3302 45.6385 51.3302Z" fill="#F2EFF2"/>
<path d="M52.1369 44.832C52.1369 48.4204 49.228 51.3294 45.6395 51.3294C44.1813 51.3294 42.8355 50.8498 41.75 50.036C41.8374 50.0399 41.9247 50.0418 42.0121 50.0418C45.6006 50.0418 48.5095 47.1329 48.5095 43.5444C48.5095 41.4142 47.4843 39.5249 45.9017 38.3403C49.3697 38.4784 52.1369 41.3309 52.1369 44.832Z" fill="#E1DDE1"/>
<path d="M40.6816 38.7123L44.6088 46.5667C45.033 47.4152 46.2437 47.4152 46.6679 46.5667L50.5951 38.7123C50.9778 37.947 50.4213 37.0464 49.5656 37.0464H41.7112C40.8556 37.0465 40.2989 37.947 40.6816 38.7123Z" fill="#64B9FC"/>
<path d="M50.5955 38.7129L46.6671 46.5657C46.2438 47.4143 45.0321 47.4143 44.6087 46.5657L43.4805 44.3093L46.2787 38.7129C46.6612 37.9479 46.104 37.0469 45.2495 37.0469H49.5663C50.4208 37.0469 50.9781 37.9477 50.5955 38.7129Z" fill="#31A7FB"/>
<path d="M62.1141 20.1739H53.5004V16.8747C53.5004 15.7125 52.1897 15.0335 51.2403 15.704L40.9892 22.9446C40.1807 23.5157 40.1807 24.7149 40.9892 25.2859L51.2403 32.5266C52.1897 33.1972 53.5004 32.5183 53.5004 31.3558V28.0567H62.1141C64.8099 28.0567 67.0029 30.2498 67.0029 32.9456C67.0029 35.6414 64.8097 37.8344 62.1141 37.8344H58.1121V45.7172H62.1141C69.1564 45.7172 74.8858 39.9878 74.8858 32.9455C74.8858 25.9031 69.1564 20.1739 62.1141 20.1739Z" fill="#FB4A59"/>
<path d="M74.887 32.9454C74.887 39.9873 69.1573 45.7169 62.1155 45.7169H58.1136V45.6887C64.7651 45.2553 70.045 39.7052 70.045 32.9454C70.045 25.9035 64.3153 20.1738 57.2734 20.1738H62.1155C69.1573 20.1738 74.887 25.9035 74.887 32.9454Z" fill="#F82F40"/>
<path d="M9.44532 58.0497C9.01054 57.6149 8.30561 57.6149 7.87099 58.0497L6.37296 59.5477C5.93818 59.9825 5.93818 60.6875 6.37296 61.1221C6.80773 61.5569 7.51266 61.5569 7.94728 61.1221L8.65815 60.4112L9.36902 61.1221C9.58633 61.3394 9.87133 61.4482 10.1562 61.4482C10.441 61.4482 10.726 61.3395 10.9433 61.1221C11.3781 60.6873 11.3781 59.9824 10.9433 59.5477L9.44532 58.0497Z" fill="black"/>
<path d="M10.9394 54.4164L9.44141 52.9184C9.00663 52.4836 8.3017 52.4836 7.86708 52.9184L6.36905 54.4164C5.93428 54.8512 5.93428 55.5561 6.36905 55.9907C6.80382 56.4255 7.50875 56.4255 7.94338 55.9907L8.65424 55.2799L9.36511 55.9907C9.58242 56.208 9.86742 56.3168 10.1523 56.3168C10.4371 56.3168 10.7221 56.2082 10.9394 55.9907C11.3742 55.5561 11.3742 54.8512 10.9394 54.4164Z" fill="black"/>
<path d="M45.6385 52.4431C49.8352 52.4431 53.2495 49.0289 53.2495 44.8321C53.2495 42.9643 52.5496 41.1518 51.3137 39.7648L51.5908 39.2105C51.9444 38.5035 51.9073 37.6798 51.4918 37.0074C51.0762 36.335 50.3563 35.9336 49.5657 35.9336H41.7113C40.9207 35.9336 40.2006 36.3351 39.785 37.0075C39.3694 37.68 39.3324 38.5036 39.686 39.2107L39.9622 39.7631C38.7119 41.1596 38.0273 42.9431 38.0273 44.8324C38.0275 49.0288 41.4417 52.4431 45.6385 52.4431ZM51.0229 44.832C51.0229 47.801 48.6075 50.2164 45.6385 50.2164C42.6694 50.2164 40.2541 47.801 40.2541 44.832C40.2541 43.8073 40.5396 42.827 41.0709 41.9799L43.6132 47.0645C43.9993 47.8367 44.7753 48.3163 45.6385 48.3163C46.5016 48.3163 47.2777 47.8367 47.6638 47.0645L50.2075 41.9771C50.7391 42.8229 51.0229 43.8024 51.0229 44.832ZM41.6792 38.1777C41.6903 38.1597 41.6986 38.1597 41.7114 38.1597H49.5658C49.5785 38.1597 49.5869 38.1597 49.5979 38.1777C49.6089 38.1956 49.6052 38.2031 49.5995 38.2145L45.6723 46.0689C45.6645 46.0845 45.6618 46.0898 45.6385 46.0898C45.6152 46.0898 45.6125 46.0845 45.6046 46.0689L41.6774 38.2146C41.6718 38.2032 41.6681 38.1958 41.6792 38.1777Z" fill="black"/>
<path d="M44.8359 54.8652C44.2211 54.8652 43.7227 55.3637 43.7227 55.9785C43.7227 56.5933 44.2211 57.0918 44.8359 57.0918H52.1383C52.7531 57.0918 53.2516 56.5933 53.2516 55.9785C53.2516 55.3637 52.7531 54.8652 52.1383 54.8652H44.8359Z" fill="black"/>
<path d="M25.7422 60.3013C25.7422 60.9161 26.2406 61.4146 26.8555 61.4146H52.1348C52.7497 61.4146 53.2481 60.9161 53.2481 60.3013C53.2481 59.6864 52.7497 59.188 52.1348 59.188H26.8555C26.2406 59.188 25.7422 59.6864 25.7422 60.3013Z" fill="black"/>
<path d="M16.7993 16.3338H12.9885C12.5041 14.6515 10.9519 13.417 9.11602 13.417C6.89376 13.417 5.08594 15.225 5.08594 17.4471C5.08594 19.6692 6.89391 21.4772 9.11602 21.4772C10.952 21.4772 12.5041 20.2426 12.9885 18.5604H16.7993C17.4141 18.5604 17.9126 18.0619 17.9126 17.4471C17.9126 16.8322 17.4141 16.3338 16.7993 16.3338ZM9.11587 19.2506C8.12134 19.2506 7.31235 18.4416 7.31235 17.4471C7.31235 16.4525 8.12148 15.6436 9.11587 15.6436C9.69017 15.6436 10.2014 15.9143 10.532 16.3338H9.11587C8.50104 16.3338 8.00259 16.8322 8.00259 17.4471C8.00259 18.0619 8.50104 18.5604 9.11587 18.5604H10.532C10.2015 18.9798 9.69017 19.2506 9.11587 19.2506Z" fill="black"/>
<path d="M16.7998 19.5894H15.3672C14.7524 19.5894 14.2539 20.0878 14.2539 20.7026C14.2539 21.3175 14.7524 21.8159 15.3672 21.8159H16.7998C17.4146 21.8159 17.913 21.3175 17.913 20.7026C17.913 20.0878 17.4146 19.5894 16.7998 19.5894Z" fill="black"/>
<path d="M73.8883 25.596C73.5619 25.075 72.8751 24.917 72.3539 25.2434C71.8329 25.5698 71.675 26.2568 72.0014 26.7778C73.1607 28.6288 73.7734 30.7614 73.7734 32.9451C73.7734 39.3736 68.5435 44.6035 62.115 44.6035H59.2264V38.9473H62.115C65.4246 38.9473 68.1172 36.2548 68.1172 32.9451C68.1172 29.6354 65.4247 26.9429 62.115 26.9429H53.5013C52.8865 26.9429 52.388 27.4413 52.388 28.0562V31.3553C52.388 31.5162 52.2941 31.5986 52.2153 31.6395C52.1364 31.6804 52.0149 31.7095 51.8835 31.6167L41.6323 24.3761C41.5146 24.2928 41.4969 24.1766 41.4969 24.1147C41.4969 24.0528 41.5144 23.9366 41.6323 23.8533L51.8834 16.6127C52.0149 16.5199 52.1363 16.549 52.2151 16.59C52.2939 16.6308 52.3879 16.7133 52.3879 16.8741V20.1732C52.3879 20.7881 52.8863 21.2865 53.5012 21.2865H62.1149C64.4664 21.2865 66.7351 21.9877 68.6758 23.3145C69.1836 23.6617 69.8762 23.5311 70.2231 23.0238C70.5702 22.5163 70.44 21.8236 69.9325 21.4765C67.6201 19.8957 64.9169 19.0601 62.1149 19.0601H59.2261V11.0501C59.2261 9.58149 58.0313 8.38672 56.5629 8.38672H33.2418C32.627 8.38672 32.1286 8.88517 32.1286 9.5C32.1286 10.1148 32.627 10.6133 33.2418 10.6133H35.3161V23.6826C35.3161 23.9235 35.1202 24.1193 34.8794 24.1193H24.347C24.1061 24.1193 23.9102 23.9234 23.9102 23.6826V10.6133H27.9879C28.6027 10.6133 29.1012 10.1148 29.1012 9.5C29.1012 8.88517 28.6027 8.38672 27.9879 8.38672H2.66341C1.19477 8.38672 0 9.58149 0 11.0501V46.9294C0 47.5442 0.498453 48.0427 1.11328 48.0427C1.72811 48.0427 2.22656 47.5442 2.22656 46.9294V11.0501C2.22656 10.8092 2.4225 10.6133 2.66341 10.6133H21.6836V23.6826C21.6836 25.1512 22.8784 26.3459 24.347 26.3459H34.8794C36.348 26.3459 37.5427 25.1511 37.5427 23.6826V10.6133H56.563C56.8039 10.6133 56.9997 10.8092 56.9997 11.0501V19.0603H54.6146V16.8742C54.6146 15.9187 54.0877 15.0525 53.2392 14.6131C52.391 14.1737 51.3793 14.2432 50.5988 14.7943L40.3477 22.035C39.6732 22.5114 39.2703 23.2891 39.2703 24.115C39.2703 24.9409 39.673 25.7186 40.3477 26.1951L50.5988 33.4357C51.379 33.9868 52.3909 34.0563 53.2392 33.6169C54.0875 33.1776 54.6146 32.3111 54.6146 31.3556V29.1697H56.9997V64.9497C56.9997 65.1906 56.8038 65.3866 56.563 65.3866H2.66341C2.4225 65.3866 2.22656 65.1906 2.22656 64.9497V52.1835C2.22656 51.5687 1.72811 51.0702 1.11328 51.0702C0.498453 51.0702 0 51.5687 0 52.1835V64.9497C0 66.4184 1.19477 67.6131 2.66341 67.6131H56.563C58.0316 67.6131 59.2263 66.4184 59.2263 64.9497V46.8302H62.115C69.7713 46.8302 76 40.6015 76 32.9453C76 30.343 75.2698 27.8017 73.8883 25.596ZM59.2263 29.1696H62.115C64.1968 29.1696 65.8907 30.8633 65.8907 32.9453C65.8907 35.0272 64.197 36.7209 62.115 36.7209H59.2263V29.1696Z" fill="black"/>
</g>
<defs>
<clipPath id="clip0">
<rect width="76" height="76" fill="white"/>
</clipPath>
</defs>
</svg>
