<svg width="76" height="76" viewBox="0 0 76 76" fill="none" xmlns="http://www.w3.org/2000/svg">
<path d="M41.8886 17.3399V15.6943H34.1108V17.3399C34.1108 18.984 33.4877 20.5649 32.3702 21.7708C27.8503 26.6481 22.2539 31.7045 22.2539 38.918C22.2539 47.6143 29.3035 54.6639 37.9999 54.6639C46.6962 54.6639 53.7458 47.6143 53.7458 38.918C53.7458 31.7045 48.1494 26.6478 43.6295 21.7708C42.5118 20.5649 41.8886 18.9843 41.8886 17.3399Z" fill="#8C3F0A"/>
<path d="M43.6272 21.7708C42.5095 20.5649 41.8867 18.984 41.8867 17.3399V15.6943H39.0583C39.2985 16.8483 39.8457 17.9251 40.6588 18.8023C45.1787 23.6797 50.7751 28.7361 50.7751 35.9498C50.7751 44.6462 43.7255 51.6958 35.0292 51.6958C31.4379 51.6958 28.1295 50.4913 25.4805 48.4673C28.3575 52.2331 32.8928 54.6645 37.9979 54.6645C46.6943 54.6645 53.7438 47.6149 53.7438 38.9186C53.7435 31.7045 48.1472 26.6478 43.6272 21.7708Z" fill="#7C3108"/>
<path d="M43.6266 21.7708C42.5089 20.5649 41.8861 18.984 41.8861 17.3399V15.6943H40.4017V15.8555C40.4017 17.4996 41.0248 19.0805 42.1423 20.2864C46.6622 25.1638 52.2586 30.2201 52.2586 37.4339C52.2586 46.1303 45.209 53.1799 36.5126 53.1799C32.5422 53.1799 28.918 51.7073 26.1484 49.2825C29.0347 52.5793 33.2711 54.6642 37.997 54.6642C46.6934 54.6642 53.743 47.6146 53.743 38.9183C53.743 31.7045 48.1466 26.6478 43.6266 21.7708Z" fill="#6D2E03"/>
<path d="M41.9741 20.3684H33.4959C32.6676 20.3684 31.9961 19.6969 31.9961 18.8683C31.9961 18.04 32.6676 17.3682 33.4959 17.3682H41.9741C42.8024 17.3682 43.4742 18.0397 43.4742 18.8683C43.4742 19.6969 42.8027 20.3684 41.9741 20.3684Z" fill="#FFA91A"/>
<path d="M42.3442 17.4141C42.3742 17.5322 42.39 17.6557 42.39 17.7831C42.39 18.6114 41.7184 19.2829 40.8898 19.2829H32.412C32.2846 19.2829 32.1611 19.2669 32.043 19.2372C32.2074 19.887 32.7961 20.3683 33.4971 20.3683H41.9752C42.8035 20.3683 43.4753 19.6967 43.4753 18.8684C43.4753 18.1672 42.9944 17.5785 42.3442 17.4141Z" fill="#F79219"/>
<path d="M41.9741 17.3684H33.4959C32.6676 17.3684 31.9961 16.6969 31.9961 15.8683C31.9961 15.04 32.6676 14.3682 33.4959 14.3682H41.9741C42.8024 14.3682 43.4742 15.0397 43.4742 15.8683C43.4742 16.6969 42.8027 17.3684 41.9741 17.3684Z" fill="#FFA91A"/>
<path d="M42.3442 14.4141C42.3742 14.5322 42.39 14.6557 42.39 14.7831C42.39 15.6114 41.7184 16.2829 40.8898 16.2829H32.412C32.2846 16.2829 32.1611 16.2669 32.043 16.2372C32.2074 16.887 32.7961 17.3683 33.4971 17.3683H41.9752C42.8035 17.3683 43.4753 16.6967 43.4753 15.8685C43.4753 15.1672 42.9944 14.5785 42.3442 14.4141Z" fill="#F79219"/>
<path d="M41.778 14.3685H33.6961L29.3888 7.48192C28.4278 5.94559 30.1678 4.1492 31.7341 5.06061L36.8638 8.04539C37.4035 8.35948 38.0706 8.35948 38.6103 8.04539L43.74 5.06061C45.3063 4.1492 47.0463 5.94559 46.0853 7.48192L41.778 14.3685Z" fill="#8C3F0A"/>
<path d="M44.8601 4.83447C44.915 5.20705 44.8449 5.6105 44.6027 5.99763L40.6441 12.3264C40.4271 12.6735 40.0465 12.8842 39.6374 12.8842H32.7695L33.6979 14.3686H41.7797L46.087 7.482C46.8171 6.31469 45.9873 5.00013 44.8601 4.83447Z" fill="#7C3108"/>
<path d="M39.4688 46.2681H36.5348C34.0214 46.2681 31.9766 44.2232 31.9766 41.7099C31.9766 41.218 32.3753 40.8193 32.8672 40.8193C33.3591 40.8193 33.7578 41.218 33.7578 41.7099C33.7578 43.2409 35.0035 44.4869 36.5348 44.4869H39.4688C41.0001 44.4869 42.2458 43.2412 42.2458 41.7099V40.243C42.2458 38.712 41.0001 37.4661 39.4688 37.4661H36.5348C34.0214 37.4661 31.9766 35.4212 31.9766 32.9078C31.9766 30.3945 34.0214 28.3496 36.5348 28.3496H39.4688C41.9821 28.3496 44.027 30.3945 44.027 32.9078C44.027 33.3998 43.6283 33.7985 43.1364 33.7985C42.6445 33.7985 42.2458 33.3998 42.2458 32.9078C42.2458 31.3768 41.0001 30.1309 39.4688 30.1309H36.5348C35.0035 30.1309 33.7578 31.3766 33.7578 32.9078C33.7578 34.4391 35.0035 35.6848 36.5348 35.6848H39.4688C41.9821 35.6848 44.027 37.7297 44.027 40.243V41.7099C44.027 44.2232 41.9821 46.2681 39.4688 46.2681Z" fill="#FFA91A"/>
<path d="M38 47.7347C37.5081 47.7347 37.1094 47.336 37.1094 46.8441V27.7734C37.1094 27.2815 37.5081 26.8828 38 26.8828C38.4919 26.8828 38.8906 27.2815 38.8906 27.7734V46.8441C38.8906 47.336 38.4919 47.7347 38 47.7347Z" fill="#FFA91A"/>
<path d="M70.2439 48.6125C67.2336 50.9993 56.8667 59.0625 49.7625 62.6665C41.3698 66.9267 33.28 62.6665 26.7072 61.862C22.7985 61.2751 18.8504 63.6881 16.7262 66.042L16.6787 66.0509L15.7852 66.1756V49.889C19.7244 44.018 25.6821 44.8006 32.0984 44.1804C36.6154 43.6021 41.0109 42.2578 45.0244 40.0951C45.8221 39.5058 46.6803 39.9657 46.8472 40.8878C47.4365 44.1469 45.4756 47.7168 42.403 48.375L40.785 48.7431C40.2209 48.8782 40.2797 49.6732 40.8414 49.7703C46.482 51.7178 52.2177 50.4323 57.7188 48.0365C61.3555 46.4542 67.1742 42.4196 70.4547 46.7956C70.8703 47.3507 70.7723 48.1939 70.2439 48.6125Z" fill="#FCC4AE"/>
<path d="M70.4547 46.7954C69.6641 45.7409 68.726 45.1748 67.7068 44.9453C67.6427 45.2175 67.4969 45.4681 67.2752 45.6439C64.2648 48.0307 53.898 56.0939 46.7938 59.6979C38.4011 63.9581 30.3112 59.6979 23.7384 58.8934C20.8608 58.4611 17.9618 59.6552 15.7852 61.2544V66.176L16.6787 66.0513L16.7262 66.0424C18.8504 63.6885 22.7985 61.2755 26.7072 61.8624C33.28 62.667 41.3698 66.9271 49.7625 62.667C56.8667 59.0629 67.2336 50.9998 70.2439 48.6129C70.7723 48.1937 70.8703 47.3506 70.4547 46.7954Z" fill="#F2AD97"/>
<path d="M20.1249 65.5677L16.7283 66.043L16.6805 66.0498L15.7872 66.1754L14.6413 66.3351C13.9024 66.439 13.221 65.9228 13.1171 65.1839L10.5563 46.8705C10.4524 46.1316 10.9675 45.4503 11.7064 45.3464L17.19 44.5787C17.5397 44.5309 17.8784 44.6196 18.1474 44.8096C18.4452 45.0145 18.6583 45.341 18.7141 45.7302L18.8617 46.7901L20.7629 60.3807L21.1016 62.8062L21.275 64.045C21.3789 64.7825 20.8626 65.4638 20.1249 65.5677Z" fill="#F1F2F2"/>
<path d="M21.2742 64.045L21.1008 62.8062L20.762 60.3807L18.8609 46.7901L18.7133 45.7302C18.6572 45.341 18.4443 45.0145 18.1466 44.8096C17.8999 44.6353 17.5935 44.5519 17.275 44.5751L17.3765 45.3054L19.2777 58.896L19.6164 61.3215L19.7898 62.5604C19.8937 63.2978 19.3774 63.9794 18.6397 64.0833L15.2431 64.5586L15.1953 64.5654L14.302 64.691L13.1561 64.8507C13.127 64.8549 13.0991 64.8519 13.0703 64.854L13.1163 65.1838C13.2202 65.9228 13.9016 66.439 14.6405 66.3351L15.7864 66.1754L16.6797 66.0498L16.7275 66.043L20.1241 65.5677C20.8618 65.4641 21.3781 64.7828 21.2742 64.045Z" fill="#E6E7E8"/>
<path d="M7.11416 67.5426H13.195C14.2074 67.5426 15.028 66.722 15.028 65.7097V44.2987C15.028 43.2864 14.2074 42.4658 13.195 42.4658H7.11416C6.10181 42.4658 5.28125 43.2864 5.28125 44.2987V65.7097C5.28095 66.7217 6.10181 67.5426 7.11416 67.5426Z" fill="#478CF7"/>
<path d="M13.5121 42.4951C13.5303 42.599 13.5418 42.705 13.5418 42.8143V64.2252C13.5418 65.2375 12.7213 66.0581 11.7089 66.0581H5.62773C5.51878 66.0581 5.4125 66.0468 5.30859 66.0284C5.4597 66.8884 6.20872 67.5425 7.11211 67.5425H13.193C14.2053 67.5425 15.0259 66.7219 15.0259 65.7096V44.2986C15.0259 43.3955 14.3719 42.6465 13.5121 42.4951Z" fill="#377DE2"/>
<path d="M12.0475 61.0307C12.2961 59.9791 11.6451 58.925 10.5934 58.6765C9.5418 58.4279 8.48776 59.0789 8.23917 60.1305C7.99058 61.1821 8.64158 62.2362 9.69322 62.4848C10.7449 62.7334 11.7989 62.0824 12.0475 61.0307Z" fill="white"/>
<path d="M11.2088 58.916C11.4038 59.2203 11.5184 59.5813 11.5184 59.9696C11.5184 61.0505 10.6423 61.9266 9.56142 61.9266C9.17311 61.9266 8.81211 61.812 8.50781 61.617C8.85575 62.1597 9.46256 62.5204 10.1552 62.5204C11.2361 62.5204 12.1122 61.6443 12.1122 60.5634C12.1122 59.8711 11.7515 59.264 11.2088 58.916Z" fill="#E6E7E8"/>
<path d="M56.7925 48.0401C61.8685 48.0401 65.9835 43.9252 65.9835 38.8491C65.9835 33.7731 61.8685 29.6582 56.7925 29.6582C51.7165 29.6582 47.6016 33.7731 47.6016 38.8491C47.6016 43.9252 51.7165 48.0401 56.7925 48.0401Z" fill="#FFA91A"/>
<path d="M62.5037 31.6514C63.7505 33.2201 64.4975 35.2044 64.4975 37.3641C64.4975 42.4401 60.3825 46.5551 55.3065 46.5551C53.1467 46.5551 51.1624 45.8082 49.5938 44.5613C51.2776 46.6798 53.8747 48.0395 56.7909 48.0395C61.8669 48.0395 65.9818 43.9245 65.9818 38.8485C65.9821 35.9323 64.6222 33.3352 62.5037 31.6514Z" fill="#F79219"/>
<path d="M57.5269 43.4814H56.0582C54.7187 43.4814 53.6289 42.3915 53.6289 41.052C53.6289 40.7243 53.8949 40.4583 54.2227 40.4583C54.5504 40.4583 54.8164 40.7243 54.8164 41.052C54.8164 41.7369 55.3733 42.2939 56.0582 42.2939H57.5269C58.2118 42.2939 58.7687 41.7369 58.7687 41.052V40.3176C58.7687 39.6327 58.2118 39.0758 57.5269 39.0758H56.0582C54.7187 39.0758 53.6289 37.9859 53.6289 36.6461C53.6289 35.3066 54.7187 34.2168 56.0582 34.2168H57.5269C58.8664 34.2168 59.9562 35.3066 59.9562 36.6461C59.9562 36.9739 59.6902 37.2399 59.3625 37.2399C59.0347 37.2399 58.7687 36.9739 58.7687 36.6461C58.7687 35.9612 58.2118 35.4043 57.5269 35.4043H56.0582C55.3733 35.4043 54.8164 35.9612 54.8164 36.6461C54.8164 37.331 55.3733 37.8883 56.0582 37.8883H57.5269C58.8664 37.8883 59.9562 38.9781 59.9562 40.3176V41.052C59.9562 42.3915 58.8664 43.4814 57.5269 43.4814Z" fill="white"/>
<path d="M56.793 44.2155C56.4652 44.2155 56.1992 43.9495 56.1992 43.6218V34.0767C56.1992 33.7489 56.4652 33.4829 56.793 33.4829C57.1207 33.4829 57.3867 33.7489 57.3867 34.0767V43.6218C57.3867 43.9495 57.121 44.2155 56.793 44.2155Z" fill="white"/>
<path d="M19.2066 36.9644C24.2826 36.9644 28.3975 32.8495 28.3975 27.7735C28.3975 22.6975 24.2826 18.5825 19.2066 18.5825C14.1306 18.5825 10.0156 22.6975 10.0156 27.7735C10.0156 32.8495 14.1306 36.9644 19.2066 36.9644Z" fill="#FFA91A"/>
<path d="M11.7969 28.3668C11.4673 28.3668 11.2031 28.0996 11.2031 27.773C11.2031 26.1283 11.6989 24.549 12.64 23.2011C13.5573 21.886 14.828 20.8855 16.3183 20.3099C16.6211 20.1911 16.9714 20.3485 17.0872 20.6483C17.2059 20.9541 17.0516 21.2985 16.7488 21.4172C14.1392 22.4296 12.3877 24.9827 12.3906 27.7733C12.3906 28.0993 12.1234 28.3668 11.7969 28.3668ZM18.8447 20.9657C18.527 20.9657 18.2688 20.7163 18.2539 20.4016C18.245 20.2413 18.2984 20.0899 18.4053 19.9744C18.5122 19.8557 18.6577 19.7871 18.818 19.7785C19.1475 19.7633 19.4236 20.0189 19.4384 20.3422C19.4563 20.6718 19.2009 20.9508 18.8744 20.966C18.8655 20.9657 18.8536 20.9657 18.8447 20.9657Z" fill="#FFC91D"/>
<path d="M24.9177 20.5762C26.1646 22.1452 26.9115 24.1292 26.9115 26.2889C26.9115 31.3649 22.7966 35.4799 17.7206 35.4799C15.5608 35.4799 13.5768 34.733 12.0078 33.4861C13.6917 35.6046 16.2888 36.9643 19.205 36.9643C24.2809 36.9643 28.3959 32.8493 28.3959 27.7733C28.3959 24.8571 27.0359 22.2598 24.9177 20.5762Z" fill="#F79219"/>
<path d="M19.9409 32.406H18.4723C17.1328 32.406 16.043 31.3162 16.043 29.9764C16.043 29.6486 16.309 29.3826 16.6367 29.3826C16.9645 29.3826 17.2305 29.6486 17.2305 29.9764C17.2305 30.6613 17.7874 31.2185 18.4723 31.2185H19.9409C20.6258 31.2185 21.1828 30.6613 21.1828 29.9764V29.2419C21.1828 28.557 20.6258 28.0001 19.9409 28.0001H18.4723C17.1328 28.0001 16.043 26.9102 16.043 25.5704C16.043 24.2309 17.1328 23.1411 18.4723 23.1411H19.9409C21.2804 23.1411 22.3703 24.2309 22.3703 25.5704C22.3703 25.8982 22.1043 26.1642 21.7765 26.1642C21.4488 26.1642 21.1828 25.8982 21.1828 25.5704C21.1828 24.8856 20.6258 24.3286 19.9409 24.3286H18.4723C17.7874 24.3286 17.2305 24.8856 17.2305 25.5704C17.2305 26.2553 17.7874 26.8126 18.4723 26.8126H19.9409C21.2804 26.8126 22.3703 27.9024 22.3703 29.2419V29.9764C22.3703 31.3162 21.2804 32.406 19.9409 32.406Z" fill="white"/>
<path d="M19.207 33.1399C18.8793 33.1399 18.6133 32.8739 18.6133 32.5461V23.001C18.6133 22.6732 18.8793 22.4072 19.207 22.4072C19.5348 22.4072 19.8008 22.6732 19.8008 23.001V32.5461C19.8008 32.8739 19.5348 33.1399 19.207 33.1399Z" fill="white"/>
</svg>
