<svg width="76" height="76" viewBox="0 0 76 76" fill="none" xmlns="http://www.w3.org/2000/svg">
<g clip-path="url(#clip0)">
<path d="M59.2326 22.3527H49.1738L47.6836 18.1801L49.1738 13.9703C49.1738 11.1926 51.4255 8.94092 54.2032 8.94092C56.9809 8.94092 59.2326 11.1926 59.2326 13.9703V22.3527Z" fill="#FDA48A"/>
<path d="M29.0588 22.3531H19V9.50012C19 6.72239 21.2517 4.4707 24.0294 4.4707C26.8071 4.4707 29.0588 6.72239 29.0588 9.50012L30.549 16.5911L29.0588 22.3531Z" fill="#FDBBA7"/>
<path d="M49.174 22.3531H39.1152L37.625 15.3988L39.1152 9.50012C39.1152 6.72239 41.3669 4.4707 44.1446 4.4707C46.9223 4.4707 49.174 6.72239 49.174 9.50012V22.3531Z" fill="#FDBBA7"/>
<path d="M39.1174 22.3529H29.0586V5.02941C29.0586 2.25169 31.3103 0 34.088 0C36.8657 0 39.1174 2.25169 39.1174 5.02941V22.3529Z" fill="#FCCABB"/>
<path d="M14.5271 35.7644H10.0565V26.8232H5.58594V49.1762H10.0565V40.235H14.5271V49.1762H18.9977V26.8232H14.5271V35.7644Z" fill="#524798"/>
<path d="M30.1746 26.8232C26.477 26.8232 23.4688 29.8315 23.4688 33.5291V49.1762H27.9393V42.4703H32.4099V49.1762H36.8805V33.5291C36.8805 29.8315 33.8723 26.8232 30.1746 26.8232ZM32.4099 37.9997H27.9393V33.5291C27.9393 32.2966 28.9421 31.2938 30.1746 31.2938C31.4072 31.2938 32.4099 32.2966 32.4099 33.5291V37.9997Z" fill="#524798"/>
<path d="M65.9403 26.8232H59.2344V49.1762H65.9403C69.638 49.1762 72.6461 46.1681 72.6461 42.4703V33.5291C72.6461 29.8315 69.638 26.8232 65.9403 26.8232ZM68.1756 42.4703C68.1756 43.703 67.1728 44.7056 65.9403 44.7056H63.705V31.2938H65.9403C67.1728 31.2938 68.1756 32.2966 68.1756 33.5291V42.4703Z" fill="#38336B"/>
<path d="M50.2927 37.46L45.8165 26.8232H41.3516V49.1762H45.8222V38.3624L50.3729 49.1762H54.7633V26.8232H50.2927V37.46Z" fill="#38336B"/>
<path d="M72.6452 58.1171V53.6465H61.4688V75.9994H72.6452V71.5288H65.9393V67.0582H70.4099V62.5877H65.9393V58.1171H72.6452Z" fill="#38336B"/>
<path d="M12.2927 58.0858L7.85389 53.647H3.35156V75.9999H7.82215V59.9375L12.2927 64.4081L16.7633 59.9375V75.9999H21.2339V53.647H16.7316L12.2927 58.0858Z" fill="#524798"/>
<path d="M32.409 53.647C28.7114 53.647 25.7031 56.6551 25.7031 60.3529V75.9999H30.1737V69.294H34.6443V75.9999H39.1149V60.3529C39.1149 56.6551 36.1066 53.647 32.409 53.647ZM34.6443 64.8234H30.1737V60.3529C30.1737 59.1202 31.1765 58.1176 32.409 58.1176C33.6416 58.1176 34.6443 59.1202 34.6443 60.3529V64.8234Z" fill="#524798"/>
<path d="M50.2918 53.647H43.5859V75.9999H50.2918C53.9895 75.9999 56.9977 72.9918 56.9977 69.294V60.3529C56.9977 56.6551 53.9895 53.647 50.2918 53.647ZM52.5271 69.294C52.5271 70.5267 51.5244 71.5293 50.2918 71.5293H48.0565V58.1176H50.2918C51.5244 58.1176 52.5271 59.1202 52.5271 60.3529V69.294Z" fill="#38336B"/>
</g>
<defs>
<clipPath id="clip0">
<rect width="76" height="76" fill="white"/>
</clipPath>
</defs>
</svg>
