<svg width="34" height="34" viewBox="0 0 34 34" fill="none" xmlns="http://www.w3.org/2000/svg">
<g clip-path="url(#clip0)">
<path d="M34 16.9414C34 16.7069 33.8828 16.5896 33.6482 16.4724L0.820715 0.0586367H0.762078L0.703441 0C0.644805 0 0.586234 0 0.586234 0C0.527598 0 0.527598 0 0.468961 0C0.410324 0 0.410324 0 0.351754 0.0586367H0.293117C0.293117 0.0586367 0.293117 0.0586367 0.23448 0.0586367L0.175844 0.117273L0.117273 0.175844V0.23448C0.117273 0.293117 0.0586367 0.293117 0.0586367 0.351754C0.0586367 0.410391 0.0586367 0.410391 0.0586367 0.469027C0 0.527598 0 0.586234 0 0.586234C0 0.644805 0 0.644805 0 0.703441V0.762078L9.37928 33.5897C9.43792 33.7655 9.61377 33.9414 9.78961 34C9.84825 34 9.90688 34 9.96545 34C10.1413 34 10.2586 33.9414 10.3758 33.8242L16.8827 27.3173L21.1619 33.7655C21.2206 33.8242 21.2206 33.8828 21.2792 33.8828C21.2792 33.8828 21.2792 33.8828 21.3379 33.8828C21.3965 33.8828 21.3965 33.9414 21.4551 33.9414H21.5138C21.5724 33.9414 21.631 33.9414 21.6896 33.9414C21.6896 33.9414 21.6896 33.9414 21.7482 33.9414C21.8069 33.9414 21.8655 33.9414 21.8655 33.9414C21.8655 33.9414 21.9242 33.9414 21.9242 33.8828C21.9242 33.8828 21.9828 33.8828 21.9828 33.8242C22.0414 33.7655 22.0414 33.7655 22.1001 33.7069C22.1001 33.7069 22.1001 33.6482 22.1587 33.6482C22.2173 33.5896 22.2173 33.531 22.2173 33.4724L24.5036 22.0414L33.6484 17.469C33.8242 17.3518 34 17.1758 34 16.9414ZM10.2586 32.3L1.93448 3.22416L18.5242 23.9759L10.2586 32.3ZM17.8207 26.4966L19.0518 25.2069L20.3414 30.3069L17.8207 26.4966ZM21.631 30.7173L19.931 23.9173C19.931 23.8586 19.8724 23.8 19.8724 23.7414V23.6828L5.51032 5.80344L23.3896 21.8655L21.631 30.7173ZM24.1518 20.9862L4.22071 3.04825L32.1242 17L24.1518 20.9862Z" fill="#878787"/>
<path d="M1.17244 14.5379C1.11381 14.2447 0.76212 14.0103 0.469003 14.1275C0.175886 14.1862 -0.0585947 14.5379 0.0586787 14.831L2.40348 24.2103C2.40348 24.4447 2.6966 24.6206 2.93108 24.6206C2.98972 24.6206 3.04835 24.6206 3.04835 24.6206C3.34147 24.5619 3.57595 24.2103 3.45868 23.9171L1.17244 14.5379Z" fill="#878787"/>
<path d="M9.67231 1.05514L14.362 3.39994C14.4792 3.51722 14.5378 3.51722 14.6551 3.51722C14.8896 3.51722 15.0654 3.39994 15.1827 3.16546C15.3 2.87235 15.1827 2.52066 14.9482 2.40339L10.1999 0.0585815C9.90679 -0.058692 9.5551 0.0585815 9.43783 0.293062C9.32062 0.586179 9.43783 0.937867 9.67231 1.05514Z" fill="#878787"/>
<path d="M26.7897 23.6241C26.5552 23.3896 26.2034 23.3896 25.969 23.6241C25.7345 23.8586 25.7345 24.2103 25.969 24.4448L28.3138 26.7896C28.431 26.9069 28.6069 26.9655 28.7241 26.9655C28.8413 26.9655 29.0172 26.9068 29.1344 26.7896C29.3689 26.5551 29.3689 26.2034 29.1344 25.9689L26.7897 23.6241Z" fill="#878787"/>
<path d="M26.7897 28.3139C26.5552 28.0794 26.2034 28.0794 25.969 28.3139C25.7345 28.5484 25.7345 28.9002 25.969 29.1346L28.3138 31.4794C28.431 31.5967 28.6069 31.6553 28.7241 31.6553C28.8413 31.6553 29.0172 31.5966 29.1344 31.4794C29.3689 31.245 29.3689 30.8932 29.1344 30.6587L26.7897 28.3139Z" fill="#878787"/>
<path d="M33.8243 25.9689L29.1346 21.2793C28.9002 21.0448 28.5484 21.0448 28.3139 21.2793C28.0794 21.5137 28.0794 21.8655 28.3139 22.1L33.0036 26.7896C33.1209 26.9069 33.2967 26.9655 33.4139 26.9655C33.5312 26.9655 33.707 26.9068 33.8242 26.7896C34.0588 26.5552 34.0588 26.2034 33.8243 25.9689Z" fill="#878787"/>
</g>
<defs>
<clipPath id="clip0">
<rect width="34" height="34" fill="white"/>
</clipPath>
</defs>
</svg>
