<svg width="34" height="34" viewBox="0 0 34 34" fill="none" xmlns="http://www.w3.org/2000/svg">
<path d="M25.2069 15.2412C24.2103 15.2412 23.4482 16.0033 23.4482 16.9998C23.4482 17.9964 24.2103 18.7585 25.2069 18.7585C26.2034 18.7585 26.9655 17.9964 26.9655 16.9998C26.9655 16.0033 26.2034 15.2412 25.2069 15.2412ZM25.2069 17.5861C24.8551 17.5861 24.6206 17.3516 24.6206 16.9998C24.6206 16.6481 24.8551 16.4136 25.2069 16.4136C25.5586 16.4136 25.7931 16.6481 25.7931 16.9998C25.7931 17.3516 25.5586 17.5861 25.2069 17.5861Z" fill="#878787"/>
<path d="M17 29.3104C10.962 29.3104 5.86204 25.2656 5.86204 20.5173C5.86204 20.1655 5.62756 19.931 5.27581 19.931C4.92406 19.931 4.68958 20.1655 4.68958 20.5173C4.68958 25.9104 10.3172 30.4828 16.9999 30.4828C17.3517 30.4828 17.5861 30.2483 17.5861 29.8966C17.5862 29.5449 17.3517 29.3104 17 29.3104Z" fill="#878787"/>
<path d="M11.1379 14.069C14.7138 14.069 17.5862 11.1966 17.5862 7.62073C17.5862 4.04489 14.7138 1.17249 11.1379 1.17249C7.5621 1.17249 4.6897 4.04482 4.6897 7.62073C4.6897 11.1966 7.5621 14.069 11.1379 14.069ZM11.1379 2.34482C14.069 2.34482 16.4138 4.68963 16.4138 7.62067C16.4138 10.5517 14.069 12.8965 11.1379 12.8965C8.2069 12.8965 5.8621 10.5517 5.8621 7.62067C5.8621 4.68963 8.2069 2.34482 11.1379 2.34482Z" fill="#878787"/>
<path d="M32.2414 17.5862H31.6551C31.4206 17.5862 31.1862 17.4104 31.1275 17.1759C30.131 14.2449 27.5517 11.6069 24.6206 10.0241V6.44823C24.6206 6.21375 24.5034 5.97927 24.2689 5.92063C24.0344 5.80336 23.7999 5.862 23.6241 6.03791L20.9862 8.67583C20.4586 8.55855 19.8724 8.44135 19.3448 8.38271C19.0517 8.32407 18.7586 8.55855 18.7 8.85167C18.0552 12.5448 14.8897 15.2413 11.1379 15.2413C9.20344 15.2413 7.38617 14.5379 5.97929 13.2482C5.86201 13.131 5.68617 13.0724 5.56896 13.0724C5.39312 13.0724 5.27584 13.131 5.15864 13.2482C3.45864 15.2413 2.52071 17.5275 2.34487 19.931C2.11039 19.8723 1.81727 19.7551 1.64143 19.5206C1.34831 19.2275 1.17247 18.7586 1.17247 18.1724V15.8276C1.17247 15.8276 1.17247 15.8276 1.17247 15.7689C1.17247 15.7103 1.17247 15.0069 1.58279 14.4793C1.87591 14.2448 2.34487 14.0689 2.93104 14.0689C3.28279 14.0689 3.51727 13.8345 3.51727 13.4827C3.51727 13.131 3.28279 12.8965 2.93104 12.8965C1.99312 12.8965 1.28968 13.1896 0.762078 13.7172C0 14.5379 0 15.6517 0 15.8276V18.1724C0 19.1103 0.293117 19.8137 0.820715 20.3413C1.28968 20.8103 1.93448 20.9861 2.34487 21.0448C2.46214 23.5069 3.45864 25.9103 5.21727 27.9034L4.68968 29.7207C4.63104 29.9552 4.68968 30.131 4.86552 30.3069L7.21032 32.6517C7.4448 32.8862 7.79656 32.8862 8.03104 32.6517L9.55519 31.1276C11.8414 32.2413 14.3621 32.8276 17 32.8276C19.6379 32.8276 22.1586 32.2413 24.4448 31.1276L25.969 32.6517C26.0862 32.769 26.2621 32.8276 26.3793 32.8276C26.4966 32.8276 26.6724 32.7689 26.7896 32.6517L29.1344 30.3069C29.3103 30.1311 29.3689 29.9552 29.3103 29.7207L28.724 27.9035C29.8378 26.6724 30.5999 25.3242 31.1275 23.8587C31.1861 23.6242 31.4206 23.4484 31.6551 23.4484H32.2413C33.2379 23.4484 33.9999 22.6863 33.9999 21.6897V19.3449C34 18.3482 33.2379 17.5862 32.2414 17.5862ZM32.2414 22.2758H31.6551C30.8931 22.2758 30.2482 22.7448 30.0138 23.4482C29.5448 24.8551 28.7241 26.1448 27.669 27.3172C27.5517 27.493 27.4931 27.6689 27.5517 27.9034L28.0793 29.7206L26.3793 31.4206L24.9724 30.0137C24.7966 29.8379 24.5034 29.7793 24.269 29.8965C22.1 31.0689 19.5793 31.6552 17 31.6552C14.4207 31.6552 11.9 31.0689 9.73104 29.8965C9.6724 29.8379 9.55519 29.8379 9.43792 29.8379C9.26208 29.8379 9.1448 29.8965 9.0276 30.0137L7.62072 31.4206L5.92071 29.7206L6.44831 27.9034C6.50695 27.7276 6.44831 27.4931 6.33104 27.3172C4.51377 25.3827 3.51727 23.0379 3.51727 20.5172C3.51727 18.3482 4.27935 16.2965 5.68623 14.4793C7.26896 15.7103 9.14487 16.4137 11.138 16.4137C15.2414 16.4137 18.7587 13.6 19.6966 9.61375C20.1656 9.67239 20.5759 9.78959 20.9863 9.90687C21.1621 9.9655 21.3966 9.90687 21.5725 9.73102L23.4484 7.85518V10.3759C23.4484 10.6104 23.5657 10.7862 23.8001 10.9035C26.8484 12.369 29.076 14.7725 30.0139 17.5862C30.2484 18.2897 30.8932 18.7586 31.6553 18.7586H32.2415C32.5933 18.7586 32.8277 18.9931 32.8277 19.3449V21.6897C32.8276 22.0413 32.5931 22.2758 32.2414 22.2758Z" fill="#878787"/>
<path d="M18.9344 20.107L16.5896 22.4518C16.3551 22.6863 16.3551 23.038 16.5896 23.2725C16.7068 23.3898 16.8827 23.4484 16.9999 23.4484C17.1171 23.4484 17.293 23.3897 17.4102 23.2725L19.755 20.9277C19.9895 20.6932 19.9895 20.3415 19.755 20.107C19.5206 19.8725 19.1689 19.8725 18.9344 20.107Z" fill="#878787"/>
<path d="M18.9344 17.7623L14.2447 22.452C14.0102 22.6864 14.0102 23.0382 14.2447 23.2727C14.362 23.3899 14.5378 23.4485 14.655 23.4485C14.7723 23.4485 14.9482 23.3899 15.0654 23.2727L19.755 18.583C19.9895 18.3485 19.9895 17.9968 19.755 17.7623C19.5206 17.5278 19.1689 17.5278 18.9344 17.7623Z" fill="#878787"/>
<path d="M14.6551 21.1036C14.8309 21.1036 14.9482 21.045 15.0654 20.9278L17.4102 18.583C17.6447 18.3485 17.6447 17.9968 17.4102 17.7623C17.1758 17.5278 16.824 17.5278 16.5895 17.7623L14.2447 20.1071C14.0102 20.3416 14.0102 20.6933 14.2447 20.9278C14.362 21.045 14.4792 21.1036 14.6551 21.1036Z" fill="#878787"/>
<path d="M11.1379 11.7242C13.4242 11.7242 15.2414 9.90702 15.2414 7.62078C15.2414 7.26903 15.0069 7.03455 14.6551 7.03455C14.3034 7.03455 14.0689 7.26903 14.0689 7.62078C14.0689 9.26214 12.7792 10.5518 11.1379 10.5518C10.7861 10.5518 10.5516 10.7863 10.5516 11.1381C10.5518 11.4897 10.7862 11.7242 11.1379 11.7242Z" fill="#878787"/>
</svg>
