<svg width="91" height="27" viewBox="0 0 91 27" fill="none" xmlns="http://www.w3.org/2000/svg">
<path d="M87.7882 0H3.21176C1.43796 0 0 1.4506 0 3.24V23.76C0 25.5494 1.43796 27 3.21176 27H87.7882C89.562 27 91 25.5494 91 23.76V3.24C91 1.4506 89.562 0 87.7882 0Z" fill="#222222"/>
<path fill-rule="evenodd" clip-rule="evenodd" d="M19.1876 12.8196C19.1876 10.6434 21.0217 9.59037 21.0923 9.52017C20.0341 8.04597 18.4822 7.83537 17.9178 7.76517C16.5775 7.62477 15.2372 8.53737 14.6023 8.53737C13.8969 8.53737 12.8388 7.76517 11.7101 7.76517C10.2287 7.76517 8.88839 8.60757 8.11242 9.94137C6.56048 12.609 7.68916 16.5402 9.17056 18.7164C9.94653 19.7694 10.793 20.9628 11.9217 20.8926C13.0504 20.8224 13.4737 20.1906 14.814 20.1906C16.1543 20.1906 16.507 20.8926 17.7062 20.8926C18.9054 20.8926 19.6814 19.8396 20.3868 18.7866C21.2334 17.5932 21.5861 16.3998 21.5861 16.3296C21.5155 16.2594 19.1876 15.417 19.1876 12.8196Z" fill="white"/>
<path fill-rule="evenodd" clip-rule="evenodd" d="M17.0008 6.36122C17.5651 5.58902 17.9884 4.60622 17.9178 3.55322C17.0713 3.62342 15.9426 4.11482 15.3783 4.88702C14.814 5.51882 14.3202 6.57182 14.4612 7.55462C15.3783 7.62482 16.3659 7.06322 17.0008 6.36122Z" fill="white"/>
<path fill-rule="evenodd" clip-rule="evenodd" d="M35.2713 20.7521H33.7194L32.8729 18.0845H29.9101L29.1341 20.7521H27.6527L30.6155 11.6963H32.4496L35.2713 20.7521ZM32.5907 16.9613L31.8147 14.5745C31.7442 14.3639 31.6031 13.7321 31.3209 12.8897C31.2504 13.2407 31.1093 13.8725 30.8977 14.5745L30.1217 16.9613H32.5907Z" fill="white"/>
<path fill-rule="evenodd" clip-rule="evenodd" d="M42.8194 17.4527C42.8194 18.5759 42.5372 19.4183 41.9023 20.1203C41.338 20.6819 40.7031 20.9627 39.8566 20.9627C39.0101 20.9627 38.3752 20.6819 38.0225 20.0501V23.4899H36.5411V16.4699C36.5411 15.7679 36.5411 15.0659 36.4706 14.2937H37.7403L37.8109 15.3467C38.3047 14.5745 39.0101 14.1533 39.9977 14.1533C40.7737 14.1533 41.4085 14.4341 41.9023 15.0659C42.5372 15.6275 42.8194 16.3997 42.8194 17.4527ZM41.338 17.4527C41.338 16.8209 41.1969 16.2593 40.9147 15.9083C40.6326 15.4871 40.2093 15.2765 39.645 15.2765C39.2923 15.2765 38.9395 15.4169 38.6574 15.6275C38.3752 15.8381 38.1636 16.1891 38.093 16.5401C38.0225 16.7507 38.0225 16.8911 38.0225 16.9613V18.0845C38.0225 18.5759 38.1636 18.9269 38.4457 19.2779C38.7279 19.6289 39.1512 19.7693 39.5744 19.7693C40.1388 19.7693 40.562 19.5587 40.8442 19.1375C41.1969 18.7163 41.338 18.1547 41.338 17.4527Z" fill="white"/>
<path fill-rule="evenodd" clip-rule="evenodd" d="M50.3675 17.4527C50.3675 18.5759 50.0853 19.4183 49.4504 20.1203C48.8861 20.6819 48.2512 20.9627 47.4047 20.9627C46.5581 20.9627 45.9233 20.6819 45.5706 20.0501V23.4899H44.0892V16.4699C44.0892 15.7679 44.0892 15.0659 44.0186 14.2937H45.2884L45.3589 15.3467C45.8527 14.5745 46.5582 14.1533 47.5457 14.1533C48.3217 14.1533 48.9566 14.4341 49.4504 15.0659C50.0853 15.6275 50.3675 16.3997 50.3675 17.4527ZM48.8861 17.4527C48.8861 16.8209 48.745 16.2593 48.4628 15.9083C48.1806 15.4871 47.7574 15.2765 47.193 15.2765C46.8403 15.2765 46.4876 15.4169 46.2054 15.6275C45.9233 15.8381 45.7116 16.1891 45.6411 16.5401C45.5706 16.7507 45.5706 16.8911 45.5706 16.9613V18.0845C45.5706 18.5759 45.7116 18.9269 45.9938 19.2779C46.276 19.6289 46.6992 19.7693 47.1225 19.7693C47.6868 19.7693 48.1101 19.5587 48.3923 19.1375C48.745 18.7163 48.8861 18.1547 48.8861 17.4527Z" fill="white"/>
<path fill-rule="evenodd" clip-rule="evenodd" d="M58.8325 18.2248C58.8325 18.997 58.5504 19.6288 58.0566 20.1202C57.4922 20.6818 56.6457 20.8924 55.5876 20.8924C54.6 20.8924 53.824 20.6818 53.2597 20.3308L53.6124 19.1374C54.2473 19.4884 54.9527 19.699 55.7287 19.699C56.293 19.699 56.7163 19.5586 56.9984 19.348C57.2806 19.0672 57.4217 18.7864 57.4217 18.3652C57.4217 18.0142 57.2806 17.6632 57.069 17.4526C56.7868 17.1718 56.3636 16.9612 55.7992 16.7506C54.1767 16.189 53.4008 15.2764 53.4008 14.1532C53.4008 13.381 53.6829 12.8194 54.2473 12.328C54.8116 11.8366 55.517 11.626 56.5046 11.626C57.3511 11.626 57.986 11.7664 58.5504 12.0472L58.1977 13.2406C57.7039 12.9598 57.1395 12.8194 56.4341 12.8194C55.9403 12.8194 55.517 12.9598 55.2349 13.1704C55.0232 13.381 54.8822 13.6618 54.8822 14.0128C54.8822 14.3638 55.0232 14.6446 55.3054 14.9254C55.517 15.136 56.0108 15.3466 56.6457 15.6274C57.4217 15.9082 57.986 16.3294 58.4093 16.7506C58.6209 17.1016 58.8325 17.593 58.8325 18.2248Z" fill="white"/>
<path fill-rule="evenodd" clip-rule="evenodd" d="M63.6295 15.3467H62.007V18.5057C62.007 19.2779 62.2891 19.6991 62.8535 19.6991C63.1357 19.6991 63.3473 19.6991 63.4884 19.6289L63.5589 20.7521C63.2767 20.8925 62.924 20.8925 62.4302 20.8925C61.8659 20.8925 61.3721 20.7521 61.0899 20.4011C60.7372 20.0501 60.5961 19.4885 60.5961 18.6461V15.3467H59.6085V14.2235H60.5961V13.0301L62.007 12.6089V14.2235H63.6295V15.3467Z" fill="white"/>
<path fill-rule="evenodd" clip-rule="evenodd" d="M70.8954 17.4526C70.8954 18.4354 70.6132 19.2778 70.0488 19.9096C69.414 20.5414 68.638 20.8924 67.6504 20.8924C66.6628 20.8924 65.8868 20.5414 65.3225 19.9096C64.7582 19.2778 64.476 18.5056 64.476 17.5228C64.476 16.54 64.7582 15.6976 65.393 15.0658C65.9574 14.434 66.8039 14.083 67.7915 14.083C68.7791 14.083 69.5551 14.434 70.1194 15.0658C70.6132 15.6976 70.8954 16.4698 70.8954 17.4526ZM69.3434 17.5228C69.3434 16.891 69.2023 16.3996 68.9202 15.9784C68.638 15.487 68.1442 15.2062 67.5799 15.2062C67.0155 15.2062 66.5217 15.487 66.2395 15.9784C65.9574 16.3996 65.8163 16.9612 65.8163 17.5228C65.8163 18.1546 65.9574 18.646 66.2395 19.0672C66.5217 19.5586 67.0155 19.8394 67.5799 19.8394C68.1442 19.8394 68.5675 19.5586 68.9202 19.0672C69.2023 18.646 69.3434 18.0844 69.3434 17.5228Z" fill="white"/>
<path fill-rule="evenodd" clip-rule="evenodd" d="M75.6217 15.4874C75.4806 15.4874 75.3395 15.4172 75.1279 15.4172C74.6341 15.4172 74.2108 15.6278 73.9287 15.9788C73.717 16.3298 73.576 16.751 73.576 17.2424V20.6822H72.0946V16.1894C72.0946 15.4172 72.0946 14.7854 72.024 14.1536H73.2938L73.3643 15.4172H73.4349C73.576 14.996 73.8581 14.645 74.1403 14.3642C74.493 14.1536 74.8457 14.0132 75.1984 14.0132H75.5512V15.4874H75.6217Z" fill="white"/>
<path fill-rule="evenodd" clip-rule="evenodd" d="M82.1116 17.1718C82.1116 17.4526 82.1116 17.6632 82.0411 17.8036H77.6674C77.6674 18.4354 77.8791 18.9268 78.3023 19.2778C78.655 19.5586 79.1488 19.7692 79.7132 19.7692C80.3481 19.7692 80.9829 19.699 81.4767 19.4884L81.6884 20.4712C81.0535 20.752 80.3481 20.8924 79.5016 20.8924C78.514 20.8924 77.6674 20.6116 77.1031 19.9798C76.5388 19.4182 76.2566 18.5758 76.2566 17.593C76.2566 16.6102 76.5388 15.7678 77.0326 15.136C77.5969 14.434 78.3729 14.083 79.3605 14.083C80.2775 14.083 81.0535 14.434 81.4767 15.136C81.9705 15.6976 82.1116 16.3996 82.1116 17.1718ZM80.7713 16.8208C80.7713 16.3996 80.7008 16.0486 80.4891 15.6976C80.207 15.2764 79.8543 15.0658 79.3605 15.0658C78.8667 15.0658 78.514 15.2764 78.2318 15.6274C78.0202 15.9082 77.8791 16.3294 77.8085 16.7506H80.7713V16.8208Z" fill="white"/>
<path fill-rule="evenodd" clip-rule="evenodd" d="M30.3249 8.84894C30.054 8.84894 29.8043 8.81735 29.5757 8.75417C29.3471 8.69099 29.1493 8.59412 28.9821 8.46354C28.8149 8.33297 28.6848 8.1687 28.5916 7.97074C28.4985 7.77277 28.452 7.5369 28.452 7.26312H29.0297C29.0339 7.4653 29.0731 7.63694 29.1472 7.77804C29.2212 7.91914 29.3186 8.03287 29.4392 8.11921C29.5598 8.20556 29.7006 8.26768 29.8614 8.30559C30.0222 8.3435 30.1937 8.36245 30.3757 8.36245C30.5323 8.36245 30.6783 8.34034 30.8137 8.29612C30.9492 8.25189 31.0666 8.18871 31.1661 8.10658C31.2656 8.02444 31.3439 7.92546 31.401 7.80963C31.4581 7.6938 31.4867 7.56428 31.4867 7.42107C31.4867 7.2568 31.455 7.12307 31.3915 7.01988C31.328 6.91669 31.2444 6.83666 31.1407 6.7798C31.037 6.72293 30.9164 6.68397 30.7788 6.66291C30.6413 6.64185 30.4963 6.63132 30.3439 6.63132C30.2804 6.63132 30.2085 6.63238 30.1281 6.63448C30.0476 6.63659 29.9842 6.63975 29.9376 6.64396V6.15115C29.9884 6.15958 30.0561 6.16379 30.1408 6.16379H30.3439C30.4878 6.16379 30.6201 6.1501 30.7407 6.12272C30.8613 6.09535 30.965 6.05007 31.0518 5.98689C31.1386 5.92371 31.2063 5.84052 31.255 5.73733C31.3037 5.63413 31.328 5.50672 31.328 5.35509C31.328 5.21609 31.3015 5.10026 31.2486 5.0076C31.1957 4.91493 31.1238 4.84017 31.0328 4.78331C30.9418 4.72645 30.8381 4.68538 30.7217 4.66011C30.6053 4.63483 30.4836 4.6222 30.3566 4.6222C30.0222 4.6222 29.7598 4.69485 29.5694 4.84017C29.3789 4.98548 29.2667 5.22241 29.2329 5.55094H28.6551C28.6636 5.31086 28.7133 5.10131 28.8043 4.9223C28.8953 4.74329 29.017 4.59587 29.1694 4.48004C29.3218 4.36421 29.5006 4.27681 29.7059 4.21785C29.9111 4.15888 30.1344 4.12939 30.3757 4.12939C30.5915 4.12939 30.7936 4.15361 30.982 4.20205C31.1703 4.25049 31.3343 4.32525 31.474 4.42634C31.6137 4.52743 31.7237 4.65484 31.8042 4.80858C31.8846 4.96232 31.9248 5.14449 31.9248 5.35509C31.9248 5.47724 31.9036 5.59096 31.8613 5.69626C31.819 5.80156 31.7629 5.89633 31.693 5.98057C31.6232 6.06481 31.5428 6.13747 31.4518 6.19854C31.3608 6.25961 31.2687 6.30489 31.1756 6.33438V6.35333C31.3238 6.38282 31.455 6.43231 31.5692 6.5018C31.6835 6.5713 31.7788 6.65449 31.8549 6.75136C31.9311 6.84824 31.9883 6.95565 32.0264 7.07358C32.0645 7.19152 32.0835 7.31156 32.0835 7.43371C32.0835 7.57271 32.0518 7.72434 31.9883 7.8886C31.9248 8.05287 31.8221 8.20661 31.6803 8.34982C31.5386 8.49303 31.3566 8.61201 31.1343 8.70679C30.9121 8.80156 30.6423 8.84894 30.3249 8.84894ZM33.6834 8.81735C33.5353 8.81735 33.3956 8.80156 33.2644 8.76997C33.1332 8.73838 33.0178 8.68573 32.9184 8.61202C32.8189 8.53831 32.7406 8.44354 32.6835 8.32771C32.6263 8.21188 32.5978 8.07183 32.5978 7.90756C32.5978 7.72223 32.6295 7.5706 32.693 7.45266C32.7565 7.33473 32.8401 7.2389 32.9438 7.16519C33.0475 7.09148 33.166 7.03567 33.2993 6.99777C33.4326 6.95986 33.5691 6.92827 33.7088 6.903C33.8569 6.87351 33.9977 6.8514 34.131 6.83666C34.2643 6.82192 34.3818 6.80086 34.4834 6.77348C34.5849 6.7461 34.6654 6.70609 34.7246 6.65344C34.7839 6.60079 34.8135 6.52392 34.8135 6.42283C34.8135 6.30489 34.7913 6.21012 34.7468 6.13852C34.7024 6.06691 34.6453 6.01216 34.5754 5.97425C34.5056 5.93634 34.4273 5.91107 34.3405 5.89843C34.2537 5.8858 34.168 5.87948 34.0834 5.87948C33.8548 5.87948 33.6644 5.92265 33.512 6.009C33.3596 6.09535 33.2771 6.25856 33.2644 6.49864H32.7247C32.7332 6.29647 32.7755 6.12588 32.8517 5.98689C32.9279 5.84789 33.0295 5.73522 33.1565 5.64887C33.2834 5.56253 33.4284 5.5004 33.5913 5.46249C33.7543 5.42458 33.9289 5.40563 34.1151 5.40563C34.2633 5.40563 34.4103 5.41616 34.5564 5.43722C34.7024 5.45828 34.8347 5.50145 34.9532 5.56674C35.0717 5.63203 35.1669 5.72364 35.2389 5.84157C35.3108 5.95951 35.3468 6.11325 35.3468 6.30279V7.98337C35.3468 8.10974 35.3542 8.2024 35.369 8.26137C35.3838 8.32033 35.4336 8.34982 35.5182 8.34982C35.5563 8.34982 35.6113 8.33929 35.6833 8.31823V8.73522C35.5902 8.78997 35.4611 8.81735 35.296 8.81735C35.1563 8.81735 35.0452 8.77839 34.9627 8.70047C34.8802 8.62255 34.8389 8.49513 34.8389 8.31823C34.6908 8.49513 34.5183 8.62255 34.3215 8.70047C34.1246 8.77839 33.912 8.81735 33.6834 8.81735ZM33.804 8.34982C33.9818 8.34982 34.1342 8.3256 34.2612 8.27716C34.3881 8.22872 34.4918 8.16765 34.5722 8.09394C34.6527 8.02023 34.7119 7.9402 34.75 7.85386C34.7881 7.76751 34.8071 7.68643 34.8071 7.61061V7.06095C34.7394 7.1157 34.6505 7.15361 34.5405 7.17467C34.4305 7.19573 34.3151 7.21468 34.1945 7.23153C34.0739 7.24838 33.9522 7.26523 33.8294 7.28208C33.7067 7.29893 33.5966 7.32841 33.4993 7.37053C33.4019 7.41265 33.3226 7.47267 33.2612 7.55059C33.1998 7.62851 33.1692 7.73487 33.1692 7.86965C33.1692 7.9581 33.1871 8.03287 33.2231 8.09394C33.2591 8.15501 33.3057 8.2045 33.3628 8.24241C33.4199 8.28032 33.4866 8.3077 33.5628 8.32455C33.639 8.34139 33.7194 8.34982 33.804 8.34982ZM36.1975 5.48145H38.445V5.9553H36.7372V8.74785H36.1975V5.48145ZM38.8958 5.48145H39.4355V5.92371H39.4482C39.537 5.74259 39.6767 5.61097 39.8672 5.52883C40.0576 5.4467 40.2672 5.40563 40.4957 5.40563C40.7497 5.40563 40.9708 5.45196 41.1592 5.54463C41.3475 5.63729 41.5041 5.7626 41.629 5.92055C41.7538 6.0785 41.848 6.26067 41.9115 6.46705C41.975 6.67344 42.0067 6.89247 42.0067 7.12413C42.0067 7.36 41.976 7.58007 41.9147 7.78436C41.8533 7.98864 41.7602 8.16765 41.6353 8.32139C41.5105 8.47513 41.3539 8.59622 41.1655 8.68467C40.9772 8.77313 40.7581 8.81735 40.5084 8.81735C40.4238 8.81735 40.3328 8.80893 40.2354 8.79208C40.1381 8.77523 40.0407 8.74785 39.9434 8.70995C39.846 8.67204 39.754 8.62044 39.6672 8.55515C39.5804 8.48987 39.5074 8.40879 39.4482 8.31191H39.4355V9.9925H38.8958V5.48145ZM40.4513 8.34982C40.6333 8.34982 40.7878 8.31402 40.9147 8.24241C41.0417 8.17081 41.1433 8.07604 41.2195 7.9581C41.2957 7.84017 41.3507 7.70538 41.3845 7.55375C41.4184 7.40212 41.4353 7.24628 41.4353 7.08622C41.4353 6.93459 41.4152 6.78611 41.375 6.6408C41.3348 6.49549 41.2734 6.36597 41.1909 6.25224C41.1084 6.13852 41.0026 6.04796 40.8735 5.98057C40.7444 5.91318 40.5931 5.87948 40.4195 5.87948C40.2375 5.87948 40.083 5.91528 39.9561 5.98689C39.8291 6.05849 39.7254 6.15221 39.645 6.26804C39.5645 6.38387 39.5064 6.51549 39.4704 6.66291C39.4344 6.81033 39.4164 6.95986 39.4164 7.11149C39.4164 7.27155 39.4355 7.42634 39.4735 7.57586C39.5116 7.72539 39.572 7.85701 39.6545 7.97074C39.737 8.08446 39.8439 8.17607 39.9751 8.24557C40.1063 8.31507 40.265 8.34982 40.4513 8.34982ZM42.9781 10.0494C42.9146 10.0494 42.8511 10.0451 42.7876 10.0367C42.7242 10.0283 42.6628 10.0136 42.6035 9.9925V9.4997C42.6543 9.51654 42.7062 9.53339 42.7591 9.55024C42.812 9.56709 42.8659 9.57551 42.921 9.57551C43.031 9.57551 43.1199 9.55024 43.1876 9.4997C43.2553 9.44915 43.3146 9.37544 43.3654 9.27856L43.5876 8.7289L42.2861 5.48145H42.8956L43.8542 8.15396H43.8669L44.7875 5.48145H45.3589L43.9304 9.17748C43.8669 9.33753 43.8045 9.47232 43.7431 9.58183C43.6818 9.69134 43.614 9.78085 43.54 9.85034C43.4659 9.91984 43.3834 9.97039 43.2924 10.002C43.2014 10.0336 43.0966 10.0494 42.9781 10.0494ZM47.0223 8.81735C46.5864 8.81735 46.2456 8.72048 46.0002 8.52672C45.7547 8.33297 45.6213 8.05709 45.6002 7.69906H46.1462C46.1631 7.93915 46.252 8.11184 46.4128 8.21714C46.5737 8.32244 46.7747 8.37509 47.016 8.37509C47.2742 8.37509 47.4731 8.32034 47.6128 8.21082C47.7524 8.10131 47.8223 7.96232 47.8223 7.79383C47.8223 7.62957 47.7694 7.5011 47.6635 7.40844C47.5577 7.31577 47.3779 7.26944 47.1239 7.26944H46.6858V6.8335H47.035C47.2255 6.8335 47.3884 6.79454 47.5239 6.71662C47.6593 6.63869 47.727 6.50286 47.727 6.3091C47.727 6.18696 47.6688 6.07955 47.5524 5.98689C47.436 5.89422 47.2636 5.84789 47.035 5.84789C46.9377 5.84789 46.8414 5.85842 46.7461 5.87948C46.6509 5.90054 46.5652 5.93424 46.489 5.98057C46.4128 6.0269 46.3493 6.08797 46.2985 6.16379C46.2478 6.23961 46.216 6.33227 46.2033 6.44178H45.6573C45.67 6.23961 45.7187 6.07218 45.8033 5.9395C45.888 5.80682 45.9938 5.70152 46.1208 5.6236C46.2478 5.54568 46.3917 5.48987 46.5525 5.45617C46.7133 5.42248 46.8763 5.40563 47.0414 5.40563C47.2107 5.40563 47.3694 5.42248 47.5175 5.45617C47.6657 5.48987 47.7958 5.54357 47.908 5.61728C48.0201 5.69099 48.109 5.7826 48.1746 5.89212C48.2402 6.00163 48.273 6.1322 48.273 6.28383C48.273 6.47337 48.2191 6.62711 48.1111 6.74505C48.0032 6.86298 47.8815 6.93669 47.7461 6.96618V6.97881C47.8223 6.99145 47.8985 7.01672 47.9746 7.05463C48.0508 7.09254 48.1185 7.14413 48.1778 7.20942C48.2371 7.27471 48.2857 7.35473 48.3238 7.4495C48.3619 7.54427 48.381 7.65484 48.381 7.7812C48.381 7.9581 48.3429 8.11184 48.2667 8.24241C48.1905 8.37299 48.0889 8.48039 47.9619 8.56463C47.835 8.64887 47.69 8.71205 47.527 8.75417C47.3641 8.79629 47.1959 8.81735 47.0223 8.81735ZM49.0285 5.48145H49.5682V8.14764L51.1173 5.48145H51.8093V8.74785H51.2697V6.08166L49.7206 8.74785H49.0285V5.48145ZM53.4156 5.9553H52.2411V5.48145H55.1298V5.9553H53.9552V8.74785H53.4156V5.9553ZM56.9582 8.81735C56.6958 8.81735 56.4662 8.77523 56.2694 8.69099C56.0726 8.60675 55.9086 8.48882 55.7774 8.33718C55.6461 8.18555 55.5477 8.00444 55.4821 7.79383C55.4165 7.58323 55.3837 7.35368 55.3837 7.10517C55.3837 6.86088 55.4218 6.63448 55.498 6.42599C55.5742 6.21749 55.6811 6.03743 55.8186 5.8858C55.9562 5.73417 56.1191 5.61623 56.3075 5.53199C56.4958 5.44775 56.7022 5.40563 56.9265 5.40563C57.2185 5.40563 57.4609 5.46565 57.6534 5.58569C57.846 5.70574 58.0005 5.85842 58.1169 6.04375C58.2333 6.22908 58.3137 6.43125 58.3582 6.65028C58.4026 6.8693 58.4206 7.07779 58.4121 7.27576H55.9551C55.9509 7.41897 55.9678 7.5548 56.0059 7.68327C56.044 7.81174 56.1054 7.92546 56.19 8.02444C56.2747 8.12342 56.3826 8.2024 56.5138 8.26137C56.645 8.32033 56.7995 8.34982 56.9773 8.34982C57.2059 8.34982 57.3931 8.29717 57.5392 8.19187C57.6852 8.08657 57.7815 7.92651 57.828 7.7117H58.3613C58.2894 8.08236 58.1307 8.35929 57.8852 8.54252C57.6397 8.72574 57.3307 8.81735 56.9582 8.81735ZM57.8407 6.80191C57.8323 6.67555 57.8037 6.55551 57.755 6.44178C57.7063 6.32806 57.6407 6.23013 57.5582 6.148C57.4757 6.06586 57.3783 6.00058 57.2662 5.95214C57.154 5.9037 57.0302 5.87948 56.8948 5.87948C56.7551 5.87948 56.6292 5.9037 56.517 5.95214C56.4048 6.00058 56.3085 6.06691 56.2281 6.15115C56.1477 6.2354 56.0842 6.33332 56.0377 6.44494C55.9911 6.55656 55.9636 6.67555 55.9551 6.80191H57.8407ZM60.7358 5.48145H62.2532C62.3971 5.48145 62.5357 5.49198 62.669 5.51304C62.8023 5.5341 62.9219 5.57306 63.0277 5.62992C63.1335 5.68678 63.2182 5.76786 63.2817 5.87316C63.3452 5.97846 63.3769 6.11325 63.3769 6.27751C63.3769 6.45442 63.3346 6.59763 63.2499 6.70714C63.1653 6.81665 63.0468 6.90721 62.8944 6.97881V6.98513C63.0849 7.02304 63.2362 7.11149 63.3484 7.25049C63.4605 7.38948 63.5166 7.56849 63.5166 7.78752C63.5166 7.92651 63.4923 8.05498 63.4436 8.17291C63.3949 8.29085 63.3261 8.39194 63.2372 8.47618C63.1484 8.56042 63.0425 8.62676 62.9198 8.6752C62.7971 8.72363 62.6637 8.74785 62.5198 8.74785H60.7358V5.48145ZM62.4182 8.29296C62.596 8.29296 62.7304 8.24136 62.8214 8.13817C62.9124 8.03497 62.9579 7.90545 62.9579 7.74961C62.9579 7.60219 62.9092 7.48425 62.8119 7.3958C62.7145 7.30735 62.5516 7.26312 62.323 7.26312H61.2691V8.29296H62.4182ZM62.196 6.82086C62.4288 6.82086 62.5907 6.77874 62.6817 6.6945C62.7727 6.61026 62.8182 6.49865 62.8182 6.35965C62.8182 6.22486 62.7738 6.12062 62.6849 6.04691C62.596 5.9732 62.4331 5.93634 62.196 5.93634H61.2691V6.82086H62.196Z" fill="white"/>
</svg>
