<svg width="70" height="70" viewBox="0 0 70 70" fill="none" xmlns="http://www.w3.org/2000/svg">
<path d="M63.1641 52.7734C63.9187 52.7734 64.5312 52.1609 64.5312 51.4062C64.5312 50.6516 63.9187 50.0391 63.1641 50.0391C62.4094 50.0391 61.7969 50.6516 61.7969 51.4062C61.7969 52.1609 62.4094 52.7734 63.1641 52.7734Z" fill="#E6E6E6"/>
<path d="M4.10156 70H65.8984C68.1602 70 70 68.1602 70 65.8984V15.0391C70 14.2839 69.388 13.6719 68.6328 13.6719H59.0625C59.0625 6.13312 52.9294 0 45.3906 0C37.8358 0 31.7188 6.11122 31.7188 13.6719H21.3281C20.573 13.6719 19.9609 14.2839 19.9609 15.0391V30.8984H1.36719C0.61203 30.8984 0 31.5105 0 32.2656V65.8984C0 68.1602 1.83983 70 4.10156 70ZM2.73438 65.8984V60.9766H34.4531V65.8984C34.4531 66.6525 33.84 67.2656 33.0859 67.2656H4.10156C3.34747 67.2656 2.73438 66.6525 2.73438 65.8984ZM65.8984 67.2656H36.9525C37.1042 66.8378 37.1875 66.378 37.1875 65.8984V60.9766H67.2656V65.8984C67.2656 66.6525 66.6525 67.2656 65.8984 67.2656ZM45.3906 2.73438C51.4217 2.73438 56.3281 7.64076 56.3281 13.6719H34.4531C34.4531 7.62741 39.3424 2.73438 45.3906 2.73438ZM22.6953 16.4062H31.7188V22.6953H30.3516C29.5964 22.6953 28.9844 23.3073 28.9844 24.0625C28.9844 24.8177 29.5964 25.4297 30.3516 25.4297H35.8203C36.5755 25.4297 37.1875 24.8177 37.1875 24.0625C37.1875 23.3073 36.5755 22.6953 35.8203 22.6953H34.4531V16.4062H56.3281V22.6953H54.9609C54.2058 22.6953 53.5938 23.3073 53.5938 24.0625C53.5938 24.8177 54.2058 25.4297 54.9609 25.4297H60.4297C61.1848 25.4297 61.7969 24.8177 61.7969 24.0625C61.7969 23.3073 61.1848 22.6953 60.4297 22.6953H59.0625V16.4062H67.2656V58.2422H37.1875V32.2656C37.1875 31.5105 36.5755 30.8984 35.8203 30.8984H22.6953V16.4062ZM34.4531 33.6328V58.2422H2.73438V33.6328H34.4531Z" fill="#E6E6E6"/>
<path d="M10.3906 41.8359V44.5703C10.3906 49.1023 14.0617 52.7734 18.5938 52.7734C23.1172 52.7734 26.7969 49.0938 26.7969 44.5703V41.8359C27.552 41.8359 28.1641 41.2239 28.1641 40.4688C28.1641 39.7136 27.552 39.1016 26.7969 39.1016H24.0625C23.3073 39.1016 22.6953 39.7136 22.6953 40.4688C22.6953 41.2239 23.3073 41.8359 24.0625 41.8359V44.5703C24.0625 47.5856 21.609 50.0391 18.5938 50.0391C15.5731 50.0391 13.125 47.5909 13.125 44.5703V41.8359C13.8802 41.8359 14.4922 41.2239 14.4922 40.4688C14.4922 39.7136 13.8802 39.1016 13.125 39.1016H10.3906C9.63547 39.1016 9.02344 39.7136 9.02344 40.4688C9.02344 41.2239 9.63547 41.8359 10.3906 41.8359Z" fill="#E6E6E6"/>
<path d="M63.1641 47.3047C63.9192 47.3047 64.5312 46.6927 64.5312 45.9375V35C64.5312 34.2448 63.9192 33.6328 63.1641 33.6328C62.4089 33.6328 61.7969 34.2448 61.7969 35V45.9375C61.7969 46.6927 62.4089 47.3047 63.1641 47.3047Z" fill="#E6E6E6"/>
</svg>
