<svg width="26" height="26" viewBox="0 0 26 26" fill="none" xmlns="http://www.w3.org/2000/svg">
<g clip-path="url(#clip0)">
<path d="M25.255 18.9582L14.5403 11.6227C14.4732 11.2555 14.21 10.9489 13.9068 10.7872V9.1212C14.5738 8.59078 15.0169 7.77072 15.0169 6.84952C15.0169 5.25126 13.7192 3.95142 12.1212 3.95142C10.5233 3.95142 9.22484 5.25126 9.22484 6.84922C9.22484 7.0551 9.24867 7.25533 9.29052 7.44878C9.21132 7.57127 9.16511 7.71687 9.16511 7.87363C9.16511 8.30673 9.51634 8.65785 9.94944 8.65785C10.3825 8.65785 10.7337 8.30673 10.7337 7.87363C10.7337 7.59395 10.5869 7.34915 10.3665 7.21034C10.342 7.09379 10.3285 6.97335 10.3285 6.84958C10.3285 5.85968 11.1338 5.05466 12.1234 5.05466C13.1129 5.05466 13.9183 5.85974 13.9183 6.84958C13.9183 7.56891 13.4812 8.18885 12.8691 8.47507C12.5676 8.57883 12.512 9.1078 12.7545 9.36947V10.8414C12.512 11.0134 12.2913 11.2961 12.2322 11.6279L0.789834 18.9272C0.135152 19.345 -0.144889 20.0859 0.0726915 20.8316C0.290272 21.5772 0.935252 22.0485 1.71188 22.0485H24.2914C25.0548 22.0485 25.6941 21.5877 25.9198 20.8586C26.1457 20.129 25.8847 19.3895 25.255 18.9582ZM10.1808 20.9569L11.139 19.9867H15.5685L16.4829 20.9569H10.1808ZM24.8664 20.5376C24.8358 20.6373 24.7033 20.9569 24.2914 20.9569H17.9944C17.969 20.8963 17.9272 20.8098 17.8675 20.746L16.2432 19.013C16.1336 18.896 15.9804 18.8345 15.8199 18.8345H10.8951C10.7396 18.8345 10.5901 18.8946 10.4811 19.0059L8.77919 20.7378C8.71479 20.8036 8.66991 20.8963 8.64317 20.9569H1.71188C1.29297 20.9569 1.16381 20.6301 1.13397 20.5284C1.10414 20.4267 1.03489 20.08 1.38806 19.8546L12.6106 12.7001C12.8181 12.8879 13.0925 13.0038 13.3944 13.0038C13.6942 13.0038 13.9668 12.8904 14.1739 12.705L24.6318 19.8653C24.9714 20.0979 24.8972 20.4383 24.8664 20.5376Z" fill="#404040"/>
</g>
<defs>
<clipPath id="clip0">
<rect width="26" height="26" fill="white"/>
</clipPath>
</defs>
</svg>
