<svg width="26" height="26" viewBox="0 0 26 26" fill="none" xmlns="http://www.w3.org/2000/svg">
<path d="M15.0527 13C15.3245 12.41 15.4843 11.7595 15.5077 11.0739C16.593 9.92781 17.1935 8.43826 17.1935 6.85352V5.03226C17.1935 3.97045 16.3997 3.08981 15.3744 2.95394C14.4946 1.15113 12.6662 0 10.6449 0H9.93913C8.57539 0 7.23094 0.46129 6.15403 1.29874C4.64142 2.47503 3.77419 4.2489 3.77419 6.16494V6.85352C3.77419 8.43826 4.37471 9.92781 5.46042 11.0739C5.51494 12.6821 6.32471 14.0991 7.54839 14.9823V16.0185L4.26903 16.7469C1.75542 17.3059 0 19.4937 0 22.069V26H14.2581H14.6774H26V13H15.0527ZM5.45161 7.96774V9.71352C4.90771 8.86726 4.6129 7.88345 4.6129 6.85352V6.16494C4.6129 4.50932 5.36229 2.97658 6.669 1.96048C7.59955 1.2371 8.76116 0.83871 9.93913 0.83871H10.6449C12.4171 0.83871 14.0132 1.89129 14.7114 3.52006L14.8204 3.77419H15.0968C15.7904 3.77419 16.3548 4.33864 16.3548 5.03226V6.85352C16.3548 7.88345 16.06 8.86726 15.5161 9.71352V6.29032H14.5969L14.4522 6.34819C11.7658 7.42258 8.93645 7.96774 6.04206 7.96774H5.45161ZM4.19355 23.4839V25.1613H0.83871V22.069C0.83871 19.8904 2.32406 18.0385 4.45061 17.5664L5.45161 17.3437V23.4839H5.03226H4.6129H4.19355ZM14.2581 25.1613H5.03226V24.3226H6.29032V17.1571L7.54839 16.8774V24.3226H13.4194V16.8774L14.2581 17.064V25.1613ZM10.4839 19.7097C11.305 19.7097 12.0472 19.37 12.5806 18.8244V23.4839H8.3871V18.8244C8.92052 19.37 9.66277 19.7097 10.4839 19.7097ZM8.3871 16.7742V16.6912V16.3548V15.4721C9.02619 15.7665 9.7349 15.9355 10.4839 15.9355C11.2328 15.9355 11.9415 15.7665 12.5806 15.4721V16.3548V16.6912V16.7742C12.5806 17.9304 11.64 18.871 10.4839 18.871C9.32771 18.871 8.3871 17.9304 8.3871 16.7742ZM14.2581 16.2047L13.4194 16.0185V14.9823C13.7272 14.7605 14.0081 14.5051 14.2581 14.2207V16.2047ZM14.6774 10.9032C14.6774 13.2155 12.7962 15.0968 10.4839 15.0968C8.17155 15.0968 6.29032 13.2155 6.29032 10.9032V8.80519C9.17423 8.77542 11.9944 8.22229 14.6774 7.1609V10.9032ZM19.2903 13.8387H20.9677V17.1935H19.2903V13.8387ZM25.1613 25.1613H15.0968V13.8387H18.4516V18.0323H21.8065V13.8387H25.1613V25.1613Z" fill="#404040"/>
<path d="M24.3226 23.4839H23.4839V24.3226H24.3226V23.4839Z" fill="#404040"/>
<path d="M22.645 23.4839H20.1289V24.3226H22.645V23.4839Z" fill="#404040"/>
<path d="M24.3225 21.8064H20.1289V22.6451H24.3225V21.8064Z" fill="#404040"/>
</svg>
