<svg width="70" height="70" viewBox="0 0 70 70" fill="none" xmlns="http://www.w3.org/2000/svg">
<g clip-path="url(#clip0)">
<path d="M15.8594 56.3281C13.5976 56.3281 11.7578 58.168 11.7578 60.4297C11.7578 62.6914 13.5976 64.5312 15.8594 64.5312C18.1211 64.5312 19.9609 62.6914 19.9609 60.4297C19.9609 58.168 18.1211 56.3281 15.8594 56.3281ZM15.8594 61.7969C15.1053 61.7969 14.4922 61.1838 14.4922 60.4297C14.4922 59.6756 15.1053 59.0625 15.8594 59.0625C16.6135 59.0625 17.2266 59.6756 17.2266 60.4297C17.2266 61.1838 16.6135 61.7969 15.8594 61.7969Z" fill="#E6E6E6"/>
<path d="M65.8984 56.3281H63.7109V26.7969C63.7109 26.0417 63.0989 25.4297 62.3438 25.4297H55.5078V6.83594C55.5078 6.08078 54.8958 5.46875 54.1406 5.46875C48.3803 5.46875 32.1433 5.46875 26.7969 5.46875C26.0417 5.46875 25.4297 6.08078 25.4297 6.83594V56.3281H24.5074C23.5616 54.327 21.9626 52.728 19.9609 51.7817V4.10156C19.9609 1.83983 18.1211 0 15.8594 0H4.10156C1.83983 0 0 1.83983 0 4.10156C0 6.3633 1.83983 8.20312 4.10156 8.20312H11.7578V51.7817C8.45093 53.3518 6.28906 56.7121 6.28906 60.4297C6.28906 65.7067 10.5824 70 15.8594 70C19.577 70 22.9372 67.8381 24.5074 64.5312H65.8984C68.1602 64.5312 70 62.6914 70 60.4297C70 58.168 68.1602 56.3281 65.8984 56.3281ZM60.9766 56.3281H28.1641V28.1641H37.7344V42.6562C37.7344 43.1743 38.027 43.6475 38.4901 43.8792C38.9531 44.111 39.5074 44.0608 39.9219 43.75L44.5703 40.2637L49.2188 43.75C49.6337 44.0614 50.1881 44.1105 50.6506 43.8792C51.1136 43.6475 51.4062 43.1743 51.4062 42.6562V28.1641H60.9766V56.3281ZM40.4688 28.1641H48.6719V39.9219L45.3906 37.4609C45.1476 37.2788 44.8587 37.1875 44.5703 37.1875C44.2819 37.1875 43.993 37.2788 43.75 37.4609L40.4688 39.9219V28.1641ZM37.7344 8.20312H43.2031V16.0388L41.2271 14.7218C40.9975 14.5686 40.7331 14.4922 40.4688 14.4922C40.2044 14.4922 39.94 14.5686 39.7104 14.7218L37.7344 16.0388V8.20312ZM35 8.20312V18.5938C35 19.0979 35.2777 19.5609 35.722 19.7991C36.1669 20.0373 36.7063 20.0106 37.1255 19.7313L40.4688 17.5027L43.812 19.7313C44.2317 20.0111 44.7717 20.0368 45.2155 19.7991C45.6598 19.5615 45.9375 19.0979 45.9375 18.5938V8.20312H52.7734V25.4297C45.2256 25.4297 35.6168 25.4297 28.1641 25.4297V8.20312H35ZM4.10156 5.46875C3.34747 5.46875 2.73438 4.85565 2.73438 4.10156C2.73438 3.34747 3.34747 2.73438 4.10156 2.73438H15.8594C16.6135 2.73438 17.2266 3.34747 17.2266 4.10156V50.9582C16.7758 50.8936 16.3197 50.8594 15.8594 50.8594C15.399 50.8594 14.9429 50.8936 14.4922 50.9582V6.83594C14.4922 6.08078 13.8802 5.46875 13.125 5.46875H4.10156ZM15.8594 67.2656C12.09 67.2656 9.02344 64.1991 9.02344 60.4297C9.02344 56.7009 12.0398 53.5938 15.8594 53.5938C19.6779 53.5938 22.6953 56.7041 22.6953 60.4297C22.6953 64.2493 19.5882 67.2656 15.8594 67.2656ZM65.8984 61.7969H25.3309C25.3955 61.3461 25.4297 60.89 25.4297 60.4297C25.4297 59.9693 25.395 59.5132 25.3309 59.0625H65.8984C66.6525 59.0625 67.2656 59.6756 67.2656 60.4297C67.2656 61.1838 66.6525 61.7969 65.8984 61.7969Z" fill="#E6E6E6"/>
<path d="M56.875 53.5938C57.6302 53.5938 58.2422 52.9817 58.2422 52.2266V49.4922C58.2422 48.737 57.6302 48.125 56.875 48.125C56.1198 48.125 55.5078 48.737 55.5078 49.4922V52.2266C55.5078 52.9817 56.1198 53.5938 56.875 53.5938Z" fill="#E6E6E6"/>
<path d="M56.875 42.6562C57.6296 42.6562 58.2422 43.2688 58.2422 44.0234C58.2422 44.7781 57.6296 45.3906 56.875 45.3906C56.1204 45.3906 55.5078 44.7781 55.5078 44.0234C55.5078 43.2688 56.1204 42.6562 56.875 42.6562Z" fill="#E6E6E6"/>
<path d="M51.4062 48.125C50.6511 48.125 50.0391 48.737 50.0391 49.4922V52.2266C50.0391 52.9817 50.6511 53.5938 51.4062 53.5938C52.1614 53.5938 52.7734 52.9817 52.7734 52.2266V49.4922C52.7734 48.737 52.1614 48.125 51.4062 48.125Z" fill="#E6E6E6"/>
</g>
<defs>
<clipPath id="clip0">
<rect width="70" height="70" fill="white"/>
</clipPath>
</defs>
</svg>
