<svg width="26" height="26" viewBox="0 0 26 26" fill="none" xmlns="http://www.w3.org/2000/svg">
<g clip-path="url(#clip0)">
<path d="M4.33324 21.0166C4.57256 21.0166 4.76657 20.8226 4.76657 20.5832C4.76657 20.3439 4.57256 20.1499 4.33324 20.1499C4.09391 20.1499 3.8999 20.3439 3.8999 20.5832C3.8999 20.8226 4.09391 21.0166 4.33324 21.0166Z" fill="#404040"/>
<path d="M21.6667 21.0166C21.906 21.0166 22.1001 20.8226 22.1001 20.5832C22.1001 20.3439 21.906 20.1499 21.6667 20.1499C21.4274 20.1499 21.2334 20.3439 21.2334 20.5832C21.2334 20.8226 21.4274 21.0166 21.6667 21.0166Z" fill="#404040"/>
<path d="M22.2733 5.50332C22.0271 5.17683 21.6423 4.9844 21.2333 4.98332H17.7667V4.11665C17.7667 3.39868 17.1846 2.81665 16.4667 2.81665H4.57687C3.9803 2.81652 3.4602 3.22244 3.31543 3.80118L3.12823 4.54998H2.16667C1.92734 4.54998 1.73333 4.74399 1.73333 4.98332C1.73333 5.22264 1.92734 5.41665 2.16667 5.41665H2.91157L0.961567 13.2167H0.433333C0.19401 13.2167 0 13.4107 0 13.65C0 13.8893 0.19401 14.0833 0.433333 14.0833H0.7449L0.013 17.0114C0.0121338 17.0265 0.0121338 17.0417 0.013 17.0569C0.00712752 17.0764 0.00278116 17.0964 0 17.1167V18.4167C0 19.1346 0.58203 19.7167 1.3 19.7167H1.885C1.56325 20.612 1.76155 21.6119 2.40067 22.3167H2.16667C1.92734 22.3167 1.73333 22.5107 1.73333 22.75C1.73333 22.9893 1.92734 23.1833 2.16667 23.1833H25.5667C25.806 23.1833 26 22.9893 26 22.75C26 22.5107 25.806 22.3167 25.5667 22.3167H23.5993C24.2385 21.6119 24.4368 20.612 24.115 19.7167H24.7C25.418 19.7167 26 19.1346 26 18.4167V10.9057C25.9996 10.6245 25.9084 10.3509 25.74 10.1257L22.2733 5.50332ZM25.1333 14.95H24.2667V14.0833H25.1333V14.95ZM21.2333 5.84998C21.3697 5.84998 21.4982 5.9142 21.58 6.02332L25.0467 10.6457C25.1028 10.7208 25.1331 10.812 25.1333 10.9057V13.2167H24.2667C23.788 13.2167 23.4 13.6047 23.4 14.0833V14.95C23.4 15.4286 23.788 15.8167 24.2667 15.8167H25.1333V16.6833H17.7667V5.84998H21.2333ZM5.2 14.0833C5.43932 14.0833 5.63333 13.8893 5.63333 13.65C5.63333 13.4107 5.43932 13.2167 5.2 13.2167H1.8551L3.8051 5.41665H6.93333C7.17266 5.41665 7.36667 5.22264 7.36667 4.98332C7.36667 4.74399 7.17266 4.54998 6.93333 4.54998H4.02177L4.1561 4.01178C4.20427 3.81865 4.37782 3.68317 4.57687 3.68332H16.4667C16.706 3.68332 16.9 3.87733 16.9 4.11665V16.6833H0.988433L1.63843 14.0833H5.2ZM2.6 20.5833C2.6 19.626 3.37604 18.85 4.33333 18.85C5.29063 18.85 6.06667 19.626 6.06667 20.5833C6.06667 21.5406 5.29063 22.3167 4.33333 22.3167C3.87362 22.3167 3.43274 22.134 3.10768 21.809C2.78262 21.4839 2.6 21.043 2.6 20.5833ZM6.266 22.3167C6.90512 21.6119 7.10342 20.612 6.78167 19.7167H19.2183C18.8966 20.612 19.0949 21.6119 19.734 22.3167H6.266ZM19.9333 20.5833C19.9333 19.626 20.7094 18.85 21.6667 18.85C22.624 18.85 23.4 19.626 23.4 20.5833C23.4 21.5406 22.624 22.3167 21.6667 22.3167C20.7094 22.3167 19.9333 21.5406 19.9333 20.5833ZM25.1333 18.4167C25.1333 18.656 24.9393 18.85 24.7 18.85H23.5993C23.1082 18.2987 22.405 17.9833 21.6667 17.9833C20.9283 17.9833 20.2251 18.2987 19.734 18.85H6.266C5.77488 18.2987 5.07168 17.9833 4.33333 17.9833C3.59499 17.9833 2.89179 18.2987 2.40067 18.85H1.3C1.06068 18.85 0.866667 18.656 0.866667 18.4167V17.55H25.1333V18.4167Z" fill="#404040"/>
<path d="M19.5 12.3499H23.4C23.8786 12.3499 24.2666 11.9619 24.2666 11.4832V11.3389C24.2664 11.1514 24.2056 10.969 24.0933 10.8189L21.2766 7.06322C21.1126 6.84547 20.8559 6.71716 20.5833 6.71655H19.5C19.0213 6.71655 18.6333 7.10457 18.6333 7.58322V11.4832C18.6333 11.9619 19.0213 12.3499 19.5 12.3499ZM19.5 7.58322H20.5833L23.4 11.3389V11.4832H19.5V7.58322Z" fill="#404040"/>
<path d="M19.9333 13.2167H19.0666C18.8273 13.2167 18.6333 13.4107 18.6333 13.65C18.6333 13.8893 18.8273 14.0833 19.0666 14.0833H19.9333C20.1726 14.0833 20.3666 13.8893 20.3666 13.65C20.3666 13.4107 20.1726 13.2167 19.9333 13.2167Z" fill="#404040"/>
<path d="M0.433333 5.41672C0.672657 5.41672 0.866667 5.22271 0.866667 4.98338C0.866667 4.74406 0.672657 4.55005 0.433333 4.55005C0.19401 4.55005 0 4.74406 0 4.98338C0 5.22271 0.19401 5.41672 0.433333 5.41672Z" fill="#404040"/>
<path d="M8.66673 5.41672H10.8334C11.0727 5.41672 11.2667 5.22271 11.2667 4.98338C11.2667 4.74406 11.0727 4.55005 10.8334 4.55005H8.66673C8.42741 4.55005 8.2334 4.74406 8.2334 4.98338C8.2334 5.22271 8.42741 5.41672 8.66673 5.41672Z" fill="#404040"/>
<path d="M13.4333 14.0833C13.6726 14.0833 13.8667 13.8893 13.8667 13.65C13.8667 13.4107 13.6726 13.2167 13.4333 13.2167C13.194 13.2167 13 13.4107 13 13.65C13 13.8893 13.194 14.0833 13.4333 14.0833Z" fill="#404040"/>
<path d="M6.93333 14.0833H11.7C11.9393 14.0833 12.1333 13.8893 12.1333 13.65C12.1333 13.4107 11.9393 13.2167 11.7 13.2167H6.93333C6.69401 13.2167 6.5 13.4107 6.5 13.65C6.5 13.8893 6.69401 14.0833 6.93333 14.0833Z" fill="#404040"/>
<path d="M0.866667 22.3167H0.433333C0.19401 22.3167 0 22.5107 0 22.75C0 22.9893 0.19401 23.1833 0.433333 23.1833H0.866667C1.10599 23.1833 1.3 22.9893 1.3 22.75C1.3 22.5107 1.10599 22.3167 0.866667 22.3167Z" fill="#404040"/>
<path d="M11.7865 12.1767C11.9301 12.3681 12.2017 12.4069 12.3932 12.2633C12.5846 12.1198 12.6234 11.8481 12.4798 11.6567L8.57983 6.45668C8.43624 6.26523 8.16462 6.22642 7.97316 6.37002C7.7817 6.51361 7.7429 6.78523 7.8865 6.97668L11.7865 12.1767Z" fill="#404040"/>
<path d="M8.23335 12.35C8.95131 12.35 9.53334 11.768 9.53334 11.05C9.53334 10.332 8.95131 9.75 8.23335 9.75C7.51538 9.75 6.93335 10.332 6.93335 11.05C6.93335 11.768 7.51538 12.35 8.23335 12.35ZM8.23335 10.6167C8.47267 10.6167 8.66668 10.8107 8.66668 11.05C8.66668 11.2893 8.47267 11.4833 8.23335 11.4833C7.99402 11.4833 7.80001 11.2893 7.80001 11.05C7.80001 10.8107 7.99402 10.6167 8.23335 10.6167Z" fill="#404040"/>
<path d="M10.8335 7.58332C10.8335 8.30129 11.4155 8.88332 12.1335 8.88332C12.8515 8.88332 13.4335 8.30129 13.4335 7.58332C13.4335 6.86535 12.8515 6.28333 12.1335 6.28333C11.4155 6.28333 10.8335 6.86535 10.8335 7.58332ZM12.1335 7.14999C12.3728 7.14999 12.5668 7.344 12.5668 7.58332C12.5668 7.82264 12.3728 8.01665 12.1335 8.01665C11.8942 8.01665 11.7002 7.82264 11.7002 7.58332C11.7002 7.344 11.8942 7.14999 12.1335 7.14999Z" fill="#404040"/>
<path d="M9.9668 15.3833C9.9668 15.6226 10.1608 15.8166 10.4001 15.8166H16.0335C16.2728 15.8166 16.4668 15.6226 16.4668 15.3833C16.4668 15.144 16.2728 14.95 16.0335 14.95H10.4001C10.1608 14.95 9.9668 15.144 9.9668 15.3833Z" fill="#404040"/>
<path d="M8.6667 14.95H7.80003C7.56071 14.95 7.3667 15.144 7.3667 15.3833C7.3667 15.6226 7.56071 15.8166 7.80003 15.8166H8.6667C8.90603 15.8166 9.10004 15.6226 9.10004 15.3833C9.10004 15.144 8.90603 14.95 8.6667 14.95Z" fill="#404040"/>
</g>
<defs>
<clipPath id="clip0">
<rect width="26" height="26" fill="white"/>
</clipPath>
</defs>
</svg>
