<svg width="91" height="27" viewBox="0 0 91 27" fill="none" xmlns="http://www.w3.org/2000/svg">
<path d="M87.75 0H3.25C1.45507 0 0 1.4506 0 3.24V23.76C0 25.5494 1.45507 27 3.25 27H87.75C89.5449 27 91 25.5494 91 23.76V3.24C91 1.4506 89.5449 0 87.75 0Z" fill="#222222"/>
<path fill-rule="evenodd" clip-rule="evenodd" d="M7.58334 12.9599V6.4799C7.58334 5.74606 7.92961 5.3999 8.66668 5.3999C8.62216 5.3999 8.76066 5.46913 8.66668 5.3999L22.75 12.9599C22.6115 13.0845 22.75 13.2922 22.75 14.0399C22.75 13.7076 22.6115 13.9153 22.75 14.0399L8.66668 21.5999C8.82992 21.4614 8.62216 21.5999 8.66668 21.5999C7.92961 21.5999 7.58334 21.2537 7.58334 20.5199V12.9599Z" fill="url(#paint0_linear)"/>
<path fill-rule="evenodd" clip-rule="evenodd" d="M15.8923 13.8344L7.73703 5.82129H7.87644C8.22495 5.82129 8.36436 5.88978 8.57346 6.02675L18.4713 11.3688L15.8923 13.8344Z" fill="url(#paint1_linear)"/>
<path fill-rule="evenodd" clip-rule="evenodd" d="M18.4016 16.2315L15.8923 13.766L18.4713 11.2319L22.0261 13.1496C22.3049 13.2866 22.4443 13.492 22.4443 13.6975C22.4443 13.903 22.3049 14.1084 22.0261 14.2454L18.4016 16.2315Z" fill="url(#paint2_linear)"/>
<path fill-rule="evenodd" clip-rule="evenodd" d="M7.80673 21.7107L15.8923 13.7661L18.4016 16.2317L8.57346 21.5052C8.36435 21.6422 8.22495 21.7107 7.80673 21.7107Z" fill="url(#paint3_linear)"/>
<path fill-rule="evenodd" clip-rule="evenodd" d="M49.9072 19.2397C49.5587 18.9657 49.2799 18.4863 49.1405 18.2123L50.2558 17.7329C50.3255 17.8699 50.4649 18.0754 50.6043 18.2808C50.8831 18.5548 51.3013 18.8287 51.7195 18.8287C52.1377 18.8287 52.6257 18.6233 52.9045 18.2808C53.1136 17.9384 53.253 17.596 53.253 17.1165V16.7056C52.4165 17.7329 50.674 17.596 49.6981 16.5001C48.6526 15.4043 48.6526 13.5552 49.6981 12.4594C50.7437 11.432 52.2771 11.2951 53.1833 12.2539V11.7745H54.3682V16.9111C54.3682 18.2123 53.8803 18.9657 53.253 19.4451C52.8348 19.7876 52.2074 19.9245 51.6498 19.9245C51.0225 19.856 50.3952 19.6506 49.9072 19.2397ZM79.1127 19.5136L80.2977 16.7741L78.2066 12.0484H79.3915L80.8553 15.4043L82.3191 12.0484H83.504L80.2977 19.5136H79.1127ZM73.4668 16.9111C73.1183 16.5686 72.9789 16.0892 72.9789 15.6098C72.9789 15.1989 73.1183 14.788 73.3971 14.514C73.885 14.0346 74.582 13.8291 75.3488 13.8291C75.8367 13.8291 76.2549 13.8976 76.6034 14.1031C76.6034 13.2812 75.9064 12.9388 75.3488 12.9388C74.8609 12.9388 74.3729 13.2127 74.1638 13.6921L73.1183 13.2812C73.3274 12.8018 73.885 11.9115 75.2791 11.9115C75.9761 11.9115 76.6731 12.1169 77.0914 12.5963C77.5096 13.0758 77.649 13.6237 77.649 14.377V17.2535H76.464V16.7741C76.3246 16.9796 76.0458 17.1165 75.8367 17.2535C75.5579 17.3905 75.2094 17.459 74.8609 17.459C74.4426 17.3905 73.8153 17.2535 73.4668 16.9111ZM36.3152 14.4455C36.3152 13.0758 37.3607 11.569 39.2427 11.569C41.055 11.569 42.1702 13.0758 42.1702 14.4455C42.1702 15.8153 41.1247 17.322 39.2427 17.322C37.3607 17.322 36.3152 15.8153 36.3152 14.4455ZM42.5884 14.4455C42.5884 13.0758 43.634 11.569 45.516 11.569C47.3282 11.569 48.4435 13.0758 48.4435 14.4455C48.4435 15.8153 47.3979 17.322 45.516 17.322C43.7037 17.322 42.5884 15.8153 42.5884 14.4455ZM28.4388 15.9522C26.6962 14.24 26.7659 11.432 28.5085 9.65137C29.4146 8.76102 30.5299 8.3501 31.7148 8.3501C32.83 8.3501 33.9453 8.76102 34.7817 9.58288L33.9453 10.4732C32.6906 9.24044 30.6693 9.30893 29.4843 10.5417C28.2297 11.843 28.2297 13.8291 29.4843 15.1304C30.739 16.4317 32.83 16.5001 34.0847 15.1989C34.5029 14.788 34.6423 14.24 34.712 13.6921H31.7845V12.4594H35.897C35.9667 12.7333 35.9667 13.0758 35.9667 13.4182C35.9667 14.4455 35.5485 15.4728 34.8514 16.1577C34.0847 16.9111 32.9695 17.322 31.8542 17.322C30.5996 17.2535 29.3449 16.8426 28.4388 15.9522ZM57.9231 16.4317C56.8775 15.3359 56.8775 13.4867 57.9231 12.3224C58.9686 11.2266 60.7112 11.2266 61.687 12.3224C62.0355 12.6648 62.2446 13.1442 62.4538 13.6237L58.6201 15.1989C58.8292 15.6783 59.3171 16.0892 60.0142 16.0892C60.6415 16.0892 61.0597 15.8838 61.4779 15.2674L62.5235 15.9522C62.3841 16.0892 62.2446 16.2262 62.1749 16.3632C60.99 17.5275 58.9686 17.5275 57.9231 16.4317ZM65.1722 17.2535V9.65137H67.6815C69.1452 9.65137 70.3302 10.6787 70.3302 11.9115C70.3302 13.1442 69.2846 14.1716 67.9603 14.1716H66.4268V17.185H65.1722V17.2535ZM71.0272 17.2535V9.65137H72.2122V17.2535H71.0272ZM55.2744 17.1165V8.62405H56.529V17.1165H55.2744ZM76.5337 14.9934C76.2549 14.788 75.8367 14.7195 75.4185 14.7195C74.5821 14.7195 74.0941 15.1304 74.0941 15.6098C74.0941 16.0892 74.582 16.3632 75.07 16.3632C75.767 16.3632 76.5337 15.8153 76.5337 14.9934ZM40.8459 14.4455C40.8459 13.6237 40.2882 12.7333 39.2427 12.7333C38.1972 12.7333 37.6395 13.6237 37.6395 14.4455C37.6395 15.2674 38.1972 16.1577 39.2427 16.1577C40.2185 16.1577 40.8459 15.2674 40.8459 14.4455ZM47.1191 14.4455C47.1191 13.6237 46.5615 12.7333 45.516 12.7333C44.4704 12.7333 43.9128 13.6237 43.9128 14.4455C43.9128 15.2674 44.4704 16.1577 45.516 16.1577C46.5615 16.1577 47.1191 15.2674 47.1191 14.4455ZM53.3227 14.9249C53.3227 14.8564 53.3227 14.788 53.3924 14.7195V14.4455V14.1716V14.1031C53.3924 14.0346 53.3227 13.8976 53.3227 13.8291C53.1136 13.1442 52.4862 12.6648 51.8589 12.6648C51.0225 12.6648 50.3255 13.4867 50.3255 14.377C50.3255 15.3359 51.0225 16.0892 51.9286 16.0892C52.4862 16.1577 53.0439 15.6783 53.3227 14.9249ZM58.411 14.3085L60.99 13.2127C60.7112 12.7333 60.293 12.5963 59.9444 12.5963C58.8989 12.6648 58.2716 13.7606 58.411 14.3085ZM69.0755 11.98C69.0755 11.2951 68.5179 10.8157 67.7512 10.8157H66.3571V13.2127H67.8209C68.5179 13.2127 69.0755 12.6648 69.0755 11.98Z" fill="white"/>
<defs>
<linearGradient id="paint0_linear" x1="12.0623" y1="4.41239" x2="16.4464" y2="20.1882" gradientUnits="userSpaceOnUse">
<stop stop-color="#006884"/>
<stop offset="1" stop-color="#8AD1D0"/>
</linearGradient>
<linearGradient id="paint1_linear" x1="6.92897" y1="7.08407" x2="15.3215" y2="15.0839" gradientUnits="userSpaceOnUse">
<stop stop-color="#24BBB6"/>
<stop offset="1" stop-color="#DBE692"/>
</linearGradient>
<linearGradient id="paint2_linear" x1="19.1644" y1="16.5193" x2="19.1644" y2="11.0756" gradientUnits="userSpaceOnUse">
<stop stop-color="#FCC072"/>
<stop offset="1" stop-color="#F58A5B"/>
</linearGradient>
<linearGradient id="paint3_linear" x1="8.98799" y1="23.1278" x2="14.5947" y2="13.1567" gradientUnits="userSpaceOnUse">
<stop stop-color="#712B8F"/>
<stop offset="1" stop-color="#EA1D27"/>
</linearGradient>
</defs>
</svg>
