<svg width="18" height="18" viewBox="0 0 18 18" fill="none" xmlns="http://www.w3.org/2000/svg">
<path d="M17.8433 17.082L13.469 12.7078C14.6424 11.3588 15.3528 9.59867 15.3528 7.67494C15.3528 3.44035 11.9085 0 7.67787 0C3.44328 0 0.00292969 3.44435 0.00292969 7.67494C0.00292969 11.9055 3.44728 15.3499 7.67787 15.3499C9.6016 15.3499 11.3617 14.6395 12.7107 13.4661L17.085 17.8404C17.1887 17.9441 17.3284 18 17.4641 18C17.5998 18 17.7395 17.9481 17.8433 17.8404C18.0508 17.6328 18.0508 17.2896 17.8433 17.082ZM1.07654 7.67494C1.07654 4.03503 4.03796 1.07761 7.67388 1.07761C11.3138 1.07761 14.2712 4.03902 14.2712 7.67494C14.2712 11.3109 11.3138 14.2763 7.67388 14.2763C4.03796 14.2763 1.07654 11.3149 1.07654 7.67494Z" fill="#9F9F9F"/>
</svg>
