<svg width="16" height="16" viewBox="0 0 16 16" fill="none" xmlns="http://www.w3.org/2000/svg">
<path d="M12.6446 9.91176C12.3171 9.57069 11.922 9.38834 11.5032 9.38834C11.0879 9.38834 10.6894 9.56731 10.3483 9.90838L9.28123 10.9721C9.19343 10.9248 9.10564 10.8809 9.02121 10.837C8.89964 10.7762 8.78483 10.7188 8.6869 10.6581C7.68733 10.0232 6.77894 9.19585 5.9077 8.12537C5.48559 7.59181 5.20193 7.14268 4.99594 6.6868C5.27284 6.43353 5.52949 6.17013 5.77938 5.91686C5.87393 5.82231 5.96849 5.72438 6.06304 5.62983C6.77219 4.92067 6.77219 4.00215 6.06304 3.293L5.14114 2.3711C5.03646 2.26642 4.9284 2.15836 4.82709 2.05029C4.62448 1.84093 4.41173 1.6248 4.19223 1.42219C3.86467 1.098 3.47295 0.925781 3.06097 0.925781C2.64898 0.925781 2.25051 1.098 1.91282 1.42219C1.90944 1.42556 1.90944 1.42556 1.90606 1.42894L0.757915 2.58722C0.325671 3.01947 0.0791565 3.54627 0.025126 4.15749C-0.0559199 5.14355 0.234494 6.06207 0.45737 6.66316C1.00443 8.13888 1.82164 9.50653 3.04071 10.9721C4.51979 12.7382 6.29942 14.1329 8.33232 15.1156C9.10901 15.4837 10.1457 15.9193 11.304 15.9936C11.3749 15.997 11.4492 16.0003 11.5167 16.0003C12.2968 16.0003 12.9519 15.7201 13.4652 15.1629C13.4686 15.1561 13.4754 15.1527 13.4787 15.146C13.6543 14.9332 13.8569 14.7407 14.0697 14.5348C14.2149 14.3963 14.3635 14.2511 14.5087 14.0991C14.843 13.7513 15.0186 13.3461 15.0186 12.9307C15.0186 12.512 14.8396 12.1101 14.4986 11.7724L12.6446 9.91176ZM13.8536 13.4677C13.8502 13.4677 13.8502 13.471 13.8536 13.4677C13.7219 13.6095 13.5868 13.7378 13.4416 13.8796C13.2221 14.089 12.9992 14.3085 12.7898 14.555C12.4488 14.9197 12.0469 15.0919 11.5201 15.0919C11.4695 15.0919 11.4154 15.0919 11.3648 15.0886C10.3618 15.0244 9.42982 14.6327 8.7308 14.2984C6.81947 13.3731 5.14114 12.0595 3.74648 10.3947C2.59495 9.00674 1.82502 7.72351 1.31511 6.34573C1.00105 5.50488 0.886238 4.84976 0.936891 4.23178C0.970661 3.83668 1.12262 3.50912 1.4029 3.22884L2.55443 2.07731C2.7199 1.92197 2.8955 1.83755 3.06772 1.83755C3.28047 1.83755 3.45269 1.96587 3.56075 2.07393C3.56413 2.07731 3.5675 2.08069 3.57088 2.08406C3.77687 2.27655 3.97273 2.47579 4.17872 2.68853C4.28341 2.79659 4.39147 2.90465 4.49953 3.01609L5.42143 3.93799C5.77938 4.29594 5.77938 4.62688 5.42143 4.98484C5.3235 5.08277 5.22894 5.1807 5.13101 5.27525C4.84735 5.56566 4.5772 5.83582 4.28341 6.09922C4.27666 6.10597 4.2699 6.10935 4.26652 6.1161C3.97611 6.40652 4.03014 6.69018 4.09092 6.88266C4.0943 6.89279 4.09768 6.90292 4.10106 6.91305C4.34082 7.49388 4.67851 8.04095 5.1918 8.69269L5.19517 8.69607C6.1272 9.84422 7.10988 10.7391 8.19387 11.4246C8.33232 11.5124 8.47415 11.5833 8.60923 11.6509C8.7308 11.7117 8.84561 11.7691 8.94354 11.8298C8.95705 11.8366 8.97056 11.8467 8.98407 11.8535C9.09888 11.9109 9.20694 11.9379 9.31838 11.9379C9.59866 11.9379 9.77426 11.7623 9.83167 11.7049L10.9866 10.55C11.1014 10.4352 11.2837 10.2967 11.4965 10.2967C11.7059 10.2967 11.8781 10.4284 11.9828 10.5432C11.9861 10.5466 11.9861 10.5466 11.9895 10.55L13.8502 12.4107C14.198 12.7551 14.198 13.1097 13.8536 13.4677Z" fill="#F2F2F2"/>
<path d="M8.64673 3.80475C9.53148 3.95334 10.3352 4.37207 10.9768 5.01369C11.6184 5.6553 12.0338 6.459 12.1857 7.34375C12.2229 7.56663 12.4154 7.72197 12.6348 7.72197C12.6619 7.72197 12.6855 7.71859 12.7125 7.71521C12.9624 7.67469 13.1279 7.43831 13.0874 7.18842C12.905 6.11793 12.3985 5.14201 11.6252 4.3687C10.8518 3.59538 9.87592 3.08885 8.80545 2.90649C8.55556 2.86597 8.32255 3.03144 8.27865 3.27795C8.23475 3.52447 8.39684 3.76423 8.64673 3.80475Z" fill="#F2F2F2"/>
<path d="M15.9814 7.05794C15.6808 5.29519 14.8501 3.69116 13.5737 2.41469C12.2972 1.13821 10.6931 0.307495 8.9304 0.00695018C8.68389 -0.0369496 8.45088 0.131896 8.40698 0.37841C8.36646 0.628302 8.53192 0.861308 8.78182 0.905208C10.3555 1.17198 11.7906 1.91828 12.932 3.0563C14.0734 4.1977 14.8164 5.63288 15.0831 7.20652C15.1203 7.4294 15.3128 7.58474 15.5323 7.58474C15.5593 7.58474 15.5829 7.58136 15.6099 7.57798C15.8564 7.54084 16.0253 7.30445 15.9814 7.05794Z" fill="#F2F2F2"/>
</svg>
