<?xml version="1.0" encoding="UTF-8"?>
<!DOCTYPE svg PUBLIC "-//W3C//DTD SVG 1.1//EN" "http://www.w3.org/Graphics/SVG/1.1/DTD/svg11.dtd">
<svg xmlns="http://www.w3.org/2000/svg">
    <symbol id="tw" viewBox="0 0 16 16">
        <path d="M16 3.039C15.405 3.3 14.771 3.473 14.11 3.557C14.79 3.151 15.309 2.513 15.553 1.744C14.919 2.122 14.219 2.389 13.473 2.538C12.871 1.897 12.013 1.5 11.077 1.5C9.261 1.5 7.799 2.974 7.799 4.781C7.799 5.041 7.821 5.291 7.875 5.529C5.148 5.396 2.735 4.089 1.114 2.098C0.831 2.589 0.665 3.151 0.665 3.756C0.665 4.892 1.25 5.899 2.122 6.482C1.595 6.472 1.078 6.319 0.64 6.078C0.64 6.088 0.64 6.101 0.64 6.114C0.64 7.708 1.777 9.032 3.268 9.337C3.001 9.41 2.71 9.445 2.408 9.445C2.198 9.445 1.986 9.433 1.787 9.389C2.212 10.688 3.418 11.643 4.852 11.674C3.736 12.547 2.319 13.073 0.785 13.073C0.516 13.073 0.258 13.061 0 13.028C1.453 13.965 3.175 14.5 5.032 14.5C11.068 14.5 14.368 9.5 14.368 5.166C14.368 5.021 14.363 4.881 14.356 4.742C15.007 4.28 15.554 3.703 16 3.039Z"/>
    </symbol>
    <symbol id="wt" viewBox="0 0 16 16">
        <path d="M8.002 0H7.998C3.587 0 0 3.588 0 8C0 9.75 0.564 11.372 1.523 12.689L0.526 15.661L3.601 14.678C4.866 15.516 6.375 16 8.002 16C12.413 16 16 12.411 16 8C16 3.589 12.413 0 8.002 0ZM12.657 11.297C12.464 11.842 11.698 12.294 11.087 12.426C10.669 12.515 10.123 12.586 8.285 11.824C5.934 10.85 4.42 8.461 4.302 8.306C4.189 8.151 3.352 7.041 3.352 5.893C3.352 4.745 3.935 4.186 4.17 3.946C4.363 3.749 4.682 3.659 4.988 3.659C5.087 3.659 5.176 3.664 5.256 3.668C5.491 3.678 5.609 3.692 5.764 4.063C5.957 4.528 6.427 5.676 6.483 5.794C6.54 5.912 6.597 6.072 6.517 6.227C6.442 6.387 6.376 6.458 6.258 6.594C6.14 6.73 6.028 6.834 5.91 6.98C5.802 7.107 5.68 7.243 5.816 7.478C5.952 7.708 6.422 8.475 7.114 9.091C8.007 9.886 8.731 10.14 8.99 10.248C9.183 10.328 9.413 10.309 9.554 10.159C9.733 9.966 9.954 9.646 10.179 9.331C10.339 9.105 10.541 9.077 10.753 9.157C10.969 9.232 12.112 9.797 12.347 9.914C12.582 10.032 12.737 10.088 12.794 10.187C12.85 10.286 12.85 10.751 12.657 11.297Z"/>
    </symbol>
    <symbol id="vk" viewBox="0 0 16 16">
        <path d="M15.8574 11.578C15.8144 11.506 15.5484 10.9279 14.2683 9.73986C12.9282 8.49576 13.1082 8.69778 14.7223 6.54662C15.7054 5.23652 16.0984 4.43646 15.9754 4.09444C15.8584 3.76841 15.1354 3.85442 15.1354 3.85442L12.7312 3.86842C12.7312 3.86842 12.5532 3.84442 12.4202 3.92342C12.2911 4.00143 12.2081 4.18144 12.2081 4.18144C12.2081 4.18144 11.8271 5.19552 11.3191 6.05758C10.248 7.87672 9.81896 7.97272 9.64394 7.85972C9.23691 7.5967 9.33892 6.80164 9.33892 6.2376C9.33892 4.47446 9.60594 3.73941 8.81788 3.5494C8.55586 3.48639 8.36385 3.44439 7.6948 3.43739C6.83673 3.42839 6.10968 3.44039 5.69865 3.6414C5.42463 3.77541 5.21361 4.07444 5.34262 4.09144C5.50163 4.11244 5.86166 4.18844 6.05268 4.44846C6.29969 4.78349 6.29069 5.53754 6.29069 5.53754C6.29069 5.53754 6.4327 7.6127 5.95967 7.87072C5.63464 8.04773 5.18961 7.6867 4.23454 6.03558C3.7455 5.19052 3.37548 4.25545 3.37548 4.25545C3.37548 4.25545 3.30447 4.08144 3.17746 3.98843C3.02345 3.87542 2.80743 3.83942 2.80743 3.83942L0.521262 3.85342C0.521262 3.85342 0.178237 3.86342 0.0522272 4.01243C-0.0597812 4.14544 0.0432265 4.41946 0.0432265 4.41946C0.0432265 4.41946 1.83336 8.60677 3.85951 10.7179C5.71865 12.6531 7.82881 12.5261 7.82881 12.5261H8.78488C8.78488 12.5261 9.0739 12.4941 9.22091 12.335C9.35692 12.189 9.35192 11.915 9.35192 11.915C9.35192 11.915 9.33292 10.6319 9.92897 10.4429C10.516 10.2569 11.2701 11.683 12.0691 12.232C12.6732 12.6471 13.1322 12.5561 13.1322 12.5561L15.2694 12.5261C15.2694 12.5261 16.3874 12.4571 15.8574 11.578Z"/>
    </symbol>
    <symbol id="tg" viewBox="0 0 16 16">
        <path d="M3.84985 9.11682L5.83984 14.0914L8.43054 11.5007L12.8724 15.0312L16 0.96875L0 7.6333L3.84985 9.11682ZM11.428 5.00342L6.53064 9.47034L5.92065 11.7693L4.79382 8.95166L11.428 5.00342Z"/>
    </symbol>
    <symbol id="ok" viewBox="0 0 16 16">
        <path d="M3.14732 8.58706C2.73865 9.3904 3.20265 9.7744 4.26132 10.4304C5.16131 10.9864 6.40465 11.1897 7.20331 11.2711C6.87598 11.5857 8.37598 10.1431 4.05598 14.2984C3.13998 15.1764 4.61465 16.5851 5.52998 15.7257L8.00798 13.3357C8.95664 14.2484 9.86597 15.1231 10.486 15.7291C11.402 16.5917 12.876 15.1951 11.97 14.3017C11.902 14.2371 8.61198 11.0811 8.81264 11.2744C9.62131 11.1931 10.846 10.9777 11.7353 10.4337L11.7346 10.4331C12.7933 9.77373 13.2573 9.3904 12.8546 8.58706C12.6113 8.13107 11.9553 7.74973 11.082 8.40907C11.082 8.40907 9.90264 9.3124 8.00064 9.3124C6.09798 9.3124 4.91931 8.40907 4.91931 8.40907C4.04665 7.7464 3.38798 8.13107 3.14732 8.58706Z"/>
        <path d="M7.99978 8.09467C10.3185 8.09467 12.2118 6.28267 12.2118 4.052C12.2118 1.812 10.3185 0 7.99978 0C5.68045 0 3.78711 1.812 3.78711 4.052C3.78711 6.28267 5.68045 8.09467 7.99978 8.09467ZM7.99978 2.05267C9.13912 2.05267 10.0685 2.94667 10.0685 4.052C10.0685 5.148 9.13912 6.042 7.99978 6.042C6.86045 6.042 5.93111 5.148 5.93111 4.052C5.93045 2.946 6.85978 2.05267 7.99978 2.05267Z"/>
    </symbol>
    <symbol id="in" viewBox="0 0 16 16">
        <path d="M11 0H5C2.239 0 0 2.239 0 5V11C0 13.761 2.239 16 5 16H11C13.761 16 16 13.761 16 11V5C16 2.239 13.761 0 11 0ZM14.5 11C14.5 12.93 12.93 14.5 11 14.5H5C3.07 14.5 1.5 12.93 1.5 11V5C1.5 3.07 3.07 1.5 5 1.5H11C12.93 1.5 14.5 3.07 14.5 5V11Z"/>
        <path d="M8 4C5.791 4 4 5.791 4 8C4 10.209 5.791 12 8 12C10.209 12 12 10.209 12 8C12 5.791 10.209 4 8 4ZM8 10.5C6.622 10.5 5.5 9.378 5.5 8C5.5 6.621 6.622 5.5 8 5.5C9.378 5.5 10.5 6.621 10.5 8C10.5 9.378 9.378 10.5 8 10.5Z"/>
        <path d="M12.3006 4.23274C12.5949 4.23274 12.8336 3.99411 12.8336 3.69974C12.8336 3.40538 12.5949 3.16675 12.3006 3.16675C12.0062 3.16675 11.7676 3.40538 11.7676 3.69974C11.7676 3.99411 12.0062 4.23274 12.3006 4.23274Z"/>
    </symbol>
    <symbol id="fb" viewBox="0 0 16 16">
        <path d="M9 5.5V3.5C9 2.948 9.448 2.5 10 2.5H11V0H9C7.343 0 6 1.343 6 3V5.5H4V8H6V16H9V8H11L12 5.5H9Z"/>
    </symbol>
    <symbol id="go" viewBox="0 0 24 24">
        <path d="M5.625 11.9997C5.625 10.8106 5.95261 9.69672 6.52177 8.74295V4.69727H2.47608C0.870375 6.78264 0 9.32416 0 11.9997C0 14.6752 0.870375 17.2167 2.47608 19.3021H6.52177V15.2564C5.95261 14.3027 5.625 13.1888 5.625 11.9997Z" fill="#FBBD00"/>
        <path d="M12 18.3749L9.1875 21.1874L12 23.9999C14.6756 23.9999 17.217 23.1295 19.3024 21.5238V17.4824H15.261C14.2989 18.0536 13.1804 18.3749 12 18.3749Z" fill="#0F9D58"/>
        <path d="M6.52176 15.2568L2.47607 19.3025C2.79398 19.7154 3.14015 20.1108 3.51473 20.4854C5.78123 22.7519 8.79468 24.0001 12 24.0001V18.3751C9.67387 18.3751 7.63514 17.1226 6.52176 15.2568Z" fill="#31AA52"/>
        <path d="M24 11.9995C24 11.2694 23.9339 10.5379 23.8035 9.82554L23.698 9.24902H12V14.874H17.6931C17.1402 15.9738 16.2902 16.871 15.261 17.4821L19.3024 21.5234C19.7153 21.2055 20.1106 20.8594 20.4853 20.4848C22.7518 18.2182 24 15.2048 24 11.9995Z" fill="#3C79E6"/>
        <path d="M16.5078 7.49217L17.005 7.98933L20.9825 4.01189L20.4853 3.51473C18.2188 1.24823 15.2054 0 12 0L9.1875 2.8125L12 5.625C13.7028 5.625 15.3037 6.28809 16.5078 7.49217Z" fill="#CF2D48"/>
        <path d="M12 5.625V0C8.79473 0 5.78128 1.24823 3.51473 3.51469C3.14015 3.88927 2.79398 4.28466 2.47607 4.69758L6.52176 8.74327C7.63518 6.8775 9.67392 5.625 12 5.625Z" fill="#EB4132"/>
    </symbol>
    <symbol id="mail" viewBox="0 0 24 24">
        <path d="M12 0C5.38329 0 0 5.38329 0 12C0 18.6167 5.38329 24 12 24C14.1101 24 16.185 23.4448 18.0015 22.3938L16.5 19.7966C15.1392 20.584 13.5828 21 12 21C7.03713 21 2.99999 16.9629 2.99999 12C2.99999 7.03713 7.03713 2.99999 12 2.99999C16.9629 2.99999 21 7.03713 21 12V13.3066C21 14.2881 20.3694 15 19.5 15C18.6731 15 18 14.3269 18 13.5V7.49999H15.9264C14.8712 6.57813 13.5079 5.99997 12 5.99997C8.69164 5.99997 5.99997 8.69164 5.99997 12C5.99997 15.3084 8.69164 18 12 18C13.5754 18 14.9998 17.377 16.0716 16.3803C16.8977 17.362 18.1195 18 19.5 18C22.0232 18 24 15.9383 24 13.3066V12C24 5.38329 18.6167 0 12 0V0ZM12 15C10.3454 15 9.00001 13.6545 9.00001 12C9.00001 10.3454 10.3455 9.00001 12 9.00001C13.6546 9.00001 15 10.3455 15 12C15 13.6546 13.6546 15 12 15Z" fill="#FF9E00"/>
    </symbol>
    <symbol id="share" viewBox="0 0 14 14">
        <path d="M11.22 4.375C10.0143 4.375 9.03247 3.39383 9.03247 2.1875C9.03247 0.981171 10.0143 0 11.22 0C12.4258 0 13.4075 0.981171 13.4075 2.1875C13.4075 3.39383 12.4258 4.375 11.22 4.375ZM11.22 0.875C10.4966 0.875 9.90747 1.46353 9.90747 2.1875C9.90747 2.91147 10.4966 3.5 11.22 3.5C11.9433 3.5 12.5325 2.91147 12.5325 2.1875C12.5325 1.46353 11.9433 0.875 11.22 0.875Z"/>
        <path d="M11.22 14C10.0143 14 9.03247 13.0188 9.03247 11.8125C9.03247 10.6062 10.0143 9.625 11.22 9.625C12.4258 9.625 13.4075 10.6062 13.4075 11.8125C13.4075 13.0188 12.4258 14 11.22 14ZM11.22 10.5C10.4966 10.5 9.90747 11.0885 9.90747 11.8125C9.90747 12.5365 10.4966 13.125 11.22 13.125C11.9433 13.125 12.5325 12.5365 12.5325 11.8125C12.5325 11.0885 11.9433 10.5 11.22 10.5Z"/>
        <path d="M2.76172 9.1875C1.55592 9.1875 0.574219 8.20633 0.574219 7C0.574219 5.79367 1.55592 4.8125 2.76172 4.8125C3.96751 4.8125 4.94922 5.79367 4.94922 7C4.94922 8.20633 3.96751 9.1875 2.76172 9.1875ZM2.76172 5.6875C2.03839 5.6875 1.44922 6.27603 1.44922 7C1.44922 7.72397 2.03839 8.3125 2.76172 8.3125C3.48505 8.3125 4.07422 7.72397 4.07422 7C4.07422 6.27603 3.48505 5.6875 2.76172 5.6875Z"/>
        <path d="M4.2848 6.57413C4.13249 6.57413 3.98434 6.49477 3.90444 6.35367C3.78482 6.14368 3.85777 5.87644 4.06776 5.75691L9.48053 2.67102C9.68988 2.55032 9.95765 2.62381 10.0766 2.83444C10.1963 3.04443 10.1233 3.31157 9.91333 3.4312L4.50056 6.51698C4.43231 6.55544 4.35829 6.57413 4.2848 6.57413Z"/>
        <path d="M9.69685 11.3865C9.62336 11.3865 9.54923 11.3679 9.48098 11.3289L4.0682 8.24299C3.85821 8.12347 3.78536 7.85623 3.90489 7.64624C4.02387 7.43571 4.29112 7.36276 4.50111 7.48292L9.91378 10.5687C10.1238 10.6883 10.1967 10.9555 10.0772 11.1654C9.99667 11.3072 9.84852 11.3865 9.69685 11.3865Z"/>
    </symbol> 
</svg>