<svg width="16" height="16" viewBox="0 0 16 16" fill="none" xmlns="http://www.w3.org/2000/svg">
<g clip-path="url(#clip0)">
<path d="M11.5782 4.77738L10.5817 5.53188C10.685 5.67219 10.9991 6.09922 10.9991 6.37172C10.9991 6.97662 10.5157 7.46875 9.92144 7.46875C9.32719 7.46875 8.84375 6.97662 8.84375 6.37172C8.84375 6.16581 8.90569 5.91587 9.02284 5.649C9.85572 3.75175 9.39663 1.57647 7.88041 0.236125C7.84719 0.20675 7.60516 0 7.60516 0H6.76919L6.72097 0.572563C6.61922 1.78087 5.62297 3.07222 4.56822 4.43937C3.2595 6.13572 1.90625 7.88984 1.90625 9.90625C1.90625 13.2663 4.63991 16 8 16C11.3601 16 14.0938 13.2663 14.0938 9.90625C14.0938 8.15259 12.8511 6.41097 11.5782 4.77738ZM8 14.7188C7.34522 14.7188 6.8125 14.1865 6.8125 13.5322C6.8125 13.1323 7.21284 12.5859 7.56603 12.1039C7.74431 11.8606 7.91847 11.6229 8.06162 11.3845C8.67431 12.0189 9.1875 12.8752 9.1875 13.5322C9.1875 14.1865 8.65478 14.7188 8 14.7188ZM10.3622 14.1336C10.4113 13.9412 10.4375 13.7397 10.4375 13.5322C10.4375 12.1683 9.27078 10.6084 8.17303 9.83322L8.01094 9.71875H7.15625V10.3438C7.15625 10.5483 6.81034 11.0204 6.55778 11.3651C6.09125 12.0017 5.5625 12.7233 5.5625 13.5322C5.5625 13.7397 5.58875 13.9411 5.63781 14.1336C4.15838 13.3036 3.15625 11.7199 3.15625 9.90625C3.15625 8.31597 4.37719 6.73341 5.55791 5.20291C6.41781 4.08831 7.24275 3.01897 7.6725 1.90538C8.26072 2.84947 8.356 4.05831 7.87825 5.1465C7.68944 5.57656 7.59372 5.98878 7.59372 6.37169C7.59375 7.66587 8.63794 8.71875 9.92144 8.71875C10.8088 8.71875 11.5818 8.2155 11.9744 7.47713C12.4887 8.31388 12.8438 9.13944 12.8438 9.90625C12.8438 11.7199 11.8416 13.3036 10.3622 14.1336Z" fill="#DE0700"/>
</g>
<defs>
<clipPath id="clip0">
<rect width="16" height="16" fill="white"/>
</clipPath>
</defs>
</svg>
