<svg width="38" height="38" viewBox="0 0 38 38" fill="none" xmlns="http://www.w3.org/2000/svg">
<path d="M37.971 14.6658C37.9709 14.6087 37.9581 14.5224 37.9359 14.4726C37.8775 14.2608 37.7477 14.0673 37.5534 13.9322L32.1138 10.1509V6.09742C32.1138 5.56007 31.678 5.12426 31.1406 5.12426H24.8826L19.5579 1.42238C19.2251 1.19074 18.7833 1.18978 18.4494 1.42045L13.0904 5.12426H6.85974C6.32225 5.12426 5.88659 5.56007 5.88659 6.09742V10.1032L0.420523 13.881C0.151629 14.0669 0.00616016 14.364 0.00155859 14.6678C0.00126172 14.6735 0 14.6789 0 14.6848L0.0290195 35.7804C0.0293906 36.0385 0.132258 36.2858 0.31491 36.4681C0.49734 36.65 0.744488 36.7521 1.00218 36.7521C1.0027 36.7521 1.00307 36.7521 1.00351 36.7521L37.0282 36.7026C37.5655 36.7019 38.0007 36.2656 38 35.7281L37.971 14.6658ZM32.1137 12.5214L35.2233 14.6825L32.1137 16.8444V12.5214ZM19.0011 3.40558L21.4733 5.12419H16.5146L19.0011 3.40558ZM7.8329 7.07057H30.1674V18.1975L22.6686 23.4108L19.6113 21.0392C19.6065 21.0355 19.6024 21.0332 19.5978 21.0299C19.2561 20.7735 18.7728 20.7641 18.4182 21.0392L15.3386 23.4279L7.8329 18.2406V7.07057ZM5.88659 12.4691V16.8955L2.68434 14.6824L5.88659 12.4691ZM1.94884 16.541L13.7251 24.6795L1.97259 33.7953L1.94884 16.541ZM3.8501 34.802L19.0148 23.0395L34.125 34.7603L3.8501 34.802ZM24.2802 24.6609L36.0273 16.4941L36.051 33.7915L24.2802 24.6609Z" fill="white"/>
<path d="M25.5881 10.9629H12.4116C11.8743 10.9629 11.4385 11.3987 11.4385 11.936C11.4385 12.4734 11.8743 12.9092 12.4116 12.9092H25.5881C26.1256 12.9092 26.5613 12.4734 26.5613 11.936C26.5613 11.3987 26.1256 10.9629 25.5881 10.9629Z" fill="white"/>
<path d="M25.5881 16.0234H12.4116C11.8743 16.0234 11.4385 16.4593 11.4385 16.9966C11.4385 17.5339 11.8743 17.9698 12.4116 17.9698H25.5881C26.1256 17.9698 26.5613 17.5339 26.5613 16.9966C26.5613 16.4593 26.1256 16.0234 25.5881 16.0234Z" fill="white"/>
</svg>
