<svg width="18" height="24" viewBox="0 0 18 24" fill="none" xmlns="http://www.w3.org/2000/svg">
<g clip-path="url(#clip0)">
<path d="M8.83873 3.78906C8.00398 3.78906 7.18798 4.03301 6.49391 4.49005C5.79984 4.94709 5.25888 5.5967 4.93944 6.35673C4.61999 7.11676 4.53641 7.95307 4.69926 8.75992C4.86211 9.56676 5.26408 10.3079 5.85434 10.8896C6.4446 11.4713 7.19663 11.8674 8.01534 12.0279C8.83405 12.1884 9.68266 12.1061 10.4539 11.7912C11.2251 11.4764 11.8842 10.9433 12.348 10.2593C12.8118 9.57529 13.0593 8.77111 13.0593 7.94846C13.0593 6.84532 12.6146 5.78736 11.8231 5.00732C11.0316 4.22728 9.95809 3.78906 8.83873 3.78906ZM8.83873 10.6561C8.29534 10.6561 7.76416 10.4973 7.31235 10.1997C6.86054 9.90223 6.50839 9.47936 6.30045 8.98461C6.0925 8.48986 6.03809 7.94545 6.1441 7.42023C6.25011 6.89501 6.51178 6.41256 6.89601 6.0339C7.28024 5.65523 7.76979 5.39736 8.30273 5.29288C8.83568 5.18841 9.3881 5.24203 9.89012 5.44696C10.3921 5.65189 10.8212 5.99893 11.1231 6.4442C11.425 6.88946 11.5861 7.41295 11.5861 7.94846C11.5842 8.6653 11.2939 9.35212 10.7788 9.85833C10.2638 10.3645 9.56611 10.6488 8.83873 10.6488V10.6561Z" fill="#404040"/>
<path d="M8.83894 0.363037C6.54466 0.364926 4.34436 1.26147 2.71861 2.85686C1.09286 4.45224 0.173784 6.61682 0.162109 8.87782C0.162109 12.2678 2.09193 15.106 3.50615 17.1748L3.76395 17.5523C5.17101 19.562 6.68046 21.5003 8.28651 23.3595L8.8463 24.0055L9.4061 23.3595C11.0119 21.5001 12.5214 19.5619 13.9287 17.5523L14.1865 17.1676C15.5933 15.0988 17.5231 12.2678 17.5231 8.87782C17.5115 6.61556 16.5914 4.44989 14.964 2.8543C13.3367 1.25871 11.1345 0.363008 8.83894 0.363037ZM12.9564 16.3328L12.6912 16.7175C11.4243 18.5903 9.74492 20.6882 8.83894 21.7262C7.96978 20.6882 6.25357 18.5903 4.98666 16.7175L4.72886 16.3328C3.42513 14.4164 1.63526 11.7959 1.63526 8.84878C1.63526 7.91649 1.82158 6.99333 2.1836 6.13201C2.54562 5.27068 3.07624 4.48806 3.74517 3.82883C4.41409 3.1696 5.20822 2.64668 6.08221 2.2899C6.9562 1.93313 7.89294 1.7495 8.83894 1.7495C9.78494 1.7495 10.7217 1.93313 11.5957 2.2899C12.4697 2.64668 13.2638 3.1696 13.9327 3.82883C14.6016 4.48806 15.1323 5.27068 15.4943 6.13201C15.8563 6.99333 16.0426 7.91649 16.0426 8.84878C16.0426 11.825 14.2601 14.4455 12.9564 16.3328Z" fill="#404040"/>
</g>
<defs>
<clipPath id="clip0">
<rect width="18" height="24" fill="white"/>
</clipPath>
</defs>
</svg>
