<svg width="20" height="20" viewBox="0 0 20 20" fill="none" xmlns="http://www.w3.org/2000/svg">
<path d="M10.0003 0C5.22059 0 1.33203 3.73129 1.33203 8.31777C1.33203 14.5423 9.28531 19.675 9.6241 19.8904C9.73883 19.9636 9.86941 20 10.0003 20C10.1309 20 10.2617 19.9633 10.3764 19.8904C10.7152 19.675 18.6685 14.5423 18.6685 8.31777C18.6685 3.73129 14.7802 0 10.0003 0ZM10 18.4528C8.46055 17.3809 2.73391 13.0708 2.73391 8.31777C2.73391 4.50422 5.99348 1.40188 10.0003 1.40188C14.0071 1.40188 17.2666 4.50422 17.2666 8.31777C17.2666 13.0631 11.5388 17.3795 10 18.4528Z" fill="white"/>
<path d="M9.99986 3.80865C7.82252 3.80865 6.05127 5.57991 6.05127 7.75725C6.05127 9.93436 7.82252 11.7056 9.99986 11.7056C12.1772 11.7056 13.9484 9.93436 13.9484 7.75725C13.9484 5.58018 12.1772 3.80865 9.99986 3.80865ZM9.99986 10.3035C8.59564 10.3035 7.45314 9.16123 7.45314 7.75705C7.45314 6.35283 8.59568 5.21033 9.99986 5.21033C11.4041 5.21033 12.5466 6.35264 12.5466 7.75705C12.5466 9.16123 11.4041 10.3035 9.99986 10.3035Z" fill="white"/>
</svg>
