<?xml version="1.0" encoding="UTF-8"?>
<!DOCTYPE svg PUBLIC "-//W3C//DTD SVG 1.1//EN" "http://www.w3.org/Graphics/SVG/1.1/DTD/svg11.dtd">
<svg xmlns="http://www.w3.org/2000/svg">
    <symbol id="refresh" viewBox="0 0 24 24">
        <path d="M8.58386 0.500422C5.88363 1.30304 3.55218 3.03068 1.99836 5.38041C1.78497 5.76543 1.65171 6.18962 1.60665 6.6275V2.41458H0.0078125V8.80991H6.40315V7.21108H2.78978C4.57988 3.76734 8.1182 1.58658 11.9991 1.53522C16.6015 1.58873 20.6356 4.62566 21.9598 9.03375L23.4947 8.57808C21.6078 2.22996 14.932 -1.3865 8.58386 0.500422Z"/>
        <path d="M17.5954 15.2053V16.8041H21.2088C19.4187 20.2479 15.8804 22.4286 11.9995 22.48C7.39713 22.4265 3.36302 19.3895 2.03879 14.9814L0.503906 15.4371C2.39892 21.7828 9.07935 25.3908 15.425 23.4957C18.2044 22.6657 20.5887 20.8564 22.1361 18.4029C22.3019 18.0901 22.3897 17.7418 22.3919 17.3877V21.6006H23.9908V15.2053H17.5954Z"/>
    </symbol>
</svg>
