<svg width="56" height="56" viewBox="0 0 56 56" fill="none" xmlns="http://www.w3.org/2000/svg">
<path d="M55.9572 21.6124C55.9571 21.5282 55.9383 21.401 55.9056 21.3277C55.8195 21.0156 55.6282 20.7304 55.3419 20.5314L47.3256 14.9589V8.98531C47.3256 8.19343 46.6833 7.55118 45.8915 7.55118H36.6691L28.8222 2.09578C28.3317 1.75442 27.6806 1.753 27.1887 2.09293L19.2911 7.55118H10.1091C9.317 7.55118 8.67497 8.19343 8.67497 8.98531V14.8886L0.619719 20.4559C0.223453 20.7298 0.00907812 21.1676 0.00229687 21.6153C0.00185937 21.6237 0 21.6317 0 21.6404L0.0427656 52.7286C0.0433125 53.1089 0.194906 53.4735 0.464078 53.7421C0.732922 54.0102 1.09714 54.1607 1.47689 54.1607C1.47766 54.1607 1.4782 54.1607 1.47886 54.1607L54.5678 54.0877C55.3597 54.0866 56.0011 53.4436 56 52.6516L55.9572 21.6124ZM47.3255 18.4523L51.9081 21.637L47.3255 24.8229V18.4523ZM28.0016 5.01839L31.6449 7.55107H24.3374L28.0016 5.01839ZM11.5432 10.4194H44.4572V26.817L33.4064 34.4998L28.9008 31.0048C28.8938 30.9993 28.8878 30.9959 28.881 30.991C28.3775 30.6132 27.6652 30.5993 27.1426 31.0048L22.6043 34.525L11.5432 26.8805V10.4194ZM8.67497 18.3752V24.8983L3.95587 21.6368L8.67497 18.3752ZM2.87197 24.3759L20.2264 36.3694L2.90697 49.8033L2.87197 24.3759ZM5.67383 51.2867L28.0218 33.9526L50.2895 51.2254L5.67383 51.2867ZM35.7814 36.342L53.0928 24.3068L53.1278 49.7976L35.7814 36.342Z" fill="#BC95DE"/>
<path d="M37.7085 16.1562H18.2906C17.4987 16.1562 16.8564 16.7985 16.8564 17.5904C16.8564 18.3822 17.4987 19.0245 18.2906 19.0245H37.7085C38.5006 19.0245 39.1427 18.3822 39.1427 17.5904C39.1427 16.7985 38.5006 16.1562 37.7085 16.1562Z" fill="#BC95DE"/>
<path d="M37.7085 23.6143H18.2906C17.4987 23.6143 16.8564 24.2565 16.8564 25.0484C16.8564 25.8403 17.4987 26.4825 18.2906 26.4825H37.7085C38.5006 26.4825 39.1427 25.8403 39.1427 25.0484C39.1427 24.2565 38.5006 23.6143 37.7085 23.6143Z" fill="#BC95DE"/>
</svg>
