<?xml version="1.0" encoding="UTF-8"?>
<!DOCTYPE svg PUBLIC "-//W3C//DTD SVG 1.1//EN" "http://www.w3.org/Graphics/SVG/1.1/DTD/svg11.dtd">
<svg xmlns="http://www.w3.org/2000/svg">
    <symbol id="id" viewBox="0 0 18 18">
        <path d="M17.843 17.082L13.4688 12.7078C14.6422 11.3588 15.3526 9.59867 15.3526 7.67494C15.3526 3.44035 11.9082 0 7.67763 0C3.44304 0 0.00268555 3.44435 0.00268555 7.67494C0.00268555 11.9055 3.44703 15.3499 7.67763 15.3499C9.60136 15.3499 11.3614 14.6395 12.7104 13.4661L17.0847 17.8404C17.1885 17.9441 17.3282 18 17.4639 18C17.5996 18 17.7393 17.9481 17.843 17.8404C18.0506 17.6328 18.0506 17.2896 17.843 17.082ZM1.0763 7.67494C1.0763 4.03503 4.03772 1.07761 7.67364 1.07761C11.3135 1.07761 14.271 4.03902 14.271 7.67494C14.271 11.3109 11.3135 14.2763 7.67364 14.2763C4.03772 14.2763 1.0763 11.3149 1.0763 7.67494Z"/>
    </symbol>  
</svg>