<?xml version="1.0" encoding="UTF-8"?>
<!DOCTYPE svg PUBLIC "-//W3C//DTD SVG 1.1//EN" "http://www.w3.org/Graphics/SVG/1.1/DTD/svg11.dtd">
<svg xmlns="http://www.w3.org/2000/svg">
    <symbol id="id" viewBox="0 0 15 15">
        <path d="M11.8546 9.29154C11.5475 8.97179 11.1771 8.80083 10.7845 8.80083C10.3951 8.80083 10.0215 8.96862 9.70178 9.28837L8.70137 10.2856C8.61906 10.2413 8.53675 10.2001 8.4576 10.159C8.34363 10.102 8.23599 10.0482 8.14418 9.99119C7.20709 9.39601 6.35547 8.62038 5.53868 7.6168C5.14295 7.11659 4.87702 6.69553 4.6839 6.26814C4.9435 6.0307 5.18411 5.78377 5.41838 5.54633C5.50703 5.45768 5.59567 5.36587 5.68431 5.27723C6.34914 4.6124 6.34914 3.75129 5.68431 3.08645L4.82004 2.22218C4.72189 2.12403 4.62059 2.02273 4.52561 1.92142C4.33566 1.72514 4.13621 1.52252 3.93043 1.33257C3.62334 1.02865 3.2561 0.867188 2.86987 0.867188C2.48364 0.867188 2.11007 1.02865 1.79348 1.33257C1.79032 1.33573 1.79032 1.33573 1.78715 1.3389L0.710759 2.42479C0.30553 2.83002 0.0744228 3.32389 0.0237692 3.89691C-0.0522113 4.82135 0.220052 5.68246 0.428998 6.24598C0.941866 7.62946 1.708 8.91164 2.85088 10.2856C4.23752 11.9414 5.90592 13.2489 7.81177 14.1701C8.53991 14.5152 9.51183 14.9236 10.5977 14.9933C10.6642 14.9964 10.7338 14.9996 10.7972 14.9996C11.5285 14.9996 12.1427 14.7368 12.6239 14.2145C12.627 14.2081 12.6334 14.205 12.6365 14.1986C12.8012 13.9992 12.9911 13.8187 13.1906 13.6256C13.3267 13.4958 13.466 13.3597 13.6021 13.2172C13.9155 12.8911 14.0802 12.5112 14.0802 12.1218C14.0802 11.7293 13.9124 11.3525 13.5926 11.0359L11.8546 9.29154ZM12.9879 12.6252C12.9848 12.6252 12.9848 12.6284 12.9879 12.6252C12.8645 12.7582 12.7378 12.8785 12.6017 13.0114C12.3959 13.2077 12.187 13.4135 11.9907 13.6446C11.6709 13.9865 11.2942 14.148 10.8003 14.148C10.7528 14.148 10.7022 14.148 10.6547 14.1448C9.71444 14.0847 8.84067 13.7174 8.18534 13.404C6.39347 12.5365 4.82004 11.305 3.51254 9.74426C2.43298 8.44309 1.71117 7.24006 1.23312 5.94839C0.938701 5.16009 0.831062 4.54592 0.878549 3.96656C0.910208 3.59616 1.05267 3.28907 1.31544 3.0263L2.39499 1.94675C2.55012 1.80112 2.71474 1.72197 2.8762 1.72197C3.07565 1.72197 3.23711 1.84227 3.33842 1.94358C3.34158 1.94675 3.34475 1.94991 3.34791 1.95308C3.54103 2.13353 3.72465 2.32032 3.91777 2.51977C4.01591 2.62107 4.11722 2.72238 4.21852 2.82685L5.0828 3.69113C5.41838 4.02672 5.41838 4.33697 5.0828 4.67255C4.99099 4.76436 4.90235 4.85617 4.81054 4.94481C4.54461 5.21708 4.29134 5.47035 4.01591 5.71728C4.00958 5.72362 4.00325 5.72678 4.00008 5.73311C3.72782 6.00538 3.77847 6.27131 3.83546 6.45176C3.83862 6.46126 3.84179 6.47076 3.84495 6.48026C4.06973 7.02478 4.38631 7.53765 4.86752 8.14866L4.87069 8.15183C5.74446 9.22822 6.66573 10.0672 7.68197 10.7098C7.81177 10.7922 7.94473 10.8586 8.07137 10.922C8.18534 10.9789 8.29298 11.0328 8.38479 11.0897C8.39745 11.0961 8.41011 11.1056 8.42278 11.1119C8.53042 11.1657 8.63172 11.1911 8.7362 11.1911C8.99896 11.1911 9.16359 11.0264 9.21741 10.9726L10.3001 9.88989C10.4078 9.78225 10.5787 9.65245 10.7782 9.65245C10.9745 9.65245 11.1359 9.77592 11.2341 9.88355C11.2372 9.88672 11.2372 9.88672 11.2404 9.88989L12.9848 11.6343C13.3109 11.9572 13.3109 12.2896 12.9879 12.6252Z"/>
        <path d="M8.10643 3.56659C8.93588 3.70589 9.68936 4.09845 10.2909 4.69996C10.8924 5.30148 11.2818 6.05495 11.4242 6.8844C11.4591 7.09335 11.6395 7.23898 11.8453 7.23898C11.8706 7.23898 11.8928 7.23581 11.9181 7.23265C12.1524 7.19466 12.3075 6.97305 12.2695 6.73877C12.0986 5.7352 11.6237 4.82027 10.8987 4.09529C10.1737 3.37031 9.2588 2.89543 8.25523 2.72447C8.02096 2.68648 7.80251 2.84161 7.76136 3.07272C7.7202 3.30382 7.87216 3.5286 8.10643 3.56659Z"/>
        <path d="M14.9827 6.61682C14.7009 4.96424 13.9221 3.46046 12.7254 2.26377C11.5288 1.06708 10.025 0.288277 8.3724 0.00651579C8.1413 -0.0346403 7.92285 0.123652 7.8817 0.35476C7.8437 0.589033 7.99883 0.807477 8.23311 0.848633C9.70839 1.09873 11.0539 1.79839 12.1239 2.86528C13.194 3.93534 13.8905 5.28083 14.1406 6.75611C14.1754 6.96506 14.3559 7.11069 14.5616 7.11069C14.587 7.11069 14.6091 7.10752 14.6345 7.10436C14.8656 7.06953 15.0239 6.84792 14.9827 6.61682Z"/>
    </symbol>
</svg>
