<?xml version="1.0" encoding="UTF-8"?>
<!DOCTYPE svg PUBLIC "-//W3C//DTD SVG 1.1//EN" "http://www.w3.org/Graphics/SVG/1.1/DTD/svg11.dtd">
<svg xmlns="http://www.w3.org/2000/svg">
    <symbol id="id" viewBox="0 0 16 17">
        <path d="M5.45695 8.02188C6.78267 8.02188 7.86384 7.20555 7.86384 6.20545C7.86384 5.20524 6.78589 4.38892 5.45695 4.38892C4.12801 4.38892 3.05005 5.20524 3.05005 6.20545C3.05005 7.20555 4.13122 8.02188 5.45695 8.02188ZM5.45695 5.03413C6.42221 5.03413 7.22026 5.56979 7.22026 6.20534C7.22026 6.841 6.41257 7.37655 5.45695 7.37655C4.50121 7.37655 3.69352 6.841 3.69352 6.20534C3.69352 5.56979 4.50121 5.03091 5.45695 5.03091V5.03413Z"/>
        <path d="M15.6605 9.56105H10.911V6.20219C10.911 3.99533 8.46238 2.19824 5.44093 2.19824C2.41937 2.19824 -0.0292969 3.99533 -0.0292969 6.20219V10.1708C-0.0292969 12.2035 2.04617 13.8812 4.72011 14.1361H4.77485C4.9968 14.1556 5.22208 14.1717 5.45057 14.1717H15.6605C15.8381 14.1717 15.9822 14.0271 15.9822 13.849V9.8836C15.9822 9.70558 15.8381 9.56105 15.6605 9.56105ZM5.457 2.84668C8.11155 2.84668 10.2836 4.35344 10.2836 6.20553C10.2836 8.05751 8.12452 9.56427 5.457 9.56427C2.78948 9.56427 0.630353 8.05751 0.630353 6.20542C0.630353 4.35344 2.80555 2.84668 5.457 2.84668ZM10.2836 8.08651V9.56105H8.41727C9.14578 9.22999 9.78133 8.72344 10.2675 8.08651H10.2836ZM15.3387 13.5263H14.6951V11.8937C14.6951 11.7157 14.5509 11.571 14.3734 11.571C14.1958 11.571 14.0516 11.7156 14.0516 11.8937V13.5296H12.7644V12.6422C12.7644 12.4641 12.6203 12.3196 12.4427 12.3196C12.265 12.3196 12.1209 12.4641 12.1209 12.6422V13.5296H10.8338V12.6422C10.8338 12.4641 10.6897 12.3196 10.512 12.3196C10.3344 12.3196 10.1902 12.4641 10.1902 12.6422V13.5296H8.90306V11.8937C8.90306 11.7157 8.75892 11.571 8.58127 11.571C8.40373 11.571 8.25948 11.7156 8.25948 11.8937V13.5296H7.02717V12.6422C7.02717 12.4641 6.88291 12.3196 6.70537 12.3196C6.52772 12.3196 6.38358 12.4641 6.38358 12.6422V13.5296H5.45677C5.33455 13.5296 5.21554 13.5296 5.09642 13.5296V12.6422C5.09642 12.4641 4.95228 12.3196 4.77463 12.3196C4.59697 12.3196 4.45283 12.4641 4.45283 12.6422V13.4521C2.28108 13.1295 0.64642 11.7808 0.64642 10.1676V8.08651C1.56669 9.34805 3.37832 10.2063 5.47306 10.2063H15.3387V13.5263Z"/>
    </symbol>  
</svg>