<?xml version="1.0" encoding="UTF-8"?>
<!DOCTYPE svg PUBLIC "-//W3C//DTD SVG 1.1//EN" "http://www.w3.org/Graphics/SVG/1.1/DTD/svg11.dtd">
<svg xmlns="http://www.w3.org/2000/svg">
    <symbol id="id" viewBox="0 0 20 24">
        <path d="M19.5994 20.746L18.2252 5.27117C18.1958 4.92761 17.9062 4.66748 17.5675 4.66748H14.7405C14.7013 2.08589 12.5908 0 9.99944 0C7.40803 0 5.2976 2.08589 5.25833 4.66748H2.43134C2.08778 4.66748 1.80312 4.92761 1.77367 5.27117L0.399439 20.746C0.399439 20.7656 0.394531 20.7853 0.394531 20.8049C0.394531 22.5669 2.00925 24 3.99698 24H16.0019C17.9896 24 19.6043 22.5669 19.6043 20.8049C19.6043 20.7853 19.6043 20.7656 19.5994 20.746ZM9.99944 1.32515C11.8596 1.32515 13.3761 2.81718 13.4154 4.66748H6.58349C6.62275 2.81718 8.13932 1.32515 9.99944 1.32515ZM16.0019 22.6748H3.99698C2.75036 22.6748 1.73932 21.8503 1.71968 20.8344L3.03502 5.99755H5.25343V8.00982C5.25343 8.37791 5.54791 8.67239 5.916 8.67239C6.2841 8.67239 6.57858 8.37791 6.57858 8.00982V5.99755H13.4154V8.00982C13.4154 8.37791 13.7099 8.67239 14.078 8.67239C14.4461 8.67239 14.7405 8.37791 14.7405 8.00982V5.99755H16.9589L18.2792 20.8344C18.2596 21.8503 17.2436 22.6748 16.0019 22.6748Z"/>
    </symbol>  
</svg>
