<?xml version="1.0" encoding="UTF-8"?>
<!DOCTYPE svg PUBLIC "-//W3C//DTD SVG 1.1//EN" "http://www.w3.org/Graphics/SVG/1.1/DTD/svg11.dtd">
<svg xmlns="http://www.w3.org/2000/svg">
    <symbol id="id" viewBox="0 0 14 14">
        <path d="M12.45 2.34658C11.7692 1.66585 10.868 1.29379 9.90618 1.29379C8.94435 1.29379 8.04038 1.6686 7.35966 2.34933L7.00413 2.70485L6.6431 2.34382C5.96237 1.66309 5.05565 1.28552 4.09382 1.28552C3.13473 1.28552 2.23077 1.66034 1.5528 2.33831C0.872073 3.01904 0.497259 3.923 0.500015 4.88484C0.500015 5.84667 0.877585 6.74788 1.55831 7.42861L6.73405 12.6043C6.8057 12.676 6.90216 12.7146 6.99587 12.7146C7.08957 12.7146 7.18603 12.6788 7.25768 12.6071L12.4444 7.43963C13.1252 6.7589 13.5 5.85494 13.5 4.8931C13.5027 3.93126 13.1307 3.0273 12.45 2.34658Z"/>
    </symbol>
</svg>
