<?xml version="1.0" encoding="UTF-8"?>
<!DOCTYPE svg PUBLIC "-//W3C//DTD SVG 1.1//EN" "http://www.w3.org/Graphics/SVG/1.1/DTD/svg11.dtd">
<svg xmlns="http://www.w3.org/2000/svg">
    <symbol id="id" viewBox="0 0 24 24">
        <path d="M12.1202 12.9319C12.1451 12.9319 12.1699 12.9319 12.1997 12.9319C12.2097 12.9319 12.2196 12.9319 12.2296 12.9319C12.2445 12.9319 12.2643 12.9319 12.2793 12.9319C13.7355 12.907 14.9133 12.3951 15.7831 11.416C17.6965 9.25906 17.3784 5.5614 17.3437 5.20853C17.2194 2.55954 15.967 1.29219 14.9332 0.700766C14.1629 0.258439 13.2633 0.0198799 12.2594 0H12.2246C12.2196 0 12.2097 0 12.2047 0H12.1749C11.6232 0 10.5398 0.0894595 9.50104 0.680886C8.45735 1.27231 7.18503 2.53966 7.06078 5.20853C7.02599 5.5614 6.70792 9.25906 8.62136 11.416C9.48613 12.3951 10.664 12.907 12.1202 12.9319ZM8.38777 5.33278C8.38777 5.31787 8.39274 5.30296 8.39274 5.29302C8.55675 1.72955 11.0865 1.34686 12.1699 1.34686H12.1898C12.1997 1.34686 12.2146 1.34686 12.2296 1.34686C13.5714 1.37668 15.8527 1.92338 16.0067 5.29302C16.0067 5.30793 16.0067 5.32284 16.0117 5.33278C16.0167 5.36757 16.3646 8.74715 14.7841 10.5264C14.1579 11.2321 13.323 11.58 12.2246 11.59C12.2146 11.59 12.2097 11.59 12.1997 11.59C12.1898 11.59 12.1848 11.59 12.1749 11.59C11.0815 11.58 10.2416 11.2321 9.62032 10.5264C8.04484 8.75709 8.3828 5.3626 8.38777 5.33278Z"/>
        <path d="M22.413 19.0648C22.413 19.0598 22.413 19.0549 22.413 19.0499C22.413 19.0101 22.4081 18.9704 22.4081 18.9256C22.3782 17.9416 22.3136 15.6405 20.1567 14.9049C20.1418 14.9 20.1219 14.895 20.107 14.89C17.8655 14.3185 16.0018 13.0263 15.9819 13.0114C15.6787 12.7977 15.2612 12.8722 15.0475 13.1754C14.8338 13.4785 14.9084 13.896 15.2115 14.1097C15.296 14.1694 17.2741 15.5461 19.7491 16.1822C20.9071 16.5947 21.0363 17.8322 21.0711 18.9654C21.0711 19.0101 21.0711 19.0499 21.0761 19.0897C21.0811 19.5369 21.0513 20.2278 20.9717 20.6254C20.1666 21.0826 17.0107 22.6631 12.2097 22.6631C7.42856 22.6631 4.25275 21.0776 3.44264 20.6204C3.36313 20.2228 3.32834 19.532 3.33828 19.0847C3.33828 19.0449 3.34325 19.0052 3.34325 18.9604C3.37804 17.8273 3.50725 16.5898 4.66526 16.1772C7.1403 15.5411 9.11835 14.1594 9.20284 14.1048C9.50601 13.8911 9.58056 13.4736 9.36685 13.1704C9.15314 12.8672 8.73567 12.7927 8.4325 13.0064C8.41262 13.0213 6.55882 14.3135 4.30742 14.885C4.28754 14.89 4.27263 14.895 4.25772 14.9C2.10075 15.6405 2.03614 17.9416 2.00632 18.9207C2.00632 18.9654 2.00632 19.0052 2.00135 19.0449C2.00135 19.0499 2.00135 19.0549 2.00135 19.0598C1.99638 19.3183 1.99141 20.6453 2.25482 21.3112C2.30452 21.4405 2.39398 21.5498 2.51326 21.6243C2.66236 21.7237 6.23577 24 12.2146 24C18.1935 24 21.7669 21.7188 21.916 21.6243C22.0303 21.5498 22.1248 21.4405 22.1745 21.3112C22.423 20.6502 22.418 19.3232 22.413 19.0648Z"/>
    </symbol>  
</svg>
