<svg width="16" height="16" viewBox="0 0 16 16" fill="none" xmlns="http://www.w3.org/2000/svg">
<g clip-path="url(#clip0)">
<path d="M8.00005 0C3.58882 0 0 3.58882 0 8.00005C0 12.4113 3.58882 16.0001 8.00005 16.0001C12.4113 16.0001 16.0001 12.4113 16.0001 8.00005C16.0001 3.58882 12.4112 0 8.00005 0ZM8.00005 14.6287C4.34512 14.6287 1.37145 11.655 1.37145 8.00005C1.37145 4.34512 4.34512 1.37145 8.00005 1.37145C11.655 1.37145 14.6287 4.34512 14.6287 8.00005C14.6287 11.655 11.6549 14.6287 8.00005 14.6287Z" fill="#404040"/>
<path d="M11.0951 4.905C10.8273 4.63714 10.3929 4.63714 10.1255 4.905L7.99963 7.03118L5.87372 4.905C5.60586 4.63714 5.17198 4.63714 4.90411 4.905C4.63625 5.17286 4.63625 5.60675 4.90411 5.87461L7.03002 8.0007L4.90402 10.1269C4.63616 10.3947 4.63616 10.8286 4.90402 11.0965C5.03791 11.2304 5.21339 11.2974 5.38887 11.2974C5.56436 11.2974 5.74002 11.2305 5.87372 11.0965L7.99963 8.9704L10.1255 11.0965C10.2594 11.2304 10.4349 11.2974 10.6104 11.2974C10.7859 11.2974 10.9613 11.2305 11.0952 11.0965C11.3631 10.8286 11.3631 10.3947 11.0952 10.1269L8.96924 8.00079L11.0951 5.8747C11.363 5.60684 11.363 5.17286 11.0951 4.905Z" fill="#404040"/>
</g>
<defs>
<clipPath id="clip0">
<rect width="16" height="16" fill="white"/>
</clipPath>
</defs>
</svg>
