<?xml version="1.0" encoding="UTF-8"?>
<!DOCTYPE svg PUBLIC "-//W3C//DTD SVG 1.1//EN" "http://www.w3.org/Graphics/SVG/1.1/DTD/svg11.dtd">
<svg xmlns="http://www.w3.org/2000/svg">
    <symbol id="new" viewBox="0 0 16 16">
        <path d="M15.0902 6.81714C14.8439 6.63558 14.5336 6.4088 14.4961 6.26063C14.5119 5.97382 14.5938 5.69457 14.7354 5.44467C14.9524 4.94659 15.1764 4.43045 14.9274 4.00124C14.6784 3.57203 14.1121 3.50248 13.5674 3.44473C13.2851 3.44284 13.007 3.37645 12.7542 3.25065C12.6282 2.99703 12.5621 2.71788 12.5608 2.43469C12.4996 1.89002 12.4363 1.32656 12.0043 1.07474C11.5723 0.82291 11.0555 1.04343 10.5574 1.26324C10.3073 1.40479 10.0278 1.48666 9.74079 1.50254C9.59054 1.46221 9.36447 1.15472 9.18428 0.908471C8.86848 0.482751 8.51299 0 7.99962 0C7.48625 0 7.1308 0.482751 6.81705 0.908471C6.63481 1.15541 6.40871 1.46498 6.26054 1.50323C5.97379 1.48595 5.69461 1.40417 5.44389 1.26392C4.94304 1.0434 4.4269 0.823595 3.99909 1.07125C3.57129 1.3189 3.49965 1.88653 3.43841 2.43466C3.43642 2.71687 3.37029 2.99495 3.24502 3.24785C2.99277 3.37185 2.7157 3.437 2.43463 3.43844C1.88927 3.49964 1.3251 3.56297 1.07399 3.99495C0.822879 4.42693 1.04343 4.94313 1.26324 5.44189C1.40531 5.69261 1.48722 5.97287 1.50255 6.26063C1.46221 6.41088 1.15472 6.63767 0.908473 6.81714C0.482752 7.13017 0 7.48634 0 7.99971C0 8.51308 0.482752 8.86925 0.90919 9.18228C1.15544 9.36383 1.4657 9.59062 1.50326 9.73878C1.48748 10.0256 1.40557 10.3048 1.26396 10.5547C1.04692 11.0528 0.822944 11.569 1.07197 11.9982C1.32099 12.4274 1.88725 12.4969 2.43192 12.5547C2.71424 12.5566 2.99238 12.623 3.24512 12.7488C3.37111 13.0024 3.43727 13.2815 3.43851 13.5647C3.49971 14.1094 3.56304 14.6729 3.99502 14.9247C4.427 15.1765 4.93969 14.9497 5.43845 14.7327C5.69112 14.5927 5.97223 14.5118 6.26067 14.4962C6.41093 14.5365 6.637 14.844 6.81718 15.0903C7.1309 15.516 7.48638 15.9987 7.99975 15.9987C8.51312 15.9987 8.86858 15.516 9.18232 15.0903C9.36457 14.8433 9.59067 14.5337 9.73883 14.4955C10.0258 14.5117 10.3052 14.5936 10.5555 14.7348C11.0536 14.9518 11.5697 15.1745 11.9982 14.9275C12.4267 14.6805 12.4976 14.1122 12.5589 13.5668C12.5609 13.2846 12.627 13.0066 12.7523 12.7537C13.005 12.6286 13.2828 12.5627 13.5648 12.561C14.1101 12.4998 14.6743 12.4365 14.9254 12.0045C15.1765 11.5725 14.9497 11.0598 14.7334 10.561C14.5918 10.3091 14.5108 10.0275 14.4969 9.73882C14.5372 9.58856 14.8447 9.36178 15.091 9.18231C15.5167 8.86859 16.0002 8.51242 16.0002 7.99974C16.0002 7.48706 15.5166 7.13017 15.0902 6.81714Z"/>
        <path d="M5.9132 9.73984C5.80374 9.73984 5.70064 9.68829 5.63497 9.6007L4.17416 7.65297V9.39202C4.17416 9.58411 4.01843 9.73984 3.82634 9.73984C3.63425 9.73984 3.47852 9.58411 3.47852 9.39202V6.60954C3.47852 6.41745 3.63425 6.26172 3.82634 6.26172C3.9358 6.26172 4.0389 6.31327 4.10458 6.40085L5.56538 8.34858V6.60954C5.56538 6.41745 5.72111 6.26172 5.9132 6.26172C6.10529 6.26172 6.26103 6.41745 6.26103 6.60954V9.39202C6.26093 9.54165 6.16509 9.67446 6.02312 9.72174C5.98771 9.73374 5.9506 9.73984 5.9132 9.73984Z" fill="#FAFAFA"/>
        <path d="M8.69612 9.73984H7.30486C7.11276 9.73984 6.95703 9.58411 6.95703 9.39202V6.60954C6.95703 6.41745 7.11276 6.26172 7.30486 6.26172H8.69612C8.88821 6.26172 9.04395 6.41745 9.04395 6.60954C9.04395 6.80163 8.88821 6.95736 8.69612 6.95736H7.65268V9.04423H8.69612C8.88821 9.04423 9.04395 9.19996 9.04395 9.39205C9.04395 9.58414 8.88821 9.73984 8.69612 9.73984Z" fill="#FAFAFA"/>
        <path d="M8.69612 8.34797H7.30486C7.11276 8.34797 6.95703 8.19224 6.95703 8.00016C6.95703 7.80807 7.11276 7.65234 7.30486 7.65234H8.69612C8.88821 7.65234 9.04395 7.80807 9.04395 8.00016C9.04395 8.19224 8.88821 8.34797 8.69612 8.34797Z" fill="#FAFAFA"/>
        <path d="M12.1739 9.74016C12.024 9.74036 11.8908 9.64449 11.8435 9.50226L11.4783 8.40525L11.1131 9.50226C11.0686 9.65235 10.9256 9.75115 10.7694 9.73948C10.6149 9.73361 10.4829 9.62649 10.4453 9.47653L9.74967 6.69404C9.70318 6.50753 9.81671 6.31863 10.0032 6.27214C10.1897 6.22564 10.3786 6.33918 10.4251 6.52569L10.8307 8.14928L11.1486 7.19558C11.2312 7.01327 11.446 6.9325 11.6283 7.01516C11.7083 7.05145 11.7724 7.11556 11.8087 7.19558L12.1266 8.14928L12.5321 6.52569C12.5786 6.33918 12.7675 6.22564 12.954 6.27214C13.1406 6.31863 13.2541 6.5075 13.2076 6.69404L12.512 9.47653C12.4744 9.62649 12.3423 9.73361 12.1878 9.73948L12.1739 9.74016Z" fill="#FAFAFA"/>
    </symbol>
    <symbol id="clothes" viewBox="0 0 16 16">
        <path d="M8 1.875H7.53125V3.01587L3.07129 5.69189L3.55383 6.49573L8 3.82776L12.4463 6.49561L12.9288 5.69177L8.46875 3.01587V2.73242C9.01453 2.5387 9.40625 2.01733 9.40625 1.40625C9.40625 0.630859 8.77551 0 8 0C7.22461 0 6.59375 0.630859 6.59375 1.40625H7.53125C7.53125 1.14758 7.74146 0.9375 8 0.9375C8.25867 0.9375 8.46875 1.14758 8.46875 1.40625C8.46875 1.66492 8.25867 1.875 8 1.875Z"/>
        <path d="M7.2395 5.37695L4.75879 6.86572L5.41943 8.46851H10.5802L11.2408 6.8656L8.76013 5.37695C8.53809 5.52234 8.28516 5.62476 7.99976 5.62476C7.71448 5.62476 7.46155 5.52234 7.2395 5.37695Z"/>
        <path d="M5.24902 9.40625L1.65625 14.8263L2.21155 15.0332C2.25623 15.0498 2.73767 15.2256 3.51306 15.4226L5.57336 12.3314L6.35339 12.8514L4.49268 15.6432C5.34753 15.8129 6.3894 15.9673 7.53113 16V12.7188H8.46863V16C9.61047 15.9673 10.6525 15.813 11.5073 15.6432L9.64648 12.8516L10.4265 12.3315L12.4869 15.4226C13.2622 15.2256 13.7437 15.0499 13.7883 15.0332L14.3436 14.8263L10.7509 9.40625H5.24902Z"/>
    </symbol>
    <symbol id="shoes" viewBox="0 0 16 16">
        <path d="M14.6126 11.423L12.7799 10.5126C12.7858 10.4625 12.7891 10.4117 12.7891 10.3601C12.7891 9.63311 12.1977 9.04169 11.4708 9.04169C10.7438 9.04169 10.1524 9.63311 10.1524 10.3601C10.1524 10.4982 10.1738 10.6314 10.2134 10.7565C10.1052 10.7849 9.99342 10.7995 9.8803 10.7995C9.39657 10.7995 8.95383 10.5351 8.72451 10.1096L3.73118 1.50195C3.25523 1.84257 3.30984 1.80818 3.00611 1.99983C2.11549 2.56134 0.457939 3.60679 0.45508 5.74022C0.4542 6.45342 0.859698 7.1378 1.50295 7.5334L1.35354 14.3152H3.02172L4.19306 9.79719C4.65918 10.4431 5.05823 11.1676 5.49628 11.9633C6.23902 13.3128 6.45757 13.6579 6.8833 14.3152H13.928C14.77 14.3152 15.4551 13.63 15.4551 12.788C15.4551 12.2077 15.1332 11.685 14.6126 11.423ZM11.4708 9.92057C11.713 9.92057 11.9102 10.1178 11.9102 10.3601C11.9102 10.6024 11.713 10.7995 11.4708 10.7995C11.2284 10.7995 11.0313 10.6024 11.0313 10.3601C11.0313 10.1178 11.2284 9.92057 11.4708 9.92057ZM2.34159 13.4363H2.25193L2.37121 8.02659C2.80435 8.30811 3.17355 8.62057 3.50156 8.962L2.34159 13.4363Z"/>
    </symbol>
    <symbol id="accessories" viewBox="0 0 16 16">
        <path d="M9.09611 10.3672H6.9043V13.1183H9.09611V10.3672Z"/>
        <path d="M15.176 6.13581L15.1102 5.69016H11.9996V4C11.9996 1.79441 10.2052 0 7.99961 0C5.79401 0 3.99961 1.79441 3.99961 4V5.69016H0.888919L0.823263 6.13581C0.813701 6.20084 0.601513 7.74563 1.74408 9.14863C2.61064 10.2128 3.99258 10.8903 5.86026 11.1706V9.32381H10.139V11.1706C12.0067 10.8903 13.3886 10.2127 14.2552 9.14863C15.3977 7.74563 15.1855 6.20087 15.176 6.13581ZM10.9561 5.69016H5.04308V4C5.04308 2.36978 6.36936 1.04347 7.99961 1.04347C9.62986 1.04347 10.9561 2.36978 10.9561 4V5.69016Z"/>
        <path d="M14.9865 10.0668C14.9719 10.0279 14.9572 9.99022 14.9426 9.95312C13.8792 11.1705 12.2675 11.932 10.1398 12.2251V14.1625H5.86098V12.2252C3.73354 11.9323 2.12163 11.1707 1.05816 9.95319C1.04351 9.99031 1.02888 10.028 1.01426 10.0668C0.500008 11.4333 0.239258 13.2542 0.239258 15.4788V16.0006H15.7614V15.4788C15.7614 13.2542 15.5007 11.4333 14.9865 10.0668Z"/>
    </symbol>
    <symbol id="brands" viewBox="0 0 16 16">
        <path fill-rule="evenodd" clip-rule="evenodd" d="M8 14.5C11.5899 14.5 14.5 11.5899 14.5 8C14.5 4.41015 11.5899 1.5 8 1.5C4.41015 1.5 1.5 4.41015 1.5 8C1.5 11.5899 4.41015 14.5 8 14.5ZM8 16C12.4183 16 16 12.4183 16 8C16 3.58172 12.4183 0 8 0C3.58172 0 0 3.58172 0 8C0 12.4183 3.58172 16 8 16Z"/>
        <path d="M8.2666 8.39746H7.09961V11H5.63477V3.89062H8.27637C9.11621 3.89062 9.764 4.0778 10.2197 4.45215C10.6755 4.8265 10.9033 5.35547 10.9033 6.03906C10.9033 6.52409 10.7975 6.92936 10.5859 7.25488C10.3776 7.57715 10.0602 7.83431 9.63379 8.02637L11.1719 10.9316V11H9.59961L8.2666 8.39746ZM7.09961 7.21094H8.28125C8.64909 7.21094 8.93392 7.11816 9.13574 6.93262C9.33757 6.74382 9.43848 6.48503 9.43848 6.15625C9.43848 5.82096 9.34245 5.55729 9.15039 5.36523C8.96159 5.17318 8.67025 5.07715 8.27637 5.07715H7.09961V7.21094Z"/>
    </symbol>
    <symbol id="premium" viewBox="0 0 16 16">
        <path d="M8.00047 1.65625L5.53906 5.77397H10.4619L8.00047 1.65625Z"/>
        <path d="M8.85547 1.26172L11.13 5.06681L12.1938 1.26172H8.85547Z"/>
        <path d="M3.80664 1.26172L4.87042 5.06681L7.14492 1.26172H3.80664Z"/>
        <path d="M5.37109 6.71094L7.99994 14.2894L10.6288 6.71094H5.37109Z"/>
        <path d="M2.97003 1.75L0 5.77428H4.09509L2.97003 1.75Z"/>
        <path d="M11.6212 6.71094L8.83691 14.7374L15.9742 6.71094H11.6212Z"/>
        <path d="M13.0303 1.75L11.9053 5.77428H16.0004L13.0303 1.75Z"/>
        <path d="M4.37937 6.71094H0.0263672L7.16368 14.7374L4.37937 6.71094Z"/>
    </symbol>
    <symbol id="sport" viewBox="0 0 16 16">
        <path d="M8.42205 8.3009C8.15407 12.0347 6.13319 14.2335 4.73828 15.3135C5.39724 15.6084 6.1032 15.8134 6.84215 15.9214L7.14513 15.6754C8.97902 14.1885 11.1979 11.5437 11.7108 7.37695C10.6899 7.45095 9.58498 7.72893 8.42205 8.3009Z"/>
        <path d="M15.6889 5.7884L15.2839 5.53942C13.837 4.64747 10.0482 2.85359 5.43652 4.77347C6.01949 5.69541 6.84543 6.59535 8.01036 7.3813C11.3521 5.7504 14.3 6.40436 15.9479 7.06432C15.8959 6.62735 15.8079 6.20137 15.6889 5.7884Z"/>
        <path d="M8.00361 0C6.5987 0 5.27879 0.364977 4.13086 1.00194L4.13486 1.03794C4.22785 1.88288 4.46784 2.87982 4.94881 3.89276C9.38752 1.99888 13.1403 3.2648 15.0812 4.27373C13.7402 1.73289 11.0754 0 8.00361 0Z"/>
        <path d="M3.20961 1.60742C2.55965 2.09539 1.98669 2.67735 1.51172 3.33731L1.55472 3.6163C1.91869 5.96315 3.06062 9.25794 6.36542 11.8988C6.91138 10.9148 7.32636 9.69492 7.42935 8.19501C4.53853 6.23413 3.52059 3.6283 3.20961 1.60742Z"/>
        <path d="M0.735954 4.66797C0.267983 5.68591 0 6.81483 0 8.00776C0 10.8726 1.50891 13.3784 3.76976 14.7933L3.86576 14.7243C4.43172 14.3194 5.16768 13.6644 5.82964 12.7485C2.61484 10.2176 1.27292 7.11482 0.735954 4.66797Z"/>
        <path d="M15.8655 8.11428C15.0255 7.7423 13.9516 7.42232 12.7217 7.36133C12.2467 11.5511 10.1769 14.3169 8.29297 15.9988C12.5227 15.8478 15.9125 12.421 16.0005 8.17328L15.8655 8.11428Z"/>
    </symbol>
    <symbol id="beauty" viewBox="0 0 16 16">
        <path d="M15.537 6.95722C15.52 6.94463 13.8144 5.67985 11.8037 4.3131C10.6099 3.5016 9.56434 3.54953 8.89762 3.7326C8.51038 3.83894 8.20647 4.0001 8.00172 4.13241C7.34187 3.74978 6.61222 3.60594 5.87316 3.71594C5.20856 3.81475 4.70312 4.08788 4.46106 4.24185C4.36737 4.30141 4.28356 4.35213 4.20478 4.39681L4.18731 4.40672L0 7.28535L4.03644 10.8648C4.71278 11.4646 5.46938 11.8857 6.28519 12.1165C6.95544 12.3062 7.57394 12.3803 8.13156 12.3803C9.05609 12.3803 9.81303 12.1764 10.3588 11.9577C10.7938 11.7834 11.2043 11.5277 11.5789 11.1976L16 7.30094L15.537 6.95722ZM8.00747 8.38635C7.37028 8.38635 6.78406 7.97197 6.44391 7.67278C6.78431 7.37341 7.37041 6.9591 8.00747 6.9591C8.64403 6.9591 9.22966 7.37266 9.57016 7.672C9.22859 7.97125 8.64066 8.38635 8.00747 8.38635Z"/>
    </symbol>
    <symbol id="home" viewBox="0 0 16 16">
        <path fill-rule="evenodd" clip-rule="evenodd" d="M14.5427 0.804437C14.6419 0.507593 14.9223 0.292969 15.2521 0.292969C15.6645 0.292969 16 0.628531 16 1.04094C16 1.45334 15.6645 1.78887 15.2521 1.78887C14.9223 1.78887 14.6419 1.57425 14.5427 1.2774H13.8207V1.90306H14.5083V15.7069H13C11.1016 15.7069 10.9785 14.4578 10.9785 14.4578H5.02152C5.02152 14.4578 5.02152 15.7069 3 15.7069H1.49172V1.90306H2.17928V1.27737H1.45734C1.35812 1.57422 1.07772 1.78884 0.747936 1.78884C0.335531 1.78884 0 1.45334 0 1.0409C0 0.628531 0.335531 0.292969 0.747936 0.292969C1.07772 0.292969 1.35812 0.507593 1.45731 0.804437H2.17925V0.606499H2.65221V0.804437H3.40968V0.606499H3.88259V0.804437H4.63999V0.606499H5.11296V0.804437H5.87036V0.606499H6.34333V0.804437H9.65661V0.606499H10.1296V0.804437H10.887V0.606499H11.36V0.804437H12.1174V0.606499H12.5903V0.804437H13.3478V0.606499H13.8207V0.804437H14.5427ZM0.472968 1.04094C0.472968 1.19256 0.596311 1.3159 0.747936 1.3159C0.89953 1.3159 1.02287 1.19253 1.0229 1.04094C1.0229 0.889311 0.899561 0.765968 0.747936 0.765968C0.596311 0.765968 0.472968 0.889311 0.472968 1.04094ZM13.3478 1.2774H12.5904V1.90306H13.3478V1.2774ZM12.1174 1.2774H11.36V1.90306H12.1174V1.2774ZM10.887 1.2774H10.1296V1.90306H10.887V1.2774ZM9.65664 1.2774H6.34333V1.90306H7.23077L7.2328 2.1375C7.23292 2.15134 7.23349 2.24065 7.23061 2.39131H8.76936C8.76648 2.24065 8.76705 2.15134 8.76717 2.1375L8.7692 1.90306H9.65664V1.2774ZM10.9784 12.9464V12.4886H8.33101V3.32206H8.81061C8.79942 3.15478 8.79108 3.00134 8.78486 2.86428H7.21511C7.20892 3.00134 7.20058 3.15474 7.18936 3.32206H7.82658V12.4886H5.02152V12.9464H10.9784ZM4 10L5.02152 12.0156H7.35364V3.79502H7.15252C7.1137 4.23177 7.05636 4.72965 6.97155 5.25724C6.64657 7.2781 5.23502 8.72888 4.2771 9.71342L4.27699 9.71353C4.17941 9.81382 4.08653 9.90928 4 10ZM4 10V10.25H2V9.75H4V10ZM5.87036 1.2774H5.11296V1.90306H5.87036V1.2774ZM4.63999 1.2774H3.88259V1.90306H4.63999V1.2774ZM3.40965 1.2774H2.65221V1.90306H3.40965V1.2774ZM5.02152 13.9848H10.9785V13.4194H5.02152V13.9848ZM8.80405 12.0156H10.9785L12 10V10.25H14V9.75H12V10C11.9135 9.90927 11.8206 9.81382 11.723 9.71352C10.7651 8.72901 9.35347 7.2782 9.02851 5.25727C8.94364 4.72965 8.8863 4.23174 8.84751 3.79502H8.80405V12.0156ZM14.9771 1.04094C14.9771 1.19256 15.1004 1.3159 15.2521 1.3159C15.4037 1.3159 15.527 1.19253 15.527 1.04094C15.527 0.889311 15.4037 0.765968 15.2521 0.765968C15.1004 0.765968 14.9771 0.889311 14.9771 1.04094ZM1.75 2V3H2.25V2H1.75ZM2.75 2V3H3.25V2H2.75ZM3.75 2V3H4.25V2H3.75ZM4.75 2V3H5.25V2H4.75ZM5.75 2V3H6.25V2H5.75ZM9.75 2V3H10.25V2H9.75ZM10.75 2V3H11.25V2H10.75ZM11.75 2V3H12.25V2H11.75ZM12.75 2V3H13.25V2H12.75ZM13.75 2V3H14.25V2H13.75Z"/>
    </symbol>
    <symbol id="sale" viewBox="0 0 16 16">
        <path d="M14.9356 8.20729C14.8713 8.07557 14.8713 7.92451 14.9356 7.79283L15.5324 6.57205C15.8646 5.89234 15.6014 5.08219 14.9331 4.72759L13.7328 4.09072C13.6033 4.02204 13.5145 3.89979 13.4891 3.75544L13.2544 2.41704C13.1237 1.67186 12.4344 1.17111 11.6854 1.27708L10.34 1.46739C10.1948 1.48789 10.0512 1.44121 9.94584 1.3393L8.96925 0.394556C8.42548 -0.131503 7.57361 -0.131534 7.02986 0.394556L6.05324 1.33939C5.94787 1.44133 5.80427 1.48792 5.65909 1.46749L4.31369 1.27718C3.56447 1.17115 2.87542 1.67196 2.7447 2.41714L2.50995 3.75547C2.4846 3.89985 2.39582 4.02207 2.26636 4.09079L1.06605 4.72766C0.397742 5.08222 0.134493 5.89243 0.466742 6.57214L1.06346 7.79289C1.12783 7.92461 1.12783 8.07567 1.06346 8.20735L0.46671 9.4281C0.134462 10.1078 0.397711 10.918 1.06602 11.2726L2.26632 11.9094C2.39582 11.9781 2.4846 12.1004 2.50995 12.2447L2.7447 13.5831C2.8637 14.2615 3.44538 14.7372 4.11391 14.7372C4.17975 14.7372 4.24656 14.7325 4.31372 14.723L5.65912 14.5327C5.80421 14.5121 5.9479 14.5589 6.05327 14.6608L7.02986 15.6056C7.3018 15.8686 7.65061 16.0001 7.99954 16.0001C8.34838 16.0001 8.69741 15.8686 8.96922 15.6056L9.94584 14.6608C10.0512 14.5589 10.1948 14.5123 10.34 14.5327L11.6854 14.723C12.4347 14.829 13.1237 14.3283 13.2544 13.5831L13.4892 12.2447C13.5145 12.1004 13.6033 11.9781 13.7328 11.9094L14.9331 11.2726C15.6014 10.918 15.8646 10.1078 15.5324 9.42807L14.9356 8.20729ZM6.1539 3.84741C7.08677 3.84741 7.84573 4.60638 7.84573 5.53925C7.84573 6.47211 7.08677 7.23108 6.1539 7.23108C5.22103 7.23108 4.46206 6.47211 4.46206 5.53925C4.46206 4.60638 5.22103 3.84741 6.1539 3.84741ZM5.28065 11.3714C5.19056 11.4615 5.07246 11.5066 4.9544 11.5066C4.83634 11.5066 4.71822 11.4616 4.62815 11.3714C4.44797 11.1912 4.44797 10.8991 4.62815 10.7189L10.7184 4.62866C10.8986 4.44847 11.1907 4.44847 11.3709 4.62866C11.5511 4.80884 11.5511 5.101 11.3709 5.28118L5.28065 11.3714ZM9.84512 12.1527C8.91225 12.1527 8.15329 11.3938 8.15329 10.4609C8.15329 9.52803 8.91225 8.76907 9.84512 8.76907C10.778 8.76907 11.537 9.52803 11.537 10.4609C11.537 11.3938 10.778 12.1527 9.84512 12.1527Z"/>
        <path d="M9.8452 9.69141C9.42117 9.69141 9.07617 10.0364 9.07617 10.4604C9.07617 10.8844 9.42114 11.2294 9.8452 11.2294C10.2692 11.2294 10.6142 10.8844 10.6142 10.4604C10.6142 10.0364 10.2692 9.69141 9.8452 9.69141Z"/>
        <path d="M6.15474 4.76953C5.73071 4.76953 5.38574 5.1145 5.38574 5.53853C5.38574 5.96256 5.73071 6.30755 6.15474 6.30755C6.57877 6.30755 6.92376 5.96259 6.92376 5.53853C6.92373 5.11453 6.57877 4.76953 6.15474 4.76953Z"/>
    </symbol>
</svg>