<svg width="15" height="15" viewBox="0 0 15 15" fill="none" xmlns="http://www.w3.org/2000/svg">
<path d="M0.468738 4.75H14.5312C14.79 4.75 15 4.52598 15 4.25C15 3.97398 14.7899 3.75 14.5312 3.75H0.468738C0.209977 3.75 0 3.97402 0 4.25C0 4.52598 0.210016 4.75 0.468738 4.75Z" fill="#FECA13"/>
<path d="M14.5312 7.03125H0.468738C0.209977 7.03125 0 7.25527 0 7.53125C0 7.80723 0.210016 8.03125 0.468738 8.03125H14.5312C14.79 8.03125 15 7.80723 15 7.53125C15 7.25527 14.79 7.03125 14.5312 7.03125Z" fill="#FECA13"/>
<path d="M14.5312 10.3125H5.15624C4.89748 10.3125 4.6875 10.5365 4.6875 10.8125C4.6875 11.0885 4.89752 11.3125 5.15624 11.3125H14.5312C14.79 11.3125 15 11.0885 15 10.8125C15 10.5365 14.79 10.3125 14.5312 10.3125Z" fill="#FECA13"/>
</svg>
