<?xml version="1.0" encoding="UTF-8"?>
<!DOCTYPE svg PUBLIC "-//W3C//DTD SVG 1.1//EN" "http://www.w3.org/Graphics/SVG/1.1/DTD/svg11.dtd">
<svg xmlns="http://www.w3.org/2000/svg">
    <symbol id="id" viewBox="0 0 15 15">
        <path d="M2.6193 12.9028C2.71649 12.9722 2.84246 12.9868 2.95295 12.9416L6.78124 11.3746C6.83771 11.3516 6.88712 11.314 6.92445 11.2658L12.5231 4.03677C12.8813 3.57417 13.0396 2.98723 12.9622 2.40707C12.885 1.82705 12.5786 1.30201 12.1115 0.949356L11.4675 0.462862C10.5092 -0.255884 9.15168 -0.0742633 8.41597 0.871169L2.78939 8.15175C2.74663 8.20726 2.72152 8.27446 2.71744 8.34436L2.4742 12.6001C2.46741 12.7193 2.52225 12.8336 2.6193 12.9028ZM3.37293 9.05415L5.93001 10.9719L3.19946 12.0894L3.37293 9.05415ZM6.57234 10.5849L3.54302 8.31301L8.11218 2.40069L11.1342 4.69484L6.57234 10.5849ZM8.96585 1.29604C9.46809 0.650862 10.3945 0.526796 11.0487 1.01736L11.6926 1.50386C12.0115 1.74452 12.2205 2.10288 12.2733 2.49883C12.3261 2.89479 12.2181 3.29536 11.9735 3.61123L11.5597 4.14537L8.53718 1.85081L8.96585 1.29604Z" fill="#F0BB00"/>
        <path d="M14.6525 14.3066H0.347496C0.155559 14.3066 0 14.4622 0 14.6542C0 14.8461 0.155559 15.0017 0.347496 15.0017H14.6525C14.8444 15.0017 15 14.8461 15 14.6542C15 14.4622 14.8444 14.3066 14.6525 14.3066Z" fill="#F0BB00"/>
    </symbol>  
</svg>
