<svg width="24" height="24" viewBox="0 0 24 24" fill="none" xmlns="http://www.w3.org/2000/svg">
<path d="M5.85714 0.880871C6.7619 2.11897 7.8254 3.70627 9.04762 5.64278C9.34921 6.15071 9.30159 6.7777 8.90476 7.52373C8.77778 7.7777 8.39683 8.48405 7.7619 9.64278C7.88889 9.83325 8.03571 10.0317 8.20238 10.238C8.36905 10.4444 8.54762 10.6626 8.7381 10.8928C8.92857 11.1229 9.13492 11.3571 9.35714 11.5952C9.57936 11.8333 9.81349 12.0833 10.0595 12.3452C10.3056 12.6071 10.5635 12.8729 10.8333 13.1428C12.2302 14.5396 13.3889 15.5713 14.3095 16.238C15.3413 15.6348 16.0476 15.238 16.4286 15.0475C16.8254 14.8253 17.2064 14.7142 17.5714 14.7142C17.8571 14.7142 18.1032 14.7777 18.3095 14.9047C19.7222 15.7618 21.3254 16.8253 23.119 18.0952C23.4365 18.3491 23.627 18.6825 23.6905 19.0952C23.7381 19.5237 23.6032 19.984 23.2857 20.4761C23.1587 20.6666 22.9127 20.984 22.5476 21.4285C22.2143 21.8412 21.7103 22.365 21.0357 22.9999C20.3611 23.6348 19.8095 23.9523 19.381 23.9523H19.3333C17.6984 23.8888 15.881 23.246 13.881 22.0237C11.881 20.8015 9.69048 19.0079 7.30952 16.6428C2.56349 11.8809 0.126984 7.87293 0 4.61897C0 4.19039 0.31746 3.6269 0.952381 2.92849C1.57143 2.26182 2.0873 1.76182 2.5 1.42849C2.9127 1.11103 3.24603 0.864998 3.5 0.690395C3.83333 0.4523 4.22222 0.333252 4.66667 0.333252C5.1746 0.333252 5.57143 0.515792 5.85714 0.880871ZM4.33333 1.85706C3.71429 2.30151 3.11111 2.81738 2.52381 3.40468C1.95238 3.97611 1.61905 4.39674 1.52381 4.66659C1.65079 7.52373 3.93254 11.1666 8.36905 15.5952C12.8056 20.0237 16.4603 22.3174 19.3333 22.4761C19.5714 22.3809 19.9762 22.0396 20.5476 21.4523C21.119 20.865 21.6349 20.2539 22.0952 19.619C22.1429 19.5555 22.1746 19.496 22.1905 19.4404C22.2064 19.3848 22.2064 19.3333 22.1905 19.2856C20.3651 18.0158 18.8254 16.984 17.5714 16.1904C17.4444 16.1904 17.2857 16.238 17.0952 16.3333C17.0317 16.365 16.7778 16.5079 16.3333 16.7618C15.8889 17.0158 15.4524 17.2539 15.0238 17.4761L14.2381 17.9523L13.4524 17.4285C12.4524 16.746 11.2222 15.6586 9.7619 14.1666C8.33333 12.7221 7.2619 11.492 6.54762 10.4761L5.97619 9.73801L6.45238 8.90468C7.03968 7.84119 7.42064 7.15071 7.59524 6.83325C7.69048 6.64278 7.7381 6.48405 7.7381 6.35706C7.19841 5.49992 6.6746 4.68643 6.16667 3.91659C5.65873 3.14674 5.1746 2.42849 4.71429 1.76182H4.66667C4.53968 1.76182 4.42857 1.79357 4.33333 1.85706Z" fill="#404040"/>
</svg>
