<?xml version="1.0" encoding="UTF-8"?>
<!DOCTYPE svg PUBLIC "-//W3C//DTD SVG 1.1//EN" "http://www.w3.org/Graphics/SVG/1.1/DTD/svg11.dtd">
<svg xmlns="http://www.w3.org/2000/svg">
    <symbol id="id" viewBox="0 0 15 15">
        <path d="M7.50544 2.74146e-05C4.47416 2.74146e-05 1.74142 1.82601 0.581446 4.62656C-0.578524 7.42698 0.0625794 10.6505 2.20597 12.794C4.09795 14.6938 6.86074 15.4382 9.45109 14.746C12.0414 14.0539 14.0647 12.0305 14.7569 9.44031C15.4489 6.84995 14.7046 4.08715 12.8048 2.19517C11.4024 0.78507 9.49411 -0.0053654 7.50544 2.74146e-05ZM3.45415 12.9984V12.3499C3.45415 10.1125 5.26794 8.29857 7.50544 8.29857C9.74295 8.29857 11.5567 10.1125 11.5567 12.3499V12.9984C9.14833 14.776 5.86256 14.776 3.45415 12.9984ZM12.2141 12.4473V12.3499C12.2141 9.75361 10.1018 7.64128 7.50544 7.64128C4.90906 7.64128 2.79674 9.75361 2.79674 12.3499V12.4473C1.43711 11.1588 0.667346 9.36776 0.668373 7.49452C0.668373 3.72455 3.73548 0.657439 7.50544 0.657439C11.2754 0.657439 14.3425 3.72455 14.3425 7.49452C14.3434 9.36776 13.5738 11.1588 12.214 12.4473H12.2141Z" fill="#A5A5A5"/>
        <path d="M7.52066 2.20703C6.11725 2.20703 4.97949 3.34479 4.97949 4.74821C4.97949 6.15163 6.11725 7.28939 7.52066 7.28939C8.92408 7.28939 10.0618 6.15163 10.0618 4.74821C10.0602 3.34543 8.92344 2.2087 7.52066 2.20703ZM7.52066 6.63198C6.48036 6.63198 5.6369 5.78851 5.6369 4.74821C5.6369 3.70778 6.48036 2.86444 7.52066 2.86444C8.56109 2.86444 9.40443 3.70778 9.40443 4.74821C9.40327 5.78813 8.56058 6.63082 7.52066 6.63198Z" fill="#A5A5A5"/>
    </symbol>  
</svg>
