<?xml version="1.0" encoding="UTF-8"?>
<!DOCTYPE svg PUBLIC "-//W3C//DTD SVG 1.1//EN" "http://www.w3.org/Graphics/SVG/1.1/DTD/svg11.dtd">
<svg xmlns="http://www.w3.org/2000/svg">
    <symbol id="id" viewBox="0 0 14 14">
        <path d="M0.716666 12.1333V12.35H3.48333V12.1333V7.95H0.716666V12.1333ZM5.61667 12.1333V12.35H8.38333V12.1333V4.21667H5.61667V12.1333ZM10.5167 12.1333V12.35H13.2833V12.1333V0.25H10.5167V12.1333Z" stroke-width="0.5"/>
<!--path id="fill" d="M0.233334 12.8334H0.466666V8.63341C0.466666 8.49341 0.56 8.40007 0.7 8.40007H3.5C3.64 8.40007 3.73333 8.49341 3.73333 8.63341V12.8334H5.36667V4.90007C5.36667 4.76007 5.46 4.66674 5.6 4.66674H8.4C8.54 4.66674 8.63333 4.76007 8.63333 4.90007V12.8334H10.2667V0.933407C10.2667 0.793407 10.36 0.700073 10.5 0.700073H13.3C13.44 0.700073 13.5333 0.793407 13.5333 0.933407V12.8334H13.7667C13.9067 12.8334 14 12.9267 14 13.0667C14 13.2067 13.9067 13.3001 13.7667 13.3001H0.233334C0.0933336 13.3001 0 13.2067 0 13.0667C0 12.9267 0.0933336 12.8334 0.233334 12.8334Z"/-->


<!--path id="stroke"  d="M0.233333 12.8334H0.466667V8.63341C0.466667 8.49341 0.56 8.40007 0.7 8.40007H3.5C3.64 8.40007 3.73333 8.49341 3.73333 8.63341V12.8334H5.36667V4.90007C5.36667 4.76007 5.46 4.66674 5.6 4.66674H8.4C8.54 4.66674 8.63333 4.76007 8.63333 4.90007V12.8334H10.2667V0.933407C10.2667 0.793407 10.36 0.700073 10.5 0.700073H13.3C13.44 0.700073 13.5333 0.793407 13.5333 0.933407V12.8334H13.7667C13.9067 12.8334 14 12.9267 14 13.0667C14 13.2067 13.9067 13.3001 13.7667 13.3001H0.233333C0.0933333 13.3001 -5.96046e-08 13.2067 -5.96046e-08 13.0667C-5.96046e-08 12.9267 0.0933333 12.8334 0.233333 12.8334ZM10.7333 12.8334H13.0667V1.16674H10.7333V12.8334ZM5.83333 12.8334H8.16667V5.13341H5.83333V12.8334ZM0.933333 12.8334H3.26667V8.86674H0.933333V12.8334Z"/-->

    </symbol>  
</svg>
