<svg width="60" height="60" viewBox="0 0 60 60" fill="none" xmlns="http://www.w3.org/2000/svg">
<circle cx="30" cy="30" r="30" fill="#EEE6F5"/>
<path d="M39.5999 38.746L38.2257 23.2712C38.1962 22.9276 37.9067 22.6675 37.568 22.6675H34.741C34.7018 20.0859 32.5913 18 29.9999 18C27.4085 18 25.2981 20.0859 25.2588 22.6675H22.4318C22.0883 22.6675 21.8036 22.9276 21.7742 23.2712L20.3999 38.746C20.3999 38.7656 20.395 38.7853 20.395 38.8049C20.395 40.5669 22.0097 42 23.9975 42H36.0024C37.9901 42 39.6048 40.5669 39.6048 38.8049C39.6048 38.7853 39.6048 38.7656 39.5999 38.746ZM29.9999 19.3252C31.8601 19.3252 33.3766 20.8172 33.4159 22.6675H26.584C26.6232 20.8172 28.1398 19.3252 29.9999 19.3252ZM36.0024 40.6748H23.9975C22.7508 40.6748 21.7398 39.8503 21.7202 38.8344L23.0355 23.9975H25.2539V26.0098C25.2539 26.3779 25.5484 26.6724 25.9165 26.6724C26.2846 26.6724 26.5791 26.3779 26.5791 26.0098V23.9975H33.4159V26.0098C33.4159 26.3779 33.7104 26.6724 34.0785 26.6724C34.4466 26.6724 34.741 26.3779 34.741 26.0098V23.9975H36.9594L38.2797 38.8344C38.2601 39.8503 37.2441 40.6748 36.0024 40.6748Z" fill="#924CD5"/>
</svg>
