<svg width="64" height="28" viewBox="0 0 64 28" fill="none" xmlns="http://www.w3.org/2000/svg">
<path d="M0 26.8161V21.6486C0.75793 25.4754 4.06504 27.4068 8.61018 27.4068C13.5111 27.4068 16.46 25.0799 16.46 20.9397C16.46 19.0107 15.9433 17.7447 14.3471 16.7995C13.6412 16.3722 12.8942 16.0152 12.1171 15.7337C11.0716 15.3517 10.0068 15.0234 8.927 14.7499L7.0139 14.1977C6.65565 14.0772 6.09756 13.9204 5.33963 13.6455C4.75368 13.436 4.18358 13.1854 3.63368 12.8956C2.95617 12.4616 1.64259 11.5935 1.12349 10.7664C0.52159 9.69184 0.203873 8.48418 0.19984 7.2556C0.19984 2.99724 3.18769 0 8.77347 0C11.5225 0 13.7548 0.670341 15.5485 1.97244L17.2618 0.827075V1.22253V6.34895C16.8231 4.02205 14.9393 2.36548 13.4648 1.61798C12.2191 0.911149 10.8013 0.555861 9.36568 0.590768C5.0618 0.590768 2.19337 2.99724 2.19337 6.62625C2.18379 7.83075 2.62475 8.9962 3.4314 9.89838C3.91347 10.3285 4.46552 10.675 5.06424 10.9232C5.67044 11.2162 6.29668 11.4668 6.93835 11.6731L9.29013 12.382C10.3657 12.7035 11.2422 12.98 11.9197 13.2115C12.7462 13.4751 13.5459 13.815 14.3081 14.2267C15.109 14.6174 15.8479 15.1219 16.5014 15.7241C17.5762 16.7103 18.4511 18.485 18.4511 20.5467C18.4511 24.9618 15.222 28 9.00499 28C6.09512 28 3.70435 27.3272 1.75226 26.0276L0 27.2091V26.8161Z" fill="#A5A5A5"/>
<path d="M27.2075 12.4797V10.9461C27.4512 12.0625 28.4163 12.634 29.7055 12.634C31.0386 12.634 31.8477 11.9805 31.8477 10.852C31.8564 10.498 31.7303 10.1537 31.4943 9.88752C31.3641 9.75758 31.2092 9.65433 31.0386 9.5837C30.8612 9.49787 30.6789 9.42219 30.4927 9.35704C30.344 9.30158 30.1052 9.23406 29.7616 9.14243L29.1231 8.96399L28.5528 8.75903C28.363 8.68738 28.1855 8.58736 28.0264 8.46244C27.7746 8.29455 27.5709 8.06513 27.4352 7.79643C27.2994 7.52774 27.2361 7.22888 27.2514 6.92886C27.2514 5.66534 28.119 4.78521 29.7933 4.78521C30.4741 4.76136 31.1452 4.95035 31.7112 5.32534L32.2571 4.9851V5.11074V6.64674C32.218 6.3631 31.9112 6.09152 31.7537 5.85142C31.5961 5.61132 31.3869 5.40863 31.141 5.25783C30.7794 5.05452 30.3699 4.94968 29.9541 4.954C28.7794 4.954 28.0044 5.60747 28.0044 6.61298C27.9997 6.94575 28.1224 7.26797 28.3481 7.5148C28.4781 7.62916 28.6242 7.72419 28.7819 7.79692C28.9486 7.87365 29.1194 7.94127 29.2937 7.99947L29.9565 8.20443L30.7315 8.44556C30.9764 8.5321 31.213 8.64024 31.4383 8.76868C31.67 8.87711 31.8823 9.02207 32.067 9.19789C32.4306 9.57402 32.6309 10.076 32.6251 10.5964C32.6251 11.9058 31.6893 12.7955 29.8322 12.7955C29.1048 12.8198 28.3861 12.6319 27.7656 12.2554L27.2075 12.593V12.4797Z" fill="#A5A5A5"/>
<path d="M35.0527 7.30005C35.6938 7.14282 36.4979 6.47793 36.7026 5.83398V5.96902V7.0975H38.6084V7.30005H36.7026V11.3317C36.7026 12.0551 37.056 12.494 37.6604 12.494C37.837 12.4917 38.0112 12.4535 38.1722 12.3817C38.3332 12.31 38.4775 12.2062 38.5962 12.0768L38.723 12.2119C38.5357 12.3997 38.3115 12.5476 38.0642 12.6463C37.8168 12.745 37.5517 12.7925 37.2851 12.7858C36.2932 12.7858 35.779 12.1998 35.779 11.339V7.30005H35.0527Z" fill="#A5A5A5"/>
<path d="M41.8274 7.39183L41.1548 7.09766H43.4822L42.7852 7.39183L44.7812 11.7708L46.7649 7.39183L45.8315 7.09766H47.7008L46.9818 7.39183L44.5643 12.7401C44.2997 13.3577 43.9731 13.9474 43.5894 14.5003C43.4884 14.6556 43.3506 14.784 43.1879 14.8743C43.0251 14.9647 42.8426 15.0143 42.656 15.0188C42.1881 15.0188 41.6983 14.7776 41.6983 14.2399C41.6892 14.1686 41.6957 14.0961 41.7174 14.0275C41.739 13.9589 41.7754 13.8957 41.8239 13.8422C41.8725 13.7886 41.9321 13.7461 41.9987 13.7174C42.0653 13.6886 42.1374 13.6744 42.21 13.6757C42.2838 13.6722 42.3575 13.6841 42.4264 13.7105C42.4953 13.7369 42.5578 13.7774 42.6099 13.8292C42.662 13.881 42.7026 13.943 42.729 14.0112C42.7554 14.0795 42.7671 14.1525 42.7633 14.2255V14.7077C42.8051 14.7302 42.8521 14.7418 42.8997 14.7415C43.3555 14.7415 43.7673 14.0301 44.3035 12.8124L41.8274 7.39183Z" fill="#A5A5A5"/>
<path d="M50.0381 12.7403V12.6511L50.7229 12.4462V4.9422L50.0381 4.69383L51.649 4.54688V4.68419V12.4462L52.3338 12.7403H50.0381Z" fill="#A5A5A5"/>
<path d="M60.3008 9.91971H55.9555C55.9555 11.557 56.789 12.5046 58.261 12.5046C58.5784 12.5146 58.8945 12.4608 59.1902 12.3464C59.486 12.232 59.7552 12.0594 59.9816 11.8391L60.1083 11.9621C59.8158 12.2422 59.4688 12.4606 59.0884 12.604C58.708 12.7474 58.3022 12.8129 57.8954 12.7964C56.9498 12.7964 56.2187 12.5384 55.7288 12.0175C55.2283 11.465 54.9659 10.7407 54.9977 9.99928C54.9783 9.6096 55.038 9.22002 55.1732 8.85351C55.3084 8.487 55.5164 8.15099 55.7849 7.86528C56.048 7.59814 56.3643 7.38797 56.7137 7.24809C57.0632 7.10821 57.4382 7.04167 57.815 7.05268C58.4742 7.02726 59.1172 7.25838 59.6063 7.69649C60.2674 8.29205 60.3061 9.08678 60.3008 9.91971ZM56.5404 7.8894C56.1626 8.32825 55.9701 8.95037 55.9457 9.75092L59.3796 9.60383C59.3796 8.07989 58.8093 7.22388 57.8516 7.22388C57.5962 7.22851 57.3453 7.29089 57.118 7.40624C56.8907 7.52159 56.6932 7.68686 56.5404 7.8894Z" fill="#A5A5A5"/>
<path d="M12.2147 22.134H19.8573L21.5949 19.3513V22.6813H7.44043L9.23412 22.0255V4.36512L7.44043 3.57422H14.0083L12.2147 4.36512V22.134Z" fill="#FECA13"/>
<path d="M38.7008 24.6408H42.6002L43.6237 23.0662V24.9663H35.7715L36.7463 24.5781V15.0438L35.7715 14.5664H39.6708L38.696 15.0438L38.7008 24.6408Z" fill="white"/>
<path d="M45.4102 24.9679L46.3119 24.5073V18.086L45.4102 17.8738L48.1884 17.4567V17.664V24.5266L49.0901 24.9872L45.4102 24.9679ZM47.1527 16.6392C46.0706 16.7285 45.5759 15.272 46.2826 14.6186C46.3971 14.5068 46.5331 14.4189 46.6825 14.3601C46.832 14.3012 46.9919 14.2727 47.1527 14.2762C47.3101 14.2704 47.467 14.2969 47.6136 14.3538C47.7602 14.4108 47.8934 14.4971 48.0048 14.6073C48.1162 14.7175 48.2034 14.8493 48.261 14.9944C48.3186 15.1394 48.3453 15.2947 48.3395 15.4505C48.3459 15.607 48.3197 15.7633 48.2625 15.9094C48.2054 16.0555 48.1184 16.1885 48.0071 16.3C47.8958 16.4114 47.7625 16.4991 47.6155 16.5575C47.4685 16.6158 47.311 16.6437 47.1527 16.6392Z" fill="white"/>
<path d="M51.2518 17.4366V16.5445C51.2518 15.0736 52.1828 14.2127 54.0886 14.2127C54.6329 14.1952 55.1735 14.3068 55.6653 14.5383C55.8647 14.6223 56.0341 14.7635 56.1517 14.9435C56.2694 15.1235 56.33 15.3342 56.3258 15.5486C56.337 15.6619 56.3231 15.7762 56.2852 15.8837C56.2474 15.9912 56.1863 16.0893 56.1064 16.1712C56.0264 16.253 55.9294 16.3167 55.8222 16.3579C55.7149 16.399 55.5998 16.4166 55.485 16.4094C54.9001 16.4094 54.4955 15.9947 54.4955 15.3268V14.5383C54.3739 14.4759 54.24 14.4405 54.1032 14.4346C53.489 14.4346 53.1283 15.2375 53.1283 16.5445V17.5403H55.5313V17.8658H53.1283V24.5066L54.4809 24.9671H50.3379L51.2396 24.5066V17.8658H50.3379L51.2518 17.4366Z" fill="white"/>
<path d="M63.9856 21.2532H58.6533C58.6679 23.4378 59.5989 24.5229 61.4462 24.5229C61.848 24.5302 62.247 24.456 62.6187 24.3051C62.9905 24.1542 63.3271 23.9296 63.6079 23.6452L63.7736 23.8236C63.3645 24.2214 62.8784 24.5333 62.3444 24.7404C61.8105 24.9476 61.2397 25.0459 60.6663 25.0293C59.4039 25.0293 58.4291 24.6893 57.7419 24.0189C57.0546 23.3486 56.7354 22.4443 56.7354 21.3303C56.7354 20.156 57.096 19.2204 57.8004 18.5236C58.1617 18.1716 58.592 17.8964 59.0647 17.7148C59.5374 17.5332 60.0426 17.449 60.5494 17.4674C61.4456 17.4338 62.3226 17.7302 63.0108 18.2993C63.9368 19.0669 63.9856 20.1359 63.9856 21.2532ZM58.6533 21.0313L62.1822 20.7902C62.1822 18.7406 61.6729 17.7134 60.6371 17.7134C59.6013 17.7134 58.7143 18.8322 58.6533 21.0313Z" fill="white"/>
<path d="M26.6324 24.9675V24.2996C28.0947 22.946 29.0857 21.9702 29.6057 21.3722C30.9582 19.7977 31.6333 18.2834 31.6479 16.8269C31.6479 15.4742 31.0167 14.7315 29.8908 14.7315C29.4819 14.7276 29.0833 14.8582 28.7576 15.1029V16.5738C28.7576 17.2971 28.3384 17.7191 27.6779 17.7191C27.536 17.7282 27.3938 17.707 27.2609 17.6569C27.1281 17.6068 27.0076 17.5291 26.9078 17.4289C26.8079 17.3288 26.731 17.2085 26.6822 17.0764C26.6335 16.9442 26.614 16.8032 26.6251 16.663C26.6251 16.024 26.9419 15.5056 27.5999 15.1029C28.339 14.6804 29.1842 14.4747 30.037 14.5097C32.2596 14.5097 33.5659 15.4308 33.5659 17.1621C33.5659 18.1556 33.0541 19.1972 32.4083 20.0123C32.0084 20.4912 31.5663 20.9342 31.0874 21.3361C30.5317 21.8183 30.0224 22.2282 29.5862 22.5417C29.1499 22.8552 28.565 23.2651 27.8583 23.7474H32.7982L33.6585 22.3392V24.9675H26.6324Z" fill="white"/>
</svg>
