<svg width="70" height="92" viewBox="0 0 70 92" fill="none" xmlns="http://www.w3.org/2000/svg">
<path d="M0 88.1099V71.1312C2.50575 83.7048 13.4392 90.051 28.4656 90.051C44.6683 90.051 54.4174 82.4054 54.4174 68.8019C54.4174 62.4636 52.7093 58.3042 47.4319 55.1984C45.0983 53.7943 42.6288 52.6212 40.0597 51.6965C36.603 50.4414 33.0828 49.3625 29.513 48.464L23.1882 46.6497C22.0038 46.2535 20.1588 45.7385 17.653 44.8353C15.7159 44.1469 13.8311 43.3235 12.0131 42.3713C9.77321 40.9452 5.43046 38.093 3.7143 35.3755C1.7244 31.8446 0.674013 27.8766 0.660679 23.8398C0.660679 9.84809 10.5386 0 29.0054 0C38.0938 0 45.474 2.20255 51.404 6.48088L57.0682 2.71753V4.01688V20.8608C55.6179 13.2153 49.3898 7.7723 44.5153 5.31622C40.3968 2.99378 35.7095 1.8264 30.9633 1.9411C16.7345 1.9411 7.25135 9.84809 7.25135 21.772C7.21971 25.7296 8.67753 29.559 11.3443 32.5233C12.9381 33.9366 14.7632 35.075 16.7426 35.8905C18.7467 36.8533 20.8171 37.6767 22.9384 38.3545L30.7135 40.6838C34.2694 41.7402 37.1672 42.6486 39.4071 43.4092C42.1395 44.2753 44.7831 45.392 47.303 46.7447C49.951 48.0287 52.3939 49.6862 54.5544 51.6648C58.1075 54.9053 61 60.7365 61 67.5105C61 82.0172 50.3244 92 29.7708 92C20.1507 92 12.2467 89.7895 5.79303 85.5191L0 89.4013V88.1099Z" fill="#D1D1D1"/>
<path d="M40.1782 72.2239H64.4757L70 63.1946V74H25L30.7025 71.8718V14.5664L25 12H45.8807L40.1782 14.5664V72.2239Z" fill="#F9D34D"/>
</svg>
