<svg viewBox="0 0 147 65" fill="none" xmlns="http://www.w3.org/2000/svg">
<path d="M0 62.2515V50.2558C1.74087 59.1392 9.33689 63.623 19.7765 63.623C31.0334 63.623 37.8066 58.2212 37.8066 48.6101C37.8066 44.1319 36.6199 41.1932 32.9534 38.9989C31.3321 38.0068 29.6164 37.178 27.8315 36.5247C25.43 35.638 22.9843 34.8757 20.5042 34.2409L16.1101 32.959C15.2872 32.6791 14.0053 32.3153 12.2645 31.6771C10.9186 31.1908 9.60917 30.609 8.3461 29.9363C6.78995 28.9287 3.77282 26.9135 2.58052 24.9935C1.19803 22.4989 0.468272 19.6954 0.459008 16.8433C0.459008 6.95789 7.32173 0 20.1516 0C26.4657 0 31.5932 1.55615 35.713 4.57888L39.6482 1.92V2.83801V14.7386C38.6406 9.33689 34.3136 5.4913 30.927 3.75603C28.0657 2.11517 24.8092 1.29039 21.5118 1.37143C11.6263 1.37143 5.03789 6.95789 5.03789 15.3824C5.0159 18.1785 6.02873 20.884 7.8815 22.9784C8.98875 23.9769 10.2567 24.7812 11.6319 25.3574C13.0243 26.0377 14.4627 26.6194 15.9365 27.0983L21.3383 28.744C23.8087 29.4903 25.822 30.1322 27.3781 30.6696C29.2765 31.2815 31.1132 32.0705 32.8638 33.0262C34.7035 33.9333 36.4007 35.1044 37.9017 36.5023C40.3703 38.7918 42.3798 42.9116 42.3798 47.6976C42.3798 57.9469 34.963 65 20.6833 65C13.9997 65 8.50844 63.4383 4.02471 60.4211L0 63.164V62.2515Z" fill="#222222"/>
<path d="M62.4922 28.9732V25.4131C63.052 28.0048 65.2686 29.3315 68.2298 29.3315C71.2917 29.3315 73.1501 27.8145 73.1501 25.1948C73.1702 24.373 72.8805 23.5738 72.3385 22.9558C72.0393 22.6541 71.6836 22.4144 71.2917 22.2505C70.8842 22.0512 70.4655 21.8755 70.0378 21.7243C69.6964 21.5955 69.1478 21.4388 68.3585 21.2261L66.8919 20.8119L65.5821 20.3361C65.1462 20.1697 64.7385 19.9375 64.373 19.6475C63.7947 19.2578 63.3269 18.7252 63.0151 18.1014C62.7032 17.4777 62.5578 16.7839 62.5929 16.0874C62.5929 13.1543 64.5857 11.1111 68.4313 11.1111C69.995 11.0557 71.5364 11.4945 72.8366 12.365L74.0905 11.5751V11.8668V15.4325C74.0006 14.7741 73.2961 14.1436 72.9342 13.5862C72.5723 13.0289 72.0917 12.5583 71.5268 12.2083C70.6964 11.7363 69.7558 11.4929 68.8007 11.5029C66.1027 11.5029 64.3226 13.0199 64.3226 15.3541C64.3116 16.1267 64.5937 16.8747 65.1119 17.4477C65.4105 17.7131 65.7461 17.9337 66.1083 18.1026C66.4912 18.2807 66.8836 18.4377 67.2838 18.5728L68.8063 19.0486L70.5864 19.6084C71.1489 19.8093 71.6922 20.0603 72.2097 20.3584C72.7419 20.6102 73.2296 20.9467 73.6539 21.3548C74.489 22.228 74.9491 23.3933 74.9358 24.6015C74.9358 27.641 72.7863 29.7065 68.5209 29.7065C66.8499 29.7628 65.1993 29.3267 63.7741 28.4527L62.4922 29.2363V28.9732Z" fill="#404040"/>
<path d="M80.511 16.9493C81.9835 16.5843 83.8304 15.0408 84.3007 13.5459V13.8594V16.4791H88.678V16.9493H84.3007V26.3086C84.3007 27.9879 85.1123 29.0066 86.5005 29.0066C86.9061 29.0013 87.3062 28.9126 87.676 28.746C88.0458 28.5794 88.3774 28.3385 88.6501 28.0382L88.9411 28.3517C88.511 28.7878 87.996 29.1311 87.4279 29.3602C86.8599 29.5894 86.2509 29.6996 85.6385 29.6839C83.3603 29.6839 82.1791 28.3237 82.1791 26.3253V16.9493H80.511Z" fill="#404040"/>
<path d="M96.0725 17.1624L94.5276 16.4795H99.8734L98.2724 17.1624L102.857 27.3277L107.413 17.1624L105.269 16.4795H109.563L107.912 17.1624L102.359 29.578C101.751 31.0116 101.001 32.3806 100.12 33.6643C99.8877 34.0246 99.571 34.3227 99.1973 34.5325C98.8236 34.7423 98.4042 34.8574 97.9757 34.8678C96.901 34.8678 95.7759 34.308 95.7759 33.0597C95.755 32.8941 95.7699 32.726 95.8197 32.5667C95.8695 32.4073 95.953 32.2606 96.0645 32.1364C96.176 32.0121 96.3129 31.9133 96.4659 31.8467C96.6189 31.78 96.7845 31.747 96.9514 31.7499C97.1209 31.7418 97.2901 31.7694 97.4483 31.8308C97.6065 31.8921 97.7501 31.986 97.8698 32.1062C97.9895 32.2264 98.0827 32.3704 98.1434 32.5289C98.204 32.6873 98.2308 32.8567 98.222 33.0262V34.1457C98.3183 34.1978 98.4261 34.2248 98.5355 34.2241C99.5823 34.2241 100.528 32.5727 101.76 29.7459L96.0725 17.1624Z" fill="#404040"/>
<path d="M114.931 29.5782V29.371L116.504 28.8952V11.4753L114.931 10.8988L118.631 10.5576V10.8764V28.8952L120.204 29.5782H114.931Z" fill="#404040"/>
<path d="M138.503 23.0292H128.522C128.522 26.83 130.437 29.0298 133.818 29.0298C134.547 29.0531 135.273 28.9281 135.952 28.6626C136.631 28.397 137.25 27.9964 137.769 27.4849L138.061 27.7704C137.389 28.4206 136.592 28.9276 135.718 29.2606C134.844 29.5935 133.912 29.7454 132.978 29.7072C130.806 29.7072 129.127 29.1082 128.002 27.8991C126.852 26.6164 126.249 24.9349 126.322 23.2139C126.278 22.3093 126.415 21.4049 126.725 20.554C127.036 19.7032 127.513 18.9232 128.13 18.2599C128.735 17.6398 129.461 17.1519 130.264 16.8272C131.066 16.5025 131.928 16.348 132.793 16.3735C134.307 16.3145 135.784 16.8511 136.907 17.8681C138.426 19.2507 138.515 21.0956 138.503 23.0292ZM129.866 18.3159C128.998 19.3347 128.556 20.7789 128.5 22.6373L136.387 22.2959C136.387 18.7581 135.077 16.771 132.877 16.771C132.291 16.7817 131.714 16.9265 131.192 17.1943C130.67 17.4621 130.216 17.8458 129.866 18.3159Z" fill="#404040"/>
<path d="M45.3309 50.8807H28.5555V10.4561L32.3789 8.75223L32.1753 7.79553H17.0897L16.8861 8.75223L20.7095 10.4561V50.7805L16.9163 52.1824L17.0897 53.1514H49.6008H50.1008V52.6514V44.921V43.1605L49.1755 44.6582L45.3309 50.8807Z" fill="#FECA13" stroke="white"/>
<path d="M88.8907 57.2025H97.847L100.198 53.5472V57.9581H82.1624L84.4014 57.0569V34.9238L82.1624 33.8154H91.1186L88.8795 34.9238L88.8907 57.2025Z" fill="#222222"/>
<path d="M104.301 57.9585L106.372 56.8894V41.9828L104.301 41.4902L110.682 40.5218V41.0032V56.9341L112.754 58.0033L104.301 57.9585ZM108.303 38.6242C105.818 38.8313 104.682 35.4503 106.305 33.9334C106.568 33.6739 106.88 33.4698 107.224 33.3333C107.567 33.1967 107.934 33.1305 108.303 33.1385C108.665 33.1252 109.025 33.1866 109.362 33.3188C109.699 33.4511 110.005 33.6514 110.261 33.9073C110.517 34.1631 110.717 34.469 110.849 34.8058C110.981 35.1426 111.043 35.503 111.03 35.8646C111.044 36.2281 110.984 36.5907 110.853 36.9299C110.721 37.2692 110.522 37.5778 110.266 37.8366C110.01 38.0954 109.704 38.2989 109.367 38.4344C109.029 38.5699 108.667 38.6345 108.303 38.6242Z" fill="#222222"/>
<path d="M117.719 40.4765V38.4054C117.719 34.9908 119.857 32.9924 124.234 32.9924C125.485 32.9517 126.726 33.2108 127.856 33.7481C128.314 33.9433 128.703 34.2709 128.973 34.6888C129.244 35.1068 129.383 35.5959 129.373 36.0936C129.399 36.3566 129.367 36.622 129.28 36.8716C129.193 37.1211 129.053 37.3488 128.869 37.5388C128.685 37.7289 128.463 37.8767 128.216 37.9722C127.97 38.0677 127.706 38.1086 127.442 38.0919C126.098 38.0919 125.169 37.1291 125.169 35.5786V33.7481C124.89 33.6034 124.582 33.5213 124.268 33.5074C122.857 33.5074 122.029 35.3715 122.029 38.4054V40.7172H127.548V41.4729H122.029V56.8889L125.136 57.958H115.62L117.691 56.8889V41.4729H115.62L117.719 40.4765Z" fill="#222222"/>
<path d="M146.966 49.3373H134.719C134.752 54.4088 136.891 56.9277 141.134 56.9277C142.056 56.9446 142.973 56.7726 143.827 56.4222C144.681 56.0718 145.454 55.5504 146.099 54.8902L146.479 55.3044C145.54 56.2278 144.423 56.9518 143.197 57.4328C141.97 57.9137 140.659 58.1418 139.342 58.1032C136.443 58.1032 134.204 57.3139 132.625 55.7578C131.047 54.2016 130.313 52.1025 130.313 49.5164C130.313 46.7903 131.142 44.6184 132.76 43.0007C133.59 42.1837 134.578 41.5448 135.664 41.1232C136.749 40.7016 137.91 40.5062 139.074 40.549C141.132 40.4709 143.147 41.159 144.727 42.4801C146.854 44.2619 146.966 46.7437 146.966 49.3373ZM134.719 48.8223L142.824 48.2625C142.824 43.5045 141.654 41.1199 139.275 41.1199C136.896 41.1199 134.859 43.7172 134.719 48.8223Z" fill="#222222"/>
<path d="M61.1712 57.9578V56.4072C64.5298 53.2651 66.8062 50.9999 68.0003 49.6117C71.107 45.9564 72.6576 42.4411 72.6912 39.0601C72.6912 35.9198 71.2414 34.1957 68.6552 34.1957C67.716 34.1867 66.8005 34.4899 66.0523 35.0578V38.4724C66.0523 40.1517 65.0895 41.1312 63.5726 41.1312C63.2467 41.1523 62.92 41.103 62.6148 40.9868C62.3096 40.8706 62.033 40.6901 61.8036 40.4576C61.5743 40.225 61.3976 39.9459 61.2856 39.6391C61.1736 39.3323 61.1288 39.0051 61.1544 38.6795C61.1544 37.1961 61.8821 35.9926 63.3934 35.0578C65.0909 34.0771 67.0324 33.5995 68.9911 33.6808C74.0962 33.6808 77.0965 35.8191 77.0965 39.8382C77.0965 42.1444 75.921 44.5626 74.4376 46.4546C73.519 47.5665 72.5037 48.5949 71.4037 49.5277C70.1274 50.6473 68.9575 51.5989 67.9555 52.3266C66.9536 53.0543 65.6101 54.0059 63.9868 55.1254H75.3332L77.3092 51.8563V57.9578H61.1712Z" fill="#222222"/>
</svg>
