<svg width="95" height="41" viewBox="0 0 95 41" fill="none" xmlns="http://www.w3.org/2000/svg">
<path d="M0 39.2664V31.6998C1.12505 37.3032 6.03405 40.1314 12.7807 40.1314C20.0556 40.1314 24.4328 36.7242 24.4328 30.6617C24.4328 27.8371 23.6659 25.9834 21.2964 24.5993C20.2487 23.9735 19.1399 23.4508 17.9864 23.0387C16.4343 22.4793 14.8538 21.9985 13.251 21.5981L10.4113 20.7895C9.87948 20.613 9.05107 20.3835 7.92601 19.981C7.05625 19.6742 6.21001 19.3072 5.39374 18.8829C4.38807 18.2473 2.43822 16.9762 1.66768 15.7652C0.774236 14.1916 0.302625 12.4233 0.296638 10.6243C0.296638 4.38882 4.73173 0 13.0231 0C17.1037 0 20.4174 0.981571 23.0799 2.88822L25.623 1.21107V1.79013V9.29667C24.9718 5.88942 22.1755 3.46374 19.9869 2.36919C18.1377 1.33418 16.0332 0.813939 13.9022 0.865053C7.51361 0.865053 3.25578 4.38882 3.25578 9.70272C3.24157 11.4665 3.89612 13.173 5.09349 14.4941C5.80906 15.1239 6.6285 15.6312 7.51723 15.9947C8.41706 16.4238 9.34664 16.7907 10.2991 17.0927L13.79 18.1308C15.3866 18.6016 16.6877 19.0065 17.6933 19.3454C18.9202 19.7314 20.1071 20.2291 21.2385 20.8319C22.4274 21.4041 23.5243 22.1428 24.4943 23.0245C26.0896 24.4687 27.3883 27.0673 27.3883 30.0862C27.3883 36.5512 22.5951 41 13.3668 41C9.04745 41 5.49865 40.0149 2.60101 38.1118L0 39.8419V39.2664Z" fill="#A5A5A5"/>
<path d="M40.3857 18.2757V16.0301C40.7475 17.6648 42.18 18.5017 44.0937 18.5017C46.0725 18.5017 47.2735 17.5448 47.2735 15.8924C47.2865 15.374 47.0993 14.8699 46.749 14.48C46.5557 14.2898 46.3258 14.1386 46.0725 14.0352C45.8091 13.9095 45.5386 13.7987 45.2622 13.7033C45.0415 13.622 44.687 13.5232 44.1769 13.389L43.2291 13.1277L42.3826 12.8276C42.1009 12.7227 41.8374 12.5762 41.6012 12.3933C41.2275 12.1475 40.9252 11.8115 40.7237 11.4181C40.5221 11.0246 40.4281 10.587 40.4509 10.1477C40.4509 8.29755 41.7387 7.0088 44.2239 7.0088C45.2345 6.97388 46.2307 7.25061 47.0709 7.79971L47.8813 7.30149V7.48546V9.7346C47.8231 9.31928 47.3678 8.92161 47.134 8.57004C46.9001 8.21846 46.5895 7.92166 46.2244 7.70084C45.6878 7.40314 45.0799 7.24963 44.4627 7.25596C42.7191 7.25596 41.5687 8.21281 41.5687 9.68517C41.5616 10.1725 41.7438 10.6443 42.0787 11.0057C42.2717 11.1732 42.4886 11.3123 42.7227 11.4188C42.9701 11.5312 43.2238 11.6302 43.4824 11.7154L44.4663 12.0155L45.6167 12.3686C45.9802 12.4953 46.3313 12.6537 46.6658 12.8417C47.0097 13.0005 47.3249 13.2128 47.5991 13.4702C48.1388 14.021 48.4361 14.7561 48.4275 15.5181C48.4275 17.4353 47.0384 18.7382 44.2818 18.7382C43.202 18.7737 42.1352 18.4987 41.2142 17.9473L40.3857 18.4416V18.2757Z" fill="#A5A5A5"/>
<path d="M52.0303 10.6917C52.9818 10.4614 54.1754 9.48784 54.4793 8.54492V8.74265V10.3951H57.3082V10.6917H54.4793V16.5952C54.4793 17.6545 55.0039 18.2971 55.901 18.2971C56.1631 18.2937 56.4217 18.2378 56.6607 18.1327C56.8997 18.0276 57.1139 17.8756 57.2902 17.6862L57.4783 17.884C57.2003 18.1591 56.8675 18.3756 56.5004 18.5201C56.1332 18.6647 55.7397 18.7342 55.3439 18.7243C53.8716 18.7243 53.1083 17.8663 53.1083 16.6058V10.6917H52.0303Z" fill="#A5A5A5"/>
<path d="M62.0873 10.8253L61.0889 10.3945H64.5436L63.509 10.8253L66.4718 17.2373L69.4164 10.8253L68.0309 10.3945H70.8056L69.7384 10.8253L66.1498 18.6567C65.7571 19.561 65.2723 20.4245 64.7028 21.2342C64.5529 21.4615 64.3482 21.6495 64.1067 21.7818C63.8652 21.9142 63.5942 21.9868 63.3173 21.9933C62.6227 21.9933 61.8956 21.6402 61.8956 20.8528C61.8821 20.7484 61.8917 20.6423 61.9239 20.5418C61.9561 20.4413 62.0101 20.3488 62.0821 20.2704C62.1542 20.1921 62.2426 20.1297 62.3415 20.0877C62.4404 20.0456 62.5474 20.0248 62.6553 20.0266C62.7648 20.0216 62.8742 20.0389 62.9764 20.0776C63.0786 20.1164 63.1714 20.1755 63.2488 20.2514C63.3262 20.3272 63.3864 20.418 63.4256 20.518C63.4648 20.6179 63.4821 20.7248 63.4764 20.8317V21.5378C63.5386 21.5707 63.6083 21.5877 63.679 21.5873C64.3555 21.5873 64.9669 20.5457 65.7627 18.7626L62.0873 10.8253Z" fill="#A5A5A5"/>
<path d="M74.2744 18.6577V18.5271L75.2909 18.227V7.23902L74.2744 6.87534L76.6656 6.66016V6.86122V18.227L77.6821 18.6577H74.2744Z" fill="#A5A5A5"/>
<path d="M89.508 14.5271H83.0579C83.0579 16.9245 84.2951 18.3122 86.4801 18.3122C86.9512 18.3268 87.4204 18.248 87.8594 18.0805C88.2984 17.913 88.698 17.6603 89.0341 17.3376L89.2222 17.5177C88.788 17.9279 88.273 18.2477 87.7083 18.4577C87.1437 18.6677 86.5412 18.7635 85.9374 18.7394C84.5338 18.7394 83.4486 18.3616 82.7214 17.5989C81.9784 16.7898 81.5889 15.7292 81.6362 14.6436C81.6074 14.073 81.6959 13.5026 81.8966 12.9659C82.0973 12.4292 82.406 11.9372 82.8046 11.5188C83.1951 11.1277 83.6646 10.8199 84.1834 10.6151C84.7021 10.4103 85.2587 10.3128 85.8181 10.3289C86.7966 10.2917 87.7511 10.6302 88.477 11.2717C89.4584 12.1437 89.5158 13.3075 89.508 14.5271ZM83.9261 11.5541C83.3654 12.1968 83.0796 13.1077 83.0434 14.2799L88.1405 14.0646C88.1405 11.8331 87.294 10.5796 85.8723 10.5796C85.4932 10.5864 85.1208 10.6778 84.7834 10.8467C84.4461 11.0156 84.1528 11.2576 83.9261 11.5541Z" fill="#A5A5A5"/>
<path d="M18.1307 32.4092H29.4753L32.0546 28.3346V33.2107H11.0439L13.7064 32.2503V6.39053L11.0439 5.23242H20.7932L18.1307 6.39053V32.4092Z" fill="#FECA13"/>
<path d="M57.4459 36.0819H63.234L64.7533 33.7763V36.5586H53.0977L54.5447 35.9901V22.0292L53.0977 21.3301H58.8857L57.4387 22.0292L57.4459 36.0819Z" fill="white"/>
<path d="M67.4053 36.5592L68.7438 35.8848V26.4822L67.4053 26.1715L71.5293 25.5606V25.8643V35.913L72.8677 36.5874L67.4053 36.5592ZM69.9918 24.3637C68.3856 24.4943 67.6513 22.3617 68.7003 21.4048C68.8703 21.2412 69.0721 21.1124 69.294 21.0263C69.5158 20.9402 69.7531 20.8984 69.9918 20.9035C70.2255 20.8951 70.4584 20.9338 70.6761 21.0172C70.8937 21.1007 71.0914 21.227 71.2567 21.3884C71.422 21.5498 71.5515 21.7427 71.637 21.9551C71.7225 22.1676 71.7622 22.3949 71.7535 22.623C71.7631 22.8523 71.7242 23.081 71.6393 23.295C71.5544 23.509 71.4253 23.7036 71.2601 23.8669C71.0949 24.0301 70.897 24.1585 70.6789 24.2439C70.4607 24.3294 70.2268 24.3702 69.9918 24.3637Z" fill="white"/>
<path d="M76.0763 25.5319V24.2255C76.0763 22.0717 77.4582 20.8112 80.2871 20.8112C81.0951 20.7855 81.8976 20.9489 82.6277 21.2879C82.9235 21.411 83.175 21.6176 83.3497 21.8813C83.5243 22.1449 83.6143 22.4534 83.608 22.7673C83.6246 22.9332 83.6041 23.1007 83.5478 23.2581C83.4916 23.4155 83.401 23.5591 83.2823 23.6789C83.1636 23.7988 83.0197 23.8921 82.8604 23.9523C82.7012 24.0126 82.5304 24.0383 82.36 24.0278C81.4918 24.0278 80.8912 23.4205 80.8912 22.4425V21.2879C80.7107 21.1966 80.512 21.1448 80.3088 21.1361C79.3972 21.1361 78.8618 22.3118 78.8618 24.2255V25.6838H82.4287V26.1604H78.8618V35.8843L80.8695 36.5587H74.7197L76.0582 35.8843V26.1604H74.7197L76.0763 25.5319Z" fill="white"/>
<path d="M94.978 31.1214H87.0628C87.0845 34.3203 88.4664 35.9092 91.2085 35.9092C91.8049 35.9199 92.3972 35.8113 92.949 35.5903C93.5008 35.3693 94.0005 35.0404 94.4172 34.624L94.6632 34.8853C94.056 35.4677 93.3344 35.9244 92.5418 36.2278C91.7492 36.5312 90.9019 36.675 90.0509 36.6507C88.177 36.6507 86.73 36.1528 85.7099 35.1713C84.6897 34.1897 84.2158 32.8656 84.2158 31.2344C84.2158 29.5149 84.7512 28.1449 85.7967 27.1245C86.3331 26.6091 86.9718 26.2061 87.6734 25.9402C88.3751 25.6743 89.125 25.551 89.8772 25.578C91.2076 25.5287 92.5094 25.9628 93.5309 26.7961C94.9054 27.92 94.978 29.4854 94.978 31.1214ZM87.0628 30.7966L92.301 30.4435C92.301 27.4423 91.5449 25.9381 90.0075 25.9381C88.47 25.9381 87.1532 27.5764 87.0628 30.7966Z" fill="white"/>
<path d="M39.532 36.559V35.581C41.7025 33.599 43.1736 32.1702 43.9454 31.2946C45.9531 28.9889 46.9551 26.7716 46.9769 24.639C46.9769 22.6582 46.0399 21.5707 44.3686 21.5707C43.7616 21.565 43.1699 21.7562 42.6865 22.1144V24.2682C42.6865 25.3275 42.0642 25.9454 41.0839 25.9454C40.8733 25.9587 40.6622 25.9276 40.4649 25.8543C40.2677 25.781 40.0889 25.6671 39.9407 25.5204C39.7925 25.3738 39.6783 25.1977 39.6059 25.0042C39.5335 24.8107 39.5046 24.6042 39.5211 24.3989C39.5211 23.4632 39.9914 22.7041 40.9681 22.1144C42.0651 21.4958 43.3198 21.1946 44.5857 21.2458C47.8849 21.2458 49.8238 22.5946 49.8238 25.1297C49.8238 26.5844 49.0642 28.1098 48.1055 29.3032C47.5119 30.0046 46.8557 30.6532 46.1448 31.2416C45.32 31.9478 44.564 32.548 43.9164 33.007C43.2689 33.466 42.4007 34.0663 41.3516 34.7724H48.6843L49.9613 32.7104V36.559H39.532Z" fill="white"/>
</svg>
