<svg width="45" height="27" viewBox="0 0 45 27" fill="none" xmlns="http://www.w3.org/2000/svg">
<path d="M11.1427 23.6048V22.2588C11.1535 22.1456 11.1311 22.032 11.0771 21.9256C11.0232 21.8192 10.9389 21.7225 10.8298 21.6418C10.7207 21.5612 10.5894 21.4984 10.4447 21.4578C10.2999 21.4172 10.1449 21.3996 9.99016 21.4063C9.78755 21.3965 9.58509 21.4268 9.40392 21.4939C9.22275 21.561 9.0695 21.6624 8.96018 21.7877C8.86054 21.6662 8.71796 21.5666 8.54748 21.4995C8.37699 21.4324 8.18493 21.4002 7.99152 21.4063C7.82293 21.4 7.65504 21.4261 7.50448 21.482C7.35393 21.5379 7.22594 21.6216 7.13321 21.7248V21.4601H6.49561V23.6048H7.13934V22.4248C7.12565 22.3514 7.13426 22.2768 7.16457 22.2062C7.19488 22.1356 7.24613 22.0707 7.31466 22.0163C7.38319 21.9618 7.46731 21.9191 7.561 21.8912C7.65469 21.8634 7.75564 21.851 7.85664 21.855C8.27967 21.855 8.49424 22.0569 8.49424 22.4203V23.6138H9.13798V22.4248C9.12484 22.3515 9.13385 22.277 9.16437 22.2066C9.19488 22.1361 9.24615 22.0715 9.31457 22.0171C9.38298 21.9628 9.46687 21.9201 9.5603 21.8921C9.65373 21.864 9.75443 21.8514 9.85528 21.855C10.2906 21.855 10.499 22.0569 10.499 22.4203V23.6138L11.1427 23.6048ZM20.6669 21.4601H19.6186V20.8095H18.9748V21.4601H18.3924V21.8864H18.9871V22.8735C18.9871 23.3715 19.2507 23.6676 20.0048 23.6676C20.2865 23.6683 20.5628 23.6108 20.8018 23.5016L20.6179 23.1023C20.4469 23.1769 20.2528 23.2186 20.0538 23.2234C19.7473 23.2234 19.6308 23.0799 19.6308 22.8645V21.8864H20.6731L20.6669 21.4601ZM26.1049 21.4063C25.9495 21.4029 25.7957 21.4303 25.6597 21.4856C25.5238 21.5409 25.4107 21.622 25.3325 21.7203V21.4601H24.701V23.6048H25.3386V22.4024C25.3386 22.0479 25.547 21.8505 25.9517 21.8505C26.088 21.8491 26.2235 21.8674 26.3502 21.9043L26.5464 21.4556C26.4007 21.4175 26.2473 21.3978 26.0927 21.3973L26.1049 21.4063ZM17.8836 21.6306C17.5226 21.4736 17.1077 21.3957 16.688 21.4063C15.9462 21.4063 15.4619 21.6665 15.4619 22.0928C15.4619 22.4427 15.8175 22.6581 16.4735 22.7254L16.78 22.7568C17.1295 22.7927 17.295 22.86 17.295 22.9812C17.295 23.1472 17.062 23.2414 16.6267 23.2414C16.2766 23.2488 15.9333 23.1698 15.6519 23.0171L15.3454 23.3805C15.7168 23.5703 16.1617 23.6678 16.6145 23.6587C17.4605 23.6587 17.951 23.367 17.951 22.9587C17.951 22.5504 17.5647 22.3844 16.9271 22.3171L16.6206 22.2857C16.3447 22.2588 16.124 22.2184 16.124 22.0748C16.124 21.9312 16.3325 21.8235 16.6819 21.8235C17.0049 21.8263 17.3215 21.8896 17.6015 22.0075L17.8836 21.6306ZM34.9609 21.4063C34.8054 21.4029 34.6516 21.4303 34.5156 21.4856C34.3797 21.5409 34.2666 21.622 34.1884 21.7203V21.4601H33.5569V23.6048H34.1945V22.4024C34.1945 22.0479 34.403 21.8505 34.8076 21.8505C34.944 21.8491 35.0794 21.8674 35.2061 21.9043L35.4023 21.4556C35.2567 21.4175 35.1033 21.3978 34.9486 21.3973L34.9609 21.4063ZM26.7456 22.528C26.738 22.6787 26.7735 22.8289 26.8498 22.969C26.9261 23.1091 27.0415 23.236 27.1887 23.3416C27.3358 23.4472 27.5115 23.5291 27.7044 23.5822C27.8973 23.6352 28.1032 23.6582 28.309 23.6497C28.6918 23.664 29.068 23.5727 29.3635 23.394L29.0569 23.0171C28.8365 23.1401 28.5677 23.2077 28.2906 23.21C28.0549 23.196 27.835 23.1177 27.6747 22.9905C27.5144 22.8633 27.4254 22.6965 27.4254 22.5235C27.4254 22.3505 27.5144 22.1837 27.6747 22.0565C27.835 21.9293 28.0549 21.851 28.2906 21.837C28.5677 21.8393 28.8365 21.9069 29.0569 22.0299L29.3635 21.653C29.068 21.4743 28.6918 21.383 28.309 21.3973C28.1032 21.3888 27.8973 21.4118 27.7044 21.4648C27.5115 21.5179 27.3358 21.5998 27.1887 21.7054C27.0415 21.811 26.9261 21.9379 26.8498 22.078C26.7735 22.2181 26.738 22.3683 26.7456 22.519V22.528ZM32.717 22.528V21.4601H32.0794V21.7203C31.9711 21.6184 31.8313 21.5367 31.6714 21.4821C31.5115 21.4275 31.3361 21.4015 31.1598 21.4063C30.7533 21.4063 30.3634 21.5244 30.076 21.7348C29.7886 21.9452 29.6271 22.2305 29.6271 22.528C29.6271 22.8255 29.7886 23.1108 30.076 23.3212C30.3634 23.5315 30.7533 23.6497 31.1598 23.6497C31.3361 23.6545 31.5115 23.6285 31.6714 23.5739C31.8313 23.5192 31.9711 23.4376 32.0794 23.3356V23.5959H32.717V22.528ZM30.3444 22.528C30.3545 22.4017 30.4149 22.2804 30.5181 22.179C30.6213 22.0775 30.7628 22.0004 30.9251 21.9571C31.0874 21.9137 31.2635 21.9061 31.4317 21.935C31.5999 21.964 31.7529 22.0284 31.8718 22.1201C31.9906 22.2119 32.0702 22.3272 32.1007 22.4516C32.1312 22.5761 32.1113 22.7044 32.0435 22.8207C31.9756 22.937 31.8628 23.0363 31.7189 23.1062C31.5749 23.1762 31.4061 23.2138 31.2333 23.2145C31.112 23.2156 30.9916 23.1983 30.8798 23.1638C30.768 23.1292 30.6672 23.078 30.5837 23.0136C30.5002 22.9491 30.4358 22.8727 30.3946 22.7891C30.3534 22.7055 30.3363 22.6166 30.3444 22.528ZM22.6502 21.4063C22.2437 21.4104 21.8562 21.5326 21.5727 21.7459C21.2893 21.9592 21.1333 22.2462 21.139 22.5437C21.1447 22.8412 21.3116 23.1248 21.6031 23.3323C21.8945 23.5397 22.2867 23.6539 22.6932 23.6497C23.1342 23.6663 23.5679 23.5623 23.9101 23.3581L23.6036 23.0126C23.3615 23.1546 23.0616 23.2336 22.7514 23.2369C22.5406 23.2502 22.3311 23.2027 22.1674 23.1047C22.0037 23.0067 21.8987 22.8658 21.8747 22.7119H24.0511C24.0511 22.6536 24.0511 22.5953 24.0511 22.5325C24.0511 21.8594 23.481 21.4108 22.6594 21.4108L22.6502 21.4063ZM22.6502 21.8235C22.7457 21.8221 22.8405 21.8343 22.9294 21.8597C23.0184 21.885 23.0996 21.923 23.1685 21.9713C23.2374 22.0196 23.2926 22.0774 23.3309 22.1414C23.3693 22.2053 23.3901 22.2742 23.3921 22.344H21.8594C21.8705 22.2 21.9582 22.0649 22.1037 21.9676C22.2492 21.8703 22.441 21.8186 22.638 21.8235H22.6502ZM38.624 22.5325V20.5986H38.0109V21.7203C37.9027 21.6184 37.7628 21.5367 37.6029 21.4821C37.443 21.4275 37.2677 21.4015 37.0913 21.4063C36.6848 21.4063 36.295 21.5244 36.0075 21.7348C35.7201 21.9452 35.5586 22.2305 35.5586 22.528C35.5586 22.8255 35.7201 23.1108 36.0075 23.3212C36.295 23.5315 36.6848 23.6497 37.0913 23.6497C37.2677 23.6545 37.443 23.6285 37.6029 23.5739C37.7628 23.5192 37.9027 23.4376 38.0109 23.3356V23.5959H38.624V22.5325ZM39.6877 23.293C39.7276 23.2926 39.7671 23.298 39.8042 23.3087C39.8394 23.3192 39.8716 23.3344 39.8992 23.3536C39.9262 23.3729 39.948 23.3957 39.9636 23.4209C39.9791 23.4471 39.9871 23.4753 39.9871 23.5039C39.9871 23.5324 39.9791 23.5607 39.9636 23.5869C39.948 23.612 39.9262 23.6348 39.8992 23.6542C39.8716 23.6733 39.8394 23.6885 39.8042 23.6991C39.7675 23.7109 39.7278 23.717 39.6877 23.717C39.6296 23.7167 39.5728 23.7043 39.524 23.6812C39.4751 23.6582 39.4362 23.6255 39.4118 23.5869C39.3965 23.5607 39.3886 23.5324 39.3886 23.5039C39.3886 23.4753 39.3965 23.4471 39.4118 23.4209C39.4274 23.3957 39.4493 23.3729 39.4762 23.3536C39.5038 23.3344 39.536 23.3192 39.5712 23.3087C39.6111 23.2971 39.654 23.2917 39.6969 23.293H39.6877ZM39.6877 23.6721C39.7183 23.6723 39.7486 23.6677 39.7766 23.6587C39.803 23.6501 39.8269 23.6379 39.8471 23.6228C39.8855 23.5922 39.9067 23.5521 39.9067 23.5106C39.9067 23.4691 39.8855 23.4291 39.8471 23.3984C39.8269 23.3833 39.803 23.3711 39.7766 23.3625C39.7486 23.3536 39.7183 23.349 39.6877 23.3491C39.6572 23.3492 39.6269 23.3538 39.5988 23.3625C39.5713 23.3708 39.5463 23.383 39.5252 23.3984C39.4869 23.4291 39.4656 23.4691 39.4656 23.5106C39.4656 23.5521 39.4869 23.5922 39.5252 23.6228C39.5463 23.6382 39.5713 23.6504 39.5988 23.6587C39.6297 23.6684 39.6632 23.673 39.6969 23.6721H39.6877ZM39.7061 23.4052C39.7347 23.4042 39.7629 23.4105 39.7858 23.4231C39.7952 23.4288 39.8026 23.436 39.8074 23.4442C39.8122 23.4524 39.8142 23.4613 39.8134 23.4702C39.8138 23.4777 39.8121 23.4851 39.8085 23.4921C39.8048 23.499 39.7991 23.5053 39.7919 23.5106C39.7742 23.5224 39.7515 23.5295 39.7276 23.5308L39.8165 23.6048H39.746L39.6632 23.5308H39.6356V23.6048H39.5774V23.4074L39.7061 23.4052ZM39.6387 23.4433V23.4971H39.7061C39.7181 23.4998 39.7309 23.4998 39.7429 23.4971C39.745 23.494 39.7462 23.4906 39.7462 23.4871C39.7462 23.4835 39.745 23.4801 39.7429 23.477C39.745 23.4738 39.7462 23.4704 39.7462 23.4669C39.7462 23.4634 39.745 23.4599 39.7429 23.4568C39.7309 23.4541 39.7181 23.4541 39.7061 23.4568L39.6387 23.4433ZM36.2667 22.5325C36.2769 22.4062 36.3373 22.2849 36.4405 22.1835C36.5437 22.082 36.6851 22.0049 36.8475 21.9615C37.0098 21.9182 37.1859 21.9105 37.3541 21.9395C37.5223 21.9685 37.6752 22.0328 37.7941 22.1246C37.913 22.2164 37.9926 22.3317 38.0231 22.4561C38.0536 22.5806 38.0337 22.7089 37.9658 22.8252C37.898 22.9415 37.7851 23.0408 37.6412 23.1107C37.4972 23.1807 37.3285 23.2183 37.1557 23.219C37.0343 23.2201 36.9139 23.2028 36.8021 23.1682C36.6903 23.1337 36.5895 23.0825 36.506 23.018C36.4225 22.9536 36.3581 22.8771 36.317 22.7936C36.2758 22.71 36.2587 22.6211 36.2667 22.5325ZM14.7385 22.5325V21.4601H14.1009V21.7203C13.9926 21.6184 13.8527 21.5367 13.6928 21.4821C13.5329 21.4275 13.3576 21.4015 13.1812 21.4063C12.7747 21.4063 12.3849 21.5244 12.0975 21.7348C11.81 21.9452 11.6485 22.2305 11.6485 22.528C11.6485 22.8255 11.81 23.1108 12.0975 23.3212C12.3849 23.5315 12.7747 23.6497 13.1812 23.6497C13.3576 23.6545 13.5329 23.6285 13.6928 23.5739C13.8527 23.5192 13.9926 23.4376 14.1009 23.3356V23.5959H14.7385V22.5325ZM12.3658 22.5325C12.376 22.4062 12.4364 22.2849 12.5396 22.1835C12.6428 22.082 12.7842 22.0049 12.9466 21.9615C13.1089 21.9182 13.285 21.9105 13.4532 21.9395C13.6214 21.9685 13.7743 22.0328 13.8932 22.1246C14.0121 22.2164 14.0917 22.3317 14.1222 22.4561C14.1527 22.5806 14.1328 22.7089 14.0649 22.8252C13.9971 22.9415 13.8843 23.0408 13.7403 23.1107C13.5964 23.1807 13.4276 23.2183 13.2548 23.219C13.1329 23.2207 13.0119 23.2039 12.8993 23.1696C12.7868 23.1353 12.6852 23.0843 12.6011 23.0197C12.5169 22.9552 12.452 22.8785 12.4104 22.7947C12.3689 22.7108 12.3516 22.6215 12.3597 22.5325H12.3658Z" fill="white"/>
<path d="M28.7827 2.88428H16.7627V24.1106H28.7827V2.88428Z" fill="#FF5F00"/>
<path d="M17.5258 13.5023C17.5235 11.4577 17.9948 9.4395 18.9038 7.60041C19.8128 5.76132 21.1358 4.14958 22.7726 2.88725C20.746 1.32226 18.3123 0.349091 15.7494 0.078958C13.1866 -0.191175 10.5982 0.252629 8.27993 1.35965C5.96167 2.46667 4.00714 4.19224 2.6397 6.33914C1.27227 8.48605 0.547119 10.9677 0.547119 13.5004C0.547119 16.0331 1.27227 18.5147 2.6397 20.6616C4.00714 22.8085 5.96167 24.5341 8.27993 25.6411C10.5982 26.7481 13.1866 27.1919 15.7494 26.9218C18.3123 26.6517 20.746 25.6785 22.7726 24.1135C21.1363 22.8516 19.8137 21.2404 18.9047 19.4021C17.9956 17.5637 17.5241 15.5462 17.5258 13.5023Z" fill="#EB001B"/>
<path d="M44.9999 13.5019C44.9999 16.0348 44.2746 18.5166 42.9069 20.6635C41.5392 22.8105 39.5844 24.5361 37.2658 25.6429C34.9473 26.7498 32.3586 27.1933 29.7956 26.9228C27.2327 26.6523 24.7989 25.6786 22.7725 24.1131C24.4081 22.8501 25.7304 21.2385 26.6396 19.4C27.5489 17.5615 28.0213 15.5441 28.0213 13.5C28.0213 11.4559 27.5489 9.4385 26.6396 7.6C25.7304 5.7615 24.4081 4.14992 22.7725 2.88686C24.7989 1.32138 27.2327 0.347737 29.7956 0.0772154C32.3586 -0.193306 34.9473 0.250213 37.2658 1.35707C39.5844 2.46394 41.5392 4.18948 42.9069 6.33646C44.2746 8.48344 44.9999 10.9652 44.9999 13.4981V13.5019Z" fill="#F79E1B"/>
<path d="M43.6876 21.8634V21.4264H43.8669V21.3359H43.4128V21.4264H43.6075V21.8634H43.6876ZM44.569 21.8634V21.3359H44.4317L44.2714 21.7127L44.1111 21.3359H43.989V21.8634H44.0882V21.4678L44.2371 21.8107H44.3401L44.4889 21.4678V21.8672L44.569 21.8634Z" fill="#F79E1B"/>
</svg>
