<svg width="90" height="27" viewBox="0 0 90 27" fill="none" xmlns="http://www.w3.org/2000/svg">
<path d="M64.1047 12.8218V27.0002H72.1759V19.0249H80.299C84.5415 19.0249 88.1633 16.4495 89.5602 12.8218H64.1047Z" fill="#006848"/>
<path d="M63.7424 0C63.7683 0.72 63.8717 1.44 64.027 2.10462C64.0528 2.24308 64.1046 2.40923 64.1304 2.54769C64.1563 2.60308 64.1563 2.65846 64.1822 2.74154C65.6309 7.64308 69.8993 11.1877 74.9439 11.1877H89.8447C89.9482 10.6338 89.9999 10.08 89.9999 9.49846C89.9999 6.72923 88.8875 4.23692 87.1026 2.49231C85.5245 0.941538 83.4291 0 81.1008 0H63.7424V0Z" fill="url(#paint0_linear)"/>
<path d="M49.7987 2.85231L44.1592 15.9508H43.5901V0H35.5705V27H42.3742C44.1592 27 45.789 25.8923 46.5392 24.1477L52.1787 11.0492H52.7479V27H60.7674V0H53.9637C52.1787 0 50.549 1.10769 49.7987 2.85231Z" fill="#006848"/>
<path d="M12.4174 3.54462L15.7804 15.9508H16.3495L19.6867 3.54462C20.2558 1.44 22.0408 0 24.0845 0H32.104V27H24.0845V11.0492H23.5154L18.9106 27H13.1934L8.58867 11.0492H8.01954V27H0V0H8.01954C10.0632 0 11.8482 1.44 12.4174 3.54462Z" fill="#006848"/>
<defs>
<linearGradient id="paint0_linear" x1="63.7379" y1="5.59725" x2="89.992" y2="5.59725" gradientUnits="userSpaceOnUse">
<stop stop-color="#02AFFF"/>
<stop offset="1" stop-color="#1F5BDE"/>
</linearGradient>
</defs>
</svg>
