<svg width="46" height="62" viewBox="0 0 46 62" fill="none" xmlns="http://www.w3.org/2000/svg">
<path d="M23.0746 0C10.4897 0 0.25 10.2397 0.25 22.8259C0.25 26.1089 0.921947 29.2434 2.24617 32.1431C7.95297 44.6309 18.8945 57.8154 22.1127 61.5584C22.3538 61.8382 22.7054 61.9994 23.0753 61.9994C23.4452 61.9994 23.7967 61.8382 24.0378 61.5584C27.2548 57.816 38.1963 44.6322 43.905 32.1431C45.2299 29.2434 45.9012 26.1089 45.9012 22.8259C45.8999 10.2397 35.6602 0 23.0746 0Z" fill="#F2A000"/>
<ellipse cx="22.775" cy="23.1596" rx="18.0836" ry="18.0836" fill="white"/>
<path d="M12.9414 35.4305V30.5594C13.6682 34.1667 16.8394 35.9874 21.1978 35.9874C25.8974 35.9874 28.725 33.7939 28.725 29.8911C28.725 28.0727 28.2296 26.8794 26.6989 25.9884C26.0221 25.5855 25.3058 25.249 24.5606 24.9837C23.558 24.6236 22.537 24.3141 21.5016 24.0563L19.6671 23.5358C19.3236 23.4221 18.7884 23.2744 18.0616 23.0153C17.4998 22.8177 16.9531 22.5815 16.4258 22.3083C15.7761 21.8992 14.5165 21.0809 14.0187 20.3013C13.4416 19.2883 13.1369 18.1499 13.133 16.9917C13.133 12.9776 15.9981 10.1522 21.3544 10.1522C23.9904 10.1522 26.131 10.7841 27.851 12.0116L29.4939 10.9319V11.3046V16.1371C29.0732 13.9436 27.2668 12.3821 25.853 11.6774C24.6584 11.0111 23.2989 10.6762 21.9222 10.7091C17.7952 10.7091 15.0446 12.9776 15.0446 16.3985C15.0355 17.5339 15.4583 18.6325 16.2318 19.483C16.6941 19.8885 17.2234 20.2151 17.7975 20.449C18.3788 20.7253 18.9793 20.9615 19.5946 21.1559L21.8498 21.8242C22.8812 22.1273 23.7217 22.3879 24.3713 22.6061C25.1639 22.8546 25.9307 23.175 26.6615 23.5631C27.4296 23.9314 28.1381 24.4069 28.7648 24.9746C29.7954 25.9043 30.6343 27.5772 30.6343 29.5206C30.6343 33.6825 27.5379 36.5466 21.5764 36.5466C18.7861 36.5466 16.4935 35.9124 14.6217 34.6872L12.9414 35.801V35.4305Z" fill="#222222"/>
<path d="M24.5938 30.8729H31.6412L33.2435 28.2824V31.3825H20.1914L21.8454 30.7719V14.3313L20.1914 13.595H26.2478L24.5938 14.3313V30.8729Z" fill="#FECA13"/>
<path d="M24.5938 30.8729H31.6412L33.2435 28.2824V31.3825H20.1914L21.8454 30.7719V14.3313L20.1914 13.595H26.2478L24.5938 14.3313V30.8729Z" stroke="white"/>
</svg>
