<svg width="70" height="70" viewBox="0 0 70 70" fill="none" xmlns="http://www.w3.org/2000/svg">
<g clip-path="url(#clip0)">
<path d="M24.3087 28.29C24.8432 27.7554 24.8432 26.8897 24.3087 26.3568C23.7757 25.8222 22.91 25.8222 22.3754 26.3568C21.8408 26.8897 21.8408 27.7554 22.3754 28.29C22.91 28.823 23.7757 28.823 24.3087 28.29Z" fill="#E6E6E6"/>
<path d="M37.8438 30.2234C39.4428 28.6244 39.4428 26.0225 37.8438 24.4235C36.2411 22.8208 33.6456 22.8203 32.0429 24.4235C30.4396 26.0262 30.4396 28.6202 32.0429 30.2234C33.6418 31.8224 36.2443 31.8229 37.8438 30.2234ZM33.9762 26.3568C34.5108 25.8228 35.3759 25.8228 35.9105 26.3568C36.443 26.8898 36.443 27.7566 35.9105 28.2896C35.377 28.8226 34.5092 28.8231 33.9762 28.2896C33.4426 27.7566 33.4405 26.8925 33.9762 26.3568Z" fill="#E6E6E6"/>
<path d="M32.0429 39.8898C30.4396 41.4931 30.4396 44.088 32.0429 45.6913C33.6456 47.294 36.2406 47.2945 37.8438 45.6913C39.4433 44.0918 39.4433 41.4893 37.8438 39.8898C36.2411 38.2876 33.6456 38.2871 32.0429 39.8898ZM35.9105 43.758C35.3759 44.292 34.5102 44.292 33.9762 43.758C33.4426 43.2245 33.4405 42.3593 33.9762 41.8236C34.5108 41.289 35.3759 41.2896 35.9105 41.8236C36.4435 42.3566 36.4435 43.2245 35.9105 43.758Z" fill="#E6E6E6"/>
<path d="M23.9348 37.2584C24.0828 37.9997 24.8037 38.4787 25.5434 38.3308L44.8779 34.4631C45.6181 34.3152 46.0982 33.5948 45.9503 32.8545C45.8023 32.1138 45.0819 31.6342 44.3417 31.7822L25.0072 35.6498C24.2665 35.7977 23.7864 36.5182 23.9348 37.2584Z" fill="#E6E6E6"/>
<path d="M41.5635 7.73474C41.2009 7.73474 40.8532 7.8784 40.5969 8.13475L26.243 22.4886C25.709 23.0227 25.709 23.8884 26.243 24.4224C26.7771 24.9565 27.6428 24.9565 28.1763 24.4224L41.5635 11.0352L58.9642 28.4364L28.2709 59.1297L10.8697 41.7291L20.4427 32.1561C20.9767 31.6226 20.9767 30.7569 20.4427 30.2228C19.9086 29.6893 19.0429 29.6893 18.5088 30.2228L7.96976 40.7624C7.4357 41.2959 7.4357 42.1616 7.96976 42.6957L27.3042 62.0302C27.8383 62.5642 28.7034 62.5642 29.2375 62.0302L61.8646 29.403C62.3987 28.869 62.3987 28.0033 61.8646 27.4692L42.5302 8.13475C42.2738 7.8784 41.9262 7.73474 41.5635 7.73474Z" fill="#E6E6E6"/>
<path d="M67.6651 0.401083L61.7969 6.26877C58.3731 3.6834 53.6451 3.64121 50.25 6.16195L45.4435 1.21605C45.4387 1.21125 45.4345 1.20697 45.4297 1.20217C43.835 -0.392525 41.2416 -0.409615 39.6277 1.2043L1.20174 39.7958C-0.400964 41.3985 -0.401498 43.994 1.20174 45.5972L6.62455 51.0195C5.41331 54.4861 6.28703 58.4162 8.93542 61.0635C11.5833 63.7125 15.5134 64.5856 18.98 63.3755L24.4028 68.7977C26.0055 70.4004 28.6021 70.3999 30.2016 68.7999L68.7973 30.3697C70.4006 28.7664 70.4006 26.1725 68.7973 24.5698C68.7925 24.565 68.7882 24.5607 68.7834 24.5559L63.8381 19.7505C66.3497 16.3785 66.3401 11.6483 63.7307 8.20259L69.5984 2.3349C70.1325 1.80085 70.1325 0.93514 69.5984 0.401083C69.0643 -0.132973 68.1992 -0.132973 67.6651 0.401083ZM60.9958 18.8672C60.7373 19.1262 60.5931 19.4776 60.5953 19.844C60.5979 20.2098 60.7475 20.5596 61.0097 20.8143L66.8694 26.509C67.3997 27.0452 67.3938 27.9061 66.8656 28.4337L28.2704 66.8639C27.7369 67.3974 26.869 67.3974 26.3361 66.8639L20.2724 60.8008C20.0107 60.5386 19.6603 60.4002 19.3057 60.4002C19.1092 60.4002 18.9111 60.4424 18.7252 60.5295C16.0961 61.7631 12.9387 61.2008 10.8692 59.1297C8.79816 57.0602 8.2358 53.9034 9.46947 51.2743C9.71407 50.7525 9.60619 50.1341 9.19871 49.7266L3.13556 43.6634C2.60204 43.1299 2.60204 42.2626 3.13716 41.7269L41.5636 3.13545C42.0955 2.60407 42.9554 2.60086 43.4905 3.12958L49.1846 8.98925C49.6952 9.51476 50.5694 9.56603 51.1323 9.00367C53.4725 6.66236 57.1372 6.41243 59.8369 8.22875L57.8315 10.2341C56.3068 9.50782 54.4237 9.77431 53.1633 11.0347C51.5644 12.6342 51.5644 15.2366 53.1633 16.8356C54.766 18.4383 57.3616 18.4389 58.9648 16.8356C60.254 15.5464 60.4799 13.6553 59.7669 12.1658L61.7718 10.161C63.5742 12.8291 63.3665 16.497 60.9958 18.8672ZM57.031 12.968C57.5645 13.5015 57.5666 14.3667 57.031 14.9023C56.4969 15.4364 55.6312 15.4364 55.0971 14.9023C54.5636 14.3688 54.5636 13.501 55.0966 12.968C55.6301 12.4355 56.498 12.4345 57.031 12.968Z" fill="#E6E6E6"/>
</g>
<defs>
<clipPath id="clip0">
<rect width="70" height="69.9999" fill="white"/>
</clipPath>
</defs>
</svg>
