<svg width="86" height="27" viewBox="0 0 86 27" fill="none" xmlns="http://www.w3.org/2000/svg">
<mask id="mask0" mask-type="alpha" maskUnits="userSpaceOnUse" x="0" y="0" width="86" height="27">
<path d="M0 0.205566H85.3688V26.967H0" fill="white"/>
</mask>
<g mask="url(#mask0)">
<path fill-rule="evenodd" clip-rule="evenodd" d="M30.0779 26.6135L34.4034 0.674805H41.3185L36.993 26.6135H30.0779Z" fill="#005CA3"/>
<path fill-rule="evenodd" clip-rule="evenodd" d="M62.0628 1.30926C60.6969 0.78524 58.5345 0.205566 55.8596 0.205566C49.0303 0.205566 44.2208 3.73761 44.1923 8.78716C44.1355 12.5126 47.6354 14.5822 50.2535 15.8242C52.9284 17.0932 53.8392 17.9209 53.8392 19.0527C53.8108 20.7911 51.6768 21.5918 49.6848 21.5918C46.9246 21.5918 45.4446 21.178 43.1964 20.2115L42.2856 19.7976L41.3186 25.6203C42.9407 26.3377 45.9281 26.9725 49.0303 27C56.2863 27 61.01 23.5231 61.0668 18.1424C61.0952 15.1889 59.2458 12.9264 55.2619 11.0777C52.8432 9.8914 51.3637 9.09077 51.3637 7.87687C51.3921 6.77318 52.6154 5.64193 55.3471 5.64193C57.5953 5.58683 59.2458 6.11085 60.4981 6.63542L61.1242 6.91093L62.0628 1.30926Z" fill="#005CA3"/>
</g>
<path fill-rule="evenodd" clip-rule="evenodd" d="M79.7911 0.674805H74.4413C72.7908 0.674805 71.5386 1.14372 70.8272 2.82654L60.5548 26.6135H67.8108C67.8108 26.6135 69.0062 23.4121 69.2625 22.7222H78.1406C78.34 23.6331 78.9662 26.6135 78.9662 26.6135H85.3688L79.7911 0.674805ZM71.2539 17.4242C71.8232 15.9342 74.0146 10.1667 74.0146 10.1667C73.9862 10.2223 74.5839 8.64917 74.9254 7.68323L75.4089 9.91817C75.4089 9.91817 76.7179 16.1276 77.0026 17.4242H71.2539Z" fill="#005CA3"/>
<path fill-rule="evenodd" clip-rule="evenodd" d="M24.3014 0.674805L17.5289 18.3626L16.7892 14.7749C15.5369 10.6362 11.6104 6.13872 7.22812 3.90323L13.4313 26.586H20.7447L31.6148 0.674805H24.3014Z" fill="#005CA3"/>
<path fill-rule="evenodd" clip-rule="evenodd" d="M11.2405 0.674805H0.113633L0 1.19883C8.67926 3.35111 14.4274 8.53897 16.7892 14.7749L14.3706 2.85409C13.9723 1.19883 12.7484 0.729356 11.2405 0.674805Z" fill="#FFAD30"/>
</svg>
