<svg width="70" height="70" viewBox="0 0 70 70" fill="none" xmlns="http://www.w3.org/2000/svg">
<path d="M45.9375 45.9375C45.1829 45.9375 44.5703 46.5501 44.5703 47.3047C44.5703 48.0593 45.1829 48.6719 45.9375 48.6719C46.6921 48.6719 47.3047 48.0593 47.3047 47.3047C47.3047 46.5501 46.6921 45.9375 45.9375 45.9375Z" fill="#E6E6E6"/>
<path d="M27.3437 44.5703C26.5896 44.5703 25.9765 43.9572 25.9765 43.2031C25.9765 42.449 26.5896 41.8359 27.3437 41.8359C27.8281 41.8359 28.3392 42.0832 28.8225 42.5505C29.3651 43.0755 30.2308 43.0616 30.7558 42.5185C31.2808 41.9759 31.2664 41.1107 30.7238 40.5857C30.03 39.9139 29.3358 39.5341 28.7109 39.3269V37.7344C28.7109 36.9792 28.0989 36.3672 27.3437 36.3672C26.5886 36.3672 25.9765 36.9792 25.9765 37.7344V39.3365C24.3851 39.901 23.2422 41.421 23.2422 43.2031C23.2422 45.4649 25.082 47.3047 27.3437 47.3047C28.0973 47.3047 28.7109 47.9178 28.7109 48.6719C28.7109 49.426 28.0973 50.0391 27.3437 50.0391C26.7595 50.0391 26.1288 49.6716 25.568 49.0046C25.0825 48.4267 24.22 48.352 23.6422 48.838C23.0638 49.324 22.9896 50.1865 23.475 50.7643C24.2061 51.6338 25.0654 52.2394 25.9765 52.5449V54.1406C25.9765 54.8958 26.5886 55.5078 27.3437 55.5078C28.0989 55.5078 28.7109 54.8958 28.7109 54.1406V52.5385C30.3019 51.974 31.4453 50.454 31.4453 48.6719C31.4453 46.4101 29.6055 44.5703 27.3437 44.5703Z" fill="#E6E6E6"/>
<path d="M16.4062 22.6953C17.1614 22.6953 17.7734 22.0833 17.7734 21.3281V15.8594C17.7734 15.1042 17.1614 14.4922 16.4062 14.4922C15.6511 14.4922 15.0391 15.1042 15.0391 15.8594V21.3281C15.0391 22.0833 15.6511 22.6953 16.4062 22.6953Z" fill="#E6E6E6"/>
<path d="M64.5312 32.2656V21.3281C64.5312 17.5587 61.4647 14.4922 57.6953 14.4922H50.0391V4.10156C50.0391 1.83983 48.1992 0 45.9375 0H20.5078C18.2461 0 16.4062 1.83983 16.4062 4.10156V9.02344H12.3047C10.043 9.02344 8.20312 10.8633 8.20312 13.125V14.4922H6.83594C3.06656 14.4922 0 17.5587 0 21.3281V63.1641C0 66.9334 3.06656 70 6.83594 70H48.6719C51.9729 70 54.735 67.648 55.37 64.5312H57.6953C61.4647 64.5312 64.5312 61.4647 64.5312 57.6953V54.1406H65.8984C68.1602 54.1406 70 52.3008 70 50.0391V37.7344C70 34.7191 67.5465 32.2656 64.5312 32.2656ZM67.2656 37.7344C67.2656 39.2447 66.0416 40.4688 64.5312 40.4688V35C66.0389 35 67.2656 36.2267 67.2656 37.7344ZM57.6953 17.2266C59.957 17.2266 61.7969 19.0664 61.7969 21.3281V40.4688H55.5078V32.2656C55.5078 28.9646 53.1558 26.2025 50.0391 25.5675V17.2266H57.6953ZM19.1406 4.10156C19.1406 3.34747 19.7537 2.73438 20.5078 2.73438H45.9375C46.6916 2.73438 47.3047 3.34747 47.3047 4.10156V25.4297H41.0156V13.125C41.0156 10.8633 39.1758 9.02344 36.9141 9.02344H19.1406V4.10156ZM32.8125 25.4297V11.7578H36.9141C37.6682 11.7578 38.2812 12.3709 38.2812 13.125V25.4297H32.8125ZM24.6094 25.4297V11.7578H30.0781V25.4297H24.6094ZM10.9375 13.125C10.9375 12.3709 11.5506 11.7578 12.3047 11.7578H21.875V25.4297H10.9375V13.125ZM6.83594 17.2266H8.20312V25.4297H7.1286C4.869 25.4297 2.73438 23.7933 2.73438 21.3281C2.73438 19.0664 4.5742 17.2266 6.83594 17.2266ZM48.6719 67.2656H6.83594C4.5742 67.2656 2.73438 65.4258 2.73438 63.1641V26.7125C3.95683 27.6231 5.49225 28.1641 7.1286 28.1641H48.6719C50.9336 28.1641 52.7734 30.0039 52.7734 32.2656V40.4688H43.2031C40.9414 40.4688 39.1016 42.3086 39.1016 44.5703V50.0391C39.1016 52.3008 40.9414 54.1406 43.2031 54.1406H52.7734V63.1641C52.7734 65.4258 50.9336 67.2656 48.6719 67.2656ZM61.7969 57.6953C61.7969 59.957 59.957 61.7969 57.6953 61.7969H55.5078V54.1406H61.7969V57.6953ZM65.8984 51.4062H43.2031C42.449 51.4062 41.8359 50.7932 41.8359 50.0391V44.5703C41.8359 43.8162 42.449 43.2031 43.2031 43.2031H64.5312C65.507 43.2031 66.4432 42.9478 67.2656 42.4709V50.0391C67.2656 50.7932 66.6525 51.4062 65.8984 51.4062Z" fill="#E6E6E6"/>
<path d="M57.6953 45.9375H51.4062C50.6511 45.9375 50.0391 46.5495 50.0391 47.3047C50.0391 48.0598 50.6511 48.6719 51.4062 48.6719H57.6953C58.4505 48.6719 59.0625 48.0598 59.0625 47.3047C59.0625 46.5495 58.4505 45.9375 57.6953 45.9375Z" fill="#E6E6E6"/>
</svg>
